M48
;Layer_Color=9474304
;FILE_FORMAT=4:4
METRIC,LZ
;TYPE=PLATED
T1F00S00C0.3000
T2F00S00C0.4000
T3F00S00C0.4700
T4F00S00C0.5000
T5F00S00C0.7000
T6F00S00C0.7500
T7F00S00C0.8000
T8F00S00C0.8500
T9F00S00C0.9000
T10F00S00C1.0000
T11F00S00C1.0100
T12F00S00C1.2000
T13F00S00C1.3000
T14F00S00C1.4000
T15F00S00C3.0000
%
T01
X0057531Y-0029718
X0061214Y-0027559
X006096Y-0026289
X0067691Y-0027559
X00683811Y-00250571
X0069723Y-0024511
X0071399Y-0024994
X0070739Y-0021971
X00685429Y-0018864
X0069215Y-0015748
X0070231Y-0014478
X0061341Y-0014732
X0061087Y-0011938
X006096Y-001016
X005842Y-0007239
X0055753Y-0016129
X0052451Y-00163318
X0051562Y-0015367
X0050419Y-0017653
X0053086
X0057912Y-0018796
X0065278Y-0030226
X00468256Y-00146404
X0044577Y-0015367
X0040005Y-0017145
X0019939Y-0014986
X0015875Y-0017399
X0014224
X00114555Y-00194055
X0018619Y-0021574
X0018542Y-0022349
X00101517Y-00127827
X001016Y-001143
X0018288Y-0004826
X0017907Y-0001524
X0015748
X0016891Y0001397
X0029718
X00426005Y00013975
X0041275Y0004318
Y-0001651
X0041808Y-0004547
X0040259Y-0004699
X0038989
X0037592Y-0004572
X004299Y-0003747
X0045974Y-0000762
X0046863Y0000254
X0048387Y0001397
X0044196Y001016
X005842Y-000127
T02
X00439785Y-00163758
X0025146Y0008763
T03
X0023495Y0016937
Y0017907
T04
X0015748Y0008509
X0017018Y0009652
X00189085Y0007366
X0023114Y000762
X0020574Y0019177
X00883975Y00159464
X0088519Y0008636
T05
X002794Y0012319
X002994
X0065183Y0012827
X0067183
T06
X00763424Y-00069096
X00858162Y-0006933
Y0003767
X00763424Y00037904
T07
X0058039Y0023114
X0063039
T08
X0038053Y0023241
X0043053
T09
X0050165Y-0035941
X0052705
X0053848Y-0027559
X0051308
X0083058Y-0029969
Y-0021969
X0048768Y-0027559
X0046228
X0043688
X0045085Y-0035941
X0047625
T10
X00711252Y-00070872
X00805351Y-00071002
Y-00034573
X00711252Y-00034442
T11
X0072136Y-0011811
X0073406Y-0009811
X0070866
X00803396Y-00098057
X00828796
X00816096Y-00118057
T12
X0009381Y0010621
X0013081Y0015621
Y0005621
T13
X00711892Y00078988
Y00127248
Y00178048
X00805992Y00177917
Y00127118
Y00078857
T14
X0047195Y0031989
X0050595
X0053995
X0052295Y0036449
X0048895
T15
X007786Y-0035941
X002286
X007786Y0034059
X002286
M30
