G04*
G04 #@! TF.GenerationSoftware,Altium Limited,Altium Designer,20.0.13 (296)*
G04*
G04 Layer_Color=255*
%FSLAX44Y44*%
%MOMM*%
G71*
G01*
G75*
%ADD18R,1.7500X1.0500*%
%ADD19R,1.8200X0.6200*%
%ADD20R,1.1450X0.5500*%
%ADD21R,0.5500X1.1450*%
%ADD22R,0.7500X0.2000*%
%ADD23R,0.2000X0.7500*%
%ADD24R,1.5900X1.7500*%
%ADD25R,1.1500X1.8000*%
%ADD26R,1.0500X1.7500*%
%ADD27R,0.6200X1.8200*%
%ADD28R,1.1500X1.7000*%
%ADD29R,1.8000X2.0500*%
%ADD30R,0.6500X1.5250*%
%ADD31R,1.9300X1.1700*%
%ADD32R,0.9500X0.5500*%
%ADD33R,1.0200X1.7800*%
%ADD34R,0.9500X1.3000*%
%ADD35R,3.2500X1.3000*%
%ADD36R,0.8000X0.3000*%
%ADD37R,1.7500X1.5500*%
%ADD38R,1.8000X2.3000*%
%ADD39R,2.3000X1.8000*%
%ADD40R,1.7000X1.1500*%
%ADD41R,1.1000X0.3000*%
%ADD42R,1.5000X0.6000*%
%ADD43R,0.6000X1.5000*%
%ADD44R,1.4000X1.8000*%
%ADD45R,1.4000X1.6000*%
%ADD46R,2.2000X1.2000*%
%ADD47R,1.4000X0.7000*%
%ADD48R,2.4000X2.0000*%
%ADD111C,1.5000*%
%ADD112R,1.5000X1.5000*%
%ADD113C,1.9500*%
%ADD114C,1.5080*%
%ADD115R,1.5080X1.5080*%
%ADD116R,2.1000X2.1000*%
%ADD117C,2.1000*%
%ADD118C,0.8000*%
%ADD119C,1.8000*%
%ADD120R,1.2000X1.2000*%
%ADD121C,1.2000*%
%ADD122R,1.2750X1.2750*%
%ADD123C,1.2750*%
%ADD124R,1.1000X1.1000*%
%ADD125C,1.1000*%
%ADD126C,1.4000*%
%ADD127R,1.1500X1.1500*%
%ADD128C,1.1500*%
%ADD129R,1.5150X1.5150*%
%ADD130C,1.5150*%
D18*
X180650Y-116272D02*
D03*
Y-145272D02*
D03*
X161290Y-271040D02*
D03*
Y-242040D02*
D03*
X214630Y-271040D02*
D03*
Y-242040D02*
D03*
X83670Y-116272D02*
D03*
Y-145272D02*
D03*
X504190Y-211880D02*
D03*
Y-182880D02*
D03*
X530860Y-211880D02*
D03*
Y-182880D02*
D03*
X859790Y-93450D02*
D03*
Y-122450D02*
D03*
X765810Y-94720D02*
D03*
Y-123720D02*
D03*
D19*
X134620Y-240540D02*
D03*
Y-272540D02*
D03*
X187960Y-241810D02*
D03*
Y-273810D02*
D03*
D20*
X113835Y-127455D02*
D03*
X155785D02*
D03*
D21*
X114810Y-116480D02*
D03*
X122810D02*
D03*
X130810D02*
D03*
X138810D02*
D03*
X146810D02*
D03*
X154810D02*
D03*
Y-138430D02*
D03*
X146810D02*
D03*
X138810D02*
D03*
X130810D02*
D03*
X122810D02*
D03*
X114810D02*
D03*
D22*
X143750Y-195740D02*
D03*
Y-199740D02*
D03*
Y-203740D02*
D03*
Y-207740D02*
D03*
Y-211740D02*
D03*
Y-215740D02*
D03*
X173750D02*
D03*
Y-211740D02*
D03*
Y-207740D02*
D03*
Y-203740D02*
D03*
Y-199740D02*
D03*
Y-195740D02*
D03*
D23*
X148750Y-220740D02*
D03*
X152750D02*
D03*
X156750D02*
D03*
X160750D02*
D03*
X164750D02*
D03*
X168750D02*
D03*
Y-190740D02*
D03*
X164750D02*
D03*
X160750D02*
D03*
X156750D02*
D03*
X152750D02*
D03*
X148750D02*
D03*
D24*
X158750Y-205740D02*
D03*
D25*
X520460Y181610D02*
D03*
X490460D02*
D03*
X216380Y248920D02*
D03*
X246380D02*
D03*
D26*
X229130Y-191770D02*
D03*
X200130D02*
D03*
X80010Y-35560D02*
D03*
X109010D02*
D03*
X80010Y-59690D02*
D03*
X109010D02*
D03*
X80010Y-83820D02*
D03*
X109010D02*
D03*
X334750Y-19050D02*
D03*
X363750D02*
D03*
D27*
X230630Y-215900D02*
D03*
X198630D02*
D03*
X267460Y15240D02*
D03*
X235460D02*
D03*
D28*
X490220Y246380D02*
D03*
X520220D02*
D03*
X217170Y212090D02*
D03*
X247170D02*
D03*
X581900Y-313690D02*
D03*
X611900D02*
D03*
X684050D02*
D03*
X654050D02*
D03*
D29*
X348920Y334010D02*
D03*
X402920D02*
D03*
D30*
X231140Y91810D02*
D03*
X218440D02*
D03*
X205740D02*
D03*
X193040D02*
D03*
Y146050D02*
D03*
X205740D02*
D03*
X218440D02*
D03*
X231140D02*
D03*
D31*
X433070Y356530D02*
D03*
Y314030D02*
D03*
D32*
X204650Y1670D02*
D03*
Y14170D02*
D03*
Y26670D02*
D03*
Y39170D02*
D03*
X184150D02*
D03*
Y26670D02*
D03*
Y14170D02*
D03*
Y1670D02*
D03*
D33*
X265430Y-11430D02*
D03*
X237830D02*
D03*
Y41910D02*
D03*
X265430D02*
D03*
X608160Y115570D02*
D03*
X580560D02*
D03*
X694520Y-219710D02*
D03*
X666920D02*
D03*
X545930Y115570D02*
D03*
X518330D02*
D03*
X483700D02*
D03*
X456100D02*
D03*
X424010D02*
D03*
X396410D02*
D03*
X346880Y140970D02*
D03*
X374480D02*
D03*
X314790Y-105410D02*
D03*
X287190D02*
D03*
X314790Y-66040D02*
D03*
X287190D02*
D03*
D34*
X273010Y209070D02*
D03*
X295910D02*
D03*
X318810D02*
D03*
D35*
X295910Y276070D02*
D03*
D36*
X162850Y-67190D02*
D03*
Y-62190D02*
D03*
Y-57190D02*
D03*
Y-52190D02*
D03*
X132850D02*
D03*
Y-57190D02*
D03*
Y-62190D02*
D03*
Y-67190D02*
D03*
D37*
X147850Y-59690D02*
D03*
D38*
X303530Y173990D02*
D03*
X274530D02*
D03*
D39*
X309880Y338350D02*
D03*
Y309350D02*
D03*
D40*
X579120Y-214870D02*
D03*
Y-244870D02*
D03*
X603250Y-214870D02*
D03*
Y-244870D02*
D03*
D41*
X666430Y-288740D02*
D03*
Y-282240D02*
D03*
Y-275740D02*
D03*
Y-269240D02*
D03*
Y-262740D02*
D03*
Y-256240D02*
D03*
Y-249740D02*
D03*
X626430D02*
D03*
Y-256240D02*
D03*
Y-262740D02*
D03*
Y-269240D02*
D03*
Y-275740D02*
D03*
Y-282240D02*
D03*
Y-288740D02*
D03*
D42*
X442880Y-37470D02*
D03*
Y-45470D02*
D03*
Y-53470D02*
D03*
Y-61470D02*
D03*
Y-69470D02*
D03*
Y-77470D02*
D03*
Y-85470D02*
D03*
Y-93470D02*
D03*
Y-101470D02*
D03*
Y-109470D02*
D03*
Y-117470D02*
D03*
X557880D02*
D03*
Y-109470D02*
D03*
Y-101470D02*
D03*
Y-93470D02*
D03*
Y-85470D02*
D03*
Y-77470D02*
D03*
Y-69470D02*
D03*
Y-61470D02*
D03*
Y-53470D02*
D03*
Y-45470D02*
D03*
Y-37470D02*
D03*
D43*
X460380Y-134970D02*
D03*
X468380D02*
D03*
X476380D02*
D03*
X484380D02*
D03*
X492380D02*
D03*
X500380D02*
D03*
X508380D02*
D03*
X516380D02*
D03*
X524380D02*
D03*
X532380D02*
D03*
X540380D02*
D03*
Y-19970D02*
D03*
X532380D02*
D03*
X524380D02*
D03*
X516380D02*
D03*
X508380D02*
D03*
X500380D02*
D03*
X492380D02*
D03*
X484380D02*
D03*
X476380D02*
D03*
X468380D02*
D03*
X460380D02*
D03*
D44*
X518630Y140970D02*
D03*
X545630D02*
D03*
X580860Y142240D02*
D03*
X607860D02*
D03*
X457670Y140970D02*
D03*
X484670D02*
D03*
X396710D02*
D03*
X423710D02*
D03*
D45*
X730580Y-181690D02*
D03*
Y-330190D02*
D03*
D46*
X826580Y-172690D02*
D03*
Y-327690D02*
D03*
D47*
X724580Y-315690D02*
D03*
Y-304690D02*
D03*
Y-293690D02*
D03*
Y-282690D02*
D03*
Y-271690D02*
D03*
Y-260690D02*
D03*
Y-249690D02*
D03*
Y-238690D02*
D03*
Y-227690D02*
D03*
D48*
X349250Y-105090D02*
D03*
Y-65090D02*
D03*
D111*
X527050Y-359410D02*
D03*
X501650D02*
D03*
X476250D02*
D03*
X538480Y-275590D02*
D03*
X513080D02*
D03*
X487680D02*
D03*
X462280D02*
D03*
D112*
X450850Y-359410D02*
D03*
X436880Y-275590D02*
D03*
D113*
X805992Y177917D02*
D03*
Y127118D02*
D03*
Y78857D02*
D03*
X711892Y178048D02*
D03*
Y127248D02*
D03*
Y78988D02*
D03*
D114*
X805351Y-34573D02*
D03*
X711252Y-34442D02*
D03*
D115*
X805351Y-71002D02*
D03*
X711252Y-70872D02*
D03*
D116*
X471950Y319890D02*
D03*
D117*
X505950D02*
D03*
X539950D02*
D03*
X488950Y364490D02*
D03*
X522950D02*
D03*
D118*
X234950Y179070D02*
D03*
Y169370D02*
D03*
D119*
X130810Y156210D02*
D03*
Y56210D02*
D03*
X93810Y106210D02*
D03*
D120*
X630390Y231140D02*
D03*
D121*
X580390D02*
D03*
D122*
X380530Y232410D02*
D03*
D123*
X430530D02*
D03*
D124*
X651830Y128270D02*
D03*
X299400Y123190D02*
D03*
D125*
X671830Y128270D02*
D03*
X279400Y123190D02*
D03*
D126*
X830580Y-299690D02*
D03*
Y-219690D02*
D03*
D127*
X858162Y37670D02*
D03*
X763424Y37904D02*
D03*
D128*
X858162Y-69330D02*
D03*
X763424Y-69096D02*
D03*
D129*
X828796Y-98057D02*
D03*
X734060Y-98110D02*
D03*
D130*
X803396Y-98057D02*
D03*
X816096Y-118057D02*
D03*
X708660Y-98110D02*
D03*
X721360Y-118110D02*
D03*
M02*
