G04*
G04 #@! TF.GenerationSoftware,Altium Limited,Altium Designer,20.0.13 (296)*
G04*
G04 Layer_Color=65535*
%FSLAX44Y44*%
%MOMM*%
G71*
G01*
G75*
%ADD10C,0.2500*%
%ADD11C,0.3000*%
%ADD12C,0.2000*%
%ADD13C,0.4000*%
%ADD14C,0.0254*%
%ADD15C,0.1270*%
%ADD16C,0.1000*%
%ADD17C,0.2540*%
%ADD18C,0.5000*%
%ADD19C,0.1500*%
D10*
X4594400Y497138D02*
G03*
X4594400Y497138I-1250J0D01*
G01*
X4632310Y964058D02*
G03*
X4632310Y964058I-1000J0D01*
G01*
D11*
X4550073Y481698D02*
G03*
X4550073Y481698I-1423J0D01*
G01*
D12*
X4735090Y568408D02*
G03*
X4735090Y568408I-25000J0D01*
G01*
X4736540Y915618D02*
G03*
X4736540Y913618I0J-1000D01*
G01*
D02*
G03*
X4736540Y915618I0J1000D01*
G01*
X4426640Y709218D02*
G03*
X4426640Y709218I-25000J0D01*
G01*
X4425370Y794308D02*
G03*
X4425370Y794308I-25000J0D01*
G01*
X4613150Y510138D02*
X4624149D01*
X4654210Y479348D02*
Y504748D01*
X4781210D01*
X4654210Y479348D02*
X4781210D01*
Y504748D01*
X4419770Y911468D02*
Y914968D01*
X4371770Y911468D02*
Y914968D01*
X4419770Y947968D02*
Y951468D01*
X4371770Y947968D02*
Y951468D01*
Y911468D02*
X4419770D01*
X4371770Y951468D02*
X4419770D01*
X4446430Y934268D02*
Y969308D01*
X4511470D01*
Y934268D02*
Y969308D01*
X4446430Y934268D02*
X4511470D01*
X4447800Y911788D02*
Y924788D01*
X4470399Y848528D02*
X4481400D01*
X4470399Y831528D02*
X4481400D01*
X4460250Y803088D02*
X4494250D01*
X4460250Y821088D02*
X4494250D01*
X4534340Y803088D02*
X4568340D01*
X4534340Y821088D02*
X4568340D01*
X4404330Y988228D02*
X4411330D01*
X4404330Y971228D02*
X4411330D01*
X4396490Y900598D02*
X4407490D01*
X4396490Y883598D02*
X4407490D01*
X4382370Y873158D02*
X4416370D01*
X4382370Y855158D02*
X4416370D01*
X4527710Y935538D02*
Y970578D01*
X4592750D01*
Y935538D02*
Y970578D01*
X4527710Y935538D02*
X4592750D01*
X4529080Y913058D02*
Y926058D01*
X4544570Y831528D02*
X4555569D01*
X4544570Y848528D02*
X4555569D01*
X4360959Y976228D02*
Y983228D01*
X4375960Y976228D02*
Y983228D01*
X4610540Y803088D02*
X4644539D01*
X4610540Y821088D02*
X4644539D01*
X4621530Y831528D02*
X4632530D01*
X4621530Y848528D02*
X4632530D01*
X4915634Y646643D02*
X4959384D01*
X4915634Y619393D02*
X4959384D01*
X4371040Y635548D02*
X4531040D01*
X4371040Y475548D02*
X4531040D01*
X4371040Y602048D02*
Y610648D01*
Y576648D02*
Y585248D01*
Y551248D02*
Y559848D01*
Y525848D02*
Y534448D01*
Y500448D02*
Y509048D01*
X4531040Y602048D02*
Y610648D01*
Y576648D02*
Y585248D01*
Y551248D02*
Y559848D01*
Y525848D02*
Y534448D01*
Y500448D02*
Y509048D01*
X4865610Y641268D02*
X4874610D01*
X4865610Y624768D02*
X4874610D01*
X4488329Y674148D02*
X4581330D01*
X4488329D02*
Y767148D01*
X4581330D01*
Y674148D02*
Y767148D01*
X4654600Y563258D02*
Y574258D01*
X4671600Y563258D02*
Y574258D01*
X4658549Y676938D02*
Y690698D01*
X4699760Y750478D02*
Y764478D01*
Y711108D02*
Y725108D01*
X4396710Y759128D02*
X4403710D01*
X4396710Y743128D02*
X4403710D01*
X4396010Y677348D02*
X4407010D01*
X4396010Y662348D02*
X4407010D01*
X4394740Y843718D02*
X4405740D01*
X4394740Y828718D02*
X4405740D01*
D13*
X4597830Y668648D02*
G03*
X4597830Y668648I-2000J0D01*
G01*
X4436770Y911718D02*
Y951218D01*
X4453500Y803088D02*
Y821088D01*
X4527590Y803088D02*
Y821088D01*
X4423120Y855158D02*
Y873158D01*
X4360959Y955228D02*
X4375960D01*
X4603790Y803088D02*
Y821088D01*
X4977260Y619393D02*
Y646643D01*
D14*
X4418244Y583996D02*
X4475139D01*
X4418498Y584250D02*
X4475648D01*
X4418752Y584504D02*
X4476156D01*
X4419006Y584758D02*
X4476664D01*
X4419260Y585012D02*
X4477934D01*
X4419514Y585266D02*
X4478188D01*
X4419767Y585520D02*
X4478696D01*
X4420022Y585774D02*
X4479203D01*
X4420529Y586028D02*
X4479966D01*
X4420784Y586282D02*
X4480728D01*
X4421038Y586536D02*
X4482505D01*
X4421292Y586790D02*
X4500540D01*
X4421546Y587044D02*
X4500286D01*
X4421800Y587298D02*
X4500286D01*
X4422308Y587552D02*
X4500032D01*
X4422562Y587806D02*
X4499778D01*
X4422816Y588060D02*
X4499524D01*
X4423324Y588314D02*
X4499524D01*
X4423578Y588568D02*
X4499270D01*
X4423831Y588822D02*
X4499016D01*
X4424340Y589076D02*
X4498762D01*
X4424594Y589330D02*
X4498762D01*
X4425102Y589584D02*
X4476410D01*
X4425356Y589838D02*
X4476156D01*
X4429420Y590092D02*
X4475648D01*
X4429673Y590346D02*
X4475394D01*
X4403004Y512876D02*
X4475394D01*
X4402750Y513130D02*
X4475648D01*
X4402750Y513384D02*
X4476156D01*
X4402496Y513638D02*
X4476410D01*
X4402242Y513892D02*
X4476918D01*
X4422816Y514146D02*
X4477172D01*
X4423069Y514400D02*
X4477680D01*
X4423069Y514654D02*
X4477934D01*
X4423324Y514908D02*
X4478188D01*
X4422816Y515162D02*
X4478696D01*
X4422562Y515416D02*
X4478950D01*
X4422308Y515670D02*
X4479203D01*
X4421800Y515924D02*
X4479712D01*
X4421546Y516178D02*
X4479966D01*
X4421292Y516432D02*
X4480220D01*
X4421038Y516686D02*
X4480474D01*
X4420784Y516940D02*
X4480728D01*
X4420529Y517194D02*
X4480982D01*
X4420022Y517448D02*
X4481490D01*
X4419767Y517702D02*
X4481743D01*
X4419514Y517956D02*
X4481998D01*
X4419260Y518210D02*
X4482252D01*
X4419006Y518464D02*
X4482505D01*
X4418752Y518718D02*
X4482760D01*
X4418498Y518972D02*
X4483014D01*
X4418244Y519226D02*
X4483268D01*
X4417990Y519480D02*
X4483522D01*
X4417736Y519734D02*
X4483776D01*
X4417482Y519988D02*
X4484030D01*
X4417227Y520242D02*
X4484284D01*
X4416974Y520496D02*
X4484538D01*
X4416720Y520750D02*
X4484792D01*
X4416465Y521004D02*
X4485045D01*
X4416465Y521258D02*
X4485045D01*
X4416212Y521512D02*
X4485300D01*
X4415958Y521766D02*
X4485554D01*
X4415704Y522020D02*
X4485807D01*
X4415450Y522274D02*
X4486062D01*
X4415196Y522528D02*
X4486316D01*
X4414942Y522782D02*
X4486570D01*
X4414942Y523036D02*
X4486570D01*
X4414688Y523290D02*
X4486824D01*
X4414434Y523544D02*
X4487078D01*
X4414180Y523798D02*
X4487332D01*
X4414180Y524052D02*
X4487332D01*
X4413925Y524306D02*
X4487585D01*
X4413672Y524560D02*
X4487840D01*
X4413418Y524814D02*
X4488094D01*
X4413418Y525068D02*
X4488094D01*
X4413163Y525322D02*
X4488347D01*
X4412910Y525576D02*
X4488602D01*
X4412910Y525830D02*
X4488602D01*
X4412656Y526084D02*
X4488856D01*
X4412402Y526338D02*
X4489109D01*
X4412402Y526592D02*
X4489109D01*
X4412148Y526846D02*
X4489364D01*
X4411894Y527100D02*
X4489618D01*
X4411894Y527354D02*
X4489618D01*
X4411640Y527608D02*
X4489872D01*
X4411385Y527862D02*
X4490126D01*
X4411385Y528116D02*
X4490126D01*
X4411132Y528370D02*
X4490380D01*
X4424848Y496112D02*
X4475648D01*
X4424340Y496366D02*
X4476156D01*
X4423831Y496620D02*
X4476664D01*
X4423324Y496874D02*
X4477172D01*
X4422816Y497128D02*
X4477680D01*
X4422308Y497382D02*
X4478188D01*
X4421800Y497636D02*
X4478696D01*
X4421292Y497890D02*
X4479203D01*
X4420784Y498144D02*
X4479712D01*
X4420529Y498398D02*
X4479966D01*
X4420022Y498652D02*
X4480474D01*
X4419514Y498906D02*
X4480982D01*
X4419006Y499160D02*
X4481490D01*
X4418752Y499414D02*
X4481743D01*
X4418244Y499668D02*
X4482252D01*
X4417736Y499922D02*
X4482760D01*
X4417482Y500176D02*
X4483014D01*
X4416974Y500430D02*
X4483522D01*
X4416720Y500684D02*
X4483776D01*
X4416212Y500938D02*
X4484284D01*
X4415958Y501192D02*
X4484538D01*
X4415450Y501446D02*
X4485045D01*
X4415196Y501700D02*
X4485300D01*
X4414688Y501954D02*
X4485807D01*
X4414434Y502208D02*
X4486062D01*
X4414180Y502462D02*
X4486316D01*
X4413672Y502716D02*
X4486824D01*
X4413418Y502970D02*
X4487078D01*
X4413163Y503224D02*
X4487332D01*
X4412656Y503478D02*
X4487840D01*
X4412402Y503732D02*
X4488094D01*
X4412148Y503986D02*
X4488347D01*
X4411894Y504240D02*
X4488602D01*
X4411385Y504494D02*
X4489109D01*
X4405036Y550468D02*
X4434754D01*
X4409100Y570788D02*
X4459138D01*
X4429166Y591108D02*
X4474124D01*
X4431706Y509828D02*
X4469806D01*
X4410116Y530148D02*
X4454566D01*
X4429166Y591362D02*
X4473616D01*
X4428912Y591616D02*
X4473108D01*
X4428912Y591870D02*
X4472854D01*
X4429166Y592124D02*
X4472346D01*
X4429673Y592378D02*
X4471837D01*
X4430182Y592632D02*
X4471330D01*
X4430690Y592886D02*
X4470822D01*
X4431198Y593140D02*
X4470314D01*
X4431706Y593394D02*
X4469806D01*
X4432468Y593648D02*
X4469044D01*
X4432975Y593902D02*
X4468535D01*
X4433484Y594156D02*
X4468028D01*
X4434246Y594410D02*
X4467266D01*
X4432975Y607364D02*
X4445421D01*
X4432975Y607618D02*
X4452280D01*
X4432722Y607872D02*
X4452280D01*
X4432722Y608126D02*
X4452280D01*
X4432722Y608380D02*
X4452280D01*
X4432468Y608634D02*
X4452280D01*
X4432468Y608888D02*
X4452280D01*
X4432468Y609142D02*
X4452534D01*
X4432468Y609396D02*
X4452534D01*
X4432214Y609650D02*
X4452534D01*
X4432214Y609904D02*
X4452534D01*
X4432214Y610158D02*
X4452534D01*
X4432468Y610412D02*
X4452534D01*
X4433230Y610666D02*
X4452534D01*
X4434246Y610920D02*
X4452534D01*
X4409100Y571042D02*
X4459391D01*
X4409354Y571296D02*
X4459646D01*
X4409354Y571550D02*
X4459646D01*
X4409608Y571804D02*
X4459900D01*
X4409608Y572058D02*
X4460154D01*
X4409861Y572312D02*
X4460408D01*
X4409861Y572566D02*
X4460662D01*
X4410116Y572820D02*
X4460662D01*
X4410116Y573074D02*
X4460916D01*
X4410370Y573328D02*
X4461170D01*
X4410370Y573582D02*
X4461424D01*
X4410623Y573836D02*
X4461678D01*
X4410878Y574090D02*
X4461931D01*
X4410878Y574344D02*
X4462186D01*
X4411132Y574598D02*
X4462440D01*
X4411132Y574852D02*
X4462693D01*
X4411385Y575106D02*
X4462948D01*
X4411385Y575360D02*
X4463202D01*
X4411640Y575614D02*
X4463456D01*
X4411894Y575868D02*
X4463710D01*
X4411894Y576122D02*
X4463964D01*
X4412148Y576376D02*
X4464218D01*
X4412402Y576630D02*
X4464472D01*
X4412402Y576884D02*
X4464726D01*
X4412656Y577138D02*
X4464980D01*
X4412910Y577392D02*
X4465233D01*
X4412910Y577646D02*
X4465488D01*
X4413163Y577900D02*
X4465742D01*
X4413418Y578154D02*
X4466250D01*
X4413418Y578408D02*
X4466504D01*
X4413672Y578662D02*
X4466758D01*
X4413925Y578916D02*
X4467012D01*
X4414180Y579170D02*
X4467266D01*
X4414180Y579424D02*
X4467774D01*
X4414434Y579678D02*
X4468028D01*
X4414688Y579932D02*
X4468282D01*
X4414942Y580186D02*
X4468790D01*
X4414942Y580440D02*
X4469044D01*
X4415196Y580694D02*
X4469297D01*
X4415450Y580948D02*
X4469806D01*
X4415704Y581202D02*
X4470314D01*
X4415958Y581456D02*
X4470568D01*
X4416212Y581710D02*
X4471076D01*
X4416465Y581964D02*
X4472346D01*
X4416465Y582218D02*
X4471584D01*
X4416720Y582472D02*
X4472092D01*
X4416974Y582726D02*
X4472599D01*
X4417227Y582980D02*
X4472854D01*
X4417482Y583234D02*
X4473362D01*
X4417736Y583488D02*
X4473870D01*
X4417990Y583742D02*
X4474378D01*
X4429420Y590600D02*
X4474886D01*
X4429420Y590854D02*
X4474632D01*
X4405036Y550722D02*
X4435008D01*
X4405036Y550976D02*
X4435262D01*
X4405036Y551230D02*
X4435516D01*
X4405036Y551484D02*
X4435516D01*
X4405036Y551738D02*
X4435770D01*
X4405036Y551992D02*
X4436024D01*
X4405036Y552246D02*
X4436277D01*
X4405036Y552500D02*
X4436532D01*
X4405036Y552754D02*
X4436532D01*
X4405036Y553008D02*
X4436786D01*
X4405036Y553262D02*
X4437039D01*
X4405036Y553516D02*
X4437294D01*
X4405036Y553770D02*
X4437548D01*
X4405036Y554024D02*
X4437548D01*
X4405036Y554278D02*
X4437802D01*
X4405036Y554532D02*
X4438056D01*
X4405036Y554786D02*
X4440596D01*
X4405036Y555040D02*
X4450502D01*
X4405036Y555294D02*
X4450502D01*
X4405036Y555548D02*
X4450502D01*
X4405036Y555802D02*
X4450756D01*
X4405036Y556056D02*
X4450756D01*
X4405036Y556310D02*
X4450756D01*
X4405290Y556564D02*
X4451010D01*
X4405290Y556818D02*
X4451010D01*
X4405290Y557072D02*
X4451264D01*
X4405290Y557326D02*
X4451264D01*
X4405290Y557580D02*
X4451264D01*
X4405290Y557834D02*
X4451518D01*
X4405290Y558088D02*
X4451518D01*
X4405290Y558342D02*
X4451772D01*
X4405544Y558596D02*
X4451772D01*
X4405544Y558850D02*
X4451772D01*
X4405544Y559104D02*
X4452025D01*
X4405544Y559358D02*
X4452025D01*
X4405544Y559612D02*
X4452280D01*
X4405544Y559866D02*
X4452280D01*
X4405798Y560120D02*
X4452534D01*
X4405798Y560374D02*
X4452534D01*
X4405798Y560628D02*
X4452534D01*
X4405798Y560882D02*
X4452787D01*
X4405798Y561136D02*
X4452787D01*
X4406052Y561390D02*
X4453042D01*
X4406052Y561644D02*
X4453042D01*
X4406052Y561898D02*
X4453296D01*
X4406052Y562152D02*
X4453296D01*
X4406052Y562406D02*
X4453549D01*
X4406306Y562660D02*
X4453804D01*
X4406306Y562914D02*
X4453804D01*
X4406306Y563168D02*
X4454058D01*
X4406306Y563422D02*
X4454058D01*
X4406559Y563676D02*
X4454312D01*
X4406559Y563930D02*
X4454566D01*
X4406559Y564184D02*
X4454566D01*
X4406814Y564438D02*
X4454820D01*
X4406814Y564692D02*
X4455074D01*
X4406814Y564946D02*
X4455074D01*
X4406814Y565200D02*
X4455327D01*
X4407068Y565454D02*
X4455327D01*
X4407068Y565708D02*
X4455582D01*
X4407068Y565962D02*
X4455582D01*
X4407321Y566216D02*
X4455836D01*
X4407321Y566470D02*
X4456089D01*
X4407321Y566724D02*
X4456598D01*
X4407576Y566978D02*
X4456344D01*
X4407576Y567232D02*
X4456598D01*
X4407830Y567486D02*
X4456598D01*
X4407830Y567740D02*
X4456852D01*
X4407830Y567994D02*
X4457106D01*
X4408083Y568248D02*
X4457360D01*
X4408083Y568502D02*
X4457360D01*
X4408083Y568756D02*
X4457614D01*
X4408338Y569010D02*
X4457868D01*
X4408338Y569264D02*
X4458629D01*
X4408592Y569518D02*
X4458122D01*
X4408592Y569772D02*
X4458376D01*
X4408846Y570026D02*
X4458629D01*
X4408846Y570280D02*
X4458884D01*
X4408846Y570534D02*
X4458884D01*
X4410116Y530402D02*
X4454566D01*
X4409861Y530656D02*
X4454312D01*
X4409861Y530910D02*
X4454312D01*
X4409608Y531164D02*
X4454312D01*
X4409608Y531418D02*
X4454312D01*
X4409354Y531672D02*
X4454058D01*
X4409354Y531926D02*
X4454058D01*
X4409100Y532180D02*
X4454058D01*
X4409100Y532434D02*
X4454058D01*
X4408846Y532688D02*
X4454058D01*
X4408846Y532942D02*
X4454058D01*
X4408846Y533196D02*
X4453804D01*
X4408592Y533450D02*
X4453804D01*
X4408592Y533704D02*
X4453804D01*
X4408338Y533958D02*
X4453804D01*
X4408338Y534212D02*
X4454058D01*
X4408083Y534466D02*
X4453549D01*
X4408083Y534720D02*
X4453296D01*
X4408083Y534974D02*
X4453296D01*
X4407830Y535228D02*
X4453296D01*
X4407830Y535482D02*
X4453042D01*
X4407830Y535736D02*
X4453042D01*
X4407576Y535990D02*
X4453042D01*
X4407576Y536244D02*
X4453042D01*
X4407321Y536498D02*
X4453042D01*
X4407321Y536752D02*
X4453042D01*
X4407321Y537006D02*
X4452787D01*
X4407068Y537260D02*
X4452787D01*
X4407068Y537514D02*
X4452787D01*
X4407068Y537768D02*
X4452787D01*
X4406814Y538022D02*
X4452534D01*
X4406814Y538276D02*
X4452534D01*
X4406814Y538530D02*
X4452534D01*
X4406814Y538784D02*
X4452534D01*
X4406559Y539038D02*
X4452534D01*
X4406559Y539292D02*
X4452280D01*
X4406559Y539546D02*
X4452280D01*
X4406306Y539800D02*
X4452280D01*
X4406306Y540054D02*
X4452787D01*
X4406306Y540308D02*
X4452787D01*
X4406306Y540562D02*
X4452534D01*
X4406052Y540816D02*
X4452025D01*
X4406052Y541070D02*
X4452025D01*
X4406052Y541324D02*
X4452280D01*
X4406052Y541578D02*
X4451772D01*
X4406052Y541832D02*
X4448216D01*
X4405798Y542086D02*
X4447962D01*
X4405798Y542340D02*
X4447708D01*
X4405798Y542594D02*
X4447454D01*
X4405798Y542848D02*
X4446945D01*
X4405798Y543102D02*
X4446438D01*
X4405544Y543356D02*
X4446183D01*
X4405544Y543610D02*
X4445930D01*
X4405544Y543864D02*
X4445421D01*
X4405544Y544118D02*
X4445168D01*
X4405544Y544372D02*
X4444914D01*
X4405544Y544626D02*
X4444406D01*
X4405036Y549960D02*
X4434500D01*
X4405036Y550214D02*
X4434500D01*
X4431198Y510082D02*
X4470314D01*
X4430690Y510336D02*
X4470822D01*
X4430182Y510590D02*
X4471330D01*
X4429673Y510844D02*
X4471837D01*
X4429166Y511098D02*
X4472346D01*
X4428658Y511352D02*
X4472854D01*
X4428404Y511606D02*
X4473108D01*
X4404019Y511860D02*
X4473616D01*
X4403766Y512114D02*
X4474124D01*
X4403512Y512368D02*
X4474632D01*
X4403258Y512622D02*
X4474886D01*
X4411132Y528624D02*
X4455074D01*
X4410878Y528878D02*
X4454820D01*
X4410878Y529132D02*
X4454820D01*
X4410623Y529386D02*
X4454820D01*
X4410370Y529640D02*
X4454566D01*
X4410370Y529894D02*
X4454566D01*
X4434246Y492810D02*
X4466250D01*
X4433230Y493064D02*
X4467266D01*
X4432468Y493318D02*
X4468028D01*
X4431706Y493572D02*
X4468790D01*
X4430944Y493826D02*
X4469552D01*
X4430182Y494080D02*
X4470314D01*
X4429420Y494334D02*
X4471076D01*
X4428658Y494588D02*
X4471837D01*
X4427896Y494842D02*
X4472599D01*
X4427388Y495096D02*
X4473108D01*
X4426626Y495350D02*
X4473870D01*
X4426118Y495604D02*
X4474378D01*
X4425610Y495858D02*
X4474886D01*
X4411132Y504748D02*
X4450247D01*
X4410878Y505002D02*
X4445930D01*
X4410623Y505256D02*
X4443898D01*
X4410370Y505510D02*
X4442374D01*
X4409861Y505764D02*
X4441104D01*
X4409608Y506018D02*
X4439834D01*
X4409354Y506272D02*
X4438818D01*
X4409100Y506526D02*
X4438056D01*
X4408846Y506780D02*
X4437039D01*
X4408592Y507034D02*
X4436277D01*
X4408338Y507288D02*
X4435516D01*
X4408083Y507542D02*
X4434754D01*
X4434246Y508812D02*
X4467266D01*
X4433484Y509066D02*
X4468028D01*
X4432975Y509320D02*
X4468535D01*
X4432468Y509574D02*
X4469044D01*
X4497491Y550468D02*
X4511461D01*
X4458122D02*
X4496476D01*
X4493428Y570788D02*
X4508414D01*
X4475901D02*
X4492411D01*
X4463710D02*
X4466250D01*
X4475901Y591108D02*
X4497238D01*
X4436277Y611428D02*
X4452534D01*
X4471837Y509828D02*
X4494698D01*
X4492411Y530148D02*
X4507397D01*
X4456598D02*
X4491396D01*
X4389034Y550468D02*
X4404019D01*
X4392082Y570788D02*
X4408083D01*
X4424340Y591108D02*
X4425610D01*
X4403258D02*
X4417736D01*
X4405798Y509828D02*
X4429673D01*
X4393098Y530148D02*
X4409100D01*
X4437294Y611682D02*
X4452534D01*
X4438818Y611936D02*
X4452534D01*
X4440088Y612190D02*
X4452534D01*
X4441866Y612444D02*
X4452534D01*
X4444152Y612698D02*
X4452534D01*
X4475394Y591362D02*
X4496984D01*
X4475139Y591616D02*
X4496730D01*
X4474632Y591870D02*
X4496476D01*
X4474124Y592124D02*
X4496476D01*
X4473870Y592378D02*
X4496222D01*
X4473870Y592632D02*
X4495968D01*
X4473870Y592886D02*
X4495714D01*
X4474124Y593140D02*
X4495460D01*
X4474124Y593394D02*
X4495206D01*
X4474378Y593648D02*
X4494951D01*
X4474378Y593902D02*
X4494698D01*
X4474632Y594156D02*
X4494444D01*
X4474632Y594410D02*
X4494189D01*
X4474886Y594664D02*
X4493936D01*
X4435008D02*
X4466504D01*
X4474886Y594918D02*
X4493682D01*
X4435516D02*
X4465995D01*
X4475139Y595172D02*
X4493428D01*
X4436277D02*
X4465233D01*
X4475139Y595426D02*
X4493174D01*
X4437039D02*
X4464472D01*
X4475394Y595680D02*
X4492920D01*
X4438056D02*
X4463456D01*
X4475394Y595934D02*
X4492666D01*
X4438818D02*
X4462693D01*
X4475648Y596188D02*
X4492411D01*
X4439834D02*
X4461678D01*
X4475648Y596442D02*
X4492158D01*
X4441104D02*
X4460408D01*
X4475901Y596696D02*
X4491904D01*
X4442374D02*
X4459138D01*
X4475901Y596950D02*
X4491649D01*
X4443898D02*
X4457614D01*
X4476156Y597204D02*
X4491396D01*
X4464726D02*
X4465233D01*
X4476156Y597458D02*
X4491142D01*
X4463964D02*
X4465488D01*
X4476410Y597712D02*
X4490887D01*
X4462948D02*
X4465488D01*
X4476410Y597966D02*
X4490634D01*
X4462440D02*
X4465488D01*
X4476664Y598220D02*
X4490126D01*
X4462440D02*
X4465742D01*
X4439579D02*
X4445930D01*
X4476664Y598474D02*
X4489872D01*
X4462693D02*
X4465742D01*
X4476918Y598728D02*
X4489618D01*
X4462693D02*
X4465742D01*
X4476918Y598982D02*
X4489364D01*
X4462693D02*
X4465995D01*
X4477172Y599236D02*
X4489109D01*
X4462948D02*
X4465995D01*
X4444406D02*
X4444660D01*
X4477172Y599490D02*
X4488602D01*
X4462948D02*
X4465995D01*
X4444406D02*
X4447200D01*
X4477426Y599744D02*
X4488347D01*
X4462948D02*
X4465995D01*
X4444406D02*
X4447200D01*
X4477426Y599998D02*
X4488094D01*
X4463202D02*
X4466250D01*
X4444406D02*
X4447200D01*
X4477426Y600252D02*
X4487840D01*
X4463202D02*
X4466250D01*
X4444406D02*
X4447200D01*
X4477172Y600506D02*
X4487332D01*
X4463202D02*
X4466250D01*
X4444406D02*
X4447200D01*
X4476918Y600760D02*
X4487078D01*
X4463202D02*
X4466504D01*
X4444152D02*
X4447200D01*
X4476410Y601014D02*
X4486824D01*
X4463456D02*
X4466504D01*
X4444152D02*
X4447200D01*
X4475648Y601268D02*
X4486316D01*
X4463456D02*
X4466504D01*
X4444152D02*
X4447962D01*
X4474886Y601522D02*
X4486062D01*
X4463456D02*
X4466504D01*
X4444152D02*
X4452025D01*
X4474124Y601776D02*
X4485807D01*
X4463710D02*
X4466758D01*
X4444152D02*
X4452025D01*
X4474124Y602030D02*
X4485300D01*
X4463710D02*
X4466758D01*
X4444152D02*
X4452025D01*
X4463710Y602284D02*
X4466758D01*
X4444152D02*
X4452025D01*
X4463964Y602538D02*
X4467012D01*
X4444152D02*
X4452025D01*
X4463964Y602792D02*
X4467012D01*
X4463964Y603046D02*
X4467012D01*
X4463964Y603300D02*
X4467266D01*
X4464218Y603554D02*
X4467266D01*
X4443898D02*
X4445168D01*
X4464218Y603808D02*
X4467266D01*
X4443898D02*
X4446945D01*
X4464218Y604062D02*
X4467012D01*
X4443898D02*
X4446945D01*
X4464472Y604316D02*
X4465995D01*
X4443898D02*
X4446945D01*
X4464472Y604570D02*
X4465233D01*
X4443898D02*
X4446692D01*
X4443898Y604824D02*
X4446692D01*
X4443898Y605078D02*
X4446692D01*
X4443898Y605332D02*
X4446692D01*
X4464726Y605586D02*
X4479712D01*
X4443898D02*
X4446692D01*
X4458629Y605840D02*
X4479203D01*
X4443898D02*
X4446692D01*
X4458629Y606094D02*
X4478696D01*
X4443643D02*
X4446692D01*
X4458629Y606348D02*
X4478188D01*
X4443643D02*
X4446692D01*
X4458884Y606602D02*
X4477680D01*
X4458884Y606856D02*
X4477172D01*
X4453296Y607110D02*
X4476664D01*
X4453296Y607364D02*
X4476156D01*
X4453296Y607618D02*
X4475648D01*
X4453296Y607872D02*
X4474886D01*
X4453296Y608126D02*
X4474378D01*
X4453296Y608380D02*
X4473870D01*
X4453296Y608634D02*
X4473108D01*
X4453296Y608888D02*
X4472599D01*
X4459138Y609142D02*
X4471837D01*
X4459138Y609396D02*
X4471076D01*
X4459138Y609650D02*
X4470314D01*
X4459391Y609904D02*
X4469552D01*
X4459391Y610158D02*
X4468790D01*
X4459391Y610412D02*
X4468028D01*
X4453549Y610666D02*
X4467266D01*
X4453549Y610920D02*
X4466250D01*
X4453549Y611174D02*
X4465233D01*
X4435262D02*
X4452534D01*
X4493428Y571042D02*
X4508414D01*
X4476156D02*
X4492411D01*
X4463456D02*
X4466250D01*
X4493174Y571296D02*
X4508159D01*
X4476156D02*
X4492158D01*
X4463456D02*
X4466250D01*
X4493174Y571550D02*
X4508159D01*
X4476410D02*
X4492158D01*
X4463456D02*
X4465995D01*
X4492920Y571804D02*
X4508159D01*
X4476410D02*
X4491904D01*
X4463456D02*
X4466250D01*
X4492920Y572058D02*
X4507906D01*
X4476664D02*
X4491904D01*
X4463456D02*
X4466250D01*
X4492666Y572312D02*
X4507906D01*
X4476664D02*
X4491649D01*
X4463456D02*
X4466250D01*
X4492666Y572566D02*
X4507906D01*
X4476918D02*
X4491649D01*
X4463456D02*
X4466250D01*
X4492411Y572820D02*
X4507652D01*
X4477172D02*
X4491396D01*
X4463456D02*
X4466250D01*
X4492411Y573074D02*
X4507652D01*
X4477172D02*
X4491396D01*
X4463456D02*
X4466504D01*
X4492158Y573328D02*
X4507652D01*
X4477426D02*
X4491142D01*
X4463710D02*
X4466504D01*
X4492158Y573582D02*
X4507397D01*
X4477426D02*
X4491142D01*
X4463710D02*
X4466504D01*
X4491904Y573836D02*
X4507397D01*
X4477680D02*
X4490887D01*
X4463710D02*
X4466758D01*
X4491904Y574090D02*
X4507397D01*
X4477680D02*
X4490634D01*
X4463964D02*
X4467012D01*
X4491649Y574344D02*
X4507144D01*
X4477934D02*
X4490634D01*
X4463964D02*
X4467266D01*
X4491649Y574598D02*
X4507144D01*
X4477934D02*
X4490380D01*
X4464218D02*
X4467520D01*
X4491396Y574852D02*
X4506890D01*
X4478188D02*
X4490380D01*
X4464472D02*
X4468028D01*
X4491142Y575106D02*
X4506890D01*
X4478441D02*
X4490126D01*
X4464472D02*
X4471584D01*
X4491142Y575360D02*
X4506890D01*
X4478441D02*
X4490126D01*
X4464980D02*
X4471330D01*
X4490887Y575614D02*
X4506636D01*
X4478696D02*
X4489872D01*
X4464980D02*
X4471076D01*
X4490887Y575868D02*
X4506636D01*
X4478696D02*
X4489618D01*
X4490634Y576122D02*
X4506382D01*
X4478950D02*
X4489618D01*
X4490380Y576376D02*
X4506382D01*
X4479203D02*
X4489364D01*
X4464726D02*
X4465233D01*
X4490380Y576630D02*
X4506128D01*
X4479203D02*
X4489109D01*
X4464726D02*
X4465233D01*
X4490126Y576884D02*
X4506128D01*
X4479458D02*
X4489109D01*
X4464980D02*
X4465488D01*
X4490126Y577138D02*
X4506128D01*
X4479712D02*
X4488856D01*
X4489872Y577392D02*
X4505874D01*
X4479712D02*
X4488602D01*
X4489618Y577646D02*
X4505874D01*
X4479966D02*
X4488602D01*
X4489618Y577900D02*
X4505620D01*
X4479966D02*
X4488347D01*
X4489364Y578154D02*
X4505620D01*
X4480220D02*
X4488094D01*
X4480474Y578408D02*
X4488094D01*
X4480474Y578662D02*
X4488094D01*
X4480728Y578916D02*
X4488347D01*
X4480728Y579170D02*
X4505112D01*
X4480982Y579424D02*
X4504857D01*
X4480982Y579678D02*
X4504857D01*
X4481236Y579932D02*
X4504604D01*
X4481236Y580186D02*
X4504604D01*
X4481490Y580440D02*
X4504350D01*
X4481490Y580694D02*
X4504350D01*
X4481490Y580948D02*
X4504095D01*
X4481743Y581202D02*
X4504095D01*
X4481743Y581456D02*
X4503842D01*
X4481998Y581710D02*
X4503588D01*
X4481998Y581964D02*
X4503588D01*
X4482252Y582218D02*
X4503334D01*
X4482252Y582472D02*
X4503334D01*
X4482505Y582726D02*
X4503080D01*
X4482505Y582980D02*
X4503080D01*
X4482760Y583234D02*
X4502826D01*
X4482760Y583488D02*
X4502572D01*
X4483014Y583742D02*
X4502572D01*
X4483014Y583996D02*
X4502318D01*
X4483268Y584250D02*
X4502318D01*
X4483268Y584504D02*
X4502064D01*
X4483268Y584758D02*
X4501810D01*
X4483522Y585012D02*
X4501810D01*
X4483522Y585266D02*
X4501555D01*
X4483522Y585520D02*
X4501302D01*
X4483776Y585774D02*
X4501302D01*
X4483776Y586028D02*
X4501048D01*
X4483776Y586282D02*
X4500793D01*
X4483776Y586536D02*
X4500793D01*
X4476664Y589584D02*
X4498508D01*
X4477680Y589838D02*
X4498253D01*
X4477426Y590092D02*
X4498000D01*
X4477172Y590346D02*
X4497746D01*
X4476664Y590600D02*
X4497746D01*
X4476410Y590854D02*
X4497491D01*
Y550722D02*
X4511461D01*
X4458122D02*
X4496476D01*
X4497491Y550976D02*
X4511461D01*
X4458122D02*
X4496476D01*
X4497746Y551230D02*
X4511461D01*
X4458629D02*
X4496476D01*
X4497746Y551484D02*
X4511461D01*
X4458884D02*
X4496476D01*
X4497746Y551738D02*
X4511461D01*
X4459138D02*
X4496476D01*
X4497746Y551992D02*
X4511461D01*
X4459391D02*
X4496476D01*
X4497491Y552246D02*
X4511461D01*
X4459391D02*
X4496476D01*
X4497491Y552500D02*
X4511461D01*
X4459646D02*
X4496476D01*
X4497491Y552754D02*
X4511461D01*
X4459900D02*
X4496476D01*
X4497491Y553008D02*
X4511461D01*
X4460154D02*
X4496476D01*
X4497491Y553262D02*
X4511461D01*
X4460408D02*
X4496476D01*
X4497491Y553516D02*
X4511461D01*
X4460662D02*
X4496476D01*
X4497491Y553770D02*
X4511461D01*
X4460916D02*
X4496476D01*
X4497491Y554024D02*
X4511461D01*
X4461170D02*
X4496476D01*
X4497491Y554278D02*
X4511208D01*
X4461424D02*
X4496476D01*
X4444660D02*
X4446692D01*
X4497491Y554532D02*
X4511208D01*
X4461678D02*
X4496476D01*
X4497491Y554786D02*
X4511208D01*
X4461931D02*
X4496476D01*
X4441358D02*
X4450247D01*
X4497491Y555040D02*
X4511208D01*
X4462186D02*
X4496476D01*
X4497491Y555294D02*
X4511208D01*
X4462440D02*
X4496476D01*
X4497491Y555548D02*
X4511208D01*
X4462693D02*
X4496476D01*
X4497491Y555802D02*
X4511208D01*
X4462948D02*
X4496476D01*
X4497491Y556056D02*
X4511208D01*
X4463202D02*
X4496476D01*
X4497491Y556310D02*
X4511208D01*
X4463456D02*
X4496476D01*
X4497238Y556564D02*
X4511208D01*
X4463710D02*
X4496222D01*
X4497238Y556818D02*
X4511208D01*
X4463964D02*
X4496222D01*
X4497238Y557072D02*
X4511208D01*
X4464218D02*
X4496222D01*
X4497238Y557326D02*
X4511208D01*
X4464472D02*
X4496222D01*
X4497238Y557580D02*
X4511208D01*
X4464726D02*
X4496222D01*
X4497238Y557834D02*
X4511208D01*
X4464980D02*
X4496222D01*
X4497238Y558088D02*
X4510954D01*
X4465233D02*
X4496222D01*
X4497238Y558342D02*
X4510954D01*
X4465488D02*
X4496222D01*
X4464726D02*
X4464980D01*
X4496984Y558596D02*
X4510954D01*
X4465742D02*
X4495968D01*
X4464980D02*
X4465233D01*
X4496984Y558850D02*
X4510954D01*
X4465742D02*
X4495968D01*
X4496984Y559104D02*
X4510954D01*
X4465995D02*
X4495968D01*
X4496984Y559358D02*
X4510954D01*
X4476410D02*
X4495968D01*
X4496984Y559612D02*
X4510954D01*
X4476410D02*
X4495968D01*
X4496984Y559866D02*
X4510954D01*
X4476156D02*
X4495968D01*
X4496730Y560120D02*
X4510954D01*
X4475901D02*
X4495714D01*
X4496730Y560374D02*
X4510699D01*
X4475901D02*
X4495714D01*
X4496730Y560628D02*
X4510699D01*
X4475648D02*
X4495714D01*
X4496730Y560882D02*
X4510699D01*
X4475394D02*
X4495714D01*
X4496730Y561136D02*
X4510699D01*
X4475394D02*
X4495714D01*
X4496476Y561390D02*
X4510699D01*
X4475139D02*
X4495460D01*
X4496476Y561644D02*
X4510699D01*
X4475139D02*
X4495460D01*
X4496476Y561898D02*
X4510699D01*
X4475139D02*
X4495460D01*
X4496476Y562152D02*
X4510446D01*
X4475139D02*
X4495460D01*
X4496222Y562406D02*
X4510446D01*
X4475139D02*
X4495460D01*
X4496222Y562660D02*
X4510446D01*
X4474886D02*
X4495206D01*
X4496222Y562914D02*
X4510446D01*
X4474886D02*
X4495206D01*
X4496222Y563168D02*
X4510446D01*
X4474886D02*
X4495206D01*
X4496222Y563422D02*
X4510192D01*
X4474886D02*
X4495206D01*
X4495968Y563676D02*
X4510192D01*
X4474886D02*
X4494951D01*
X4495968Y563930D02*
X4510192D01*
X4474886D02*
X4494951D01*
X4495968Y564184D02*
X4510192D01*
X4474886D02*
X4494951D01*
X4495714Y564438D02*
X4510192D01*
X4474886D02*
X4494698D01*
X4495714Y564692D02*
X4510192D01*
X4474886D02*
X4494698D01*
X4495714Y564946D02*
X4509938D01*
X4474886D02*
X4494698D01*
X4495714Y565200D02*
X4509938D01*
X4474886D02*
X4494698D01*
X4495460Y565454D02*
X4509938D01*
X4474886D02*
X4494444D01*
X4495460Y565708D02*
X4509938D01*
X4474886D02*
X4494444D01*
X4495460Y565962D02*
X4509684D01*
X4474886D02*
X4494444D01*
X4495206Y566216D02*
X4509684D01*
X4474886D02*
X4494189D01*
X4495206Y566470D02*
X4509684D01*
X4474886D02*
X4494189D01*
X4495206Y566724D02*
X4509684D01*
X4474886D02*
X4494189D01*
X4494951Y566978D02*
X4509430D01*
X4474886D02*
X4493936D01*
X4494951Y567232D02*
X4509430D01*
X4474886D02*
X4493936D01*
X4494951Y567486D02*
X4509430D01*
X4474886D02*
X4493682D01*
X4494698Y567740D02*
X4509430D01*
X4474886D02*
X4493682D01*
X4494698Y567994D02*
X4509176D01*
X4474378D02*
X4493682D01*
X4494444Y568248D02*
X4509176D01*
X4475139D02*
X4493428D01*
X4494444Y568502D02*
X4509176D01*
X4475139D02*
X4493428D01*
X4464980D02*
X4471330D01*
X4494444Y568756D02*
X4509176D01*
X4475139D02*
X4493428D01*
X4464726D02*
X4471330D01*
X4494189Y569010D02*
X4508922D01*
X4475394D02*
X4493174D01*
X4464472D02*
X4468028D01*
X4494189Y569264D02*
X4508922D01*
X4475394D02*
X4493174D01*
X4464218D02*
X4467520D01*
X4493936Y569518D02*
X4508922D01*
X4475394D02*
X4492920D01*
X4464218D02*
X4467012D01*
X4493936Y569772D02*
X4508668D01*
X4475394D02*
X4492920D01*
X4463964D02*
X4467012D01*
X4493936Y570026D02*
X4508668D01*
X4475648D02*
X4492666D01*
X4463964D02*
X4466758D01*
X4493682Y570280D02*
X4508668D01*
X4475648D02*
X4492666D01*
X4463710D02*
X4466504D01*
X4493682Y570534D02*
X4508414D01*
X4475901D02*
X4492666D01*
X4463710D02*
X4466504D01*
X4492411Y530402D02*
X4507652D01*
X4456852D02*
X4491396D01*
X4492666Y530656D02*
X4507652D01*
X4457106D02*
X4491649D01*
X4492666Y530910D02*
X4507652D01*
X4457106D02*
X4491649D01*
X4492920Y531164D02*
X4507906D01*
X4457360D02*
X4491904D01*
X4492920Y531418D02*
X4507906D01*
X4457614D02*
X4491904D01*
X4493174Y531672D02*
X4507906D01*
X4457614D02*
X4492158D01*
X4493174Y531926D02*
X4508159D01*
X4457614D02*
X4492158D01*
X4493428Y532180D02*
X4508159D01*
X4457360D02*
X4492411D01*
X4493428Y532434D02*
X4508159D01*
X4457360D02*
X4492411D01*
X4493682Y532688D02*
X4508414D01*
X4457360D02*
X4492666D01*
X4493682Y532942D02*
X4508414D01*
X4457360D02*
X4492666D01*
X4493936Y533196D02*
X4508414D01*
X4457106D02*
X4492666D01*
X4493936Y533450D02*
X4508668D01*
X4457106D02*
X4492920D01*
X4493936Y533704D02*
X4508668D01*
X4457106D02*
X4492920D01*
X4494189Y533958D02*
X4508668D01*
X4457106D02*
X4493174D01*
X4494189Y534212D02*
X4508922D01*
X4456852D02*
X4493174D01*
X4494444Y534466D02*
X4508922D01*
X4456852D02*
X4493428D01*
X4494444Y534720D02*
X4508922D01*
X4460662D02*
X4493428D01*
X4494444Y534974D02*
X4509176D01*
X4460916D02*
X4493428D01*
X4494698Y535228D02*
X4509176D01*
X4460662D02*
X4493682D01*
X4494698Y535482D02*
X4509176D01*
X4460662D02*
X4493682D01*
X4494951Y535736D02*
X4509176D01*
X4461424D02*
X4493682D01*
X4494951Y535990D02*
X4509430D01*
X4461678D02*
X4493936D01*
X4494951Y536244D02*
X4509430D01*
X4461424D02*
X4493936D01*
X4495206Y536498D02*
X4509430D01*
X4461424D02*
X4494189D01*
X4495206Y536752D02*
X4509430D01*
X4461424D02*
X4494189D01*
X4495206Y537006D02*
X4509684D01*
X4461424D02*
X4494189D01*
X4495460Y537260D02*
X4509684D01*
X4461170D02*
X4494444D01*
X4495460Y537514D02*
X4509684D01*
X4461170D02*
X4494444D01*
X4495460Y537768D02*
X4509684D01*
X4461170D02*
X4494444D01*
X4495714Y538022D02*
X4509938D01*
X4461170D02*
X4494698D01*
X4495714Y538276D02*
X4509938D01*
X4460916D02*
X4494698D01*
X4495714Y538530D02*
X4509938D01*
X4460916D02*
X4494698D01*
X4495714Y538784D02*
X4509938D01*
X4460916D02*
X4494698D01*
X4495968Y539038D02*
X4510192D01*
X4460916D02*
X4494951D01*
X4495968Y539292D02*
X4510192D01*
X4460916D02*
X4494951D01*
X4495968Y539546D02*
X4510192D01*
X4460916D02*
X4494951D01*
X4496222Y539800D02*
X4510192D01*
X4460662D02*
X4495206D01*
X4496222Y540054D02*
X4510192D01*
X4460662D02*
X4495206D01*
X4496222Y540308D02*
X4510192D01*
X4460662D02*
X4495206D01*
X4496222Y540562D02*
X4510446D01*
X4460662D02*
X4495206D01*
X4496222Y540816D02*
X4510446D01*
X4460408D02*
X4495460D01*
X4496476Y541070D02*
X4510446D01*
X4460408D02*
X4495460D01*
X4496476Y541324D02*
X4510446D01*
X4460154D02*
X4495460D01*
X4496476Y541578D02*
X4510446D01*
X4460154D02*
X4495460D01*
X4496476Y541832D02*
X4510699D01*
X4460154D02*
X4495460D01*
X4496730Y542086D02*
X4510699D01*
X4459900D02*
X4495714D01*
X4496730Y542340D02*
X4510699D01*
X4459900D02*
X4495714D01*
X4496730Y542594D02*
X4510699D01*
X4459900D02*
X4495714D01*
X4496730Y542848D02*
X4510699D01*
X4459900D02*
X4495714D01*
X4496730Y543102D02*
X4510699D01*
X4459900D02*
X4495714D01*
X4496984Y543356D02*
X4510699D01*
X4459900D02*
X4495968D01*
X4496984Y543610D02*
X4510954D01*
X4459900D02*
X4495968D01*
X4496984Y543864D02*
X4510954D01*
X4459646D02*
X4495968D01*
X4496984Y544118D02*
X4510954D01*
X4459646D02*
X4495968D01*
X4496984Y544372D02*
X4510954D01*
X4459646D02*
X4495968D01*
X4496984Y544626D02*
X4510954D01*
X4459391D02*
X4495968D01*
X4497238Y544880D02*
X4510954D01*
X4459391D02*
X4496222D01*
X4497238Y545134D02*
X4510954D01*
X4459391D02*
X4496222D01*
X4443898D02*
X4444660D01*
X4497238Y545388D02*
X4510954D01*
X4459391D02*
X4496222D01*
X4497238Y545642D02*
X4510954D01*
X4459391D02*
X4496222D01*
X4497238Y545896D02*
X4511208D01*
X4459138D02*
X4496222D01*
X4497238Y546150D02*
X4511208D01*
X4459138D02*
X4496222D01*
X4497238Y546404D02*
X4511208D01*
X4459138D02*
X4496222D01*
X4497238Y546658D02*
X4511208D01*
X4458884D02*
X4496222D01*
X4497491Y546912D02*
X4511208D01*
X4458884D02*
X4496476D01*
X4497491Y547166D02*
X4511208D01*
X4458884D02*
X4496476D01*
X4497491Y547420D02*
X4511208D01*
X4458884D02*
X4496476D01*
X4497491Y547674D02*
X4511208D01*
X4458376D02*
X4496476D01*
X4497491Y547928D02*
X4511208D01*
X4458122D02*
X4496476D01*
X4497491Y548182D02*
X4511208D01*
X4458629D02*
X4496476D01*
X4497491Y548436D02*
X4511208D01*
X4458376D02*
X4496476D01*
X4497491Y548690D02*
X4511208D01*
X4458376D02*
X4496476D01*
X4497491Y548944D02*
X4511208D01*
X4458376D02*
X4496476D01*
X4497491Y549198D02*
X4511208D01*
X4458376D02*
X4496476D01*
X4497491Y549452D02*
X4511208D01*
X4458376D02*
X4496476D01*
X4497491Y549706D02*
X4511461D01*
X4458122D02*
X4496476D01*
X4497491Y549960D02*
X4511461D01*
X4458122D02*
X4496476D01*
X4497491Y550214D02*
X4511461D01*
X4458122D02*
X4496476D01*
X4472346Y510082D02*
X4494951D01*
X4472854Y510336D02*
X4495206D01*
X4473362Y510590D02*
X4495460D01*
X4473870Y510844D02*
X4495714D01*
X4474124Y511098D02*
X4495968D01*
X4474632Y511352D02*
X4496222D01*
X4475139Y511606D02*
X4496476D01*
X4475394Y511860D02*
X4496476D01*
X4475901Y512114D02*
X4496730D01*
X4476410Y512368D02*
X4496984D01*
X4476664Y512622D02*
X4497238D01*
X4477172Y512876D02*
X4497491D01*
X4477426Y513130D02*
X4497746D01*
X4477680Y513384D02*
X4497746D01*
X4478188Y513638D02*
X4498000D01*
X4478441Y513892D02*
X4498253D01*
X4478950Y514146D02*
X4498508D01*
X4479203Y514400D02*
X4498762D01*
X4479458Y514654D02*
X4498762D01*
X4479712Y514908D02*
X4499016D01*
X4480220Y515162D02*
X4499270D01*
X4480474Y515416D02*
X4499524D01*
X4480728Y515670D02*
X4499524D01*
X4480982Y515924D02*
X4499778D01*
X4481490Y516178D02*
X4500032D01*
X4481743Y516432D02*
X4500286D01*
X4481998Y516686D02*
X4500286D01*
X4482252Y516940D02*
X4500540D01*
X4482505Y517194D02*
X4500793D01*
X4482760Y517448D02*
X4500793D01*
X4483014Y517702D02*
X4501048D01*
X4483268Y517956D02*
X4501302D01*
X4483522Y518210D02*
X4501302D01*
X4483776Y518464D02*
X4501555D01*
X4484030Y518718D02*
X4501810D01*
X4484284Y518972D02*
X4501810D01*
X4484538Y519226D02*
X4502064D01*
X4484792Y519480D02*
X4502318D01*
X4485045Y519734D02*
X4502318D01*
X4485300Y519988D02*
X4502572D01*
X4489618Y525576D02*
X4505620D01*
X4489872Y525830D02*
X4505620D01*
X4490126Y526084D02*
X4505874D01*
X4490126Y526338D02*
X4505874D01*
X4490380Y526592D02*
X4506128D01*
X4490380Y526846D02*
X4506128D01*
X4490634Y527100D02*
X4506128D01*
X4490887Y527354D02*
X4506382D01*
X4490887Y527608D02*
X4506382D01*
X4491142Y527862D02*
X4506636D01*
X4491396Y528116D02*
X4506636D01*
X4491396Y528370D02*
X4506890D01*
X4491649Y528624D02*
X4506890D01*
X4455327D02*
X4490380D01*
X4491649Y528878D02*
X4506890D01*
X4455582D02*
X4490634D01*
X4491904Y529132D02*
X4507144D01*
X4455836D02*
X4490634D01*
X4491904Y529386D02*
X4507144D01*
X4455836D02*
X4490887D01*
X4492158Y529640D02*
X4507397D01*
X4456089D02*
X4491142D01*
X4492158Y529894D02*
X4507397D01*
X4456344D02*
X4491142D01*
X4444152Y491032D02*
X4456344D01*
X4441866Y491286D02*
X4458629D01*
X4440088Y491540D02*
X4460408D01*
X4438818Y491794D02*
X4461678D01*
X4437294Y492048D02*
X4463202D01*
X4436277Y492302D02*
X4464218D01*
X4435262Y492556D02*
X4465233D01*
X4451264Y504748D02*
X4489364D01*
X4455582Y505002D02*
X4489618D01*
X4457614Y505256D02*
X4489872D01*
X4459138Y505510D02*
X4490126D01*
X4460408Y505764D02*
X4490634D01*
X4461678Y506018D02*
X4490887D01*
X4462693Y506272D02*
X4491142D01*
X4443898D02*
X4457614D01*
X4463456Y506526D02*
X4491396D01*
X4442374D02*
X4459138D01*
X4464472Y506780D02*
X4491649D01*
X4441104D02*
X4460408D01*
X4465233Y507034D02*
X4491904D01*
X4439834D02*
X4461678D01*
X4465995Y507288D02*
X4492158D01*
X4438818D02*
X4462693D01*
X4466758Y507542D02*
X4492411D01*
X4438056D02*
X4463456D01*
X4467266Y507796D02*
X4492666D01*
X4437039D02*
X4464472D01*
X4468028Y508050D02*
X4492920D01*
X4436277D02*
X4465233D01*
X4468535Y508304D02*
X4493174D01*
X4435516D02*
X4465995D01*
X4469297Y508558D02*
X4493428D01*
X4435008D02*
X4466504D01*
X4469806Y508812D02*
X4493682D01*
X4470314Y509066D02*
X4493936D01*
X4470822Y509320D02*
X4494189D01*
X4471330Y509574D02*
X4494444D01*
X4424086Y591362D02*
X4426118D01*
X4403512D02*
X4417482D01*
X4423831Y591616D02*
X4426371D01*
X4403766D02*
X4417482D01*
X4423578Y591870D02*
X4426880D01*
X4404019D02*
X4417227D01*
X4423324Y592124D02*
X4427388D01*
X4404019D02*
X4417227D01*
X4423069Y592378D02*
X4427642D01*
X4422816Y592632D02*
X4427388D01*
X4422562Y592886D02*
X4427388D01*
X4422308Y593140D02*
X4427133D01*
X4422054Y593394D02*
X4427133D01*
X4421800Y593648D02*
X4426880D01*
X4421546Y593902D02*
X4426880D01*
X4421038Y594156D02*
X4426626D01*
X4420784Y594410D02*
X4426626D01*
X4420529Y594664D02*
X4426371D01*
X4420276Y594918D02*
X4426371D01*
X4420022Y595172D02*
X4426118D01*
X4419767Y595426D02*
X4426118D01*
X4419514Y595680D02*
X4425864D01*
X4419260Y595934D02*
X4425864D01*
X4419006Y596188D02*
X4425610D01*
X4418752Y596442D02*
X4425610D01*
X4418498Y596696D02*
X4425356D01*
X4418244Y596950D02*
X4425356D01*
X4417990Y597204D02*
X4425102D01*
X4417736Y597458D02*
X4425102D01*
X4417482Y597712D02*
X4424848D01*
X4417227Y597966D02*
X4424848D01*
X4416720Y598220D02*
X4424594D01*
X4416465Y598474D02*
X4424594D01*
X4416212Y598728D02*
X4424340D01*
X4415958Y598982D02*
X4424340D01*
X4414180Y601268D02*
X4424848D01*
X4414434Y601522D02*
X4425356D01*
X4414688Y601776D02*
X4425610D01*
X4415196Y602030D02*
X4426118D01*
X4415450Y602284D02*
X4426371D01*
X4415958Y602538D02*
X4426880D01*
X4416212Y602792D02*
X4433230D01*
X4416720Y603046D02*
X4433230D01*
X4416974Y603300D02*
X4432975D01*
X4417482Y603554D02*
X4432975D01*
X4417736Y603808D02*
X4432975D01*
X4418244Y604062D02*
X4432722D01*
X4418752Y604316D02*
X4432722D01*
X4419006Y604570D02*
X4432722D01*
X4419514Y604824D02*
X4432722D01*
X4420022Y605078D02*
X4432468D01*
X4420529Y605332D02*
X4432468D01*
X4420784Y605586D02*
X4432468D01*
X4421292Y605840D02*
X4432214D01*
X4421800Y606094D02*
X4432214D01*
X4422308Y606348D02*
X4432214D01*
X4422816Y606602D02*
X4432214D01*
X4423324Y606856D02*
X4431960D01*
X4423831Y607110D02*
X4431960D01*
X4424340Y607364D02*
X4431960D01*
X4392082Y571042D02*
X4408083D01*
X4392336Y571296D02*
X4408338D01*
X4392336Y571550D02*
X4408338D01*
X4392336Y571804D02*
X4408592D01*
X4392590Y572058D02*
X4408592D01*
X4392590Y572312D02*
X4408846D01*
X4392590Y572566D02*
X4408846D01*
X4392844Y572820D02*
X4409100D01*
X4392844Y573074D02*
X4409100D01*
X4392844Y573328D02*
X4409354D01*
X4393098Y573582D02*
X4409354D01*
X4393098Y573836D02*
X4409608D01*
X4393098Y574090D02*
X4409608D01*
X4393352Y574344D02*
X4409861D01*
X4393352Y574598D02*
X4409861D01*
X4393606Y574852D02*
X4410116D01*
X4393606Y575106D02*
X4410370D01*
X4393606Y575360D02*
X4410370D01*
X4393860Y575614D02*
X4410623D01*
X4393860Y575868D02*
X4410623D01*
X4394113Y576122D02*
X4410878D01*
X4394113Y576376D02*
X4411132D01*
X4394368Y576630D02*
X4411132D01*
X4394368Y576884D02*
X4411385D01*
X4394368Y577138D02*
X4411385D01*
X4394622Y577392D02*
X4411640D01*
X4394622Y577646D02*
X4411894D01*
X4394875Y577900D02*
X4411894D01*
X4394875Y578154D02*
X4412148D01*
X4395130Y578408D02*
X4412402D01*
X4395130Y578662D02*
X4412656D01*
X4395384Y578916D02*
X4412656D01*
X4395384Y579170D02*
X4412910D01*
X4395638Y579424D02*
X4413163D01*
X4395638Y579678D02*
X4413163D01*
X4395892Y579932D02*
X4413418D01*
X4395892Y580186D02*
X4413672D01*
X4396146Y580440D02*
X4413925D01*
X4396146Y580694D02*
X4414180D01*
X4396400Y580948D02*
X4414180D01*
X4396400Y581202D02*
X4414434D01*
X4396654Y581456D02*
X4414688D01*
X4396908Y581710D02*
X4414942D01*
X4396908Y581964D02*
X4415196D01*
X4397162Y582218D02*
X4415450D01*
X4397162Y582472D02*
X4415450D01*
X4397415Y582726D02*
X4415704D01*
X4397415Y582980D02*
X4415958D01*
X4397670Y583234D02*
X4416212D01*
X4397924Y583488D02*
X4416465D01*
X4397924Y583742D02*
X4416720D01*
X4398177Y583996D02*
X4416974D01*
X4398177Y584250D02*
X4417227D01*
X4398432Y584504D02*
X4417482D01*
X4398686Y584758D02*
X4417736D01*
X4398686Y585012D02*
X4417990D01*
X4398940Y585266D02*
X4418244D01*
X4399194Y585520D02*
X4418498D01*
X4399194Y585774D02*
X4418752D01*
X4399448Y586028D02*
X4419006D01*
X4399702Y586282D02*
X4419260D01*
X4399702Y586536D02*
X4419514D01*
X4399956Y586790D02*
X4419767D01*
X4400210Y587044D02*
X4420022D01*
X4400210Y587298D02*
X4420529D01*
X4400464Y587552D02*
X4420784D01*
X4400717Y587806D02*
X4419260D01*
X4400972Y588060D02*
X4419260D01*
X4400972Y588314D02*
X4419006D01*
X4401226Y588568D02*
X4419006D01*
X4401479Y588822D02*
X4418752D01*
X4401734Y589076D02*
X4418752D01*
X4401734Y589330D02*
X4418498D01*
X4401988Y589584D02*
X4418498D01*
X4402242Y589838D02*
X4418244D01*
X4402496Y590092D02*
X4418244D01*
X4419006Y590346D02*
X4424340D01*
X4402750D02*
X4417990D01*
X4419006Y590600D02*
X4424848D01*
X4402750D02*
X4417990D01*
X4424086Y590854D02*
X4425102D01*
X4403004D02*
X4417736D01*
X4389034Y550722D02*
X4404019D01*
X4389034Y550976D02*
X4404019D01*
X4389034Y552246D02*
X4404019D01*
X4389034Y552500D02*
X4404019D01*
X4389034Y552754D02*
X4404019D01*
X4389034Y553008D02*
X4404019D01*
X4389034Y553262D02*
X4404019D01*
X4389034Y553516D02*
X4404019D01*
X4389034Y553770D02*
X4404019D01*
X4389034Y554024D02*
X4404019D01*
X4389288Y554278D02*
X4404019D01*
X4389288Y554532D02*
X4404019D01*
X4389288Y554786D02*
X4404019D01*
X4389288Y555040D02*
X4404019D01*
X4389288Y555294D02*
X4404019D01*
X4389288Y555548D02*
X4404019D01*
X4389288Y555802D02*
X4404019D01*
X4389288Y556056D02*
X4404019D01*
X4389288Y556310D02*
X4404019D01*
X4389288Y556564D02*
X4404274D01*
X4389288Y556818D02*
X4404274D01*
X4389288Y557072D02*
X4404274D01*
X4389288Y557326D02*
X4404274D01*
X4389288Y557580D02*
X4404274D01*
X4389288Y557834D02*
X4404274D01*
X4389542Y558088D02*
X4404274D01*
X4389542Y558342D02*
X4404274D01*
X4389542Y558596D02*
X4404528D01*
X4389542Y558850D02*
X4404528D01*
X4389542Y559104D02*
X4404528D01*
X4389542Y559358D02*
X4404528D01*
X4389542Y559612D02*
X4404528D01*
X4389542Y559866D02*
X4404528D01*
X4389542Y560120D02*
X4404781D01*
X4389796Y560374D02*
X4404781D01*
X4389796Y560628D02*
X4404781D01*
X4389796Y560882D02*
X4404781D01*
X4389796Y561136D02*
X4404781D01*
X4389796Y561390D02*
X4405036D01*
X4389796Y561644D02*
X4405036D01*
X4389796Y561898D02*
X4405036D01*
X4390050Y562152D02*
X4405036D01*
X4390050Y562406D02*
X4405036D01*
X4390050Y562660D02*
X4405290D01*
X4390050Y562914D02*
X4405290D01*
X4390050Y563168D02*
X4405290D01*
X4390304Y563422D02*
X4405290D01*
X4390304Y563676D02*
X4405544D01*
X4390304Y563930D02*
X4405544D01*
X4390304Y564184D02*
X4405544D01*
X4390304Y564438D02*
X4405798D01*
X4390304Y564692D02*
X4405798D01*
X4390558Y564946D02*
X4405798D01*
X4390558Y565200D02*
X4405798D01*
X4390558Y565454D02*
X4406052D01*
X4390558Y565708D02*
X4406052D01*
X4390811Y565962D02*
X4406052D01*
X4390811Y566216D02*
X4406306D01*
X4390811Y566470D02*
X4406306D01*
X4390811Y566724D02*
X4406306D01*
X4391066Y566978D02*
X4406559D01*
X4391066Y567232D02*
X4406559D01*
X4391066Y567486D02*
X4406559D01*
X4391066Y567740D02*
X4406814D01*
X4391320Y567994D02*
X4406814D01*
X4391320Y568248D02*
X4407068D01*
X4391320Y568502D02*
X4407068D01*
X4391320Y568756D02*
X4407068D01*
X4391573Y569010D02*
X4407321D01*
X4391573Y569264D02*
X4407321D01*
X4391573Y569518D02*
X4407576D01*
X4391828Y569772D02*
X4407576D01*
X4391828Y570026D02*
X4407576D01*
X4391828Y570280D02*
X4407830D01*
X4392082Y570534D02*
X4407830D01*
X4392844Y530402D02*
X4409100D01*
X4392844Y530656D02*
X4408846D01*
X4392844Y530910D02*
X4408846D01*
X4392590Y531164D02*
X4408592D01*
X4392590Y531418D02*
X4408592D01*
X4392590Y531672D02*
X4408338D01*
X4392336Y531926D02*
X4408338D01*
X4392336Y532180D02*
X4408083D01*
X4392336Y532434D02*
X4408083D01*
X4392082Y532688D02*
X4407830D01*
X4392082Y532942D02*
X4407830D01*
X4392082Y533196D02*
X4407576D01*
X4391828Y533450D02*
X4407576D01*
X4391828Y533704D02*
X4407576D01*
X4391828Y533958D02*
X4407321D01*
X4391573Y534212D02*
X4407321D01*
X4391573Y534466D02*
X4407068D01*
X4391573Y534720D02*
X4407068D01*
X4391320Y534974D02*
X4407068D01*
X4391320Y535228D02*
X4406814D01*
X4391320Y535482D02*
X4406814D01*
X4391320Y535736D02*
X4406559D01*
X4391066Y535990D02*
X4406559D01*
X4391066Y536244D02*
X4406559D01*
X4391066Y536498D02*
X4406306D01*
X4391066Y536752D02*
X4406306D01*
X4390811Y537006D02*
X4406306D01*
X4390811Y537260D02*
X4406052D01*
X4390811Y537514D02*
X4406052D01*
X4390811Y537768D02*
X4406052D01*
X4390558Y538022D02*
X4405798D01*
X4390558Y538276D02*
X4405798D01*
X4390558Y538530D02*
X4405798D01*
X4390558Y538784D02*
X4405798D01*
X4390304Y539038D02*
X4405544D01*
X4390304Y539292D02*
X4405544D01*
X4390304Y539546D02*
X4405544D01*
X4390304Y539800D02*
X4405290D01*
X4390304Y540054D02*
X4405290D01*
X4390304Y540308D02*
X4405290D01*
X4390050Y540562D02*
X4405290D01*
X4390050Y540816D02*
X4405036D01*
X4390050Y541070D02*
X4405036D01*
X4390050Y541324D02*
X4405036D01*
X4390050Y541578D02*
X4405036D01*
X4389796Y541832D02*
X4405036D01*
X4389796Y542086D02*
X4404781D01*
X4389796Y542340D02*
X4404781D01*
X4389796Y542594D02*
X4404781D01*
X4389796Y542848D02*
X4404781D01*
X4389796Y543102D02*
X4404781D01*
X4389796Y543356D02*
X4404528D01*
X4389542Y543610D02*
X4404528D01*
X4389542Y543864D02*
X4404528D01*
X4389542Y544118D02*
X4404528D01*
X4389542Y544372D02*
X4404528D01*
X4389542Y544626D02*
X4404528D01*
X4405290Y544880D02*
X4432214D01*
X4389542D02*
X4404274D01*
X4405290Y545134D02*
X4430435D01*
X4389542D02*
X4404274D01*
X4405290Y545388D02*
X4430690D01*
X4389542D02*
X4404274D01*
X4405290Y545642D02*
X4430944D01*
X4389542D02*
X4404274D01*
X4405290Y545896D02*
X4431198D01*
X4389288D02*
X4404274D01*
X4405290Y546150D02*
X4431452D01*
X4389288D02*
X4404274D01*
X4405290Y546404D02*
X4432214D01*
X4389288D02*
X4404274D01*
X4405290Y546658D02*
X4431706D01*
X4389288D02*
X4404274D01*
X4405036Y546912D02*
X4431960D01*
X4389288D02*
X4404019D01*
X4405036Y547166D02*
X4432214D01*
X4389288D02*
X4404019D01*
X4405036Y547420D02*
X4432468D01*
X4389288D02*
X4404019D01*
X4405036Y547674D02*
X4432468D01*
X4389288D02*
X4404019D01*
X4405036Y547928D02*
X4432722D01*
X4389288D02*
X4404019D01*
X4405036Y548182D02*
X4432975D01*
X4389288D02*
X4404019D01*
X4405036Y548436D02*
X4433230D01*
X4389288D02*
X4404019D01*
X4405036Y548690D02*
X4433484D01*
X4389288D02*
X4404019D01*
X4405036Y548944D02*
X4433737D01*
X4389288D02*
X4404019D01*
X4405036Y549198D02*
X4433737D01*
X4389288D02*
X4404019D01*
X4405036Y549452D02*
X4433992D01*
X4389288D02*
X4404019D01*
X4405036Y549706D02*
X4434246D01*
X4389034D02*
X4404019D01*
X4389034Y549960D02*
X4404019D01*
X4389034Y550214D02*
X4404019D01*
X4405544Y510082D02*
X4429166D01*
X4405290Y510336D02*
X4428658D01*
X4405036Y510590D02*
X4428150D01*
X4404781Y510844D02*
X4427642D01*
X4404528Y511098D02*
X4427388D01*
X4404274Y511352D02*
X4427133D01*
X4404019Y511606D02*
X4427388D01*
X4401988Y514146D02*
X4422562D01*
X4401734Y514400D02*
X4422308D01*
X4401734Y514654D02*
X4422054D01*
X4401479Y514908D02*
X4421800D01*
X4401226Y515162D02*
X4421292D01*
X4400972Y515416D02*
X4421038D01*
X4400972Y515670D02*
X4420784D01*
X4400717Y515924D02*
X4420529D01*
X4400464Y516178D02*
X4420022D01*
X4400210Y516432D02*
X4419767D01*
X4400210Y516686D02*
X4419514D01*
X4399956Y516940D02*
X4419260D01*
X4399702Y517194D02*
X4419006D01*
X4399702Y517448D02*
X4418752D01*
X4399448Y517702D02*
X4418498D01*
X4399194Y517956D02*
X4418244D01*
X4399194Y518210D02*
X4417990D01*
X4398940Y518464D02*
X4417736D01*
X4398686Y518718D02*
X4417482D01*
X4398686Y518972D02*
X4417227D01*
X4398432Y519226D02*
X4416974D01*
X4398177Y519480D02*
X4416720D01*
X4398177Y519734D02*
X4416720D01*
X4397924Y519988D02*
X4416212D01*
X4397924Y520242D02*
X4415958D01*
X4397670Y520496D02*
X4415704D01*
X4397415Y520750D02*
X4415450D01*
X4397415Y521004D02*
X4415196D01*
X4397162Y521258D02*
X4415196D01*
X4397162Y521512D02*
X4414942D01*
X4396908Y521766D02*
X4414688D01*
X4396908Y522020D02*
X4414434D01*
X4396654Y522274D02*
X4414180D01*
X4396400Y522528D02*
X4414180D01*
X4396400Y522782D02*
X4413925D01*
X4396146Y523036D02*
X4413672D01*
X4396146Y523290D02*
X4413418D01*
X4395892Y523544D02*
X4413163D01*
X4395892Y523798D02*
X4413163D01*
X4395638Y524052D02*
X4412910D01*
X4395638Y524306D02*
X4412656D01*
X4395384Y524560D02*
X4412656D01*
X4395384Y524814D02*
X4412402D01*
X4395130Y525068D02*
X4412148D01*
X4395130Y525322D02*
X4411894D01*
X4394875Y525576D02*
X4411894D01*
X4394875Y525830D02*
X4411640D01*
X4394622Y526084D02*
X4411385D01*
X4394622Y526338D02*
X4411385D01*
X4394368Y526592D02*
X4411132D01*
X4394368Y526846D02*
X4411132D01*
X4394368Y527100D02*
X4410878D01*
X4394113Y527354D02*
X4410623D01*
X4394113Y527608D02*
X4410623D01*
X4393860Y527862D02*
X4410370D01*
X4393860Y528116D02*
X4410370D01*
X4393606Y528370D02*
X4410116D01*
X4393606Y528624D02*
X4409861D01*
X4393606Y528878D02*
X4409861D01*
X4393352Y529132D02*
X4409608D01*
X4393352Y529386D02*
X4409608D01*
X4393098Y529640D02*
X4409354D01*
X4393098Y529894D02*
X4409354D01*
X4407830Y507796D02*
X4434246D01*
X4407576Y508050D02*
X4433484D01*
X4407321Y508304D02*
X4432975D01*
X4407068Y508558D02*
X4432214D01*
X4406814Y508812D02*
X4431706D01*
X4406559Y509066D02*
X4431198D01*
X4406306Y509320D02*
X4430690D01*
X4406052Y509574D02*
X4430182D01*
X4472092Y570788D02*
X4474378D01*
X4453549Y611428D02*
X4464218D01*
X4435262Y550468D02*
X4435770D01*
X4427388Y591108D02*
X4428150D01*
X4419006D02*
X4423069D01*
X4489109Y578408D02*
X4505366D01*
X4488856Y578662D02*
X4505366D01*
X4488856Y578916D02*
X4505112D01*
X4485554Y520242D02*
X4502572D01*
X4485807Y520496D02*
X4502826D01*
X4486062Y520750D02*
X4503080D01*
X4486316Y521004D02*
X4503080D01*
X4486316Y521258D02*
X4503334D01*
X4486570Y521512D02*
X4503334D01*
X4486824Y521766D02*
X4503588D01*
X4487078Y522020D02*
X4503588D01*
X4487332Y522274D02*
X4503842D01*
X4487332Y522528D02*
X4504095D01*
X4487585Y522782D02*
X4504095D01*
X4487840Y523036D02*
X4504350D01*
X4488094Y523290D02*
X4504350D01*
X4488347Y523544D02*
X4504604D01*
X4488347Y523798D02*
X4504604D01*
X4488602Y524052D02*
X4504857D01*
X4488856Y524306D02*
X4504857D01*
X4488856Y524560D02*
X4505112D01*
X4489109Y524814D02*
X4505112D01*
X4489364Y525068D02*
X4505366D01*
X4489618Y525322D02*
X4505366D01*
X4472346Y593140D02*
X4472854D01*
X4471837Y593394D02*
X4473108D01*
X4471330Y593648D02*
X4473108D01*
X4470822Y593902D02*
X4473362D01*
X4470314Y594156D02*
X4473616D01*
X4470314Y594410D02*
X4473616D01*
X4470314Y594664D02*
X4473870D01*
X4470568Y594918D02*
X4473870D01*
X4468535D02*
X4469552D01*
X4470568Y595172D02*
X4474124D01*
X4468028D02*
X4469552D01*
X4470822Y595426D02*
X4474124D01*
X4467266D02*
X4469806D01*
X4470822Y595680D02*
X4474378D01*
X4466758D02*
X4469806D01*
X4471076Y595934D02*
X4474378D01*
X4465995D02*
X4470060D01*
X4471076Y596188D02*
X4474632D01*
X4465742D02*
X4470060D01*
X4471330Y596442D02*
X4474632D01*
X4465995D02*
X4470314D01*
X4471330Y596696D02*
X4474886D01*
X4466250D02*
X4470314D01*
X4471584Y596950D02*
X4474886D01*
X4466250D02*
X4470568D01*
X4471837Y597204D02*
X4475139D01*
X4466504D02*
X4470568D01*
X4471837Y597458D02*
X4475139D01*
X4466504D02*
X4470822D01*
X4472092Y597712D02*
X4475394D01*
X4466504D02*
X4470822D01*
X4472092Y597966D02*
X4475394D01*
X4466758D02*
X4471076D01*
X4472346Y598220D02*
X4475648D01*
X4466758D02*
X4471076D01*
X4472346Y598474D02*
X4475648D01*
X4466758D02*
X4471330D01*
X4472599Y598728D02*
X4475901D01*
X4466758D02*
X4471330D01*
X4472599Y598982D02*
X4475901D01*
X4467012D02*
X4471584D01*
X4472854Y599236D02*
X4476156D01*
X4467012D02*
X4471584D01*
X4472854Y599490D02*
X4476156D01*
X4467012D02*
X4471837D01*
X4473108Y599744D02*
X4476410D01*
X4467266D02*
X4471837D01*
X4473108Y599998D02*
X4476410D01*
X4467266D02*
X4472092D01*
X4473362Y600252D02*
X4475901D01*
X4467266D02*
X4472092D01*
X4473362Y600506D02*
X4475394D01*
X4467266D02*
X4472346D01*
X4473616Y600760D02*
X4474886D01*
X4467520D02*
X4472346D01*
X4473616Y601014D02*
X4474124D01*
X4467520D02*
X4472599D01*
X4467520Y601268D02*
X4472599D01*
X4467774Y601522D02*
X4472854D01*
X4467774Y601776D02*
X4472854D01*
X4467774Y602030D02*
X4473108D01*
X4473616Y602284D02*
X4485045D01*
X4468028D02*
X4473108D01*
X4468028Y602538D02*
X4484538D01*
X4468028Y602792D02*
X4484284D01*
X4468028Y603046D02*
X4483776D01*
X4468282Y603300D02*
X4483522D01*
X4468282Y603554D02*
X4483014D01*
X4468282Y603808D02*
X4482760D01*
X4468282Y604062D02*
X4482252D01*
X4468282Y604316D02*
X4481743D01*
X4468028Y604570D02*
X4481490D01*
X4467266Y604824D02*
X4480982D01*
X4466504Y605078D02*
X4480474D01*
X4465488Y605332D02*
X4479966D01*
X4475394Y571042D02*
X4475648D01*
X4471076D02*
X4474378D01*
X4475648Y571296D02*
X4475901D01*
X4471076D02*
X4474632D01*
X4475648Y571550D02*
X4475901D01*
X4470822D02*
X4475139D01*
X4475394Y571804D02*
X4475648D01*
X4470822D02*
X4475139D01*
X4475394Y572058D02*
X4475901D01*
X4472092D02*
X4475139D01*
X4475901Y572312D02*
X4476156D01*
X4475394D02*
X4475648D01*
X4474124D02*
X4475139D01*
X4472599D02*
X4473616D01*
X4476156Y572566D02*
X4476410D01*
X4475648D02*
X4475901D01*
X4472599D02*
X4473616D01*
X4476410Y572820D02*
X4476664D01*
X4475648D02*
X4475901D01*
X4472346D02*
X4473616D01*
X4472346Y573074D02*
X4473362D01*
X4476664Y573328D02*
X4476918D01*
X4472346D02*
X4473616D01*
X4476664Y573582D02*
X4477172D01*
X4471584D02*
X4472599D01*
X4476918Y573836D02*
X4477426D01*
X4471330D02*
X4472599D01*
X4477172Y574090D02*
X4477426D01*
X4471076D02*
X4472346D01*
X4477426Y574344D02*
X4477680D01*
X4470822D02*
X4472346D01*
X4470568Y574598D02*
X4472092D01*
X4477680Y574852D02*
X4477934D01*
X4469806D02*
X4471837D01*
X4477934Y575106D02*
X4478188D01*
X4477934Y575360D02*
X4478188D01*
Y575614D02*
X4478441D01*
X4465233Y575868D02*
X4470822D01*
X4465488Y576122D02*
X4470314D01*
X4478696Y576376D02*
X4478950D01*
X4465995D02*
X4470060D01*
X4478696Y576630D02*
X4478950D01*
X4466504D02*
X4469044D01*
X4478950Y576884D02*
X4479203D01*
X4465233Y577138D02*
X4465742D01*
X4479203Y577392D02*
X4479458D01*
X4465488D02*
X4465995D01*
X4479458Y577646D02*
X4479712D01*
X4479458Y577900D02*
X4479712D01*
X4466504D02*
X4466758D01*
X4479712Y578154D02*
X4479966D01*
X4466504D02*
X4467012D01*
X4480220Y578916D02*
X4480474D01*
X4467520D02*
X4468028D01*
Y579170D02*
X4468535D01*
X4468282Y579424D02*
X4468790D01*
X4480474Y579678D02*
X4480728D01*
X4468535D02*
X4468790D01*
X4480728Y579932D02*
X4480982D01*
X4468790D02*
X4469044D01*
X4480728Y580186D02*
X4480982D01*
X4469552Y580440D02*
X4470060D01*
Y580694D02*
X4470314D01*
Y580948D02*
X4470568D01*
X4481236Y581202D02*
X4481490D01*
X4481236Y581456D02*
X4481490D01*
Y581710D02*
X4481743D01*
X4471584D02*
X4471837D01*
X4481490Y581964D02*
X4481743D01*
X4472346Y582218D02*
X4472599D01*
X4473108Y582726D02*
X4474124D01*
X4481743Y582980D02*
X4481998D01*
X4473616D02*
X4474124D01*
X4481998Y583234D02*
X4482252D01*
X4474378D02*
X4474886D01*
X4481998Y583488D02*
X4482505D01*
X4474632D02*
X4475394D01*
X4475648Y583996D02*
X4476410D01*
Y584250D02*
X4476918D01*
X4476664Y584504D02*
X4477172D01*
X4482760Y584758D02*
X4483014D01*
X4477172D02*
X4477680D01*
X4482760Y585012D02*
X4483014D01*
X4482760Y585266D02*
X4483268D01*
X4479203D02*
X4479966D01*
X4482760Y585520D02*
X4483268D01*
X4479712D02*
X4480474D01*
X4483014Y585774D02*
X4483268D01*
X4480474D02*
X4481490D01*
X4483014Y586028D02*
X4483268D01*
X4480982D02*
X4481998D01*
X4483268Y586282D02*
X4483522D01*
X4481998D02*
X4482760D01*
X4483268Y586536D02*
X4483522D01*
X4465233Y559104D02*
X4465742D01*
X4466250Y559358D02*
X4476156D01*
X4465742D02*
X4465995D01*
X4466504Y559612D02*
X4475394D01*
X4465742D02*
X4466250D01*
X4466758Y559866D02*
X4474886D01*
X4465995D02*
X4466504D01*
X4475394Y560120D02*
X4475648D01*
X4466758D02*
X4474378D01*
X4466250D02*
X4466504D01*
X4475139Y560374D02*
X4475394D01*
X4467012D02*
X4473870D01*
X4466504D02*
X4466758D01*
X4475139Y560628D02*
X4475394D01*
X4474124D02*
X4474632D01*
X4467266D02*
X4473616D01*
X4466504D02*
X4466758D01*
X4473616Y560882D02*
X4473870D01*
X4467520D02*
X4473362D01*
X4467012D02*
X4467266D01*
X4473362Y561136D02*
X4473870D01*
X4467774D02*
X4473108D01*
Y561390D02*
X4473362D01*
X4468028D02*
X4472854D01*
X4474632Y561644D02*
X4474886D01*
X4472854D02*
X4473108D01*
X4468282D02*
X4472599D01*
X4474632Y561898D02*
X4474886D01*
X4472599D02*
X4472854D01*
X4468535D02*
X4472346D01*
Y562152D02*
X4472599D01*
X4468790D02*
X4472092D01*
X4472346Y562406D02*
X4472599D01*
X4469044D02*
X4472092D01*
X4472346Y562660D02*
X4472599D01*
X4469044D02*
X4471837D01*
X4474378Y562914D02*
X4474632D01*
X4469297D02*
X4471837D01*
X4468790D02*
X4469044D01*
X4474378Y563168D02*
X4474632D01*
X4469552D02*
X4471837D01*
X4468790D02*
X4469297D01*
X4474124Y563422D02*
X4474632D01*
X4469806D02*
X4471837D01*
X4469044D02*
X4469552D01*
X4472092Y563676D02*
X4472346D01*
X4470060D02*
X4471837D01*
X4469297D02*
X4469552D01*
X4472092Y563930D02*
X4472346D01*
X4470314D02*
X4471837D01*
X4474124Y564184D02*
X4474378D01*
X4472092D02*
X4472346D01*
X4470568D02*
X4471837D01*
X4469552D02*
X4470060D01*
X4474124Y564438D02*
X4474378D01*
X4472092D02*
X4472346D01*
X4470822D02*
X4471837D01*
X4470822Y564692D02*
X4471837D01*
X4470060D02*
X4470314D01*
X4471076Y564946D02*
X4472092D01*
X4471330Y565200D02*
X4472092D01*
X4471076Y565708D02*
X4471584D01*
X4474378Y565962D02*
X4474632D01*
X4474378Y566978D02*
X4474632D01*
X4474378Y567232D02*
X4474632D01*
X4474378Y567486D02*
X4474632D01*
X4467012D02*
X4469297D01*
X4474378Y567740D02*
X4474632D01*
X4466250D02*
X4469806D01*
X4465742Y567994D02*
X4470568D01*
X4474632Y568248D02*
X4474886D01*
X4465233D02*
X4471076D01*
X4474632Y568502D02*
X4474886D01*
Y569010D02*
X4475139D01*
X4470060D02*
X4471584D01*
X4474886Y569264D02*
X4475139D01*
X4471837D02*
X4472599D01*
X4470822D02*
X4471584D01*
X4474124Y569518D02*
X4474886D01*
X4471837D02*
X4472854D01*
X4471330D02*
X4471584D01*
X4473870Y569772D02*
X4474886D01*
X4471837D02*
X4473108D01*
X4472092Y570026D02*
X4474886D01*
X4475139Y570280D02*
X4475394D01*
X4472092D02*
X4474632D01*
X4475139Y570534D02*
X4475394D01*
X4472092D02*
X4474378D01*
X4453549Y611682D02*
X4463202D01*
X4453549Y611936D02*
X4461678D01*
X4453549Y612190D02*
X4460408D01*
X4453549Y612444D02*
X4458629D01*
X4453549Y612698D02*
X4456344D01*
X4448216Y612952D02*
X4452280D01*
X4461678Y597204D02*
X4461931D01*
X4445930D02*
X4455582D01*
X4460408Y597458D02*
X4461678D01*
X4459138Y597712D02*
X4461424D01*
X4457614Y597966D02*
X4461424D01*
X4457614Y598220D02*
X4461424D01*
X4455582D02*
X4456852D01*
X4457614Y598474D02*
X4461678D01*
X4451264D02*
X4456598D01*
X4445421D02*
X4450247D01*
X4457614Y598728D02*
X4461678D01*
X4453042D02*
X4456598D01*
X4447708D02*
X4452025D01*
X4457614Y598982D02*
X4461678D01*
X4453042D02*
X4456598D01*
X4447962D02*
X4452025D01*
X4457614Y599236D02*
X4461678D01*
X4453042D02*
X4456598D01*
X4448216D02*
X4452025D01*
X4457614Y599490D02*
X4461931D01*
X4453042D02*
X4456598D01*
X4448216D02*
X4452025D01*
X4457868Y599744D02*
X4461931D01*
X4453042D02*
X4456852D01*
X4448216D02*
X4452025D01*
X4457868Y599998D02*
X4461931D01*
X4453042D02*
X4456852D01*
X4448216D02*
X4452025D01*
X4457868Y600252D02*
X4462186D01*
X4453042D02*
X4456852D01*
X4448216D02*
X4452025D01*
X4457868Y600506D02*
X4462186D01*
X4453042D02*
X4456852D01*
X4448216D02*
X4452025D01*
X4457868Y600760D02*
X4462186D01*
X4453042D02*
X4456852D01*
X4448216D02*
X4452025D01*
X4457868Y601014D02*
X4462440D01*
X4453042D02*
X4456852D01*
X4448216D02*
X4452025D01*
X4457868Y601268D02*
X4462440D01*
X4453042D02*
X4456852D01*
X4448216D02*
X4452025D01*
X4458122Y601522D02*
X4462440D01*
X4453042D02*
X4457106D01*
X4458122Y601776D02*
X4462440D01*
X4453042D02*
X4457106D01*
X4458122Y602030D02*
X4462693D01*
X4453042D02*
X4457106D01*
X4458122Y602284D02*
X4462693D01*
X4453042D02*
X4457106D01*
X4458122Y602538D02*
X4462693D01*
X4453042D02*
X4457106D01*
X4458122Y602792D02*
X4462948D01*
X4453042D02*
X4457106D01*
X4444914D02*
X4452025D01*
X4458122Y603046D02*
X4462948D01*
X4453042D02*
X4457106D01*
X4447454D02*
X4452025D01*
X4458376Y603300D02*
X4462948D01*
X4453042D02*
X4457360D01*
X4447708D02*
X4452025D01*
X4458376Y603554D02*
X4463202D01*
X4453296D02*
X4457360D01*
X4447962D02*
X4452280D01*
X4458376Y603808D02*
X4463202D01*
X4453296D02*
X4457360D01*
X4447962D02*
X4452280D01*
X4458376Y604062D02*
X4463202D01*
X4453296D02*
X4457360D01*
X4447962D02*
X4452280D01*
X4458376Y604316D02*
X4463202D01*
X4453296D02*
X4457360D01*
X4447962D02*
X4452280D01*
X4458376Y604570D02*
X4463456D01*
X4453296D02*
X4457360D01*
X4447708D02*
X4452280D01*
X4458629Y604824D02*
X4463456D01*
X4453296D02*
X4457614D01*
X4447708D02*
X4452280D01*
X4458629Y605078D02*
X4463456D01*
X4453296D02*
X4457614D01*
X4447708D02*
X4452280D01*
X4458629Y605332D02*
X4463710D01*
X4453296D02*
X4457614D01*
X4447708D02*
X4452280D01*
X4458629Y605586D02*
X4463964D01*
X4453296D02*
X4457614D01*
X4447708D02*
X4452280D01*
X4453296Y605840D02*
X4457614D01*
X4447708D02*
X4452280D01*
X4453296Y606094D02*
X4457614D01*
X4447708D02*
X4452280D01*
X4453296Y606348D02*
X4457614D01*
X4447708D02*
X4452280D01*
X4453296Y606602D02*
X4457868D01*
X4447708D02*
X4452280D01*
X4445930D02*
X4446692D01*
X4453296Y606856D02*
X4457868D01*
X4447454D02*
X4452280D01*
X4447454Y607110D02*
X4452280D01*
X4447200Y607364D02*
X4452280D01*
X4453549Y609142D02*
X4458629D01*
X4453549Y609396D02*
X4458122D01*
X4453549Y609650D02*
X4458122D01*
X4453549Y609904D02*
X4458122D01*
X4453549Y610158D02*
X4458376D01*
X4453549Y610412D02*
X4458376D01*
X4459900Y571296D02*
X4460408D01*
X4460154Y571550D02*
X4460408D01*
X4460662Y571804D02*
X4460916D01*
X4460662Y572058D02*
X4460916D01*
X4460662Y572312D02*
X4461170D01*
X4460916Y572566D02*
X4461424D01*
X4460916Y572820D02*
X4461424D01*
Y573074D02*
X4461678D01*
Y573328D02*
X4461931D01*
X4461678Y573582D02*
X4462186D01*
X4461931Y573836D02*
X4462186D01*
X4463202Y575106D02*
X4463456D01*
Y575360D02*
X4463964D01*
Y575868D02*
X4464472D01*
X4464218Y576122D02*
X4464726D01*
X4447962Y550722D02*
X4448723D01*
X4447454D02*
X4447708D01*
X4447962Y550976D02*
X4448978D01*
X4447454D02*
X4447708D01*
X4457868Y551230D02*
X4458122D01*
X4449232D02*
X4449485D01*
X4447962D02*
X4448978D01*
X4447454D02*
X4447708D01*
X4448216Y551484D02*
X4449485D01*
X4447454D02*
X4447708D01*
X4458376Y551738D02*
X4458629D01*
X4447962D02*
X4449232D01*
X4447454D02*
X4447708D01*
X4458629Y551992D02*
X4458884D01*
X4447962D02*
X4449232D01*
X4447200D02*
X4447708D01*
X4458884Y552246D02*
X4459138D01*
X4447962D02*
X4449485D01*
X4447200D02*
X4447708D01*
X4459138Y552500D02*
X4459391D01*
X4449740D02*
X4449994D01*
X4447962D02*
X4449485D01*
X4447200D02*
X4447454D01*
X4459391Y552754D02*
X4459646D01*
X4447708D02*
X4449994D01*
X4459646Y553008D02*
X4459900D01*
X4449994D02*
X4450247D01*
X4447708D02*
X4449740D01*
X4449994Y553262D02*
X4450247D01*
X4447708D02*
X4449740D01*
X4446945D02*
X4447200D01*
X4460154Y553516D02*
X4460408D01*
X4450247D02*
X4450502D01*
X4446945D02*
X4449994D01*
X4460408Y553770D02*
X4460662D01*
X4447454D02*
X4449740D01*
X4460662Y554024D02*
X4460916D01*
X4450247D02*
X4450502D01*
X4447454D02*
X4449994D01*
X4446692D02*
X4446945D01*
X4460916Y554278D02*
X4461170D01*
X4450247D02*
X4450502D01*
X4446945D02*
X4449994D01*
X4450502Y554532D02*
X4450756D01*
X4447454D02*
X4450247D01*
X4445421D02*
X4445676D01*
X4450502Y554786D02*
X4451010D01*
X4461678Y555040D02*
X4461931D01*
X4450756D02*
X4451010D01*
X4450756Y555294D02*
X4451010D01*
Y555548D02*
X4451264D01*
X4462186Y555802D02*
X4462440D01*
Y556056D02*
X4462693D01*
X4451264Y556818D02*
X4451772D01*
X4463456Y557072D02*
X4463964D01*
X4451518D02*
X4451772D01*
X4463710Y557326D02*
X4463964D01*
X4451518D02*
X4452025D01*
X4463964Y557580D02*
X4464218D01*
Y557834D02*
X4464472D01*
Y558088D02*
X4464726D01*
X4452280Y559358D02*
X4452534D01*
Y559612D02*
X4452787D01*
X4453042Y560628D02*
X4453296D01*
X4453042Y560882D02*
X4453296D01*
Y561136D02*
X4453549D01*
Y561898D02*
X4453804D01*
Y562152D02*
X4454058D01*
Y562660D02*
X4454312D01*
X4454566Y563422D02*
X4455074D01*
X4454820Y563676D02*
X4455074D01*
Y564184D02*
X4455327D01*
Y564438D02*
X4455582D01*
X4455327Y564692D02*
X4455582D01*
Y565200D02*
X4455836D01*
X4455582Y565454D02*
X4455836D01*
Y565708D02*
X4456089D01*
Y565962D02*
X4456344D01*
X4456089Y566216D02*
X4456344D01*
Y566470D02*
X4456598D01*
X4458122Y569010D02*
X4458376D01*
Y569518D02*
X4458629D01*
Y569772D02*
X4458884D01*
Y570026D02*
X4459138D01*
Y570280D02*
X4459391D01*
X4454820Y530402D02*
X4455074D01*
X4456344Y530656D02*
X4456598D01*
X4454566D02*
X4455074D01*
X4454566Y530910D02*
X4455074D01*
X4454566Y531164D02*
X4455074D01*
X4454566Y531418D02*
X4454820D01*
X4456852Y531672D02*
X4457360D01*
X4454566D02*
X4454820D01*
X4456852Y531926D02*
X4457360D01*
X4456598Y532434D02*
X4456852D01*
X4456598Y532688D02*
X4457106D01*
X4456344Y532942D02*
X4456852D01*
X4456344Y533196D02*
X4456852D01*
X4454058D02*
X4454312D01*
X4456598Y533450D02*
X4456852D01*
X4454058D02*
X4454312D01*
X4454058Y533704D02*
X4454312D01*
X4456344Y533958D02*
X4456598D01*
X4454058D02*
X4454312D01*
X4456344Y534212D02*
X4456598D01*
X4453804Y534466D02*
X4454058D01*
X4456598Y534720D02*
X4460408D01*
X4453804D02*
X4454058D01*
X4456598Y534974D02*
X4460408D01*
X4453804D02*
X4454058D01*
X4456598Y535228D02*
X4460408D01*
X4456598Y535482D02*
X4460408D01*
X4453549D02*
X4453804D01*
X4460916Y535736D02*
X4461170D01*
X4456598D02*
X4460408D01*
X4453296D02*
X4453804D01*
X4456344Y535990D02*
X4460154D01*
X4453296D02*
X4453549D01*
X4460916Y536244D02*
X4461170D01*
X4456344D02*
X4460154D01*
X4453296D02*
X4453549D01*
X4460916Y536498D02*
X4461170D01*
X4456344D02*
X4460154D01*
X4455836D02*
X4456089D01*
X4453296D02*
X4453549D01*
X4456344Y536752D02*
X4460154D01*
X4455582D02*
X4455836D01*
X4456089Y537006D02*
X4459900D01*
X4460408Y537260D02*
X4460662D01*
X4456089D02*
X4459900D01*
X4460154Y537514D02*
X4460662D01*
X4456089D02*
X4459900D01*
X4455074D02*
X4455582D01*
X4460408Y537768D02*
X4460662D01*
X4456089D02*
X4459900D01*
X4455327D02*
X4455582D01*
X4460408Y538022D02*
X4460662D01*
X4456089D02*
X4459646D01*
X4455327D02*
X4455582D01*
X4459900Y538276D02*
X4460154D01*
X4455836D02*
X4459646D01*
X4459900Y538530D02*
X4460154D01*
X4455836D02*
X4459646D01*
X4455074D02*
X4455327D01*
X4452787D02*
X4453042D01*
X4455836Y538784D02*
X4459646D01*
X4455074D02*
X4455327D01*
X4452787D02*
X4453296D01*
X4459646Y539038D02*
X4460408D01*
X4455836D02*
X4459391D01*
X4452787D02*
X4453042D01*
X4460154Y539292D02*
X4460662D01*
X4459646D02*
X4459900D01*
X4455836D02*
X4459391D01*
X4460154Y539546D02*
X4460662D01*
X4455836D02*
X4459646D01*
X4455074D02*
X4455327D01*
X4452534D02*
X4452787D01*
X4460154Y539800D02*
X4460408D01*
X4455582D02*
X4459646D01*
X4455074D02*
X4455327D01*
X4459900Y540054D02*
X4460408D01*
X4455582D02*
X4459391D01*
X4454820D02*
X4455327D01*
X4459900Y540308D02*
X4460154D01*
X4455582D02*
X4459391D01*
X4454820D02*
X4455074D01*
X4455582Y540562D02*
X4459646D01*
X4454820D02*
X4455074D01*
X4459646Y540816D02*
X4459900D01*
X4455327D02*
X4459138D01*
X4454820D02*
X4455074D01*
X4452280D02*
X4452534D01*
X4459391Y541070D02*
X4459900D01*
X4455327D02*
X4459138D01*
X4454566D02*
X4454820D01*
X4452280D02*
X4452534D01*
X4459391Y541324D02*
X4459646D01*
X4455074D02*
X4458884D01*
X4459138Y541578D02*
X4459391D01*
X4455074D02*
X4458884D01*
X4452025D02*
X4452534D01*
X4459138Y541832D02*
X4459646D01*
X4455074D02*
X4458629D01*
X4454312D02*
X4454820D01*
X4452025D02*
X4452280D01*
X4448723D02*
X4451772D01*
X4459138Y542086D02*
X4459391D01*
X4454820D02*
X4458629D01*
X4454312D02*
X4454566D01*
X4452025D02*
X4452280D01*
X4448978D02*
X4451772D01*
X4448470D02*
X4448723D01*
X4458884Y542340D02*
X4459138D01*
X4454820D02*
X4458629D01*
X4451772D02*
X4452280D01*
X4449232D02*
X4451518D01*
X4448470D02*
X4448978D01*
X4458884Y542594D02*
X4459138D01*
X4454820D02*
X4458629D01*
X4451772D02*
X4452280D01*
X4449485D02*
X4451518D01*
X4448723D02*
X4448978D01*
X4458884Y542848D02*
X4459138D01*
X4454820D02*
X4458629D01*
X4451772D02*
X4452025D01*
X4449740D02*
X4451518D01*
X4458884Y543102D02*
X4459138D01*
X4454566D02*
X4458376D01*
X4451772D02*
X4452025D01*
X4449994D02*
X4451264D01*
X4447200D02*
X4447454D01*
X4459391Y543356D02*
X4459646D01*
X4458629D02*
X4458884D01*
X4454566D02*
X4458376D01*
X4451518D02*
X4451772D01*
X4450247D02*
X4451264D01*
X4449485D02*
X4449994D01*
X4446692D02*
X4447200D01*
X4458629Y543610D02*
X4458884D01*
X4454820D02*
X4458376D01*
X4451518D02*
X4451772D01*
X4450502D02*
X4451264D01*
X4449740D02*
X4450247D01*
X4454566Y543864D02*
X4458122D01*
X4450247D02*
X4450502D01*
X4445930D02*
X4446438D01*
X4458884Y544118D02*
X4459391D01*
X4454566D02*
X4458376D01*
X4450247D02*
X4450756D01*
X4445676D02*
X4446183D01*
X4458884Y544372D02*
X4459138D01*
X4454566D02*
X4458376D01*
X4453804D02*
X4454058D01*
X4445421D02*
X4445930D01*
X4458884Y544626D02*
X4459138D01*
X4454312D02*
X4458122D01*
X4453804D02*
X4454058D01*
X4458884Y544880D02*
X4459138D01*
X4454312D02*
X4458122D01*
X4453804D02*
X4454058D01*
X4458629Y545134D02*
X4458884D01*
X4454312D02*
X4458122D01*
X4454312Y545388D02*
X4457868D01*
X4453549D02*
X4453804D01*
X4458376Y545642D02*
X4458884D01*
X4454312D02*
X4457868D01*
X4453549D02*
X4453804D01*
X4458376Y545896D02*
X4458884D01*
X4454058D02*
X4457868D01*
X4453296D02*
X4453549D01*
X4458629Y546150D02*
X4458884D01*
X4458122D02*
X4458376D01*
X4454058D02*
X4457868D01*
X4453296D02*
X4453549D01*
X4454058Y546404D02*
X4457868D01*
X4453296D02*
X4453549D01*
X4457868Y546658D02*
X4458122D01*
X4454058D02*
X4457614D01*
X4458376Y546912D02*
X4458629D01*
X4457868D02*
X4458122D01*
X4454058D02*
X4457614D01*
X4458376Y547166D02*
X4458629D01*
X4457868D02*
X4458122D01*
X4454312D02*
X4457614D01*
X4458122Y547420D02*
X4458629D01*
X4457614D02*
X4457868D01*
X4454566D02*
X4457360D01*
X4454058D02*
X4454312D01*
X4457614Y547674D02*
X4457868D01*
X4454820D02*
X4457360D01*
X4454312D02*
X4454566D01*
X4457614Y547928D02*
X4457868D01*
X4455074D02*
X4457360D01*
X4454566D02*
X4454820D01*
X4458122Y548182D02*
X4458376D01*
X4457614D02*
X4457868D01*
X4455327D02*
X4457360D01*
X4454820D02*
X4455074D01*
X4457614Y548436D02*
X4458122D01*
X4455582D02*
X4457106D01*
X4454820D02*
X4455327D01*
X4457868Y548690D02*
X4458122D01*
X4457360D02*
X4457614D01*
X4455836D02*
X4457106D01*
X4455327D02*
X4455582D01*
X4457868Y548944D02*
X4458122D01*
X4457360D02*
X4457614D01*
X4456089D02*
X4457106D01*
X4457360Y549198D02*
X4457614D01*
X4456598D02*
X4457106D01*
X4457868Y549452D02*
X4458122D01*
X4456089D02*
X4456344D01*
Y549706D02*
X4456852D01*
X4455074Y528878D02*
X4455327D01*
X4448216Y490778D02*
X4452280D01*
X4445930Y506018D02*
X4455582D01*
X4427896Y591362D02*
X4428150D01*
X4428404Y592886D02*
X4428658D01*
X4428150Y593140D02*
X4429166D01*
X4428404Y593394D02*
X4429673D01*
X4428912Y593648D02*
X4430182D01*
X4429420Y593902D02*
X4430690D01*
X4429928Y594156D02*
X4431198D01*
X4427642D02*
X4428150D01*
X4430435Y594410D02*
X4431706D01*
X4427642D02*
X4428658D01*
X4430690Y594664D02*
X4432214D01*
X4427388D02*
X4429166D01*
X4430690Y594918D02*
X4432975D01*
X4427388D02*
X4429673D01*
X4430944Y595172D02*
X4433484D01*
X4427133D02*
X4429928D01*
X4430944Y595426D02*
X4434246D01*
X4427133D02*
X4429928D01*
X4430944Y595680D02*
X4434754D01*
X4426880D02*
X4430182D01*
X4430944Y595934D02*
X4435516D01*
X4426880D02*
X4430182D01*
X4430944Y596188D02*
X4436277D01*
X4426626D02*
X4429928D01*
X4435770Y596442D02*
X4437039D01*
X4430944D02*
X4435008D01*
X4426626D02*
X4429928D01*
X4436024Y596696D02*
X4438056D01*
X4430944D02*
X4435008D01*
X4426371D02*
X4429673D01*
X4435770Y596950D02*
X4438818D01*
X4430690D02*
X4434754D01*
X4426371D02*
X4429673D01*
X4435770Y597204D02*
X4439834D01*
X4430690D02*
X4434754D01*
X4426118D02*
X4429420D01*
X4439326Y597458D02*
X4441104D01*
X4435770D02*
X4438818D01*
X4430435D02*
X4434754D01*
X4426118D02*
X4429420D01*
X4439834Y597712D02*
X4442374D01*
X4435770D02*
X4438818D01*
X4430435D02*
X4434500D01*
X4425864D02*
X4429166D01*
X4439579Y597966D02*
X4443898D01*
X4435516D02*
X4438564D01*
X4430182D02*
X4434500D01*
X4425864D02*
X4429166D01*
X4435516Y598220D02*
X4438564D01*
X4430182D02*
X4434500D01*
X4425864D02*
X4428912D01*
X4439579Y598474D02*
X4443898D01*
X4435516D02*
X4438564D01*
X4429928D02*
X4434500D01*
X4425610D02*
X4428912D01*
X4439579Y598728D02*
X4443643D01*
X4435262D02*
X4438310D01*
X4429928D02*
X4434246D01*
X4425610D02*
X4428658D01*
X4439326Y598982D02*
X4443390D01*
X4435262D02*
X4438310D01*
X4429673D02*
X4434246D01*
X4425356D02*
X4428658D01*
X4439326Y599236D02*
X4443390D01*
X4435262D02*
X4438310D01*
X4429673D02*
X4434246D01*
X4425356D02*
X4428404D01*
X4439326Y599490D02*
X4443390D01*
X4435262D02*
X4438310D01*
X4429420D02*
X4433992D01*
X4425102D02*
X4428404D01*
X4439326Y599744D02*
X4443390D01*
X4435008D02*
X4438056D01*
X4429420D02*
X4433992D01*
X4425102D02*
X4428150D01*
X4439072Y599998D02*
X4443390D01*
X4435008D02*
X4438056D01*
X4429166D02*
X4433992D01*
X4424848D02*
X4428150D01*
X4439072Y600252D02*
X4443390D01*
X4435008D02*
X4438056D01*
X4429166D02*
X4433992D01*
X4424848D02*
X4427896D01*
X4439072Y600506D02*
X4443390D01*
X4434754D02*
X4438056D01*
X4428912D02*
X4433737D01*
X4424848D02*
X4427896D01*
X4438818Y600760D02*
X4443136D01*
X4434754D02*
X4437802D01*
X4428912D02*
X4433737D01*
X4425356D02*
X4427896D01*
X4438818Y601014D02*
X4443136D01*
X4434754D02*
X4437802D01*
X4428658D02*
X4433737D01*
X4425864D02*
X4427642D01*
X4438818Y601268D02*
X4443136D01*
X4434754D02*
X4437802D01*
X4428658D02*
X4433484D01*
X4426371D02*
X4427642D01*
X4438818Y601522D02*
X4443136D01*
X4434500D02*
X4437548D01*
X4428404D02*
X4433484D01*
X4426880D02*
X4427388D01*
X4438564Y601776D02*
X4443136D01*
X4434500D02*
X4437548D01*
X4428404D02*
X4433484D01*
X4438564Y602030D02*
X4443136D01*
X4434500D02*
X4437548D01*
X4428150D02*
X4433484D01*
X4438564Y602284D02*
X4443136D01*
X4434500D02*
X4437548D01*
X4428150D02*
X4433230D01*
X4438310Y602538D02*
X4443136D01*
X4434246D02*
X4437294D01*
X4427896D02*
X4433230D01*
X4438310Y602792D02*
X4443136D01*
X4434246D02*
X4437294D01*
X4438310Y603046D02*
X4443136D01*
X4434246D02*
X4437294D01*
X4438310Y603300D02*
X4443136D01*
X4433992D02*
X4437039D01*
X4438056Y603554D02*
X4442881D01*
X4433992D02*
X4437039D01*
X4438056Y603808D02*
X4442881D01*
X4433992D02*
X4437039D01*
X4438056Y604062D02*
X4442881D01*
X4433992D02*
X4437039D01*
X4437802Y604316D02*
X4442881D01*
X4434754D02*
X4436786D01*
X4437802Y604570D02*
X4442881D01*
X4435516D02*
X4436786D01*
X4437802Y604824D02*
X4442881D01*
X4436277D02*
X4436786D01*
X4433737D02*
X4433992D01*
X4437802Y605078D02*
X4442881D01*
X4433484D02*
X4434754D01*
X4437548Y605332D02*
X4442881D01*
X4433484D02*
X4435262D01*
X4437548Y605586D02*
X4442881D01*
X4433484D02*
X4435770D01*
X4437294Y605840D02*
X4442881D01*
X4433484D02*
X4436532D01*
X4433230Y606094D02*
X4442881D01*
X4433230Y606348D02*
X4442628D01*
X4433230Y606602D02*
X4442881D01*
X4432975Y606856D02*
X4442881D01*
X4432975Y607110D02*
X4443390D01*
X4424848Y607618D02*
X4431706D01*
X4425610Y607872D02*
X4431706D01*
X4426118Y608126D02*
X4431706D01*
X4426626Y608380D02*
X4431706D01*
X4427388Y608634D02*
X4431452D01*
X4427896Y608888D02*
X4431452D01*
X4428658Y609142D02*
X4431452D01*
X4429420Y609396D02*
X4431198D01*
X4430182Y609650D02*
X4431198D01*
X4430944Y609904D02*
X4431198D01*
X4425864Y590092D02*
X4428658D01*
X4426118Y590346D02*
X4428658D01*
X4426626Y590600D02*
X4428404D01*
X4426880Y590854D02*
X4428404D01*
X4435516Y550976D02*
X4436024D01*
X4435770Y551230D02*
X4436024D01*
X4435770Y551484D02*
X4436277D01*
X4437548Y553516D02*
X4437802D01*
Y553770D02*
X4438056D01*
X4440088Y554024D02*
X4440341D01*
X4440596Y554278D02*
X4441612D01*
X4440088D02*
X4440341D01*
X4439326D02*
X4439579D01*
X4438056D02*
X4439072D01*
X4438310Y554532D02*
X4438564D01*
X4433992Y544880D02*
X4436277D01*
X4442628Y545134D02*
X4443136D01*
X4441358D02*
X4442374D01*
X4440088D02*
X4440341D01*
X4436786D02*
X4438310D01*
X4433737D02*
X4434246D01*
X4443898Y545388D02*
X4444406D01*
X4442628D02*
X4442881D01*
X4441866D02*
X4442120D01*
X4437294D02*
X4439326D01*
X4436277D02*
X4436786D01*
X4435008D02*
X4435262D01*
X4433737D02*
X4434246D01*
X4431452D02*
X4431706D01*
X4431198Y545642D02*
X4431706D01*
Y546150D02*
X4432214D01*
X4431960Y546658D02*
X4432468D01*
X4432214Y546912D02*
X4432468D01*
Y547166D02*
X4432722D01*
Y547420D02*
X4432975D01*
X4432722Y547674D02*
X4432975D01*
Y547928D02*
X4433230D01*
Y548182D02*
X4433484D01*
X4433737Y548690D02*
X4433992D01*
X4434754Y549706D02*
X4435008D01*
X4434754Y549960D02*
X4435262D01*
X4435008Y550214D02*
X4435262D01*
X4419260Y591362D02*
X4422816D01*
X4419514Y591616D02*
X4422562D01*
X4420022Y591870D02*
X4422308D01*
X4418244D02*
X4418498D01*
X4420276Y592124D02*
X4422054D01*
X4418244D02*
X4419006D01*
X4420529Y592378D02*
X4421800D01*
X4417990D02*
X4419260D01*
X4404274D02*
X4416974D01*
X4421038Y592632D02*
X4421546D01*
X4417990D02*
X4419514D01*
X4404528D02*
X4416974D01*
X4417736Y592886D02*
X4420022D01*
X4404781D02*
X4416720D01*
X4417482Y593140D02*
X4420276D01*
X4405036D02*
X4416720D01*
X4417482Y593394D02*
X4420529D01*
X4405290D02*
X4416465D01*
X4417227Y593648D02*
X4420276D01*
X4405544D02*
X4416465D01*
X4417227Y593902D02*
X4420022D01*
X4405798D02*
X4416212D01*
X4416974Y594156D02*
X4419767D01*
X4406052D02*
X4416212D01*
X4416974Y594410D02*
X4419514D01*
X4406306D02*
X4415958D01*
X4416720Y594664D02*
X4419260D01*
X4406559D02*
X4415958D01*
X4416720Y594918D02*
X4419006D01*
X4406814D02*
X4415704D01*
X4416465Y595172D02*
X4418752D01*
X4407068D02*
X4415704D01*
X4416465Y595426D02*
X4418498D01*
X4407321D02*
X4415450D01*
X4416212Y595680D02*
X4418244D01*
X4407576D02*
X4415450D01*
X4416212Y595934D02*
X4417990D01*
X4407830D02*
X4415196D01*
X4415958Y596188D02*
X4417736D01*
X4408083D02*
X4415196D01*
X4415958Y596442D02*
X4417482D01*
X4408338D02*
X4414942D01*
X4415704Y596696D02*
X4417227D01*
X4408592D02*
X4414942D01*
X4415704Y596950D02*
X4416974D01*
X4408846D02*
X4414688D01*
X4415450Y597204D02*
X4416720D01*
X4409100D02*
X4414688D01*
X4415450Y597458D02*
X4416465D01*
X4409354D02*
X4414434D01*
X4415196Y597712D02*
X4416212D01*
X4409608D02*
X4414434D01*
X4415196Y597966D02*
X4415958D01*
X4409861D02*
X4414180D01*
X4414942Y598220D02*
X4415704D01*
X4410370D02*
X4414180D01*
X4414942Y598474D02*
X4415450D01*
X4410623D02*
X4413925D01*
X4414688Y598728D02*
X4415196D01*
X4410878D02*
X4413925D01*
X4414688Y598982D02*
X4414942D01*
X4411132D02*
X4413672D01*
X4415704Y599236D02*
X4424086D01*
X4411385D02*
X4413672D01*
X4415450Y599490D02*
X4424086D01*
X4411894D02*
X4413418D01*
X4415196Y599744D02*
X4423831D01*
X4412148D02*
X4413418D01*
X4414942Y599998D02*
X4423831D01*
X4412402D02*
X4413163D01*
X4414688Y600252D02*
X4423578D01*
X4412656D02*
X4413163D01*
X4414434Y600506D02*
X4423578D01*
X4414180Y600760D02*
X4423324D01*
X4413925Y601014D02*
X4424086D01*
X4420022Y587806D02*
X4421038D01*
X4420276Y588060D02*
X4421292D01*
X4420276Y588314D02*
X4421800D01*
X4420022Y588568D02*
X4422054D01*
X4419767Y588822D02*
X4422308D01*
X4419767Y589076D02*
X4422562D01*
X4419514Y589330D02*
X4423069D01*
X4419514Y589584D02*
X4423324D01*
X4419260Y589838D02*
X4423831D01*
X4419260Y590092D02*
X4424086D01*
X4418752Y590854D02*
X4423324D01*
X4389034Y551230D02*
X4403766D01*
X4389034Y551484D02*
X4403766D01*
X4389034Y551738D02*
X4403766D01*
X4389034Y551992D02*
X4403766D01*
D15*
X4694910Y928808D02*
Y964608D01*
X4638910D02*
X4694910D01*
X4638910Y928808D02*
X4694910D01*
X4638910D02*
Y964608D01*
D16*
X4754579Y605148D02*
X4986580D01*
Y545148D02*
Y605148D01*
X4754579Y545148D02*
X4986580D01*
X4754579D02*
Y605148D01*
X4742620Y662468D02*
Y924618D01*
Y662468D02*
X4986460D01*
Y924618D01*
X4884539Y986768D02*
X4986460Y924618D01*
X4844539Y986768D02*
X4884539D01*
X4742620Y924618D02*
X4844539Y986768D01*
X4639480Y713428D02*
Y763428D01*
X4671479Y713428D02*
Y763428D01*
D17*
X4796764Y526571D02*
X4795098Y528237D01*
X4791766D01*
X4790099Y526571D01*
Y519907D01*
X4791766Y518241D01*
X4795098D01*
X4796764Y519907D01*
Y523239D01*
X4793432D01*
X4800096Y518241D02*
Y528237D01*
X4806761Y518241D01*
Y528237D01*
X4810093D02*
Y518241D01*
X4815092D01*
X4816758Y519907D01*
Y526571D01*
X4815092Y528237D01*
X4810093D01*
X4821756Y516574D02*
X4823422Y518241D01*
Y519907D01*
X4821756D01*
Y518241D01*
X4823422D01*
X4821756Y516574D01*
X4820090Y514908D01*
X4830087Y518241D02*
Y528237D01*
X4833419Y524905D01*
X4836751Y528237D01*
Y518241D01*
X4845082Y528237D02*
X4841750D01*
X4840084Y526571D01*
Y519907D01*
X4841750Y518241D01*
X4845082D01*
X4846748Y519907D01*
Y526571D01*
X4845082Y528237D01*
X4856745Y526571D02*
X4855079Y528237D01*
X4851747D01*
X4850080Y526571D01*
Y524905D01*
X4851747Y523239D01*
X4855079D01*
X4856745Y521573D01*
Y519907D01*
X4855079Y518241D01*
X4851747D01*
X4850080Y519907D01*
X4860077Y528237D02*
X4863409D01*
X4861743D01*
Y518241D01*
X4860077D01*
X4863409D01*
X4870074Y516574D02*
X4871740Y518241D01*
Y519907D01*
X4870074D01*
Y518241D01*
X4871740D01*
X4870074Y516574D01*
X4868408Y514908D01*
X4878405Y518241D02*
Y528237D01*
X4881737Y524905D01*
X4885069Y528237D01*
Y518241D01*
X4888401Y528237D02*
X4891733D01*
X4890067D01*
Y518241D01*
X4888401D01*
X4891733D01*
X4903396Y526571D02*
X4901730Y528237D01*
X4898398D01*
X4896732Y526571D01*
Y524905D01*
X4898398Y523239D01*
X4901730D01*
X4903396Y521573D01*
Y519907D01*
X4901730Y518241D01*
X4898398D01*
X4896732Y519907D01*
X4911727Y528237D02*
X4908395D01*
X4906729Y526571D01*
Y519907D01*
X4908395Y518241D01*
X4911727D01*
X4913393Y519907D01*
Y526571D01*
X4911727Y528237D01*
X4918392Y516574D02*
X4920058Y518241D01*
Y519907D01*
X4918392D01*
Y518241D01*
X4920058D01*
X4918392Y516574D01*
X4916725Y514908D01*
X4933387Y526571D02*
X4931721Y528237D01*
X4928388D01*
X4926722Y526571D01*
Y524905D01*
X4928388Y523239D01*
X4931721D01*
X4933387Y521573D01*
Y519907D01*
X4931721Y518241D01*
X4928388D01*
X4926722Y519907D01*
X4943383Y526571D02*
X4941718Y528237D01*
X4938385D01*
X4936719Y526571D01*
Y519907D01*
X4938385Y518241D01*
X4941718D01*
X4943383Y519907D01*
X4946716Y528237D02*
Y518241D01*
Y521573D01*
X4953380Y528237D01*
X4948382Y523239D01*
X4953380Y518241D01*
X4958379Y516574D02*
X4960045Y518241D01*
Y519907D01*
X4958379D01*
Y518241D01*
X4960045D01*
X4958379Y516574D01*
X4956713Y514908D01*
X4966709Y518241D02*
Y528237D01*
X4971708D01*
X4973374Y526571D01*
Y523239D01*
X4971708Y521573D01*
X4966709D01*
X4970042D02*
X4973374Y518241D01*
X4983371Y526571D02*
X4981705Y528237D01*
X4978372D01*
X4976706Y526571D01*
Y524905D01*
X4978372Y523239D01*
X4981705D01*
X4983371Y521573D01*
Y519907D01*
X4981705Y518241D01*
X4978372D01*
X4976706Y519907D01*
X4986703Y528237D02*
X4993368D01*
X4990035D01*
Y518241D01*
X4636430Y874884D02*
X4644427D01*
X4640428D01*
Y862888D01*
X4648426D02*
Y870886D01*
X4652425Y874884D01*
X4656423Y870886D01*
Y862888D01*
Y868886D01*
X4648426D01*
X4660422Y874884D02*
Y862888D01*
Y866887D01*
X4668419Y874884D01*
X4662421Y868886D01*
X4668419Y862888D01*
X4672418Y874884D02*
X4676417D01*
X4674417D01*
Y862888D01*
X4672418D01*
X4676417D01*
X4682415D02*
Y874884D01*
X4686414Y870886D01*
X4690412Y874884D01*
Y862888D01*
X4694411Y874884D02*
X4698410D01*
X4696410D01*
Y862888D01*
X4694411D01*
X4698410D01*
X4638970Y881938D02*
Y894934D01*
X4645468D01*
X4647633Y892768D01*
Y888436D01*
X4645468Y886270D01*
X4638970D01*
X4643302D02*
X4647633Y881938D01*
X4658463Y894934D02*
X4654131D01*
X4651965Y892768D01*
Y884104D01*
X4654131Y881938D01*
X4658463D01*
X4660629Y884104D01*
Y892768D01*
X4658463Y894934D01*
X4664961D02*
Y881938D01*
Y886270D01*
X4673625Y894934D01*
X4667127Y888436D01*
X4673625Y881938D01*
X4686621Y894934D02*
X4677957D01*
Y881938D01*
X4686621D01*
X4677957Y888436D02*
X4682289D01*
X4690953Y894934D02*
X4699617D01*
X4695285D01*
Y881938D01*
X4618650Y902258D02*
Y911589D01*
X4623315Y916254D01*
X4627980Y911589D01*
Y902258D01*
Y909256D01*
X4618650D01*
X4632645Y902258D02*
Y916254D01*
X4639643D01*
X4641975Y913921D01*
Y909256D01*
X4639643Y906924D01*
X4632645D01*
X4646641Y916254D02*
Y902258D01*
Y909256D01*
X4655971D01*
Y916254D01*
Y902258D01*
X4669966Y916254D02*
X4660636D01*
Y902258D01*
X4669966D01*
X4660636Y909256D02*
X4665301D01*
X4674631Y916254D02*
Y902258D01*
X4683962D01*
X4688627Y916254D02*
X4693292D01*
X4690959D01*
Y902258D01*
X4688627D01*
X4693292D01*
X4707288Y916254D02*
X4702622D01*
X4700290Y913921D01*
Y904591D01*
X4702622Y902258D01*
X4707288D01*
X4709620Y904591D01*
Y913921D01*
X4707288Y916254D01*
X4714285Y902258D02*
Y916254D01*
X4723616Y902258D01*
Y916254D01*
X4611370Y997742D02*
X4618034D01*
X4614702Y1001075D02*
Y994410D01*
X4892400Y489560D02*
X4892262Y501556D01*
X4896260Y501602D02*
X4896398Y489606D01*
X4890309Y497534D02*
X4896306Y497603D01*
X4898305Y497626D01*
X4890354Y493536D02*
X4898351Y493628D01*
X4902396Y489675D02*
X4906394Y489721D01*
X4904395Y489698D01*
X4904257Y501693D01*
X4902281Y499671D01*
X4920251Y501877D02*
X4912254Y501785D01*
X4912323Y495788D01*
X4916298Y497833D01*
X4918297Y497856D01*
X4920320Y495880D01*
X4920366Y491881D01*
X4918389Y489859D01*
X4914391Y489813D01*
X4912369Y491789D01*
X4924387Y489928D02*
X4928386Y489974D01*
X4926386Y489951D01*
X4926248Y501946D01*
X4924272Y499924D01*
X4934383Y490043D02*
X4938382Y490089D01*
X4936382Y490066D01*
X4936245Y502061D01*
X4934268Y500039D01*
X4952376Y490250D02*
X4944379Y490158D01*
X4952284Y498247D01*
X4952261Y500246D01*
X4950239Y502222D01*
X4946241Y502176D01*
X4944265Y500154D01*
X4956260Y500292D02*
X4958236Y502314D01*
X4962234Y502360D01*
X4964257Y500384D01*
X4964348Y492387D01*
X4962372Y490365D01*
X4958374Y490319D01*
X4956352Y492295D01*
X4956260Y500292D01*
X4968370Y490434D02*
X4972368Y490480D01*
X4970369Y490457D01*
X4970231Y502452D01*
X4968255Y500430D01*
X4978251Y500545D02*
X4980227Y502567D01*
X4984226Y502613D01*
X4986248Y500636D01*
X4986271Y498637D01*
X4984295Y496615D01*
X4986317Y494639D01*
X4986340Y492640D01*
X4984364Y490617D01*
X4980365Y490571D01*
X4978343Y492548D01*
X4978320Y494547D01*
X4980296Y496569D01*
X4978274Y498545D01*
X4978251Y500545D01*
X4980296Y496569D02*
X4984295Y496615D01*
X4606905Y790417D02*
Y788751D01*
X4610237Y785418D01*
X4613570Y788751D01*
Y790417D01*
X4610237Y785418D02*
Y780420D01*
X4616902D02*
X4620234D01*
X4618568D01*
Y790417D01*
X4616902Y788751D01*
X4776114Y550550D02*
Y558881D01*
X4774448Y560547D01*
X4771116D01*
X4769449Y558881D01*
Y550550D01*
X4766117Y560547D02*
X4762785D01*
X4764451D01*
Y550550D01*
X4766117Y552216D01*
X4828281Y642619D02*
X4838278D01*
Y637621D01*
X4836612Y635954D01*
X4833280D01*
X4831613Y637621D01*
Y642619D01*
Y639287D02*
X4828281Y635954D01*
Y625958D02*
Y632622D01*
X4834946Y625958D01*
X4836612D01*
X4838278Y627624D01*
Y630956D01*
X4836612Y632622D01*
X4385925Y955680D02*
Y965677D01*
X4390923D01*
X4392590Y964010D01*
Y960678D01*
X4390923Y959012D01*
X4385925D01*
X4389258D02*
X4392590Y955680D01*
X4395922D02*
X4399254D01*
X4397588D01*
Y965677D01*
X4395922Y964010D01*
X4371158Y759063D02*
X4361161D01*
Y752398D01*
Y749066D02*
Y745734D01*
Y747400D01*
X4371158D01*
X4369492Y749066D01*
X4754744Y977107D02*
X4758076D01*
X4756410D01*
Y967110D01*
X4754744D01*
X4758076D01*
X4769739Y975441D02*
X4768073Y977107D01*
X4764741D01*
X4763074Y975441D01*
Y968776D01*
X4764741Y967110D01*
X4768073D01*
X4769739Y968776D01*
X4779736Y977107D02*
X4773071D01*
Y972108D01*
X4776404Y973774D01*
X4778069D01*
X4779736Y972108D01*
Y968776D01*
X4778069Y967110D01*
X4774737D01*
X4773071Y968776D01*
X4462358Y683614D02*
Y680282D01*
Y681948D01*
X4452361D01*
Y683614D01*
Y680282D01*
X4460692Y668619D02*
X4462358Y670285D01*
Y673617D01*
X4460692Y675284D01*
X4454027D01*
X4452361Y673617D01*
Y670285D01*
X4454027Y668619D01*
X4452361Y660288D02*
X4462358D01*
X4457360Y665287D01*
Y658622D01*
X4392854Y648177D02*
X4396186D01*
X4394520D01*
Y638180D01*
X4392854D01*
X4396186D01*
X4407849Y646510D02*
X4406183Y648177D01*
X4402851D01*
X4401184Y646510D01*
Y639846D01*
X4402851Y638180D01*
X4406183D01*
X4407849Y639846D01*
X4411181Y646510D02*
X4412847Y648177D01*
X4416180D01*
X4417845Y646510D01*
Y644844D01*
X4416180Y643178D01*
X4414513D01*
X4416180D01*
X4417845Y641512D01*
Y639846D01*
X4416180Y638180D01*
X4412847D01*
X4411181Y639846D01*
X4547734Y1008857D02*
X4551066D01*
X4549400D01*
Y998860D01*
X4547734D01*
X4551066D01*
X4562729Y1007190D02*
X4561063Y1008857D01*
X4557730D01*
X4556064Y1007190D01*
Y1000526D01*
X4557730Y998860D01*
X4561063D01*
X4562729Y1000526D01*
X4572726Y998860D02*
X4566061D01*
X4572726Y1005524D01*
Y1007190D01*
X4571060Y1008857D01*
X4567727D01*
X4566061Y1007190D01*
X4468120Y1008857D02*
X4471452D01*
X4469786D01*
Y998860D01*
X4468120D01*
X4471452D01*
X4483115Y1007190D02*
X4481449Y1008857D01*
X4478116D01*
X4476451Y1007190D01*
Y1000526D01*
X4478116Y998860D01*
X4481449D01*
X4483115Y1000526D01*
X4486447Y998860D02*
X4489779D01*
X4488113D01*
Y1008857D01*
X4486447Y1007190D01*
X4382197Y1003777D02*
Y993780D01*
X4387195D01*
X4388861Y995446D01*
Y1002111D01*
X4387195Y1003777D01*
X4382197D01*
X4398858Y1002111D02*
X4397192Y1003777D01*
X4393860D01*
X4392194Y1002111D01*
Y1000444D01*
X4393860Y998778D01*
X4397192D01*
X4398858Y997112D01*
Y995446D01*
X4397192Y993780D01*
X4393860D01*
X4392194Y995446D01*
X4402190Y993780D02*
X4405522D01*
X4403857D01*
Y1003777D01*
X4402190Y1002111D01*
X4995848Y641349D02*
X4985851D01*
Y636351D01*
X4987517Y634684D01*
X4994182D01*
X4995848Y636351D01*
Y641349D01*
X4985851Y624688D02*
Y631352D01*
X4992516Y624688D01*
X4994182D01*
X4995848Y626354D01*
Y629686D01*
X4994182Y631352D01*
X4369252Y678220D02*
X4370918Y679886D01*
Y683218D01*
X4369252Y684884D01*
X4362587D01*
X4360921Y683218D01*
Y679886D01*
X4362587Y678220D01*
X4360921Y674887D02*
Y671555D01*
Y673221D01*
X4370918D01*
X4369252Y674887D01*
X4360921Y661558D02*
X4370918D01*
X4365919Y666557D01*
Y659892D01*
X4369252Y836970D02*
X4370918Y838636D01*
Y841968D01*
X4369252Y843634D01*
X4362587D01*
X4360921Y841968D01*
Y838636D01*
X4362587Y836970D01*
X4360921Y833637D02*
Y830305D01*
Y831971D01*
X4370918D01*
X4369252Y833637D01*
Y825307D02*
X4370918Y823641D01*
Y820308D01*
X4369252Y818642D01*
X4367586D01*
X4365919Y820308D01*
Y821974D01*
Y820308D01*
X4364254Y818642D01*
X4362587D01*
X4360921Y820308D01*
Y823641D01*
X4362587Y825307D01*
X4369252Y717590D02*
X4370918Y719256D01*
Y722588D01*
X4369252Y724254D01*
X4362587D01*
X4360921Y722588D01*
Y719256D01*
X4362587Y717590D01*
X4360921Y714257D02*
Y710925D01*
Y712591D01*
X4370918D01*
X4369252Y714257D01*
X4360921Y699262D02*
Y705927D01*
X4367586Y699262D01*
X4369252D01*
X4370918Y700928D01*
Y704261D01*
X4369252Y705927D01*
X4369252Y797204D02*
X4370918Y798870D01*
Y802202D01*
X4369252Y803868D01*
X4362587D01*
X4360921Y802202D01*
Y798870D01*
X4362587Y797204D01*
X4360921Y793871D02*
Y790539D01*
Y792205D01*
X4370918D01*
X4369252Y793871D01*
X4360921Y785541D02*
Y782208D01*
Y783875D01*
X4370918D01*
X4369252Y785541D01*
X4668972Y845860D02*
X4670638Y847526D01*
Y850858D01*
X4668972Y852524D01*
X4662307D01*
X4660641Y850858D01*
Y847526D01*
X4662307Y845860D01*
X4660641Y842527D02*
Y839195D01*
Y840861D01*
X4670638D01*
X4668972Y842527D01*
Y834197D02*
X4670638Y832531D01*
Y829198D01*
X4668972Y827532D01*
X4662307D01*
X4660641Y829198D01*
Y832531D01*
X4662307Y834197D01*
X4668972D01*
X4668972Y813754D02*
X4670638Y815421D01*
Y818753D01*
X4668972Y820419D01*
X4662307D01*
X4660641Y818753D01*
Y815421D01*
X4662307Y813754D01*
Y810422D02*
X4660641Y808756D01*
Y805424D01*
X4662307Y803758D01*
X4668972D01*
X4670638Y805424D01*
Y808756D01*
X4668972Y810422D01*
X4667306D01*
X4665640Y808756D01*
Y803758D01*
X4589472Y840424D02*
X4591138Y842091D01*
Y845423D01*
X4589472Y847089D01*
X4582807D01*
X4581141Y845423D01*
Y842091D01*
X4582807Y840424D01*
X4589472Y837092D02*
X4591138Y835426D01*
Y832094D01*
X4589472Y830428D01*
X4587806D01*
X4586140Y832094D01*
X4584474Y830428D01*
X4582807D01*
X4581141Y832094D01*
Y835426D01*
X4582807Y837092D01*
X4584474D01*
X4586140Y835426D01*
X4587806Y837092D01*
X4589472D01*
X4586140Y835426D02*
Y832094D01*
X4369252Y864554D02*
X4370918Y866220D01*
Y869553D01*
X4369252Y871219D01*
X4362587D01*
X4360921Y869553D01*
Y866220D01*
X4362587Y864554D01*
X4370918Y861222D02*
Y854558D01*
X4369252D01*
X4362587Y861222D01*
X4360921D01*
X4369252Y895034D02*
X4370918Y896701D01*
Y900033D01*
X4369252Y901699D01*
X4362587D01*
X4360921Y900033D01*
Y896701D01*
X4362587Y895034D01*
X4370918Y885038D02*
X4369252Y888370D01*
X4365920Y891702D01*
X4362587D01*
X4360921Y890036D01*
Y886704D01*
X4362587Y885038D01*
X4364254D01*
X4365920Y886704D01*
Y891702D01*
X4661433Y609680D02*
X4659767Y611347D01*
X4656435D01*
X4654769Y609680D01*
Y603016D01*
X4656435Y601350D01*
X4659767D01*
X4661433Y603016D01*
X4671430Y611347D02*
X4664766D01*
Y606348D01*
X4668098Y608014D01*
X4669764D01*
X4671430Y606348D01*
Y603016D01*
X4669764Y601350D01*
X4666432D01*
X4664766Y603016D01*
X4709694Y609680D02*
X4708027Y611347D01*
X4704695D01*
X4703029Y609680D01*
Y603016D01*
X4704695Y601350D01*
X4708027D01*
X4709694Y603016D01*
X4718024Y601350D02*
Y611347D01*
X4713026Y606348D01*
X4719690D01*
X4590232Y813754D02*
X4591898Y815421D01*
Y818753D01*
X4590232Y820419D01*
X4583568D01*
X4581901Y818753D01*
Y815421D01*
X4583568Y813754D01*
X4590232Y810422D02*
X4591898Y808756D01*
Y805424D01*
X4590232Y803758D01*
X4588566D01*
X4586900Y805424D01*
Y807090D01*
Y805424D01*
X4585233Y803758D01*
X4583568D01*
X4581901Y805424D01*
Y808756D01*
X4583568Y810422D01*
X4515302Y813754D02*
X4516968Y815421D01*
Y818753D01*
X4515302Y820419D01*
X4508637D01*
X4506971Y818753D01*
Y815421D01*
X4508637Y813754D01*
X4506971Y803758D02*
Y810422D01*
X4513636Y803758D01*
X4515302D01*
X4516968Y805424D01*
Y808756D01*
X4515302Y810422D01*
X4515302Y840028D02*
X4516968Y841694D01*
Y845027D01*
X4515302Y846693D01*
X4508637D01*
X4506971Y845027D01*
Y841694D01*
X4508637Y840028D01*
X4506971Y836696D02*
Y833364D01*
Y835030D01*
X4516968D01*
X4515302Y836696D01*
X4696257Y778590D02*
X4697924Y780257D01*
X4701256D01*
X4702922Y778590D01*
Y776924D01*
X4701256Y775258D01*
X4699590D01*
X4701256D01*
X4702922Y773592D01*
Y771926D01*
X4701256Y770260D01*
X4697924D01*
X4696257Y771926D01*
X4704192Y730890D02*
X4697527D01*
X4704192Y737554D01*
Y739221D01*
X4702526Y740887D01*
X4699193D01*
X4697527Y739221D01*
X4653851Y659307D02*
Y664386D01*
Y661846D01*
X4638616D01*
X4641155Y659307D01*
D18*
X4791290Y506800D02*
X4799620D01*
X4795455D01*
Y481808D01*
X4791290D01*
X4799620D01*
X4828777Y502635D02*
X4824612Y506800D01*
X4816282D01*
X4812116Y502635D01*
Y485974D01*
X4816282Y481808D01*
X4824612D01*
X4828777Y485974D01*
X4853770Y502635D02*
X4849604Y506800D01*
X4841273D01*
X4837108Y502635D01*
Y498470D01*
X4841273Y494304D01*
X4849604D01*
X4853770Y490139D01*
Y485974D01*
X4849604Y481808D01*
X4841273D01*
X4837108Y485974D01*
X4862100Y481808D02*
Y506800D01*
X4874596D01*
X4878761Y502635D01*
Y494304D01*
X4874596Y490139D01*
X4862100D01*
D19*
X4726477Y582218D02*
Y572221D01*
X4731476Y577220D02*
X4721479D01*
X4416720Y723311D02*
X4406723D01*
X4411721Y718312D02*
Y728309D01*
X4415450Y808401D02*
X4405453D01*
X4410451Y803402D02*
Y813399D01*
M02*
