M48
;Layer_Color=9474304
;FILE_FORMAT=4:4
METRIC,LZ
;TYPE=PLATED
T1F00S00C0.3000
T2F00S00C0.4000
T3F00S00C0.8000
T4F00S00C0.9000
T5F00S00C0.9200
T6F00S00C1.2000
T7F00S00C3.0000
%
T01
X0457674Y00794308
X0456658
T02
X0457674Y00492048
X0456658Y00518718
X0459198Y00648258
X0460849Y00649528
X0461865
X0462881Y00682548
X04688499Y00683818
X04683419Y00653338
X04652939Y00622858
X046377Y00789228
X04583735Y00899073
X0455515Y00898448
X045361
X0451451Y00876858
X0447895Y00898448
X0443577Y00855268
T03
X0471009Y00558408
Y00578408
X0441164Y00709218
X0439164
X0439037Y00794308
X0441037
T04
X0476851Y00492048
X0474311
X0471771
X0469231
X04666909
T05
X04974539Y00734618
Y00754618
Y00774618
X04754539
Y00754618
Y00734618
Y00794618
Y00814618
Y00834618
Y00854618
Y00874618
Y00894618
Y00914618
X04974539
Y00894618
Y00874618
Y00854618
Y00834618
Y00814618
Y00794618
T06
X0492058Y00593648
X0487058Y00556648
X0482058Y00593648
T07
X0498856Y0043561
X0432054
Y0103378
X0498856
M30
