G04*
G04 #@! TF.GenerationSoftware,Altium Limited,Altium Designer,20.0.13 (296)*
G04*
G04 Layer_Physical_Order=1*
G04 Layer_Color=255*
%FSLAX44Y44*%
%MOMM*%
G71*
G01*
G75*
%ADD18C,0.5000*%
%ADD20R,1.0000X1.0500*%
%ADD21R,1.0500X2.2000*%
%ADD22R,1.2700X0.7600*%
%ADD23R,2.5000X2.2000*%
%ADD24R,0.9500X1.3000*%
%ADD25R,3.2500X1.3000*%
%ADD26R,1.3500X1.9000*%
%ADD27R,1.5500X1.2000*%
%ADD28R,1.5000X1.9000*%
%ADD29R,1.5000X1.2000*%
%ADD30R,2.6500X1.7500*%
%ADD31R,2.5000X1.0000*%
%ADD32R,1.3500X1.8500*%
%ADD33R,1.5000X0.6000*%
%ADD34R,0.6000X1.5000*%
%ADD35R,1.9000X1.3500*%
%ADD36R,2.4000X2.0000*%
%ADD37R,1.0500X1.7500*%
%ADD38R,1.0200X1.7800*%
%ADD39R,1.3500X1.2000*%
%ADD40R,0.9500X1.7000*%
%ADD73C,0.8000*%
%ADD74R,3.0000X3.0000*%
%ADD75C,1.5000*%
%ADD76R,1.5000X1.5000*%
%ADD77C,1.3000*%
%ADD78R,1.3000X1.3000*%
%ADD79C,1.8000*%
%ADD80C,1.4500*%
%ADD81R,1.3000X1.3000*%
%ADD82C,6.0000*%
%ADD83C,0.6000*%
%ADD84C,0.5000*%
G36*
X5039740Y384810D02*
X4269740D01*
Y1084810D01*
X5039740D01*
Y384810D01*
D02*
G37*
%LPC*%
G36*
X4598169Y1006108D02*
X4598045Y1006084D01*
X4597922Y1006108D01*
X4446642D01*
X4446641Y1006108D01*
X4445081Y1005798D01*
X4443758Y1004914D01*
X4443758Y1004914D01*
X4436696Y997852D01*
X4435812Y996529D01*
X4435501Y994968D01*
X4435501Y994968D01*
Y973798D01*
X4433003Y971299D01*
X4431830Y971785D01*
Y990728D01*
X4413830D01*
Y974496D01*
X4407731Y968397D01*
X4407731Y968397D01*
X4383302Y943968D01*
X4358270D01*
Y918968D01*
X4386270D01*
Y935401D01*
X4412304Y961435D01*
X4432985D01*
X4432985Y961435D01*
X4434545Y961745D01*
X4435869Y962629D01*
X4442463Y969224D01*
X4443347Y970548D01*
X4443658Y972108D01*
X4443658Y972108D01*
Y993279D01*
X4448331Y997952D01*
X4596479D01*
X4607876Y986555D01*
X4607876Y986555D01*
X4609199Y985671D01*
X4610760Y985361D01*
X4610760Y985361D01*
X4618296D01*
Y973378D01*
X4618772Y972230D01*
X4619920Y971755D01*
X4649920D01*
X4651068Y972230D01*
X4651543Y973378D01*
Y1003378D01*
X4651068Y1004526D01*
X4649920Y1005002D01*
X4619920D01*
X4618772Y1004526D01*
X4618296Y1003378D01*
Y993517D01*
X4612449D01*
X4601053Y1004914D01*
X4599730Y1005798D01*
X4598169Y1006108D01*
D02*
G37*
G36*
X4988560Y1065377D02*
X4983617Y1064988D01*
X4978796Y1063831D01*
X4974215Y1061934D01*
X4969987Y1059343D01*
X4966217Y1056123D01*
X4962997Y1052353D01*
X4960406Y1048125D01*
X4958509Y1043544D01*
X4957352Y1038723D01*
X4956963Y1033780D01*
X4957352Y1028837D01*
X4958509Y1024016D01*
X4960406Y1019435D01*
X4962997Y1015208D01*
X4966217Y1011437D01*
X4969987Y1008217D01*
X4974215Y1005627D01*
X4978796Y1003729D01*
X4983617Y1002572D01*
X4988560Y1002183D01*
X4993503Y1002572D01*
X4998324Y1003729D01*
X5002905Y1005627D01*
X5007133Y1008217D01*
X5010903Y1011437D01*
X5014123Y1015208D01*
X5016714Y1019435D01*
X5018611Y1024016D01*
X5019768Y1028837D01*
X5020157Y1033780D01*
X5019768Y1038723D01*
X5018611Y1043544D01*
X5016714Y1048125D01*
X5014123Y1052353D01*
X5010903Y1056123D01*
X5007133Y1059343D01*
X5002905Y1061934D01*
X4998324Y1063831D01*
X4993503Y1064988D01*
X4988560Y1065377D01*
D02*
G37*
G36*
X4320540D02*
X4315597Y1064988D01*
X4310776Y1063831D01*
X4306195Y1061934D01*
X4301967Y1059343D01*
X4298197Y1056123D01*
X4294977Y1052353D01*
X4292386Y1048125D01*
X4290489Y1043544D01*
X4289332Y1038723D01*
X4288943Y1033780D01*
X4289332Y1028837D01*
X4290489Y1024016D01*
X4292386Y1019435D01*
X4294977Y1015208D01*
X4298197Y1011437D01*
X4301967Y1008217D01*
X4306195Y1005627D01*
X4310776Y1003729D01*
X4315597Y1002572D01*
X4320540Y1002183D01*
X4325483Y1002572D01*
X4330304Y1003729D01*
X4334885Y1005627D01*
X4339113Y1008217D01*
X4342883Y1011437D01*
X4346103Y1015208D01*
X4348694Y1019435D01*
X4350591Y1024016D01*
X4351748Y1028837D01*
X4352137Y1033780D01*
X4351748Y1038723D01*
X4350591Y1043544D01*
X4348694Y1048125D01*
X4346103Y1052353D01*
X4342883Y1056123D01*
X4339113Y1059343D01*
X4334885Y1061934D01*
X4330304Y1063831D01*
X4325483Y1064988D01*
X4320540Y1065377D01*
D02*
G37*
G36*
X4713419Y1005002D02*
X4683419D01*
X4682272Y1004526D01*
X4681796Y1003378D01*
Y973378D01*
X4682272Y972230D01*
X4683419Y971755D01*
X4713419D01*
X4714568Y972230D01*
X4715043Y973378D01*
Y1003378D01*
X4714568Y1004526D01*
X4713419Y1005002D01*
D02*
G37*
G36*
X4377460Y1000728D02*
X4359460D01*
Y985728D01*
X4377460D01*
Y989150D01*
X4379940D01*
X4383830Y985261D01*
Y968728D01*
X4401830D01*
Y990728D01*
X4389897D01*
X4384514Y996112D01*
X4383190Y996996D01*
X4381630Y997307D01*
X4381630Y997307D01*
X4377460D01*
Y1000728D01*
D02*
G37*
G36*
X4378499Y974768D02*
X4369729D01*
Y967498D01*
X4378499D01*
Y974768D01*
D02*
G37*
G36*
X4367189D02*
X4358420D01*
Y967498D01*
X4367189D01*
Y974768D01*
D02*
G37*
G36*
X4378499Y964958D02*
X4369729D01*
Y957688D01*
X4378499D01*
Y964958D01*
D02*
G37*
G36*
X4367189D02*
X4358420D01*
Y957688D01*
X4367189D01*
Y964958D01*
D02*
G37*
G36*
X4577980Y994558D02*
X4542480D01*
Y978558D01*
X4556151D01*
Y927558D01*
X4553979D01*
Y911558D01*
X4558401D01*
Y902614D01*
X4558238Y902451D01*
X4557243Y901860D01*
X4556711Y902216D01*
X4555150Y902527D01*
X4553589Y902216D01*
X4552266Y901332D01*
X4551382Y900009D01*
X4551176Y898972D01*
X4531186Y878982D01*
X4530302Y877659D01*
X4529991Y876098D01*
X4529991Y876098D01*
Y851028D01*
X4525820D01*
Y829028D01*
X4542320D01*
Y851028D01*
X4538148D01*
Y874409D01*
X4558033Y894295D01*
X4558918Y895618D01*
X4559228Y897178D01*
X4559228Y897178D01*
Y898236D01*
X4559734Y898598D01*
X4560451Y898809D01*
X4584091Y875169D01*
Y850188D01*
X4584091Y850188D01*
X4584091Y850188D01*
Y822248D01*
X4584091Y822248D01*
X4584402Y820688D01*
X4585286Y819364D01*
X4595446Y809204D01*
X4595446Y809204D01*
X4596769Y808320D01*
X4598329Y808010D01*
X4607290D01*
Y804588D01*
X4625789D01*
Y819588D01*
X4607290D01*
Y816167D01*
X4600019D01*
X4592248Y823938D01*
Y838683D01*
X4593421Y839169D01*
X4595446Y837144D01*
X4595446Y837144D01*
X4596769Y836260D01*
X4598329Y835950D01*
X4602780D01*
Y829028D01*
X4619279D01*
Y851028D01*
X4602780D01*
Y844107D01*
X4600019D01*
X4592248Y851878D01*
Y875169D01*
X4612643Y895564D01*
X4612643Y895564D01*
X4613528Y896888D01*
X4613838Y898448D01*
X4613838Y898448D01*
Y928509D01*
X4619883Y934554D01*
X4620960Y935058D01*
Y935058D01*
X4620960Y935058D01*
X4636660D01*
Y945658D01*
X4620959D01*
Y944437D01*
X4619920D01*
X4618359Y944126D01*
X4617036Y943242D01*
X4617036Y943242D01*
X4615660Y941866D01*
X4614315Y942317D01*
X4614236Y942877D01*
X4619690Y948331D01*
X4620959Y947834D01*
Y947758D01*
X4636660D01*
Y958358D01*
X4620959D01*
Y956838D01*
X4618351D01*
X4616790Y956528D01*
X4615468Y955644D01*
X4615468Y955644D01*
X4606876Y947052D01*
X4605992Y945729D01*
X4605681Y944168D01*
X4605681Y944168D01*
Y930198D01*
X4605681Y930198D01*
X4605681Y930198D01*
Y900138D01*
X4588170Y882626D01*
X4566558Y904238D01*
Y917308D01*
X4566479Y917702D01*
Y927558D01*
X4564308D01*
Y978558D01*
X4577980D01*
Y994558D01*
D02*
G37*
G36*
X4712859Y958358D02*
X4697160D01*
Y947758D01*
X4712859D01*
Y948980D01*
X4714410D01*
X4717780Y945610D01*
X4717294Y944437D01*
X4712859D01*
Y945658D01*
X4697160D01*
Y935058D01*
X4712859D01*
Y936280D01*
X4727110D01*
X4746153Y917237D01*
X4746015Y916902D01*
X4745714Y914618D01*
X4746015Y912334D01*
X4746896Y910206D01*
X4748299Y908378D01*
X4750127Y906975D01*
X4752255Y906094D01*
X4754539Y905793D01*
X4756824Y906094D01*
X4758952Y906975D01*
X4760780Y908378D01*
X4762183Y910206D01*
X4763064Y912334D01*
X4763365Y914618D01*
X4763064Y916902D01*
X4762183Y919031D01*
X4760780Y920859D01*
X4758952Y922261D01*
X4756824Y923143D01*
X4754539Y923444D01*
X4752255Y923143D01*
X4751921Y923005D01*
X4739819Y935107D01*
X4740305Y936280D01*
X4755390D01*
X4784751Y906919D01*
Y704558D01*
X4746576Y666382D01*
X4742766Y662572D01*
X4742766Y662572D01*
X4737610Y657417D01*
X4685416D01*
X4685175Y657577D01*
X4683419Y657926D01*
X4681664Y657577D01*
X4680175Y656583D01*
X4679181Y655094D01*
X4678831Y653338D01*
X4679181Y651582D01*
X4680175Y650094D01*
X4681664Y649099D01*
X4683419Y648750D01*
X4685175Y649099D01*
X4685416Y649260D01*
X4739300D01*
X4739300Y649260D01*
X4739300Y649260D01*
X4939540D01*
X4944632Y644168D01*
X4944260Y643268D01*
X4944260D01*
Y622768D01*
X4973759D01*
Y643268D01*
X4957067D01*
X4944113Y656222D01*
X4942791Y657106D01*
X4941230Y657417D01*
X4941230Y657417D01*
X4840049D01*
X4792908Y704558D01*
Y908608D01*
X4792908Y908608D01*
X4792598Y910169D01*
X4791714Y911492D01*
X4759963Y943242D01*
X4758640Y944126D01*
X4757079Y944437D01*
X4757079Y944437D01*
X4730489D01*
X4718983Y955942D01*
X4717661Y956826D01*
X4716100Y957137D01*
X4716100Y957137D01*
X4712859D01*
Y958358D01*
D02*
G37*
G36*
X4544620Y928598D02*
X4538600D01*
Y920828D01*
X4544620D01*
Y928598D01*
D02*
G37*
G36*
X4536060D02*
X4530040D01*
Y920828D01*
X4536060D01*
Y928598D01*
D02*
G37*
G36*
X4463340Y927328D02*
X4457320D01*
Y919558D01*
X4463340D01*
Y927328D01*
D02*
G37*
G36*
X4454780D02*
X4448759D01*
Y919558D01*
X4454780D01*
Y927328D01*
D02*
G37*
G36*
X4544620Y918288D02*
X4538600D01*
Y910518D01*
X4544620D01*
Y918288D01*
D02*
G37*
G36*
X4536060D02*
X4530040D01*
Y910518D01*
X4536060D01*
Y918288D01*
D02*
G37*
G36*
X4463340Y917018D02*
X4457320D01*
Y909248D01*
X4463340D01*
Y917018D01*
D02*
G37*
G36*
X4454780D02*
X4448759D01*
Y909248D01*
X4454780D01*
Y917018D01*
D02*
G37*
G36*
X4974539Y923444D02*
X4972255Y923143D01*
X4970127Y922261D01*
X4968299Y920859D01*
X4966896Y919031D01*
X4966015Y916902D01*
X4965714Y914618D01*
X4966015Y912334D01*
X4966896Y910206D01*
X4968299Y908378D01*
X4970127Y906975D01*
X4972255Y906094D01*
X4974539Y905793D01*
X4976824Y906094D01*
X4978952Y906975D01*
X4980780Y908378D01*
X4982183Y910206D01*
X4983064Y912334D01*
X4983365Y914618D01*
X4983064Y916902D01*
X4982183Y919031D01*
X4980780Y920859D01*
X4978952Y922261D01*
X4976824Y923143D01*
X4974539Y923444D01*
D02*
G37*
G36*
X4589380Y927558D02*
X4576880D01*
Y911558D01*
X4579031D01*
Y899698D01*
X4579031Y899698D01*
X4579151Y899096D01*
X4579146Y899073D01*
X4579496Y897318D01*
X4580490Y895829D01*
X4581979Y894834D01*
X4583735Y894485D01*
X4585490Y894834D01*
X4586979Y895829D01*
X4587974Y897318D01*
X4588323Y899073D01*
X4587974Y900829D01*
X4587188Y902005D01*
Y911558D01*
X4589380D01*
Y927558D01*
D02*
G37*
G36*
X4496700Y993288D02*
X4461200D01*
Y977288D01*
X4474871D01*
Y926288D01*
X4472700D01*
Y910288D01*
X4474871D01*
Y900444D01*
X4474711Y900204D01*
X4474362Y898448D01*
X4474711Y896693D01*
X4475705Y895204D01*
X4477194Y894209D01*
X4478950Y893860D01*
X4480705Y894209D01*
X4482194Y895204D01*
X4483188Y896693D01*
X4483538Y898448D01*
X4483188Y900204D01*
X4483028Y900444D01*
Y910288D01*
X4485200D01*
Y926288D01*
X4483028D01*
Y977288D01*
X4496700D01*
Y993288D01*
D02*
G37*
G36*
X4395280Y904138D02*
X4387260D01*
Y893368D01*
X4395280D01*
Y904138D01*
D02*
G37*
G36*
X4384720D02*
X4376700D01*
Y893368D01*
X4384720D01*
Y904138D01*
D02*
G37*
G36*
X4974539Y903444D02*
X4972255Y903143D01*
X4970127Y902261D01*
X4968299Y900859D01*
X4966896Y899031D01*
X4966015Y896902D01*
X4965714Y894618D01*
X4966015Y892334D01*
X4966896Y890206D01*
X4968299Y888378D01*
X4970127Y886975D01*
X4972255Y886094D01*
X4974539Y885793D01*
X4976824Y886094D01*
X4978952Y886975D01*
X4980780Y888378D01*
X4982183Y890206D01*
X4983064Y892334D01*
X4983365Y894618D01*
X4983064Y896902D01*
X4982183Y899031D01*
X4980780Y900859D01*
X4978952Y902261D01*
X4976824Y903143D01*
X4974539Y903444D01*
D02*
G37*
G36*
X4754539D02*
X4752255Y903143D01*
X4750127Y902261D01*
X4748299Y900859D01*
X4746896Y899031D01*
X4746015Y896902D01*
X4745714Y894618D01*
X4746015Y892334D01*
X4746519Y891116D01*
X4643322Y787918D01*
X4642152Y788544D01*
X4642288Y789228D01*
X4641938Y790984D01*
X4640944Y792473D01*
X4639455Y793467D01*
X4637700Y793816D01*
X4635944Y793467D01*
X4634455Y792473D01*
X4633461Y790984D01*
X4633404Y790701D01*
X4602503Y759799D01*
X4601330Y760285D01*
Y765148D01*
X4583330D01*
Y756148D01*
Y748148D01*
Y740148D01*
Y732148D01*
Y726188D01*
X4582290D01*
Y721918D01*
X4592330D01*
X4602370D01*
Y724570D01*
X4607690D01*
X4611956Y720304D01*
X4611956Y720304D01*
X4613279Y719420D01*
X4614839Y719110D01*
X4614840Y719110D01*
X4641980D01*
Y706928D01*
X4668979D01*
Y719110D01*
X4679360D01*
Y707708D01*
X4692560D01*
Y728508D01*
X4679360D01*
Y727267D01*
X4668979D01*
Y729928D01*
X4641980D01*
Y727267D01*
X4616529D01*
X4612263Y731532D01*
X4612160Y731601D01*
X4612129Y732106D01*
X4612306Y733031D01*
X4613404Y733764D01*
X4629229Y749590D01*
X4641980D01*
Y746928D01*
X4668979D01*
Y749590D01*
X4679360D01*
Y747078D01*
X4692560D01*
Y767878D01*
X4679360D01*
Y757747D01*
X4668979D01*
Y769928D01*
X4641980D01*
Y757747D01*
X4627540D01*
X4627540Y757747D01*
X4626219Y757484D01*
X4625633Y758181D01*
X4625470Y758531D01*
X4745205Y878266D01*
X4746282Y877547D01*
X4746015Y876902D01*
X4745714Y874618D01*
X4746015Y872334D01*
X4746896Y870206D01*
X4748299Y868378D01*
X4750127Y866975D01*
X4752255Y866094D01*
X4754539Y865793D01*
X4756824Y866094D01*
X4758952Y866975D01*
X4760780Y868378D01*
X4762183Y870206D01*
X4763064Y872334D01*
X4763365Y874618D01*
X4763064Y876902D01*
X4762183Y879031D01*
X4760780Y880859D01*
X4758952Y882261D01*
X4756824Y883143D01*
X4754539Y883444D01*
X4752255Y883143D01*
X4751611Y882876D01*
X4750892Y883953D01*
X4752942Y886003D01*
X4754539Y885793D01*
X4756824Y886094D01*
X4758952Y886975D01*
X4760780Y888378D01*
X4762183Y890206D01*
X4763064Y892334D01*
X4763365Y894618D01*
X4763064Y896902D01*
X4762183Y899031D01*
X4760780Y900859D01*
X4758952Y902261D01*
X4756824Y903143D01*
X4754539Y903444D01*
D02*
G37*
G36*
X4395280Y890828D02*
X4387260D01*
Y880058D01*
X4395280D01*
Y890828D01*
D02*
G37*
G36*
X4384720D02*
X4376700D01*
Y880058D01*
X4384720D01*
Y890828D01*
D02*
G37*
G36*
X4433270Y943968D02*
X4405270D01*
Y918968D01*
X4413911D01*
Y903098D01*
X4409740D01*
Y881098D01*
X4426240D01*
Y895471D01*
X4427413Y895957D01*
X4439236Y884135D01*
X4440559Y883250D01*
X4442120Y882940D01*
X4442120Y882940D01*
X4473794D01*
X4474280Y881767D01*
X4460750Y868237D01*
X4419620D01*
Y871658D01*
X4401120D01*
Y856658D01*
X4419620D01*
Y860080D01*
X4432585D01*
X4432970Y858810D01*
X4432525Y858513D01*
X4431531Y857024D01*
X4431474Y856741D01*
X4421522Y846788D01*
X4420490Y846218D01*
Y846218D01*
X4420490Y846218D01*
X4407990D01*
Y826218D01*
X4420490D01*
Y834925D01*
X4420820Y834990D01*
X4422144Y835874D01*
X4430518Y844249D01*
X4431691Y843763D01*
Y821398D01*
X4412602Y802308D01*
X4402370D01*
Y786308D01*
X4418370D01*
Y796541D01*
X4430518Y808689D01*
X4431691Y808203D01*
Y787108D01*
X4420110Y775527D01*
X4404530D01*
X4404530Y775527D01*
X4402969Y775216D01*
X4401646Y774332D01*
X4401646Y774332D01*
X4385942Y758628D01*
X4375210D01*
Y743628D01*
X4391710D01*
Y752861D01*
X4406219Y767370D01*
X4421800D01*
X4421800Y767370D01*
X4423360Y767680D01*
X4424684Y768565D01*
X4438653Y782534D01*
X4438654Y782534D01*
X4439538Y783858D01*
X4439848Y785418D01*
Y808117D01*
X4441118Y808795D01*
X4441829Y808320D01*
X4443390Y808010D01*
X4443390Y808010D01*
X4457000D01*
Y804588D01*
X4475500D01*
Y819588D01*
X4457000D01*
Y816167D01*
X4445079D01*
X4439848Y821398D01*
Y843763D01*
X4441021Y844249D01*
X4449396Y835874D01*
X4449396Y835874D01*
X4450719Y834990D01*
X4451649Y834805D01*
Y829028D01*
X4468150D01*
Y851028D01*
X4451649D01*
Y846815D01*
X4450476Y846329D01*
X4440065Y856741D01*
X4440009Y857024D01*
X4439014Y858513D01*
X4438569Y858810D01*
X4438954Y860080D01*
X4462440D01*
X4462440Y860080D01*
X4464001Y860390D01*
X4465323Y861274D01*
X4488183Y884134D01*
X4488184Y884135D01*
X4504733Y900684D01*
X4504734Y900685D01*
X4505618Y902008D01*
X4505928Y903568D01*
Y910288D01*
X4508100D01*
Y926288D01*
X4495600D01*
Y910288D01*
X4497771D01*
Y905258D01*
X4483610Y891097D01*
X4443809D01*
X4423348Y911558D01*
Y918968D01*
X4433270D01*
Y943968D01*
D02*
G37*
G36*
X4974539Y883444D02*
X4972255Y883143D01*
X4970127Y882261D01*
X4968299Y880859D01*
X4966896Y879031D01*
X4966015Y876902D01*
X4965714Y874618D01*
X4966015Y872334D01*
X4966896Y870206D01*
X4968299Y868378D01*
X4970127Y866975D01*
X4972255Y866094D01*
X4974539Y865793D01*
X4976824Y866094D01*
X4978952Y866975D01*
X4980780Y868378D01*
X4982183Y870206D01*
X4983064Y872334D01*
X4983365Y874618D01*
X4983064Y876902D01*
X4982183Y879031D01*
X4980780Y880859D01*
X4978952Y882261D01*
X4976824Y883143D01*
X4974539Y883444D01*
D02*
G37*
G36*
X4398660Y872698D02*
X4389640D01*
Y865428D01*
X4398660D01*
Y872698D01*
D02*
G37*
G36*
X4387100D02*
X4378080D01*
Y865428D01*
X4387100D01*
Y872698D01*
D02*
G37*
G36*
X4398660Y862888D02*
X4389640D01*
Y855618D01*
X4398660D01*
Y862888D01*
D02*
G37*
G36*
X4387100D02*
X4378080D01*
Y855618D01*
X4387100D01*
Y862888D01*
D02*
G37*
G36*
X4974539Y863444D02*
X4972255Y863143D01*
X4970127Y862261D01*
X4968299Y860859D01*
X4966896Y859031D01*
X4966015Y856902D01*
X4965714Y854618D01*
X4966015Y852334D01*
X4966896Y850206D01*
X4968299Y848378D01*
X4970127Y846975D01*
X4972255Y846094D01*
X4974539Y845793D01*
X4976824Y846094D01*
X4978952Y846975D01*
X4980780Y848378D01*
X4982183Y850206D01*
X4983064Y852334D01*
X4983365Y854618D01*
X4983064Y856902D01*
X4982183Y859031D01*
X4980780Y860859D01*
X4978952Y862261D01*
X4976824Y863143D01*
X4974539Y863444D01*
D02*
G37*
G36*
X4754539D02*
X4752255Y863143D01*
X4750127Y862261D01*
X4748299Y860859D01*
X4746896Y859031D01*
X4746015Y856902D01*
X4745714Y854618D01*
X4746015Y852334D01*
X4746896Y850206D01*
X4748299Y848378D01*
X4750127Y846975D01*
X4752255Y846094D01*
X4754539Y845793D01*
X4756824Y846094D01*
X4758952Y846975D01*
X4760780Y848378D01*
X4762183Y850206D01*
X4763064Y852334D01*
X4763365Y854618D01*
X4763064Y856902D01*
X4762183Y859031D01*
X4760780Y860859D01*
X4758952Y862261D01*
X4756824Y863143D01*
X4754539Y863444D01*
D02*
G37*
G36*
X4575359Y852068D02*
X4567340D01*
Y841299D01*
X4575359D01*
Y852068D01*
D02*
G37*
G36*
X4564800D02*
X4556779D01*
Y841299D01*
X4564800D01*
Y852068D01*
D02*
G37*
G36*
X4652320D02*
X4644300D01*
Y841298D01*
X4652320D01*
Y852068D01*
D02*
G37*
G36*
X4641760D02*
X4633740D01*
Y841298D01*
X4641760D01*
Y852068D01*
D02*
G37*
G36*
X4501190D02*
X4493170D01*
Y841298D01*
X4501190D01*
Y852068D01*
D02*
G37*
G36*
X4490630D02*
X4482610D01*
Y841298D01*
X4490630D01*
Y852068D01*
D02*
G37*
G36*
X4393530Y847258D02*
X4387509D01*
Y837488D01*
X4393530D01*
Y847258D01*
D02*
G37*
G36*
X4384969D02*
X4378950D01*
Y837488D01*
X4384969D01*
Y847258D01*
D02*
G37*
G36*
X4652320Y838758D02*
X4644300D01*
Y827988D01*
X4652320D01*
Y838758D01*
D02*
G37*
G36*
X4641760D02*
X4633740D01*
Y827988D01*
X4641760D01*
Y838758D01*
D02*
G37*
G36*
X4575359Y838758D02*
X4567340D01*
Y827988D01*
X4575359D01*
Y838758D01*
D02*
G37*
G36*
X4564800D02*
X4556779D01*
Y827988D01*
X4564800D01*
Y838758D01*
D02*
G37*
G36*
X4501190Y838758D02*
X4493170D01*
Y827988D01*
X4501190D01*
Y838758D01*
D02*
G37*
G36*
X4490630D02*
X4482610D01*
Y827988D01*
X4490630D01*
Y838758D01*
D02*
G37*
G36*
X4974539Y843444D02*
X4972255Y843143D01*
X4970127Y842261D01*
X4968299Y840859D01*
X4966896Y839031D01*
X4966015Y836902D01*
X4965714Y834618D01*
X4966015Y832334D01*
X4966896Y830206D01*
X4968299Y828378D01*
X4970127Y826975D01*
X4972255Y826094D01*
X4974539Y825793D01*
X4976824Y826094D01*
X4978952Y826975D01*
X4980780Y828378D01*
X4982183Y830206D01*
X4983064Y832334D01*
X4983365Y834618D01*
X4983064Y836902D01*
X4982183Y839031D01*
X4980780Y840859D01*
X4978952Y842261D01*
X4976824Y843143D01*
X4974539Y843444D01*
D02*
G37*
G36*
X4754539D02*
X4752255Y843143D01*
X4750127Y842261D01*
X4748299Y840859D01*
X4746896Y839031D01*
X4746015Y836902D01*
X4745714Y834618D01*
X4746015Y832334D01*
X4746896Y830206D01*
X4748299Y828378D01*
X4750127Y826975D01*
X4752255Y826094D01*
X4754539Y825793D01*
X4756824Y826094D01*
X4758952Y826975D01*
X4760780Y828378D01*
X4762183Y830206D01*
X4763064Y832334D01*
X4763365Y834618D01*
X4763064Y836902D01*
X4762183Y839031D01*
X4760780Y840859D01*
X4758952Y842261D01*
X4756824Y843143D01*
X4754539Y843444D01*
D02*
G37*
G36*
X4393530Y834949D02*
X4387509D01*
Y825178D01*
X4393530D01*
Y834949D01*
D02*
G37*
G36*
X4384969D02*
X4378950D01*
Y825178D01*
X4384969D01*
Y834949D01*
D02*
G37*
G36*
X4648830Y820628D02*
X4639810D01*
Y813359D01*
X4648830D01*
Y820628D01*
D02*
G37*
G36*
X4572630D02*
X4563610D01*
Y813359D01*
X4572630D01*
Y820628D01*
D02*
G37*
G36*
X4637270D02*
X4628250D01*
Y813359D01*
X4637270D01*
Y820628D01*
D02*
G37*
G36*
X4561070D02*
X4552050D01*
Y813359D01*
X4561070D01*
Y820628D01*
D02*
G37*
G36*
X4498540D02*
X4489519D01*
Y813358D01*
X4498540D01*
Y820628D01*
D02*
G37*
G36*
X4486979D02*
X4477960D01*
Y813358D01*
X4486979D01*
Y820628D01*
D02*
G37*
G36*
X4974539Y823444D02*
X4972255Y823143D01*
X4970127Y822261D01*
X4968299Y820859D01*
X4966896Y819031D01*
X4966015Y816902D01*
X4965714Y814618D01*
X4966015Y812334D01*
X4966896Y810206D01*
X4968299Y808378D01*
X4970127Y806975D01*
X4972255Y806094D01*
X4974539Y805793D01*
X4976824Y806094D01*
X4978952Y806975D01*
X4980780Y808378D01*
X4982183Y810206D01*
X4983064Y812334D01*
X4983365Y814618D01*
X4983064Y816902D01*
X4982183Y819031D01*
X4980780Y820859D01*
X4978952Y822261D01*
X4976824Y823143D01*
X4974539Y823444D01*
D02*
G37*
G36*
X4754539D02*
X4752255Y823143D01*
X4750127Y822261D01*
X4748299Y820859D01*
X4746896Y819031D01*
X4746015Y816902D01*
X4745714Y814618D01*
X4746015Y812334D01*
X4746896Y810206D01*
X4748299Y808378D01*
X4750127Y806975D01*
X4752255Y806094D01*
X4754539Y805793D01*
X4756824Y806094D01*
X4758952Y806975D01*
X4760780Y808378D01*
X4762183Y810206D01*
X4763064Y812334D01*
X4763365Y814618D01*
X4763064Y816902D01*
X4762183Y819031D01*
X4760780Y820859D01*
X4758952Y822261D01*
X4756824Y823143D01*
X4754539Y823444D01*
D02*
G37*
G36*
X4536100Y903036D02*
X4534344Y902687D01*
X4532855Y901693D01*
X4531861Y900204D01*
X4531804Y899921D01*
X4513037Y881154D01*
X4512754Y881097D01*
X4511265Y880103D01*
X4510271Y878614D01*
X4509922Y876858D01*
X4510271Y875102D01*
X4510431Y874862D01*
Y824788D01*
X4510431Y824788D01*
X4510431Y824788D01*
Y809548D01*
X4510431Y809548D01*
X4510742Y807988D01*
X4511626Y806665D01*
X4528929Y789362D01*
X4528443Y788188D01*
X4528099D01*
Y778148D01*
Y768108D01*
X4532370D01*
Y769148D01*
X4579330D01*
Y787148D01*
X4578908D01*
Y790709D01*
X4579623Y791424D01*
X4579623Y791424D01*
X4580508Y792748D01*
X4580818Y794308D01*
X4580508Y795869D01*
X4579623Y797192D01*
X4578300Y798076D01*
X4576740Y798387D01*
X4575179Y798076D01*
X4573856Y797192D01*
X4573856Y797192D01*
X4571946Y795282D01*
X4570608Y795566D01*
X4570598Y795619D01*
X4569713Y796942D01*
X4569464Y797192D01*
X4568140Y798076D01*
X4566580Y798387D01*
X4565019Y798076D01*
X4563696Y797192D01*
X4562812Y795869D01*
X4562501Y794308D01*
X4562751Y793051D01*
Y787148D01*
X4538908D01*
Y789228D01*
X4538908Y789228D01*
X4538598Y790789D01*
X4537714Y792112D01*
X4537713Y792112D01*
X4518588Y811238D01*
Y813283D01*
X4519761Y813769D01*
X4524326Y809204D01*
X4524326Y809204D01*
X4525649Y808320D01*
X4527209Y808010D01*
X4527210Y808010D01*
X4531089D01*
Y804588D01*
X4549590D01*
Y819588D01*
X4531089D01*
Y816167D01*
X4528899D01*
X4518588Y826478D01*
Y874862D01*
X4518748Y875102D01*
X4518805Y875386D01*
X4537572Y894153D01*
X4537856Y894209D01*
X4539344Y895204D01*
X4540338Y896693D01*
X4540688Y898448D01*
X4540338Y900204D01*
X4539344Y901693D01*
X4537856Y902687D01*
X4536100Y903036D01*
D02*
G37*
G36*
X4648830Y810818D02*
X4639810D01*
Y803548D01*
X4648830D01*
Y810818D01*
D02*
G37*
G36*
X4637270D02*
X4628250D01*
Y803548D01*
X4637270D01*
Y810818D01*
D02*
G37*
G36*
X4572630D02*
X4563610D01*
Y803548D01*
X4572630D01*
Y810818D01*
D02*
G37*
G36*
X4561070D02*
X4552050D01*
Y803548D01*
X4561070D01*
Y810818D01*
D02*
G37*
G36*
X4498540Y810818D02*
X4489519D01*
Y803548D01*
X4498540D01*
Y810818D01*
D02*
G37*
G36*
X4486979D02*
X4477960D01*
Y803548D01*
X4486979D01*
Y810818D01*
D02*
G37*
G36*
X4391640Y803259D02*
Y795578D01*
X4399320D01*
X4399177Y796668D01*
X4398266Y798867D01*
X4396817Y800756D01*
X4394929Y802205D01*
X4392729Y803116D01*
X4391640Y803259D01*
D02*
G37*
G36*
X4389100D02*
X4388010Y803116D01*
X4385811Y802205D01*
X4383922Y800756D01*
X4382473Y798867D01*
X4381562Y796668D01*
X4381419Y795578D01*
X4389100D01*
Y803259D01*
D02*
G37*
G36*
X4974539Y803444D02*
X4972255Y803143D01*
X4970127Y802261D01*
X4968299Y800859D01*
X4966896Y799031D01*
X4966015Y796902D01*
X4965714Y794618D01*
X4966015Y792334D01*
X4966896Y790206D01*
X4968299Y788378D01*
X4970127Y786975D01*
X4972255Y786094D01*
X4974539Y785793D01*
X4976824Y786094D01*
X4978952Y786975D01*
X4980780Y788378D01*
X4982183Y790206D01*
X4983064Y792334D01*
X4983365Y794618D01*
X4983064Y796902D01*
X4982183Y799031D01*
X4980780Y800859D01*
X4978952Y802261D01*
X4976824Y803143D01*
X4974539Y803444D01*
D02*
G37*
G36*
X4754539D02*
X4752255Y803143D01*
X4750127Y802261D01*
X4748299Y800859D01*
X4746896Y799031D01*
X4746015Y796902D01*
X4745714Y794618D01*
X4746015Y792334D01*
X4746896Y790206D01*
X4748299Y788378D01*
X4750127Y786975D01*
X4752255Y786094D01*
X4754539Y785793D01*
X4756824Y786094D01*
X4758952Y786975D01*
X4760780Y788378D01*
X4762183Y790206D01*
X4763064Y792334D01*
X4763365Y794618D01*
X4763064Y796902D01*
X4762183Y799031D01*
X4760780Y800859D01*
X4758952Y802261D01*
X4756824Y803143D01*
X4754539Y803444D01*
D02*
G37*
G36*
X4399320Y793038D02*
X4391640D01*
Y785358D01*
X4392729Y785501D01*
X4394929Y786412D01*
X4396817Y787861D01*
X4398266Y789749D01*
X4399177Y791948D01*
X4399320Y793038D01*
D02*
G37*
G36*
X4389100D02*
X4381419D01*
X4381562Y791948D01*
X4382473Y789749D01*
X4383922Y787861D01*
X4385811Y786412D01*
X4388010Y785501D01*
X4389100Y785358D01*
Y793038D01*
D02*
G37*
G36*
X4525559Y788188D02*
X4521290D01*
Y787148D01*
X4490330D01*
Y769148D01*
X4521290D01*
Y768108D01*
X4525559D01*
Y778148D01*
Y788188D01*
D02*
G37*
G36*
X4974539Y783444D02*
X4972255Y783143D01*
X4970127Y782261D01*
X4968299Y780859D01*
X4966896Y779031D01*
X4966015Y776902D01*
X4965714Y774618D01*
X4966015Y772334D01*
X4966896Y770206D01*
X4968299Y768378D01*
X4970127Y766975D01*
X4972255Y766094D01*
X4974539Y765793D01*
X4976824Y766094D01*
X4978952Y766975D01*
X4980780Y768378D01*
X4982183Y770206D01*
X4983064Y772334D01*
X4983365Y774618D01*
X4983064Y776902D01*
X4982183Y779031D01*
X4980780Y780859D01*
X4978952Y782261D01*
X4976824Y783143D01*
X4974539Y783444D01*
D02*
G37*
G36*
X4754539D02*
X4752255Y783143D01*
X4750127Y782261D01*
X4748299Y780859D01*
X4746896Y779031D01*
X4746015Y776902D01*
X4745714Y774618D01*
X4746015Y772334D01*
X4746896Y770206D01*
X4748299Y768378D01*
X4750127Y766975D01*
X4752255Y766094D01*
X4754539Y765793D01*
X4756824Y766094D01*
X4758952Y766975D01*
X4760780Y768378D01*
X4762183Y770206D01*
X4763064Y772334D01*
X4763365Y774618D01*
X4763064Y776902D01*
X4762183Y779031D01*
X4760780Y780859D01*
X4758952Y782261D01*
X4756824Y783143D01*
X4754539Y783444D01*
D02*
G37*
G36*
X4721200Y768918D02*
X4714830D01*
Y758748D01*
X4721200D01*
Y768918D01*
D02*
G37*
G36*
X4712290D02*
X4705919D01*
Y758748D01*
X4712290D01*
Y768918D01*
D02*
G37*
G36*
X4721200Y756208D02*
X4714830D01*
Y746038D01*
X4721200D01*
Y756208D01*
D02*
G37*
G36*
X4712290D02*
X4705919D01*
Y746038D01*
X4712290D01*
Y756208D01*
D02*
G37*
G36*
X4974539Y763444D02*
X4972255Y763143D01*
X4970127Y762261D01*
X4968299Y760859D01*
X4966896Y759031D01*
X4966015Y756902D01*
X4965714Y754618D01*
X4966015Y752334D01*
X4966896Y750206D01*
X4968299Y748378D01*
X4970127Y746975D01*
X4972255Y746094D01*
X4974539Y745793D01*
X4976824Y746094D01*
X4978952Y746975D01*
X4980780Y748378D01*
X4982183Y750206D01*
X4983064Y752334D01*
X4983365Y754618D01*
X4983064Y756902D01*
X4982183Y759031D01*
X4980780Y760859D01*
X4978952Y762261D01*
X4976824Y763143D01*
X4974539Y763444D01*
D02*
G37*
G36*
X4754539D02*
X4752255Y763143D01*
X4750127Y762261D01*
X4748299Y760859D01*
X4746896Y759031D01*
X4746015Y756902D01*
X4745714Y754618D01*
X4746015Y752334D01*
X4746896Y750206D01*
X4748299Y748378D01*
X4750127Y746975D01*
X4752255Y746094D01*
X4754539Y745793D01*
X4756824Y746094D01*
X4758952Y746975D01*
X4760780Y748378D01*
X4762183Y750206D01*
X4763064Y752334D01*
X4763365Y754618D01*
X4763064Y756902D01*
X4762183Y759031D01*
X4760780Y760859D01*
X4758952Y762261D01*
X4756824Y763143D01*
X4754539Y763444D01*
D02*
G37*
G36*
X4755810Y744326D02*
Y735888D01*
X4764247D01*
X4764077Y737174D01*
X4763091Y739556D01*
X4761522Y741601D01*
X4759477Y743170D01*
X4757095Y744156D01*
X4755810Y744326D01*
D02*
G37*
G36*
X4753270D02*
X4751984Y744156D01*
X4749602Y743170D01*
X4747557Y741601D01*
X4745988Y739556D01*
X4745002Y737174D01*
X4744832Y735888D01*
X4753270D01*
Y744326D01*
D02*
G37*
G36*
X4486330Y765148D02*
X4468329D01*
Y756148D01*
Y748148D01*
Y740148D01*
Y732727D01*
X4443770D01*
X4443770Y732727D01*
X4442209Y732416D01*
X4440886Y731532D01*
X4440886Y731532D01*
X4439751Y730398D01*
X4438578Y730884D01*
Y733588D01*
X4438268Y735149D01*
X4437383Y736472D01*
X4425210Y748646D01*
Y758628D01*
X4408710D01*
Y743628D01*
X4418692D01*
X4430421Y731899D01*
Y721068D01*
X4422650Y713297D01*
X4419640D01*
Y717218D01*
X4403640D01*
Y701218D01*
X4419640D01*
Y705140D01*
X4424340D01*
X4424340Y705140D01*
X4425900Y705450D01*
X4427224Y706335D01*
X4429248Y708359D01*
X4430421Y707873D01*
Y686778D01*
X4422933Y679289D01*
X4421760Y679775D01*
Y679848D01*
X4409260D01*
Y659848D01*
X4421760D01*
Y667285D01*
X4422090Y667350D01*
X4423413Y668234D01*
X4437383Y682204D01*
X4437383Y682205D01*
X4438268Y683528D01*
X4438578Y685088D01*
Y717689D01*
X4445459Y724570D01*
X4467290D01*
Y721918D01*
X4477329D01*
X4487370D01*
Y726188D01*
X4486330D01*
Y732148D01*
Y740148D01*
Y748148D01*
Y756148D01*
Y765148D01*
D02*
G37*
G36*
X4974539Y743444D02*
X4972255Y743143D01*
X4970127Y742261D01*
X4968299Y740859D01*
X4966896Y739031D01*
X4966015Y736902D01*
X4965714Y734618D01*
X4966015Y732334D01*
X4966896Y730206D01*
X4968299Y728378D01*
X4970127Y726975D01*
X4972255Y726094D01*
X4974539Y725793D01*
X4976824Y726094D01*
X4978952Y726975D01*
X4980780Y728378D01*
X4982183Y730206D01*
X4983064Y732334D01*
X4983365Y734618D01*
X4983064Y736902D01*
X4982183Y739031D01*
X4980780Y740859D01*
X4978952Y742261D01*
X4976824Y743143D01*
X4974539Y743444D01*
D02*
G37*
G36*
X4764247Y733348D02*
X4755810D01*
Y724911D01*
X4757095Y725080D01*
X4759477Y726067D01*
X4761522Y727636D01*
X4763091Y729681D01*
X4764077Y732063D01*
X4764247Y733348D01*
D02*
G37*
G36*
X4753270D02*
X4744832D01*
X4745002Y732063D01*
X4745988Y729681D01*
X4747557Y727636D01*
X4749602Y726067D01*
X4751984Y725080D01*
X4753270Y724911D01*
Y733348D01*
D02*
G37*
G36*
X4721200Y729548D02*
X4714830D01*
Y719378D01*
X4721200D01*
Y729548D01*
D02*
G37*
G36*
X4712290D02*
X4705919D01*
Y719378D01*
X4712290D01*
Y729548D01*
D02*
G37*
G36*
X4392910Y718169D02*
Y710488D01*
X4400591D01*
X4400447Y711578D01*
X4399536Y713777D01*
X4398087Y715666D01*
X4396199Y717115D01*
X4394000Y718026D01*
X4392910Y718169D01*
D02*
G37*
G36*
X4390370D02*
X4389280Y718026D01*
X4387081Y717115D01*
X4385192Y715666D01*
X4383743Y713777D01*
X4382832Y711578D01*
X4382689Y710488D01*
X4390370D01*
Y718169D01*
D02*
G37*
G36*
X4721200Y716838D02*
X4714830D01*
Y706668D01*
X4721200D01*
Y716838D01*
D02*
G37*
G36*
X4712290D02*
X4705919D01*
Y706668D01*
X4712290D01*
Y716838D01*
D02*
G37*
G36*
X4400591Y707948D02*
X4392910D01*
Y700267D01*
X4394000Y700411D01*
X4396199Y701322D01*
X4398087Y702771D01*
X4399536Y704659D01*
X4400447Y706858D01*
X4400591Y707948D01*
D02*
G37*
G36*
X4390370D02*
X4382689D01*
X4382832Y706858D01*
X4383743Y704659D01*
X4385192Y702771D01*
X4387081Y701322D01*
X4389280Y700411D01*
X4390370Y700267D01*
Y707948D01*
D02*
G37*
G36*
X4602370Y719378D02*
X4592330D01*
X4582290D01*
Y715108D01*
X4583330D01*
Y708148D01*
Y700148D01*
Y692148D01*
Y684148D01*
Y676148D01*
X4588251D01*
Y650778D01*
X4587741Y650014D01*
X4587391Y648258D01*
X4587741Y646503D01*
X4588735Y645014D01*
X4590224Y644019D01*
X4591980Y643670D01*
X4593735Y644019D01*
X4595224Y645014D01*
X4596219Y646503D01*
X4596568Y648258D01*
X4596408Y649062D01*
Y676148D01*
X4601330D01*
Y683758D01*
X4602599Y683941D01*
X4604411Y682129D01*
Y651524D01*
X4604251Y651284D01*
X4603901Y649528D01*
X4604251Y647773D01*
X4605245Y646284D01*
X4606734Y645289D01*
X4608490Y644940D01*
X4610245Y645289D01*
X4611734Y646284D01*
X4612729Y647773D01*
X4612922Y648746D01*
X4614217D01*
X4614411Y647773D01*
X4615405Y646284D01*
X4616894Y645289D01*
X4618650Y644940D01*
X4620405Y645289D01*
X4621894Y646284D01*
X4622888Y647773D01*
X4623238Y649528D01*
X4622888Y651284D01*
X4622728Y651524D01*
Y685088D01*
X4622728Y685088D01*
X4622418Y686649D01*
X4621534Y687972D01*
X4621534Y687972D01*
X4620263Y689242D01*
X4620263Y689242D01*
X4610781Y698724D01*
X4611124Y700174D01*
X4611799Y700141D01*
X4624731Y687209D01*
Y684544D01*
X4624571Y684304D01*
X4624221Y682548D01*
X4624571Y680792D01*
X4625565Y679304D01*
X4627054Y678309D01*
X4628810Y677960D01*
X4630565Y678309D01*
X4630806Y678470D01*
X4637299D01*
Y673568D01*
X4650800D01*
Y694068D01*
X4637299D01*
Y686627D01*
X4632888D01*
Y688898D01*
X4632578Y690459D01*
X4631693Y691782D01*
X4616176Y707300D01*
X4616410Y708207D01*
X4616661Y708570D01*
X4618610D01*
X4629736Y697445D01*
X4629736Y697445D01*
X4631059Y696560D01*
X4632620Y696250D01*
X4632620Y696250D01*
X4663950D01*
X4666300Y693901D01*
Y673568D01*
X4679799D01*
Y679740D01*
X4686504D01*
X4686744Y679579D01*
X4688499Y679230D01*
X4690255Y679579D01*
X4691744Y680574D01*
X4692739Y682063D01*
X4693088Y683818D01*
X4692739Y685574D01*
X4691744Y687063D01*
X4690255Y688057D01*
X4688499Y688406D01*
X4686744Y688057D01*
X4686504Y687897D01*
X4679799D01*
Y694068D01*
X4676899D01*
X4676818Y694479D01*
X4675934Y695802D01*
X4675934Y695802D01*
X4668524Y703212D01*
X4667200Y704096D01*
X4665640Y704407D01*
X4665640Y704407D01*
X4634309D01*
X4623184Y715532D01*
X4621860Y716416D01*
X4620300Y716727D01*
X4620299Y716727D01*
X4602370D01*
Y719378D01*
D02*
G37*
G36*
X4487370D02*
X4477329D01*
X4467290D01*
Y715108D01*
X4468329D01*
Y708148D01*
Y700148D01*
Y692148D01*
Y684148D01*
Y676148D01*
X4486330D01*
Y684148D01*
Y692148D01*
Y700148D01*
Y708148D01*
Y715108D01*
X4487370D01*
Y719378D01*
D02*
G37*
G36*
X4394799Y680888D02*
X4388780D01*
Y671118D01*
X4394799D01*
Y680888D01*
D02*
G37*
G36*
X4386240D02*
X4380220D01*
Y671118D01*
X4386240D01*
Y680888D01*
D02*
G37*
G36*
X4394799Y668578D02*
X4388780D01*
Y658808D01*
X4394799D01*
Y668578D01*
D02*
G37*
G36*
X4386240D02*
X4380220D01*
Y658808D01*
X4386240D01*
Y668578D01*
D02*
G37*
G36*
X4540370Y673188D02*
X4536100D01*
Y663148D01*
Y653108D01*
X4540370D01*
Y654148D01*
X4579330D01*
Y672148D01*
X4540370D01*
Y673188D01*
D02*
G37*
G36*
X4533560D02*
X4529290D01*
Y672148D01*
X4490330D01*
Y654148D01*
X4529290D01*
Y653108D01*
X4533560D01*
Y663148D01*
Y673188D01*
D02*
G37*
G36*
X4863110Y643768D02*
X4846609D01*
Y637097D01*
X4840900D01*
X4840900Y637097D01*
X4840899Y637097D01*
X4730410D01*
X4730410Y637097D01*
X4730410Y637097D01*
X4683420D01*
X4683419Y637097D01*
X4683419Y637097D01*
X4598330D01*
X4598329Y637097D01*
X4596769Y636786D01*
X4595446Y635902D01*
X4557270Y597727D01*
X4542540D01*
Y600148D01*
X4514539D01*
Y587148D01*
X4542540D01*
Y589570D01*
X4558959D01*
X4558960Y589570D01*
X4560520Y589880D01*
X4561844Y590765D01*
X4600019Y628940D01*
X4671914D01*
X4672400Y627767D01*
X4660216Y615582D01*
X4659332Y614259D01*
X4659021Y612698D01*
X4659021Y612698D01*
Y593008D01*
X4652100D01*
Y576508D01*
X4674100D01*
Y593008D01*
X4667178D01*
Y611009D01*
X4685109Y628940D01*
X4718904D01*
X4719390Y627767D01*
X4707206Y615582D01*
X4706322Y614259D01*
X4706011Y612698D01*
X4706011Y612698D01*
Y586408D01*
X4702090D01*
Y570408D01*
X4718090D01*
Y586408D01*
X4714168D01*
Y611009D01*
X4732099Y628940D01*
X4829394D01*
X4829880Y627767D01*
X4817696Y615582D01*
X4816812Y614259D01*
X4816501Y612698D01*
X4816501Y612698D01*
Y603324D01*
X4815284Y602820D01*
X4813091Y601137D01*
X4811408Y598944D01*
X4810350Y596389D01*
X4809989Y593648D01*
X4810350Y590907D01*
X4811408Y588353D01*
X4813091Y586160D01*
X4815284Y584477D01*
X4817839Y583419D01*
X4820580Y583058D01*
X4823321Y583419D01*
X4825875Y584477D01*
X4828068Y586160D01*
X4829751Y588353D01*
X4830255Y589570D01*
X4910904D01*
X4911408Y588353D01*
X4913091Y586160D01*
X4915284Y584477D01*
X4917839Y583419D01*
X4920580Y583058D01*
X4923321Y583419D01*
X4925875Y584477D01*
X4928068Y586160D01*
X4929751Y588353D01*
X4930809Y590907D01*
X4931170Y593648D01*
X4930809Y596389D01*
X4929751Y598944D01*
X4928068Y601137D01*
X4925875Y602820D01*
X4923321Y603878D01*
X4920580Y604239D01*
X4917839Y603878D01*
X4915284Y602820D01*
X4913091Y601137D01*
X4911408Y598944D01*
X4910904Y597727D01*
X4830255D01*
X4829751Y598944D01*
X4828068Y601137D01*
X4825875Y602820D01*
X4824658Y603324D01*
Y611009D01*
X4842589Y628940D01*
X4846609D01*
Y622268D01*
X4863110D01*
Y643768D01*
D02*
G37*
G36*
X4893610D02*
X4877110D01*
Y622268D01*
X4893610D01*
Y628940D01*
X4901259D01*
Y622768D01*
X4930760D01*
Y643268D01*
X4901259D01*
Y637097D01*
X4893610D01*
Y643768D01*
D02*
G37*
G36*
X4542540Y625548D02*
X4514539D01*
Y612548D01*
X4542540D01*
Y625548D01*
D02*
G37*
G36*
X4387540D02*
X4359539D01*
Y612548D01*
X4387540D01*
Y625548D01*
D02*
G37*
G36*
Y600148D02*
X4359539D01*
Y587148D01*
X4387540D01*
Y600148D01*
D02*
G37*
G36*
X4652939Y627446D02*
X4651184Y627097D01*
X4649695Y626103D01*
X4648701Y624614D01*
X4648644Y624331D01*
X4597910Y573597D01*
X4542540D01*
Y574748D01*
X4514539D01*
Y561748D01*
X4542540D01*
Y565440D01*
X4599600D01*
X4599600Y565440D01*
X4601160Y565750D01*
X4602484Y566634D01*
X4654412Y618563D01*
X4654695Y618619D01*
X4656184Y619614D01*
X4657179Y621102D01*
X4657528Y622858D01*
X4657179Y624614D01*
X4656184Y626103D01*
X4654695Y627097D01*
X4652939Y627446D01*
D02*
G37*
G36*
X4387540Y574748D02*
X4359539D01*
Y561748D01*
X4387540D01*
Y574748D01*
D02*
G37*
G36*
X4711360Y567359D02*
Y559678D01*
X4719041D01*
X4718897Y560768D01*
X4717986Y562967D01*
X4716537Y564856D01*
X4714649Y566305D01*
X4712450Y567216D01*
X4711360Y567359D01*
D02*
G37*
G36*
X4708820Y567359D02*
X4707730Y567216D01*
X4705531Y566305D01*
X4703642Y564856D01*
X4702193Y562967D01*
X4701282Y560768D01*
X4701139Y559678D01*
X4708820D01*
Y567359D01*
D02*
G37*
G36*
X4871850Y568121D02*
Y557918D01*
X4882052D01*
X4881823Y559661D01*
X4880660Y562468D01*
X4878810Y564879D01*
X4876400Y566728D01*
X4873592Y567891D01*
X4871850Y568121D01*
D02*
G37*
G36*
X4869310D02*
X4867567Y567891D01*
X4864760Y566728D01*
X4862349Y564879D01*
X4860500Y562468D01*
X4859337Y559661D01*
X4859107Y557918D01*
X4869310D01*
Y568121D01*
D02*
G37*
G36*
X4675139Y562048D02*
X4664369D01*
Y554028D01*
X4675139D01*
Y562048D01*
D02*
G37*
G36*
X4661829D02*
X4651060D01*
Y554028D01*
X4661829D01*
Y562048D01*
D02*
G37*
G36*
X4719041Y557138D02*
X4711360D01*
Y549458D01*
X4712450Y549601D01*
X4714649Y550512D01*
X4716537Y551961D01*
X4717986Y553849D01*
X4718897Y556048D01*
X4719041Y557138D01*
D02*
G37*
G36*
X4708820D02*
X4701139D01*
X4701282Y556048D01*
X4702193Y553849D01*
X4703642Y551961D01*
X4705531Y550512D01*
X4707730Y549601D01*
X4708820Y549458D01*
Y557138D01*
D02*
G37*
G36*
X4882052Y555378D02*
X4871850D01*
Y545176D01*
X4873592Y545405D01*
X4876400Y546568D01*
X4878810Y548418D01*
X4880660Y550829D01*
X4881823Y553636D01*
X4882052Y555378D01*
D02*
G37*
G36*
X4869310D02*
X4859107D01*
X4859337Y553636D01*
X4860500Y550829D01*
X4862349Y548418D01*
X4864760Y546568D01*
X4867567Y545405D01*
X4869310Y545176D01*
Y555378D01*
D02*
G37*
G36*
X4543580Y550388D02*
X4529810D01*
Y544118D01*
X4543580D01*
Y550388D01*
D02*
G37*
G36*
X4527270D02*
X4513499D01*
Y544118D01*
X4527270D01*
Y550388D01*
D02*
G37*
G36*
X4675139Y551488D02*
X4664369D01*
Y543468D01*
X4675139D01*
Y551488D01*
D02*
G37*
G36*
X4661829D02*
X4651060D01*
Y543468D01*
X4661829D01*
Y551488D01*
D02*
G37*
G36*
X4387540Y549348D02*
X4359539D01*
Y536348D01*
X4387540D01*
Y549348D01*
D02*
G37*
G36*
X4543580Y541578D02*
X4529810D01*
Y535308D01*
X4543580D01*
Y541578D01*
D02*
G37*
G36*
X4527270D02*
X4513499D01*
Y535308D01*
X4527270D01*
Y541578D01*
D02*
G37*
G36*
X4542540Y523948D02*
X4514539D01*
Y510948D01*
X4542540D01*
Y513370D01*
X4565309D01*
X4565309Y513370D01*
X4566870Y513680D01*
X4567952Y514403D01*
X4568335Y514479D01*
X4569824Y515474D01*
X4570818Y516963D01*
X4571168Y518718D01*
X4570818Y520474D01*
X4569824Y521963D01*
X4568335Y522957D01*
X4566580Y523306D01*
X4564824Y522957D01*
X4563335Y521963D01*
X4563044Y521527D01*
X4542540D01*
Y523948D01*
D02*
G37*
G36*
X4641190Y510678D02*
X4634670D01*
Y498408D01*
X4641190D01*
Y510678D01*
D02*
G37*
G36*
X4611689D02*
X4605169D01*
Y498408D01*
X4611689D01*
Y510678D01*
D02*
G37*
G36*
X4602629D02*
X4596110D01*
Y498408D01*
X4602629D01*
Y510678D01*
D02*
G37*
G36*
X4632130D02*
X4625610D01*
Y498408D01*
X4632130D01*
Y510678D01*
D02*
G37*
G36*
X4676949Y502088D02*
X4668180D01*
Y493318D01*
X4676949D01*
Y502088D01*
D02*
G37*
G36*
X4665640D02*
X4656870D01*
Y493318D01*
X4665640D01*
Y502088D01*
D02*
G37*
G36*
X4388580Y499588D02*
X4374810D01*
Y493318D01*
X4388580D01*
Y499588D01*
D02*
G37*
G36*
X4372270D02*
X4358499D01*
Y493318D01*
X4372270D01*
Y499588D01*
D02*
G37*
G36*
X4542540Y498548D02*
X4514539D01*
Y485548D01*
X4542540D01*
Y487970D01*
X4574744D01*
X4574984Y487809D01*
X4576740Y487460D01*
X4578495Y487809D01*
X4579984Y488804D01*
X4580978Y490293D01*
X4581328Y492048D01*
X4580978Y493804D01*
X4579984Y495293D01*
X4578495Y496287D01*
X4576740Y496636D01*
X4574984Y496287D01*
X4574744Y496127D01*
X4542540D01*
Y498548D01*
D02*
G37*
G36*
X4388580Y490778D02*
X4374810D01*
Y484508D01*
X4388580D01*
Y490778D01*
D02*
G37*
G36*
X4372270D02*
X4358499D01*
Y484508D01*
X4372270D01*
Y490778D01*
D02*
G37*
G36*
X4641190Y495868D02*
X4634670D01*
Y483598D01*
X4641190D01*
Y495868D01*
D02*
G37*
G36*
X4602629D02*
X4596110D01*
Y483598D01*
X4602629D01*
Y495868D01*
D02*
G37*
G36*
X4768510Y501126D02*
X4766160Y500817D01*
X4763971Y499910D01*
X4762091Y498467D01*
X4760648Y496587D01*
X4759741Y494398D01*
X4759432Y492048D01*
X4759741Y489699D01*
X4760648Y487509D01*
X4762091Y485629D01*
X4763971Y484187D01*
X4766160Y483280D01*
X4768510Y482971D01*
X4770859Y483280D01*
X4773048Y484187D01*
X4774929Y485629D01*
X4776371Y487509D01*
X4777278Y489699D01*
X4777587Y492048D01*
X4777278Y494398D01*
X4776371Y496587D01*
X4774929Y498467D01*
X4773048Y499910D01*
X4770859Y500817D01*
X4768510Y501126D01*
D02*
G37*
G36*
X4743110D02*
X4740760Y500817D01*
X4738571Y499910D01*
X4736691Y498467D01*
X4735248Y496587D01*
X4734341Y494398D01*
X4734032Y492048D01*
X4734341Y489699D01*
X4735248Y487509D01*
X4736691Y485629D01*
X4738571Y484187D01*
X4740760Y483280D01*
X4743110Y482971D01*
X4745459Y483280D01*
X4747649Y484187D01*
X4749529Y485629D01*
X4750971Y487509D01*
X4751878Y489699D01*
X4752187Y492048D01*
X4751878Y494398D01*
X4750971Y496587D01*
X4749529Y498467D01*
X4747649Y499910D01*
X4745459Y500817D01*
X4743110Y501126D01*
D02*
G37*
G36*
X4717710D02*
X4715360Y500817D01*
X4713171Y499910D01*
X4711291Y498467D01*
X4709848Y496587D01*
X4708941Y494398D01*
X4708632Y492048D01*
X4708941Y489699D01*
X4709848Y487509D01*
X4711291Y485629D01*
X4713171Y484187D01*
X4715360Y483280D01*
X4717710Y482971D01*
X4720059Y483280D01*
X4722249Y484187D01*
X4724128Y485629D01*
X4725571Y487509D01*
X4726478Y489699D01*
X4726787Y492048D01*
X4726478Y494398D01*
X4725571Y496587D01*
X4724128Y498467D01*
X4722249Y499910D01*
X4720059Y500817D01*
X4717710Y501126D01*
D02*
G37*
G36*
X4692310D02*
X4689960Y500817D01*
X4687771Y499910D01*
X4685891Y498467D01*
X4684448Y496587D01*
X4683541Y494398D01*
X4683232Y492048D01*
X4683541Y489699D01*
X4684448Y487509D01*
X4685891Y485629D01*
X4687771Y484187D01*
X4689960Y483280D01*
X4692310Y482971D01*
X4694659Y483280D01*
X4696848Y484187D01*
X4698729Y485629D01*
X4700171Y487509D01*
X4701078Y489699D01*
X4701387Y492048D01*
X4701078Y494398D01*
X4700171Y496587D01*
X4698729Y498467D01*
X4696848Y499910D01*
X4694659Y500817D01*
X4692310Y501126D01*
D02*
G37*
G36*
X4676949Y490778D02*
X4668180D01*
Y482008D01*
X4676949D01*
Y490778D01*
D02*
G37*
G36*
X4665640D02*
X4656870D01*
Y482008D01*
X4665640D01*
Y490778D01*
D02*
G37*
G36*
X4387540Y523948D02*
X4359539D01*
Y510948D01*
X4387540D01*
Y511841D01*
X4441067D01*
X4483875Y469033D01*
X4485694Y467817D01*
X4487840Y467391D01*
X4609760D01*
X4611906Y467817D01*
X4613725Y469033D01*
X4619830Y475138D01*
X4625150D01*
Y482519D01*
X4625610Y483598D01*
X4626420Y483598D01*
X4632130D01*
Y495868D01*
X4625610D01*
Y489718D01*
X4625150Y488638D01*
X4624340Y488638D01*
X4612150Y488638D01*
X4611689Y489718D01*
Y495868D01*
X4605169D01*
Y483598D01*
X4610633D01*
X4611159Y482328D01*
X4607437Y478606D01*
X4490162D01*
X4447355Y521414D01*
X4445536Y522629D01*
X4443390Y523056D01*
X4387540D01*
Y523948D01*
D02*
G37*
G36*
X4988560Y467207D02*
X4983617Y466818D01*
X4978796Y465661D01*
X4974215Y463764D01*
X4969987Y461173D01*
X4966217Y457953D01*
X4962997Y454183D01*
X4960406Y449955D01*
X4958509Y445374D01*
X4957352Y440553D01*
X4956963Y435610D01*
X4957352Y430667D01*
X4958509Y425846D01*
X4960406Y421265D01*
X4962997Y417038D01*
X4966217Y413267D01*
X4969987Y410047D01*
X4974215Y407457D01*
X4978796Y405559D01*
X4983617Y404402D01*
X4988560Y404013D01*
X4993503Y404402D01*
X4998324Y405559D01*
X5002905Y407457D01*
X5007133Y410047D01*
X5010903Y413267D01*
X5014123Y417038D01*
X5016714Y421265D01*
X5018611Y425846D01*
X5019768Y430667D01*
X5020157Y435610D01*
X5019768Y440553D01*
X5018611Y445374D01*
X5016714Y449955D01*
X5014123Y454183D01*
X5010903Y457953D01*
X5007133Y461173D01*
X5002905Y463764D01*
X4998324Y465661D01*
X4993503Y466818D01*
X4988560Y467207D01*
D02*
G37*
G36*
X4320540D02*
X4315597Y466818D01*
X4310776Y465661D01*
X4306195Y463764D01*
X4301967Y461173D01*
X4298197Y457953D01*
X4294977Y454183D01*
X4292386Y449955D01*
X4290489Y445374D01*
X4289332Y440553D01*
X4288943Y435610D01*
X4289332Y430667D01*
X4290489Y425846D01*
X4292386Y421265D01*
X4294977Y417038D01*
X4298197Y413267D01*
X4301967Y410047D01*
X4306195Y407457D01*
X4310776Y405559D01*
X4315597Y404402D01*
X4320540Y404013D01*
X4325483Y404402D01*
X4330304Y405559D01*
X4334885Y407457D01*
X4339113Y410047D01*
X4342883Y413267D01*
X4346103Y417038D01*
X4348694Y421265D01*
X4350591Y425846D01*
X4351748Y430667D01*
X4352137Y435610D01*
X4351748Y440553D01*
X4350591Y445374D01*
X4348694Y449955D01*
X4346103Y454183D01*
X4342883Y457953D01*
X4339113Y461173D01*
X4334885Y463764D01*
X4330304Y465661D01*
X4325483Y466818D01*
X4320540Y467207D01*
D02*
G37*
%LPD*%
G36*
X4827340Y658590D02*
X4826854Y657417D01*
X4750805D01*
X4750319Y658590D01*
X4752343Y660614D01*
X4788830Y697101D01*
X4827340Y658590D01*
D02*
G37*
D18*
X4699000Y1000760D02*
Y1008380D01*
X4700270Y1009650D01*
X4674870Y989330D02*
X4721860D01*
X4729914Y989764D02*
X4732020Y991870D01*
X4838360Y653338D02*
X4876460D01*
X4739300D02*
X4838360D01*
X4745650Y659688D02*
X4749460Y663498D01*
X4876460Y653338D02*
X4941230D01*
X4446641Y1002030D02*
X4597922D01*
X4439579Y994968D02*
X4446641Y1002030D01*
X4610760Y989439D02*
X4636879D01*
X4598169Y1002030D02*
X4610760Y989439D01*
X4788830Y702868D02*
X4838360Y653338D01*
X4941230D02*
X4961550Y633018D01*
X4739300Y653338D02*
X4745650Y659688D01*
X4683419Y653338D02*
X4739300D01*
X4788830Y702868D02*
Y908608D01*
X4749460Y663498D02*
X4788830Y702868D01*
X4757079Y940358D02*
X4788830Y908608D01*
X4665640Y700328D02*
X4673050Y692918D01*
Y683818D02*
Y692918D01*
X4632620Y700328D02*
X4665640D01*
X4592330Y712648D02*
X4620300D01*
X4632620Y700328D01*
X4628810Y682548D02*
Y688898D01*
X4642780Y682548D02*
X4644050Y683818D01*
X4628810Y682548D02*
X4642780D01*
X4613060Y704648D02*
X4628810Y688898D01*
X4592330Y704648D02*
X4613060D01*
X4618650Y649528D02*
Y685088D01*
X4617379Y686358D02*
X4618650Y685088D01*
X4607090Y696648D02*
X4617379Y686358D01*
X4592330Y696648D02*
X4607090D01*
X4608490Y649528D02*
Y683818D01*
X4604160Y688148D02*
X4608490Y683818D01*
X4592830Y688148D02*
X4604160D01*
X4592330Y688648D02*
X4592830Y688148D01*
X4591980Y648258D02*
X4592330Y648608D01*
Y680648D01*
X4599600Y569518D02*
X4652939Y622858D01*
X4529810Y569518D02*
X4599600D01*
X4528540Y568248D02*
X4529810Y569518D01*
X4673050Y683818D02*
X4688499D01*
X4820580Y593648D02*
X4920580D01*
X4820580D02*
Y612698D01*
X4840900Y633018D01*
X4854860D01*
X4730410D02*
X4840900D01*
X4683419D02*
X4730410D01*
X4598329D02*
X4683419D01*
X4663100Y584758D02*
Y612698D01*
X4683419Y633018D01*
X4710090Y578408D02*
Y612698D01*
X4730410Y633018D01*
X4528540Y593648D02*
X4558960D01*
X4598329Y633018D01*
X4885359D02*
X4916010D01*
X4728800Y940358D02*
X4757079D01*
X4574830Y778148D02*
Y792398D01*
X4576740Y794308D01*
X4566830Y778148D02*
Y794058D01*
X4566580Y794308D02*
X4566830Y794058D01*
X4528540Y492048D02*
X4576740D01*
X4565309Y517448D02*
X4566580Y518718D01*
X4528540Y517448D02*
X4565309D01*
X4716100Y953058D02*
X4728800Y940358D01*
X4705009Y953058D02*
X4716100D01*
X4609760Y930198D02*
Y944168D01*
Y898448D02*
Y930198D01*
X4619920Y940358D02*
X4628810D01*
X4609760Y930198D02*
X4619920Y940358D01*
X4618351Y952760D02*
X4628511D01*
X4628810Y953058D01*
X4609760Y944168D02*
X4618351Y952760D01*
X4728800Y940358D02*
X4754539Y914618D01*
X4705009Y940358D02*
X4728800D01*
X4588170Y876858D02*
X4609760Y898448D01*
X4592330Y744648D02*
X4605820D01*
X4755164Y893993D01*
X4601620Y753148D02*
X4637700Y789228D01*
X4592330Y752648D02*
X4592830Y753148D01*
X4601620D01*
X4614839Y723188D02*
X4683360D01*
X4685959Y718108D02*
Y720588D01*
X4683360Y723188D02*
X4685959Y720588D01*
X4627540Y753668D02*
X4683360D01*
X4685959Y756268D02*
Y757478D01*
X4683360Y753668D02*
X4685959Y756268D01*
X4592330Y736648D02*
X4610520D01*
X4627540Y753668D01*
X4534830Y778148D02*
Y789228D01*
X4514510Y809548D02*
X4534830Y789228D01*
X4514510Y809548D02*
Y824788D01*
X4592330Y728648D02*
X4609380D01*
X4614839Y723188D01*
X4443770Y728648D02*
X4477330D01*
X4434500Y719378D02*
X4443770Y728648D01*
X4588170Y850188D02*
Y876858D01*
X4562480Y902548D02*
X4588170Y876858D01*
X4555150Y897178D02*
Y898448D01*
X4534070Y876098D02*
X4555150Y897178D01*
X4562480Y902548D02*
Y917308D01*
X4583110Y899698D02*
Y919538D01*
Y899698D02*
X4583735Y899073D01*
X4534070Y840028D02*
Y876098D01*
X4514510Y876858D02*
X4536100Y898448D01*
X4514510Y824788D02*
Y876858D01*
X4598329Y812088D02*
X4614790D01*
X4588170Y822248D02*
X4598329Y812088D01*
X4588170Y822248D02*
Y850188D01*
X4598329Y840028D02*
X4611030D01*
X4588170Y850188D02*
X4598329Y840028D01*
X4560229Y919558D02*
X4562480Y917308D01*
X4478950Y898448D02*
Y918288D01*
X4514510Y824788D02*
X4527209Y812088D01*
X4540340D01*
X4404530Y771448D02*
X4421800D01*
X4435770Y785418D02*
Y819708D01*
X4421800Y771448D02*
X4435770Y785418D01*
X4383459Y751128D02*
X4384210D01*
X4404530Y771448D01*
X4443390Y812088D02*
X4466250D01*
X4435770Y819708D02*
X4443390Y812088D01*
X4410370Y794308D02*
X4435770Y819708D01*
Y855268D01*
X4458629Y838758D02*
X4459900Y840028D01*
X4452280Y838758D02*
X4458629D01*
X4435770Y855268D02*
X4452280Y838758D01*
X4414240Y836218D02*
Y836508D01*
X4416490Y838758D01*
X4419260D01*
X4435770Y855268D01*
X4583110Y919538D02*
X4583130Y919558D01*
X4434500Y719378D02*
Y733588D01*
Y685088D02*
Y719378D01*
X4411640Y709218D02*
X4424340D01*
X4434500Y719378D01*
X4415510Y669848D02*
X4416779Y671118D01*
X4420529D01*
X4434500Y685088D01*
X4416960Y751128D02*
X4417710D01*
X4421210Y747628D01*
Y746878D02*
Y747628D01*
Y746878D02*
X4434500Y733588D01*
X4560229Y919558D02*
Y986558D01*
X4478950Y918288D02*
Y985288D01*
X4410370Y864158D02*
X4462440D01*
X4485300Y887018D01*
X4419270Y909868D02*
X4442120Y887018D01*
X4485300D02*
X4501850Y903568D01*
Y918288D01*
X4442120Y887018D02*
X4485300D01*
X4419270Y909868D02*
Y931468D01*
X4417990Y892098D02*
Y930188D01*
X4419270Y931468D01*
X4417990Y892098D02*
X4419270Y893378D01*
X4410615Y965513D02*
X4422830Y977728D01*
X4376570Y931468D02*
X4410615Y965513D01*
X4432985D02*
X4439579Y972108D01*
Y994968D01*
X4410615Y965513D02*
X4432985D01*
X4372270Y931468D02*
X4376570D01*
X4422830Y977728D02*
Y979728D01*
X4392830D02*
Y982028D01*
X4392590Y982268D02*
X4392830Y982028D01*
X4381630Y993228D02*
X4392590Y982268D01*
X4365919Y993228D02*
X4381630D01*
D20*
X4618650Y481888D02*
D03*
D21*
X4633400Y497138D02*
D03*
X4603900D02*
D03*
D22*
X4705009Y953058D02*
D03*
Y940358D02*
D03*
X4628810D02*
D03*
Y953058D02*
D03*
D23*
X4419270Y931468D02*
D03*
X4372270D02*
D03*
D24*
X4456049Y918288D02*
D03*
X4478950D02*
D03*
X4501850D02*
D03*
X4537330Y919558D02*
D03*
X4560229D02*
D03*
X4583130D02*
D03*
D25*
X4478950Y985288D02*
D03*
X4560229Y986558D02*
D03*
D26*
X4459900Y840028D02*
D03*
X4491900D02*
D03*
X4385990Y892098D02*
D03*
X4417990D02*
D03*
X4566070Y840028D02*
D03*
X4534070D02*
D03*
X4643030D02*
D03*
X4611030D02*
D03*
D27*
X4488250Y812088D02*
D03*
X4466250D02*
D03*
X4562339D02*
D03*
X4540340D02*
D03*
X4388370Y864158D02*
D03*
X4410370D02*
D03*
X4638540Y812088D02*
D03*
X4616540D02*
D03*
D28*
X4392830Y979728D02*
D03*
X4422830D02*
D03*
D29*
X4368459Y966228D02*
D03*
Y993228D02*
D03*
D30*
X4916010Y633018D02*
D03*
X4959010D02*
D03*
D31*
X4528540Y492048D02*
D03*
Y517448D02*
D03*
Y542848D02*
D03*
Y568248D02*
D03*
Y593648D02*
D03*
Y619048D02*
D03*
X4373540D02*
D03*
Y593648D02*
D03*
Y568248D02*
D03*
Y542848D02*
D03*
Y517448D02*
D03*
Y492048D02*
D03*
D32*
X4854860Y633018D02*
D03*
X4885359D02*
D03*
D33*
X4592330Y680648D02*
D03*
Y688648D02*
D03*
Y696648D02*
D03*
Y704648D02*
D03*
Y712648D02*
D03*
Y720648D02*
D03*
Y728648D02*
D03*
Y736648D02*
D03*
Y744648D02*
D03*
Y752648D02*
D03*
Y760648D02*
D03*
X4477330D02*
D03*
Y752648D02*
D03*
Y744648D02*
D03*
Y736648D02*
D03*
Y728648D02*
D03*
Y720648D02*
D03*
Y712648D02*
D03*
Y704648D02*
D03*
Y696648D02*
D03*
Y688648D02*
D03*
Y680648D02*
D03*
D34*
X4574830Y778148D02*
D03*
X4566830D02*
D03*
X4558830D02*
D03*
X4550829D02*
D03*
X4542830D02*
D03*
X4534830D02*
D03*
X4526830D02*
D03*
X4518830D02*
D03*
X4510829D02*
D03*
X4502830D02*
D03*
X4494830D02*
D03*
Y663148D02*
D03*
X4502830D02*
D03*
X4510829D02*
D03*
X4518830D02*
D03*
X4526830D02*
D03*
X4534830D02*
D03*
X4542830D02*
D03*
X4550829D02*
D03*
X4558830D02*
D03*
X4566830D02*
D03*
X4574830D02*
D03*
D35*
X4663100Y552758D02*
D03*
Y584758D02*
D03*
D36*
X4655480Y758428D02*
D03*
Y718428D02*
D03*
D37*
X4673050Y683818D02*
D03*
X4644050D02*
D03*
D38*
X4685959Y757478D02*
D03*
X4713560D02*
D03*
X4685959Y718108D02*
D03*
X4713560D02*
D03*
D39*
X4383459Y751128D02*
D03*
X4416960D02*
D03*
D40*
X4387509Y669848D02*
D03*
X4415510D02*
D03*
X4386240Y836218D02*
D03*
X4414240D02*
D03*
D73*
X4609760Y472998D02*
X4618650Y481888D01*
X4487840Y472998D02*
X4609760D01*
X4443390Y517448D02*
X4487840Y472998D01*
X4373540Y517448D02*
X4443390D01*
D74*
X4698419Y988378D02*
D03*
X4634920D02*
D03*
D75*
X4768510Y492048D02*
D03*
X4743110D02*
D03*
X4717710D02*
D03*
X4692310D02*
D03*
D76*
X4666909D02*
D03*
D77*
X4710090Y558408D02*
D03*
X4391640Y709218D02*
D03*
X4390370Y794308D02*
D03*
D78*
X4710090Y578408D02*
D03*
D79*
X4820580Y593648D02*
D03*
X4920580D02*
D03*
X4870580Y556648D02*
D03*
D80*
X4754539Y914618D02*
D03*
Y894618D02*
D03*
Y874618D02*
D03*
Y854618D02*
D03*
Y834618D02*
D03*
Y814618D02*
D03*
Y794618D02*
D03*
Y774618D02*
D03*
Y754618D02*
D03*
Y734618D02*
D03*
X4974539D02*
D03*
Y754618D02*
D03*
Y774618D02*
D03*
Y794618D02*
D03*
Y814618D02*
D03*
Y834618D02*
D03*
Y854618D02*
D03*
Y874618D02*
D03*
Y894618D02*
D03*
Y914618D02*
D03*
D81*
X4411640Y709218D02*
D03*
X4410370Y794308D02*
D03*
D82*
X4320540Y435610D02*
D03*
Y1033780D02*
D03*
X4988560Y435610D02*
D03*
Y1033780D02*
D03*
D83*
X4683419Y653338D02*
D03*
X4591980Y648258D02*
D03*
X4608490Y649528D02*
D03*
X4618650D02*
D03*
X4628810Y682548D02*
D03*
X4652939Y622858D02*
D03*
X4688499Y683818D02*
D03*
X4514510Y876858D02*
D03*
X4576740Y492048D02*
D03*
X4566580Y518718D02*
D03*
X4637700Y789228D02*
D03*
X4583735Y899073D02*
D03*
X4536100Y898448D02*
D03*
X4478950D02*
D03*
X4435770Y855268D02*
D03*
D84*
X4576740Y794308D02*
D03*
X4566580D02*
D03*
X4555150Y898448D02*
D03*
M02*
