G04*
G04 #@! TF.GenerationSoftware,Altium Limited,Altium Designer,20.0.13 (296)*
G04*
G04 Layer_Physical_Order=2*
G04 Layer_Color=16711680*
%FSLAX44Y44*%
%MOMM*%
G71*
G01*
G75*
%ADD18C,0.5000*%
%ADD75C,1.5000*%
%ADD76R,1.5000X1.5000*%
%ADD77C,1.3000*%
%ADD78R,1.3000X1.3000*%
%ADD79C,1.8000*%
%ADD80C,1.4500*%
%ADD81R,1.3000X1.3000*%
%ADD82C,6.0000*%
%ADD83C,0.6000*%
%ADD84C,0.5000*%
D18*
X4748490Y874618D02*
X4754539D01*
X4663100Y789228D02*
X4748490Y874618D01*
X4591980Y551738D02*
Y648258D01*
X4636430Y507288D02*
X4689381D01*
X4591980Y551738D02*
X4636430Y507288D01*
X4692310Y492048D02*
Y504359D01*
X4689381Y507288D02*
X4692310Y504359D01*
X4707550Y516178D02*
X4717710Y506018D01*
X4608490Y550468D02*
X4642780Y516178D01*
X4707550D01*
X4726600Y526338D02*
X4741840Y511098D01*
X4618650Y556818D02*
X4649130Y526338D01*
X4726600D01*
X4753270Y536498D02*
X4768510Y521258D01*
X4628810Y561898D02*
X4654210Y536498D01*
X4753270D01*
X4717710Y492048D02*
Y506018D01*
X4608490Y550468D02*
Y649528D01*
X4768510Y492048D02*
Y521258D01*
X4741840Y493318D02*
X4743110Y492048D01*
X4741840Y493318D02*
Y511098D01*
X4618650Y556818D02*
Y649528D01*
X4628810Y561898D02*
Y682548D01*
X4652939Y622858D02*
X4683419Y653338D01*
X4581819Y807008D02*
X4688499Y700328D01*
Y683818D02*
Y700328D01*
X4581819Y807008D02*
Y864158D01*
X4569120Y876858D02*
X4581819Y864158D01*
X4514510Y876858D02*
X4569120D01*
X4576740Y492048D02*
Y794308D01*
X4566580Y518718D02*
Y794308D01*
X4637700Y789228D02*
X4663100D01*
X4555150Y898448D02*
X4568994D01*
X4536100D02*
X4555150D01*
X4535638D02*
X4536100D01*
X4568994D02*
X4569619Y899073D01*
X4583735D01*
X4478950Y898448D02*
X4534559D01*
X4435770Y855268D02*
X4478950Y898448D01*
D75*
X4768510Y492048D02*
D03*
X4743110D02*
D03*
X4717710D02*
D03*
X4692310D02*
D03*
D76*
X4666909D02*
D03*
D77*
X4710090Y558408D02*
D03*
X4391640Y709218D02*
D03*
X4390370Y794308D02*
D03*
D78*
X4710090Y578408D02*
D03*
D79*
X4820580Y593648D02*
D03*
X4920580D02*
D03*
X4870580Y556648D02*
D03*
D80*
X4754539Y914618D02*
D03*
Y894618D02*
D03*
Y874618D02*
D03*
Y854618D02*
D03*
Y834618D02*
D03*
Y814618D02*
D03*
Y794618D02*
D03*
Y774618D02*
D03*
Y754618D02*
D03*
Y734618D02*
D03*
X4974539D02*
D03*
Y754618D02*
D03*
Y774618D02*
D03*
Y794618D02*
D03*
Y814618D02*
D03*
Y834618D02*
D03*
Y854618D02*
D03*
Y874618D02*
D03*
Y894618D02*
D03*
Y914618D02*
D03*
D81*
X4411640Y709218D02*
D03*
X4410370Y794308D02*
D03*
D82*
X4320540Y435610D02*
D03*
Y1033780D02*
D03*
X4988560Y435610D02*
D03*
Y1033780D02*
D03*
D83*
X4683419Y653338D02*
D03*
X4591980Y648258D02*
D03*
X4608490Y649528D02*
D03*
X4618650D02*
D03*
X4628810Y682548D02*
D03*
X4652939Y622858D02*
D03*
X4688499Y683818D02*
D03*
X4514510Y876858D02*
D03*
X4576740Y492048D02*
D03*
X4566580Y518718D02*
D03*
X4637700Y789228D02*
D03*
X4583735Y899073D02*
D03*
X4536100Y898448D02*
D03*
X4478950D02*
D03*
X4435770Y855268D02*
D03*
D84*
X4576740Y794308D02*
D03*
X4566580D02*
D03*
X4555150Y898448D02*
D03*
M02*
