G04*
G04 #@! TF.GenerationSoftware,Altium Limited,Altium Designer,20.0.13 (296)*
G04*
G04 Layer_Color=16711935*
%FSLAX44Y44*%
%MOMM*%
G71*
G01*
G75*
%ADD12C,0.2000*%
%ADD16C,0.1000*%
%ADD85R,0.6389X3.9500*%
%ADD86R,0.4573X1.8000*%
D12*
X4371040Y635548D02*
X4531040D01*
Y475548D02*
Y635548D01*
X4371040Y475548D02*
X4531040D01*
X4371040D02*
Y635548D01*
X4754579Y605148D02*
X4986580D01*
Y545148D02*
Y605148D01*
X4754579Y545148D02*
X4986580D01*
X4754579D02*
Y605148D01*
X4742620Y662468D02*
Y924618D01*
Y662468D02*
X4986460D01*
Y924618D01*
X4884539Y986768D02*
X4986460Y924618D01*
X4844539Y986768D02*
X4884539D01*
X4742620Y924618D02*
X4844539Y986768D01*
X4671479Y713428D02*
Y763428D01*
X4639480Y713428D02*
X4671479D01*
X4639480D02*
Y763428D01*
X4671479D01*
D16*
X4735090Y568408D02*
G03*
X4735090Y568408I-25000J0D01*
G01*
X4426640Y709218D02*
G03*
X4426640Y709218I-25000J0D01*
G01*
X4425370Y794308D02*
G03*
X4425370Y794308I-25000J0D01*
G01*
X4605650Y510138D02*
X4631649D01*
Y484138D02*
Y510138D01*
X4605650Y484138D02*
Y510138D01*
Y484138D02*
X4631649D01*
X4372020Y911718D02*
X4419520D01*
X4372020Y951218D02*
X4419520D01*
Y911718D02*
Y951218D01*
X4372020Y911718D02*
Y951218D01*
X4446430Y934268D02*
Y969308D01*
X4511470D01*
Y934268D02*
Y969308D01*
X4446430Y934268D02*
X4511470D01*
X4446430Y957168D02*
X4469330Y934268D01*
X4458900Y831028D02*
Y849028D01*
X4492900Y831028D02*
Y849028D01*
X4458900D02*
X4492900D01*
X4458900Y831028D02*
X4492900D01*
X4460250Y803088D02*
X4494250D01*
X4460250Y821088D02*
X4494250D01*
Y803088D02*
Y821088D01*
X4460250Y803088D02*
Y821088D01*
X4534340Y803088D02*
X4568340D01*
X4534340Y821088D02*
X4568340D01*
Y803088D02*
Y821088D01*
X4534340Y803088D02*
Y821088D01*
X4390829Y970728D02*
Y988728D01*
X4424830Y970728D02*
Y988728D01*
X4390829D02*
X4424830D01*
X4390829Y970728D02*
X4424830D01*
X4384990Y883098D02*
Y901098D01*
X4418990Y883098D02*
Y901098D01*
X4384990D02*
X4418990D01*
X4384990Y883098D02*
X4418990D01*
X4382370Y873158D02*
X4416370D01*
X4382370Y855158D02*
X4416370D01*
X4382370D02*
Y873158D01*
X4416370Y855158D02*
Y873158D01*
X4527710Y935538D02*
Y970578D01*
X4592750D01*
Y935538D02*
Y970578D01*
X4527710Y935538D02*
X4592750D01*
X4527710Y958438D02*
X4550610Y935538D01*
X4567070Y831028D02*
Y849028D01*
X4533069Y831028D02*
Y849028D01*
Y831028D02*
X4567070D01*
X4533069Y849028D02*
X4567070D01*
X4375960Y963728D02*
Y995728D01*
X4360959Y963728D02*
Y995728D01*
Y963728D02*
X4375960D01*
X4360959Y995728D02*
X4375960D01*
X4610540Y803088D02*
X4644539D01*
X4610540Y821088D02*
X4644539D01*
Y803088D02*
Y821088D01*
X4610540Y803088D02*
Y821088D01*
X4644030Y831028D02*
Y849028D01*
X4610030Y831028D02*
Y849028D01*
Y831028D02*
X4644030D01*
X4610030Y849028D02*
X4644030D01*
X4915634Y619393D02*
Y646643D01*
X4959384Y619393D02*
Y646643D01*
X4915634Y619393D02*
X4959384D01*
X4915634Y646643D02*
X4959384D01*
X4853610Y624268D02*
Y641768D01*
X4886609Y624268D02*
Y641768D01*
X4853610D02*
X4886609D01*
X4853610Y624268D02*
X4886609D01*
X4484830Y670648D02*
X4584830D01*
X4484830D02*
Y770648D01*
X4584830D01*
Y670648D02*
Y770648D01*
X4576830Y670648D02*
X4584830Y678648D01*
X4654100Y551758D02*
X4672100D01*
X4654100Y585758D02*
X4672100D01*
X4654100Y551758D02*
Y585758D01*
X4672100Y551758D02*
Y585758D01*
X4643050Y675938D02*
X4674050D01*
X4643050D02*
Y691698D01*
X4674050D01*
Y675938D02*
Y691698D01*
X4683759Y765478D02*
X4715760D01*
Y749478D02*
Y765478D01*
X4683759Y749478D02*
X4715760D01*
X4683759D02*
Y765478D01*
Y726108D02*
X4715760D01*
Y710108D02*
Y726108D01*
X4683759Y710108D02*
X4715760D01*
X4683759D02*
Y726108D01*
X4383210Y742128D02*
Y760128D01*
X4417210Y742128D02*
Y760128D01*
X4383210D02*
X4417210D01*
X4383210Y742128D02*
X4417210D01*
X4384510Y660848D02*
Y678848D01*
X4418510Y660848D02*
Y678848D01*
X4384510D02*
X4418510D01*
X4384510Y660848D02*
X4418510D01*
X4383240Y827218D02*
Y845218D01*
X4417240Y827218D02*
Y845218D01*
X4383240D02*
X4417240D01*
X4383240Y827218D02*
X4417240D01*
D85*
X4416325Y931468D02*
D03*
D86*
X4462536Y812088D02*
D03*
X4536626D02*
D03*
X4414083Y864158D02*
D03*
X4612826Y812088D02*
D03*
M02*
