G04*
G04 #@! TF.GenerationSoftware,Altium Limited,Altium Designer,20.0.13 (296)*
G04*
G04 Layer_Color=32768*
%FSLAX44Y44*%
%MOMM*%
G71*
G01*
G75*
%ADD15C,0.1270*%
%ADD16C,0.1000*%
%ADD87C,0.0500*%
D15*
X4666909Y944168D02*
Y949248D01*
X4664370Y946708D02*
X4669449D01*
X4713860Y926308D02*
Y967108D01*
X4619960D02*
X4713860D01*
X4619960Y926308D02*
Y967108D01*
Y926308D02*
X4713860D01*
D16*
X4618650Y492138D02*
Y502138D01*
X4613650Y497138D02*
X4623650D01*
X4395770Y926468D02*
Y936468D01*
X4390770Y931468D02*
X4400770D01*
X4470900Y840028D02*
X4480900D01*
X4475900Y835028D02*
Y845028D01*
X4477249Y807088D02*
Y817088D01*
X4472249Y812088D02*
X4482249D01*
X4551340Y807088D02*
Y817088D01*
X4546340Y812088D02*
X4556340D01*
X4402830Y979728D02*
X4412830D01*
X4407830Y974728D02*
Y984728D01*
X4396990Y892098D02*
X4406990D01*
X4401990Y887098D02*
Y897098D01*
X4399370Y859158D02*
Y869158D01*
X4394370Y864158D02*
X4404370D01*
X4545070Y840028D02*
X4555070D01*
X4550070Y835028D02*
Y845028D01*
X4368459Y974728D02*
Y984728D01*
X4363459Y979728D02*
X4373459D01*
X4627540Y807088D02*
Y817088D01*
X4622540Y812088D02*
X4632540D01*
X4622030Y840028D02*
X4632030D01*
X4627030Y835028D02*
Y845028D01*
X4932509Y633018D02*
X4942509D01*
X4937509Y628018D02*
Y638018D01*
X4865110Y633018D02*
X4875110D01*
X4870110Y628018D02*
Y638018D01*
X4710090Y563408D02*
Y573408D01*
X4705090Y568408D02*
X4715090D01*
X4663100Y563758D02*
Y573758D01*
X4658100Y568758D02*
X4668100D01*
X4744579Y615148D02*
X4996580D01*
Y535148D02*
Y615148D01*
X4744579Y535148D02*
X4996580D01*
X4744579D02*
Y615148D01*
X4732620Y996768D02*
X4996460D01*
Y652468D02*
Y996768D01*
X4732620Y652468D02*
X4996460D01*
X4732620D02*
Y996768D01*
X4681479Y698428D02*
Y778428D01*
X4629480Y698428D02*
X4681479D01*
X4629480D02*
Y778428D01*
X4681479D01*
X4374210Y739628D02*
Y762628D01*
X4426210Y739628D02*
Y762628D01*
X4374210D02*
X4426210D01*
X4374210Y739628D02*
X4426210D01*
X4395210Y751128D02*
X4405210D01*
X4400210Y746128D02*
Y756128D01*
X4396640Y709218D02*
X4406640D01*
X4401640Y704218D02*
Y714218D01*
X4395370Y794308D02*
X4405370D01*
X4400370Y789308D02*
Y799308D01*
X4396510Y669848D02*
X4406510D01*
X4401510Y664848D02*
Y674848D01*
X4395240Y836218D02*
X4405240D01*
X4400240Y831218D02*
Y841218D01*
D87*
X4736089Y568408D02*
G03*
X4736089Y568408I-26000J0D01*
G01*
X4427640Y709218D02*
G03*
X4427640Y709218I-26000J0D01*
G01*
X4426370Y794308D02*
G03*
X4426370Y794308I-26000J0D01*
G01*
X4597650Y511138D02*
X4639650D01*
X4597650Y475638D02*
Y511138D01*
X4639650Y475638D02*
Y511138D01*
X4597650Y475638D02*
X4639650D01*
X4358770Y910468D02*
X4432769D01*
X4358770Y952468D02*
X4432769D01*
Y910468D02*
Y952468D01*
X4358770Y910468D02*
Y952468D01*
X4442899Y909288D02*
Y994288D01*
X4515000D01*
Y909288D02*
Y994288D01*
X4442899Y909288D02*
X4515000D01*
X4447899Y825528D02*
Y854528D01*
X4503900Y825528D02*
Y854528D01*
X4447899D02*
X4503900D01*
X4447899Y825528D02*
X4503900D01*
X4457249Y802088D02*
X4497249D01*
X4457249Y822088D02*
X4497249D01*
Y802088D02*
Y822088D01*
X4457249Y802088D02*
Y822088D01*
X4531340Y802088D02*
X4571340D01*
X4531340Y822088D02*
X4571340D01*
Y802088D02*
Y822088D01*
X4531340Y802088D02*
Y822088D01*
X4380330Y965228D02*
Y994228D01*
X4435330Y965228D02*
Y994228D01*
X4380330D02*
X4435330D01*
X4380330Y965228D02*
X4435330D01*
X4373990Y877598D02*
Y906598D01*
X4429990Y877598D02*
Y906598D01*
X4373990D02*
X4429990D01*
X4373990Y877598D02*
X4429990D01*
X4379370Y874158D02*
X4419370D01*
X4379370Y854158D02*
X4419370D01*
X4379370D02*
Y874158D01*
X4419370Y854158D02*
Y874158D01*
X4524180Y910558D02*
Y995558D01*
X4596280D01*
Y910558D02*
Y995558D01*
X4524180Y910558D02*
X4596280D01*
X4578069Y825528D02*
Y854528D01*
X4522070Y825528D02*
Y854528D01*
Y825528D02*
X4578069D01*
X4522070Y854528D02*
X4578069D01*
X4376960Y959228D02*
Y1000228D01*
X4359960D02*
X4376960D01*
X4359960Y959228D02*
X4376960D01*
X4359960D02*
Y1000228D01*
X4607540Y802088D02*
X4647540D01*
X4607540Y822088D02*
X4647540D01*
Y802088D02*
Y822088D01*
X4607540Y802088D02*
Y822088D01*
X4655030Y825528D02*
Y854528D01*
X4599030Y825528D02*
Y854528D01*
Y825528D02*
X4655030D01*
X4599030Y854528D02*
X4655030D01*
X4901760Y647643D02*
X4973260D01*
X4901760Y618393D02*
Y647643D01*
Y618393D02*
X4973260D01*
Y647643D01*
X4843110Y618518D02*
Y647518D01*
X4897110Y618518D02*
Y647518D01*
X4843110D02*
X4897110D01*
X4843110Y618518D02*
X4897110D01*
X4467330Y653148D02*
X4602330D01*
X4467330D02*
Y788148D01*
X4602330D01*
Y653148D02*
Y788148D01*
X4648600Y540758D02*
X4677599D01*
X4648600Y596758D02*
X4677599D01*
X4648600Y540758D02*
Y596758D01*
X4677599Y540758D02*
Y596758D01*
X4636300Y672318D02*
X4680800D01*
X4636300D02*
Y695318D01*
X4680800D01*
Y672318D02*
Y695318D01*
X4679360Y767878D02*
X4720160D01*
Y747078D02*
Y767878D01*
X4679360Y747078D02*
X4720160D01*
X4679360D02*
Y767878D01*
Y728508D02*
X4720160D01*
Y707708D02*
Y728508D01*
X4679360Y707708D02*
X4720160D01*
X4679360D02*
Y728508D01*
X4381510Y660348D02*
Y679348D01*
X4421510Y660348D02*
Y679348D01*
X4381510D02*
X4421510D01*
X4381510Y660348D02*
X4421510D01*
X4380240Y826718D02*
Y845718D01*
X4420240Y826718D02*
Y845718D01*
X4380240D02*
X4420240D01*
X4380240Y826718D02*
X4420240D01*
M02*
