G04*
G04 #@! TF.GenerationSoftware,Altium Limited,Altium Designer,20.0.13 (296)*
G04*
G04 Layer_Color=255*
%FSLAX44Y44*%
%MOMM*%
G71*
G01*
G75*
%ADD22R,0.9100X1.2200*%
%ADD23R,0.7600X1.2700*%
%ADD24R,2.5000X1.0000*%
%ADD25R,1.3500X1.8500*%
%ADD26R,1.3500X1.9000*%
%ADD27R,4.3000X1.6000*%
%ADD28R,2.6500X1.7500*%
%ADD56R,1.5000X1.5000*%
%ADD57C,1.5000*%
%ADD58R,1.5000X1.5000*%
%ADD59C,1.3000*%
%ADD60R,1.3000X1.3000*%
%ADD61C,1.8000*%
%ADD62C,1.4500*%
G04:AMPARAMS|DCode=63|XSize=2mm|YSize=1.4mm|CornerRadius=0.35mm|HoleSize=0mm|Usage=FLASHONLY|Rotation=90.000|XOffset=0mm|YOffset=0mm|HoleType=Round|Shape=RoundedRectangle|*
%AMROUNDEDRECTD63*
21,1,2.0000,0.7000,0,0,90.0*
21,1,1.3000,1.4000,0,0,90.0*
1,1,0.7000,0.3500,0.6500*
1,1,0.7000,0.3500,-0.6500*
1,1,0.7000,-0.3500,-0.6500*
1,1,0.7000,-0.3500,0.6500*
%
%ADD63ROUNDEDRECTD63*%
%ADD64O,1.4000X2.0000*%
%ADD65C,1.5500*%
%ADD66R,1.5500X1.5500*%
%ADD67R,1.4000X1.4000*%
%ADD68C,1.4000*%
%ADD69C,2.0500*%
D22*
X2840830Y601980D02*
D03*
X2808130D02*
D03*
D23*
X2614930Y289560D02*
D03*
X2627630D02*
D03*
Y213360D02*
D03*
X2614930D02*
D03*
D24*
X3030220Y482600D02*
D03*
Y457200D02*
D03*
Y431800D02*
D03*
Y406400D02*
D03*
Y381000D02*
D03*
Y355600D02*
D03*
X3185220D02*
D03*
Y381000D02*
D03*
Y406400D02*
D03*
Y431800D02*
D03*
Y457200D02*
D03*
Y482600D02*
D03*
D25*
X2924800Y506730D02*
D03*
X2955300D02*
D03*
D26*
X2954780Y411480D02*
D03*
X2922780D02*
D03*
D27*
X2683510Y691820D02*
D03*
Y718820D02*
D03*
D28*
X2964090Y546100D02*
D03*
X2921090D02*
D03*
D56*
X2682240Y0D02*
D03*
D57*
X2707640D02*
D03*
X2733040D02*
D03*
X2758440D02*
D03*
X2567940Y243840D02*
D03*
D58*
Y218440D02*
D03*
D59*
X2955130Y459740D02*
D03*
D60*
X2935130D02*
D03*
D61*
X2763520Y520700D02*
D03*
X2663520D02*
D03*
X2713520Y557700D02*
D03*
D62*
X2909250Y273050D02*
D03*
X2889250D02*
D03*
X2869250D02*
D03*
X2849250D02*
D03*
X2829250D02*
D03*
X2809250D02*
D03*
X2789250D02*
D03*
X2769250D02*
D03*
X2749250D02*
D03*
X2729250D02*
D03*
Y53050D02*
D03*
X2749250D02*
D03*
X2769250D02*
D03*
X2789250D02*
D03*
X2809250D02*
D03*
X2829250D02*
D03*
X2849250D02*
D03*
X2869250D02*
D03*
X2889250D02*
D03*
X2909250D02*
D03*
D63*
X2607600Y812800D02*
D03*
D64*
X2624600D02*
D03*
X2641600D02*
D03*
X2658600D02*
D03*
X2675600D02*
D03*
D65*
X2883570Y712470D02*
D03*
D66*
X2808570D02*
D03*
D67*
X2528570Y735330D02*
D03*
D68*
Y700330D02*
D03*
D69*
X2613660Y625830D02*
D03*
Y760730D02*
D03*
M02*
