G04*
G04 #@! TF.GenerationSoftware,Altium Limited,Altium Designer,20.0.13 (296)*
G04*
G04 Layer_Color=65535*
%FSLAX44Y44*%
%MOMM*%
G71*
G01*
G75*
%ADD10C,0.2500*%
%ADD11C,0.3000*%
%ADD12C,0.2000*%
%ADD13C,0.1270*%
%ADD14C,0.4000*%
%ADD15C,0.1000*%
%ADD16C,0.0254*%
%ADD17C,0.5000*%
%ADD18C,0.2540*%
%ADD19C,0.1500*%
%ADD20C,0.7000*%
%ADD21R,1.0320X1.1110*%
D10*
X2809380Y613580D02*
G03*
X2809380Y613580I-1250J0D01*
G01*
X2604930Y215860D02*
G03*
X2604930Y215860I-1000J0D01*
G01*
D11*
X3011533Y492950D02*
G03*
X3011533Y492950I-1423J0D01*
G01*
X2391870Y364746D02*
X2394369Y367245D01*
X2399368D01*
X2401867Y364746D01*
Y362247D01*
X2399368Y359748D01*
X2396868D01*
X2399368D01*
X2401867Y357248D01*
Y354749D01*
X2399368Y352250D01*
X2394369D01*
X2391870Y354749D01*
X2406865Y352250D02*
Y354749D01*
X2409364D01*
Y352250D01*
X2406865D01*
X2419361Y364746D02*
X2421860Y367245D01*
X2426859D01*
X2429358Y364746D01*
Y362247D01*
X2426859Y359748D01*
X2424359D01*
X2426859D01*
X2429358Y357248D01*
Y354749D01*
X2426859Y352250D01*
X2421860D01*
X2419361Y354749D01*
X2434356Y367245D02*
Y357248D01*
X2439355Y352250D01*
X2444353Y357248D01*
Y367245D01*
X2449351Y359748D02*
X2459348D01*
X2464346Y364746D02*
X2466846Y367245D01*
X2471844D01*
X2474343Y364746D01*
Y362247D01*
X2471844Y359748D01*
X2469345D01*
X2471844D01*
X2474343Y357248D01*
Y354749D01*
X2471844Y352250D01*
X2466846D01*
X2464346Y354749D01*
X2479342Y352250D02*
Y354749D01*
X2481841D01*
Y352250D01*
X2479342D01*
X2491838Y367245D02*
X2501834D01*
Y364746D01*
X2491838Y354749D01*
Y352250D01*
X2506833Y367245D02*
Y357248D01*
X2511831Y352250D01*
X2516830Y357248D01*
Y367245D01*
X2817320Y587659D02*
X2821319D01*
X2823318D02*
X2827317D01*
X2829316Y584660D02*
X2832315Y587659D01*
X2829316Y590658D01*
X2931620Y590928D02*
X2938285D01*
X2934952Y594261D02*
Y587596D01*
X2941617Y594261D02*
X2943283Y595927D01*
X2946615D01*
X2948281Y594261D01*
Y592594D01*
X2946615Y590928D01*
X2944949D01*
X2946615D01*
X2948281Y589262D01*
Y587596D01*
X2946615Y585930D01*
X2943283D01*
X2941617Y587596D01*
X2951613Y585930D02*
Y587596D01*
X2953280D01*
Y585930D01*
X2951613D01*
X2959944Y594261D02*
X2961610Y595927D01*
X2964943D01*
X2966609Y594261D01*
Y592594D01*
X2964943Y590928D01*
X2963276D01*
X2964943D01*
X2966609Y589262D01*
Y587596D01*
X2964943Y585930D01*
X2961610D01*
X2959944Y587596D01*
X2969941Y595927D02*
Y589262D01*
X2973273Y585930D01*
X2976606Y589262D01*
Y595927D01*
X2769060Y888187D02*
X2779217D01*
X2774138Y893266D02*
Y883109D01*
X2784295Y880570D02*
X2789373D01*
X2786834D01*
Y895805D01*
X2784295Y893266D01*
X2807148Y880570D02*
X2796991D01*
X2807148Y890727D01*
Y893266D01*
X2804608Y895805D01*
X2799530D01*
X2796991Y893266D01*
X2812226Y895805D02*
Y885648D01*
X2817304Y880570D01*
X2822383Y885648D01*
Y895805D01*
D12*
X2970130Y459740D02*
G03*
X2970130Y459740I-25000J0D01*
G01*
X2910250Y291050D02*
G03*
X2908250Y291050I-1000J0D01*
G01*
D02*
G03*
X2910250Y291050I1000J0D01*
G01*
X2936070Y712470D02*
G03*
X2936070Y712470I-90000J0D01*
G01*
X2568570Y717830D02*
G03*
X2568570Y717830I-40000J0D01*
G01*
X2771140Y-12700D02*
Y12700D01*
X2669540Y-12700D02*
X2771140D01*
X2669540Y12700D02*
X2771140D01*
X2669540Y-12700D02*
Y12700D01*
X2832280Y593980D02*
Y609980D01*
X2816680Y593980D02*
X2832280D01*
X2816680Y609980D02*
X2832280D01*
X2816680Y593980D02*
Y609980D01*
X2555240Y256540D02*
X2580640D01*
Y205740D02*
Y256540D01*
X2555240Y205740D02*
X2580640D01*
X2555240D02*
Y256540D01*
X3027720Y339100D02*
X3187720D01*
X3027720Y499100D02*
X3187720D01*
Y364000D02*
Y372600D01*
Y389400D02*
Y398000D01*
Y414800D02*
Y423400D01*
Y440200D02*
Y448800D01*
Y465600D02*
Y474200D01*
X3027720Y364000D02*
Y372600D01*
Y389400D02*
Y398000D01*
Y414800D02*
Y423400D01*
Y440200D02*
Y448800D01*
Y465600D02*
Y474200D01*
X2935550Y514980D02*
X2944550D01*
X2935550Y498480D02*
X2944550D01*
X2933280Y402980D02*
X2944280D01*
X2933280Y419980D02*
X2944280D01*
X2588150Y791750D02*
Y840750D01*
X2695150Y791750D02*
Y840750D01*
X2588150Y791750D02*
X2695150D01*
X2588150Y840750D02*
X2695150D01*
X2588150Y828130D02*
X2695150D01*
X2744470Y707470D02*
Y717470D01*
X2739470Y712470D02*
X2749470D01*
X2528570Y762280D02*
Y774980D01*
X2522220Y768630D02*
X2534920D01*
X2613660Y735280D02*
Y746480D01*
Y640080D02*
Y651280D01*
X2588410Y735280D02*
X2638910D01*
Y651280D02*
Y735280D01*
X2588410Y651280D02*
X2638910D01*
X2588410D02*
Y735280D01*
X2920715Y532475D02*
X2964465D01*
X2920715Y559725D02*
X2964465D01*
X2752820Y15970D02*
Y20968D01*
X2755319D01*
X2756152Y20135D01*
Y18469D01*
X2755319Y17636D01*
X2752820D01*
X2757818Y20968D02*
Y15970D01*
X2760317D01*
X2761151Y16803D01*
Y20135D01*
X2760317Y20968D01*
X2757818D01*
X2765316Y15970D02*
Y20968D01*
X2762817Y18469D01*
X2766149D01*
X2726150Y15970D02*
Y20968D01*
X2728649D01*
X2729482Y20135D01*
Y18469D01*
X2728649Y17636D01*
X2726150D01*
X2731148Y20968D02*
Y15970D01*
X2733647D01*
X2734481Y16803D01*
Y20135D01*
X2733647Y20968D01*
X2731148D01*
X2736147Y20135D02*
X2736980Y20968D01*
X2738646D01*
X2739479Y20135D01*
Y19302D01*
X2738646Y18469D01*
X2737813D01*
X2738646D01*
X2739479Y17636D01*
Y16803D01*
X2738646Y15970D01*
X2736980D01*
X2736147Y16803D01*
X2702020Y20968D02*
X2705352D01*
X2703686D01*
Y15970D01*
X2707018Y20968D02*
X2710351Y15970D01*
Y20968D02*
X2707018Y15970D01*
X2676620D02*
Y20968D01*
X2679119D01*
X2679952Y20135D01*
Y18469D01*
X2679119Y17636D01*
X2676620D01*
X2678286D02*
X2679952Y15970D01*
X2681618Y20968D02*
X2684951Y15970D01*
Y20968D02*
X2681618Y15970D01*
D13*
X2603380Y279460D02*
X2639180D01*
X2603380Y223460D02*
Y279460D01*
X2639180Y223460D02*
Y279460D01*
X2603380Y223460D02*
X2639180D01*
D14*
X2583180Y603250D02*
X2583180Y139700D01*
X2324100D02*
X2583180D01*
X2324100D02*
X2324100Y603250D01*
X2583180D01*
X2902840Y532475D02*
Y559725D01*
D15*
X2597520Y509200D02*
X2829520D01*
X2597520D02*
Y569200D01*
X2829520D01*
Y509200D02*
Y569200D01*
X2657100Y284970D02*
X2919250D01*
X2657100Y41130D02*
Y284970D01*
Y41130D02*
X2919250D01*
X2981400Y143050D01*
Y183050D01*
X2919250Y284970D02*
X2981400Y183050D01*
D16*
X2422704Y301498D02*
X2479600D01*
X2422958Y301752D02*
X2480108D01*
X2423212Y302006D02*
X2480616D01*
X2423466Y302260D02*
X2481124D01*
X2423720Y302514D02*
X2482394D01*
X2423974Y302768D02*
X2482648D01*
X2424228Y303022D02*
X2483156D01*
X2424482Y303276D02*
X2483664D01*
X2424990Y303530D02*
X2484426D01*
X2425244Y303784D02*
X2485188D01*
X2425498Y304038D02*
X2486966D01*
X2425752Y304292D02*
X2505000D01*
X2426006Y304546D02*
X2504746D01*
X2426260Y304800D02*
X2504746D01*
X2426768Y305054D02*
X2504492D01*
X2427022Y305308D02*
X2504238D01*
X2427276Y305562D02*
X2503984D01*
X2427784Y305816D02*
X2503984D01*
X2428038Y306070D02*
X2503730D01*
X2428292Y306324D02*
X2503476D01*
X2428800Y306578D02*
X2503222D01*
X2429054Y306832D02*
X2503222D01*
X2429562Y307086D02*
X2480870D01*
X2429816Y307340D02*
X2480616D01*
X2433880Y307594D02*
X2480108D01*
X2434134Y307848D02*
X2479854D01*
X2407464Y230378D02*
X2479854D01*
X2407210Y230632D02*
X2480108D01*
X2407210Y230886D02*
X2480616D01*
X2406956Y231140D02*
X2480870D01*
X2406702Y231394D02*
X2481378D01*
X2427276Y231648D02*
X2481632D01*
X2427530Y231902D02*
X2482140D01*
X2427530Y232156D02*
X2482394D01*
X2427784Y232410D02*
X2482648D01*
X2427276Y232664D02*
X2483156D01*
X2427022Y232918D02*
X2483410D01*
X2426768Y233172D02*
X2483664D01*
X2426260Y233426D02*
X2484172D01*
X2426006Y233680D02*
X2484426D01*
X2425752Y233934D02*
X2484680D01*
X2425498Y234188D02*
X2484934D01*
X2425244Y234442D02*
X2485188D01*
X2424990Y234696D02*
X2485442D01*
X2424482Y234950D02*
X2485950D01*
X2424228Y235204D02*
X2486204D01*
X2423974Y235458D02*
X2486458D01*
X2423720Y235712D02*
X2486712D01*
X2423466Y235966D02*
X2486966D01*
X2423212Y236220D02*
X2487220D01*
X2422958Y236474D02*
X2487474D01*
X2422704Y236728D02*
X2487728D01*
X2422450Y236982D02*
X2487982D01*
X2422196Y237236D02*
X2488236D01*
X2421942Y237490D02*
X2488490D01*
X2421688Y237744D02*
X2488744D01*
X2421434Y237998D02*
X2488998D01*
X2421180Y238252D02*
X2489252D01*
X2420926Y238506D02*
X2489506D01*
X2420926Y238760D02*
X2489506D01*
X2420672Y239014D02*
X2489760D01*
X2420418Y239268D02*
X2490014D01*
X2420164Y239522D02*
X2490268D01*
X2419910Y239776D02*
X2490522D01*
X2419656Y240030D02*
X2490776D01*
X2419402Y240284D02*
X2491030D01*
X2419402Y240538D02*
X2491030D01*
X2419148Y240792D02*
X2491284D01*
X2418894Y241046D02*
X2491538D01*
X2418640Y241300D02*
X2491792D01*
X2418640Y241554D02*
X2491792D01*
X2418386Y241808D02*
X2492046D01*
X2418132Y242062D02*
X2492300D01*
X2417878Y242316D02*
X2492554D01*
X2417878Y242570D02*
X2492554D01*
X2417624Y242824D02*
X2492808D01*
X2417370Y243078D02*
X2493062D01*
X2417370Y243332D02*
X2493062D01*
X2417116Y243586D02*
X2493316D01*
X2416862Y243840D02*
X2493570D01*
X2416862Y244094D02*
X2493570D01*
X2416608Y244348D02*
X2493824D01*
X2416354Y244602D02*
X2494078D01*
X2416354Y244856D02*
X2494078D01*
X2416100Y245110D02*
X2494332D01*
X2415846Y245364D02*
X2494586D01*
X2415846Y245618D02*
X2494586D01*
X2415592Y245872D02*
X2494840D01*
X2429308Y213614D02*
X2480108D01*
X2428800Y213868D02*
X2480616D01*
X2428292Y214122D02*
X2481124D01*
X2427784Y214376D02*
X2481632D01*
X2427276Y214630D02*
X2482140D01*
X2426768Y214884D02*
X2482648D01*
X2426260Y215138D02*
X2483156D01*
X2425752Y215392D02*
X2483664D01*
X2425244Y215646D02*
X2484172D01*
X2424990Y215900D02*
X2484426D01*
X2424482Y216154D02*
X2484934D01*
X2423974Y216408D02*
X2485442D01*
X2423466Y216662D02*
X2485950D01*
X2423212Y216916D02*
X2486204D01*
X2422704Y217170D02*
X2486712D01*
X2422196Y217424D02*
X2487220D01*
X2421942Y217678D02*
X2487474D01*
X2421434Y217932D02*
X2487982D01*
X2421180Y218186D02*
X2488236D01*
X2420672Y218440D02*
X2488744D01*
X2420418Y218694D02*
X2488998D01*
X2419910Y218948D02*
X2489506D01*
X2419656Y219202D02*
X2489760D01*
X2419148Y219456D02*
X2490268D01*
X2418894Y219710D02*
X2490522D01*
X2418640Y219964D02*
X2490776D01*
X2418132Y220218D02*
X2491284D01*
X2417878Y220472D02*
X2491538D01*
X2417624Y220726D02*
X2491792D01*
X2417116Y220980D02*
X2492300D01*
X2416862Y221234D02*
X2492554D01*
X2416608Y221488D02*
X2492808D01*
X2416354Y221742D02*
X2493062D01*
X2415846Y221996D02*
X2493570D01*
X2413560Y288290D02*
X2463598D01*
X2433626Y308610D02*
X2478584D01*
X2436166Y227330D02*
X2474266D01*
X2414576Y247650D02*
X2459026D01*
X2433626Y308864D02*
X2478076D01*
X2433372Y309118D02*
X2477568D01*
X2433372Y309372D02*
X2477314D01*
X2433626Y309626D02*
X2476806D01*
X2434134Y309880D02*
X2476298D01*
X2434642Y310134D02*
X2475790D01*
X2435150Y310388D02*
X2475282D01*
X2435658Y310642D02*
X2474774D01*
X2436166Y310896D02*
X2474266D01*
X2436928Y311150D02*
X2473504D01*
X2437436Y311404D02*
X2472996D01*
X2437944Y311658D02*
X2472488D01*
X2438706Y311912D02*
X2471726D01*
X2437436Y324866D02*
X2449882D01*
X2437436Y325120D02*
X2456740D01*
X2437182Y325374D02*
X2456740D01*
X2437182Y325628D02*
X2456740D01*
X2437182Y325882D02*
X2456740D01*
X2436928Y326136D02*
X2456740D01*
X2436928Y326390D02*
X2456740D01*
X2436928Y326644D02*
X2456994D01*
X2436928Y326898D02*
X2456994D01*
X2436674Y327152D02*
X2456994D01*
X2436674Y327406D02*
X2456994D01*
X2436674Y327660D02*
X2456994D01*
X2436928Y327914D02*
X2456994D01*
X2437690Y328168D02*
X2456994D01*
X2438706Y328422D02*
X2456994D01*
X2413560Y288544D02*
X2463852D01*
X2413814Y288798D02*
X2464106D01*
X2413814Y289052D02*
X2464106D01*
X2414068Y289306D02*
X2464360D01*
X2414068Y289560D02*
X2464614D01*
X2414322Y289814D02*
X2464868D01*
X2414322Y290068D02*
X2465122D01*
X2414576Y290322D02*
X2465122D01*
X2414576Y290576D02*
X2465376D01*
X2414830Y290830D02*
X2465630D01*
X2414830Y291084D02*
X2465884D01*
X2415084Y291338D02*
X2466138D01*
X2415338Y291592D02*
X2466392D01*
X2415338Y291846D02*
X2466646D01*
X2415592Y292100D02*
X2466900D01*
X2415592Y292354D02*
X2467154D01*
X2415846Y292608D02*
X2467408D01*
X2415846Y292862D02*
X2467662D01*
X2416100Y293116D02*
X2467916D01*
X2416354Y293370D02*
X2468170D01*
X2416354Y293624D02*
X2468424D01*
X2416608Y293878D02*
X2468678D01*
X2416862Y294132D02*
X2468932D01*
X2416862Y294386D02*
X2469186D01*
X2417116Y294640D02*
X2469440D01*
X2417370Y294894D02*
X2469694D01*
X2417370Y295148D02*
X2469948D01*
X2417624Y295402D02*
X2470202D01*
X2417878Y295656D02*
X2470710D01*
X2417878Y295910D02*
X2470964D01*
X2418132Y296164D02*
X2471218D01*
X2418386Y296418D02*
X2471472D01*
X2418640Y296672D02*
X2471726D01*
X2418640Y296926D02*
X2472234D01*
X2418894Y297180D02*
X2472488D01*
X2419148Y297434D02*
X2472742D01*
X2419402Y297688D02*
X2473250D01*
X2419402Y297942D02*
X2473504D01*
X2419656Y298196D02*
X2473758D01*
X2419910Y298450D02*
X2474266D01*
X2420164Y298704D02*
X2474774D01*
X2420418Y298958D02*
X2475028D01*
X2420672Y299212D02*
X2475536D01*
X2420926Y299466D02*
X2476806D01*
X2420926Y299720D02*
X2476044D01*
X2421180Y299974D02*
X2476552D01*
X2421434Y300228D02*
X2477060D01*
X2421688Y300482D02*
X2477314D01*
X2421942Y300736D02*
X2477822D01*
X2422196Y300990D02*
X2478330D01*
X2422450Y301244D02*
X2478838D01*
X2433880Y308102D02*
X2479346D01*
X2433880Y308356D02*
X2479092D01*
X2409496Y270764D02*
X2441500D01*
X2409496Y271018D02*
X2441754D01*
X2409496Y271272D02*
X2442008D01*
X2409496Y271526D02*
X2442008D01*
X2409496Y271780D02*
X2442262D01*
X2409496Y272034D02*
X2442516D01*
X2409496Y272288D02*
X2445056D01*
X2409496Y272542D02*
X2454962D01*
X2409496Y272796D02*
X2454962D01*
X2409496Y273050D02*
X2454962D01*
X2409496Y273304D02*
X2455216D01*
X2409496Y273558D02*
X2455216D01*
X2409496Y273812D02*
X2455216D01*
X2409750Y274066D02*
X2455470D01*
X2409750Y274320D02*
X2455470D01*
X2409750Y274574D02*
X2455724D01*
X2409750Y274828D02*
X2455724D01*
X2409750Y275082D02*
X2455724D01*
X2409750Y275336D02*
X2455978D01*
X2409750Y275590D02*
X2455978D01*
X2409750Y275844D02*
X2456232D01*
X2410004Y276098D02*
X2456232D01*
X2410004Y276352D02*
X2456232D01*
X2410004Y276606D02*
X2456486D01*
X2410004Y276860D02*
X2456486D01*
X2410004Y277114D02*
X2456740D01*
X2410004Y277368D02*
X2456740D01*
X2410258Y277622D02*
X2456994D01*
X2410258Y277876D02*
X2456994D01*
X2410258Y278130D02*
X2456994D01*
X2410258Y278384D02*
X2457248D01*
X2410258Y278638D02*
X2457248D01*
X2410512Y278892D02*
X2457502D01*
X2410512Y279146D02*
X2457502D01*
X2410512Y279400D02*
X2457756D01*
X2410512Y279654D02*
X2457756D01*
X2410512Y279908D02*
X2458010D01*
X2410766Y280162D02*
X2458264D01*
X2410766Y280416D02*
X2458264D01*
X2410766Y280670D02*
X2458518D01*
X2410766Y280924D02*
X2458518D01*
X2411020Y281178D02*
X2458772D01*
X2411020Y281432D02*
X2459026D01*
X2411020Y281686D02*
X2459026D01*
X2411274Y281940D02*
X2459280D01*
X2411274Y282194D02*
X2459534D01*
X2411274Y282448D02*
X2459534D01*
X2411274Y282702D02*
X2459788D01*
X2411528Y282956D02*
X2459788D01*
X2411528Y283210D02*
X2460042D01*
X2411528Y283464D02*
X2460042D01*
X2411782Y283718D02*
X2460296D01*
X2411782Y283972D02*
X2460550D01*
X2411782Y284226D02*
X2461058D01*
X2412036Y284480D02*
X2460804D01*
X2412036Y284734D02*
X2461058D01*
X2412290Y284988D02*
X2461058D01*
X2412290Y285242D02*
X2461312D01*
X2412290Y285496D02*
X2461566D01*
X2412544Y285750D02*
X2461820D01*
X2412544Y286004D02*
X2461820D01*
X2412544Y286258D02*
X2462074D01*
X2412798Y286512D02*
X2462328D01*
X2412798Y286766D02*
X2463090D01*
X2413052Y287020D02*
X2462582D01*
X2413052Y287274D02*
X2462836D01*
X2413306Y287528D02*
X2463090D01*
X2413306Y287782D02*
X2463344D01*
X2413306Y288036D02*
X2463344D01*
X2414576Y247904D02*
X2459026D01*
X2414322Y248158D02*
X2458772D01*
X2414322Y248412D02*
X2458772D01*
X2414068Y248666D02*
X2458772D01*
X2414068Y248920D02*
X2458772D01*
X2413814Y249174D02*
X2458518D01*
X2413814Y249428D02*
X2458518D01*
X2413560Y249682D02*
X2458518D01*
X2413560Y249936D02*
X2458518D01*
X2413306Y250190D02*
X2458518D01*
X2413306Y250444D02*
X2458518D01*
X2413306Y250698D02*
X2458264D01*
X2413052Y250952D02*
X2458264D01*
X2413052Y251206D02*
X2458264D01*
X2412798Y251460D02*
X2458264D01*
X2412798Y251714D02*
X2458518D01*
X2412544Y251968D02*
X2458010D01*
X2412544Y252222D02*
X2457756D01*
X2412544Y252476D02*
X2457756D01*
X2412290Y252730D02*
X2457756D01*
X2412290Y252984D02*
X2457502D01*
X2412290Y253238D02*
X2457502D01*
X2412036Y253492D02*
X2457502D01*
X2412036Y253746D02*
X2457502D01*
X2411782Y254000D02*
X2457502D01*
X2411782Y254254D02*
X2457502D01*
X2411782Y254508D02*
X2457248D01*
X2411528Y254762D02*
X2457248D01*
X2411528Y255016D02*
X2457248D01*
X2411528Y255270D02*
X2457248D01*
X2411274Y255524D02*
X2456994D01*
X2411274Y255778D02*
X2456994D01*
X2411274Y256032D02*
X2456994D01*
X2411274Y256286D02*
X2456994D01*
X2411020Y256540D02*
X2456994D01*
X2411020Y256794D02*
X2456740D01*
X2411020Y257048D02*
X2456740D01*
X2410766Y257302D02*
X2456740D01*
X2410766Y257556D02*
X2457248D01*
X2410766Y257810D02*
X2457248D01*
X2410766Y258064D02*
X2456994D01*
X2410512Y258318D02*
X2456486D01*
X2410512Y258572D02*
X2456486D01*
X2410512Y258826D02*
X2456740D01*
X2410512Y259080D02*
X2456232D01*
X2410512Y259334D02*
X2452676D01*
X2410258Y259588D02*
X2452422D01*
X2410258Y259842D02*
X2452168D01*
X2410258Y260096D02*
X2451914D01*
X2410258Y260350D02*
X2451406D01*
X2410258Y260604D02*
X2450898D01*
X2410004Y260858D02*
X2450644D01*
X2410004Y261112D02*
X2450390D01*
X2410004Y261366D02*
X2449882D01*
X2410004Y261620D02*
X2449628D01*
X2410004Y261874D02*
X2449374D01*
X2410004Y262128D02*
X2448866D01*
X2435658Y227584D02*
X2474774D01*
X2435150Y227838D02*
X2475282D01*
X2434642Y228092D02*
X2475790D01*
X2434134Y228346D02*
X2476298D01*
X2433626Y228600D02*
X2476806D01*
X2433118Y228854D02*
X2477314D01*
X2432864Y229108D02*
X2477568D01*
X2408480Y229362D02*
X2478076D01*
X2408226Y229616D02*
X2478584D01*
X2407972Y229870D02*
X2479092D01*
X2407718Y230124D02*
X2479346D01*
X2415592Y246126D02*
X2459534D01*
X2415338Y246380D02*
X2459280D01*
X2415338Y246634D02*
X2459280D01*
X2415084Y246888D02*
X2459280D01*
X2414830Y247142D02*
X2459026D01*
X2414830Y247396D02*
X2459026D01*
X2438706Y210312D02*
X2470710D01*
X2437690Y210566D02*
X2471726D01*
X2436928Y210820D02*
X2472488D01*
X2436166Y211074D02*
X2473250D01*
X2435404Y211328D02*
X2474012D01*
X2434642Y211582D02*
X2474774D01*
X2433880Y211836D02*
X2475536D01*
X2433118Y212090D02*
X2476298D01*
X2432356Y212344D02*
X2477060D01*
X2431848Y212598D02*
X2477568D01*
X2431086Y212852D02*
X2478330D01*
X2430578Y213106D02*
X2478838D01*
X2430070Y213360D02*
X2479346D01*
X2415592Y222250D02*
X2454708D01*
X2415338Y222504D02*
X2450390D01*
X2415084Y222758D02*
X2448358D01*
X2414830Y223012D02*
X2446834D01*
X2414322Y223266D02*
X2445564D01*
X2414068Y223520D02*
X2444294D01*
X2413814Y223774D02*
X2443278D01*
X2413560Y224028D02*
X2442516D01*
X2413306Y224282D02*
X2441500D01*
X2438706Y226314D02*
X2471726D01*
X2437944Y226568D02*
X2472488D01*
X2437436Y226822D02*
X2472996D01*
X2436928Y227076D02*
X2473504D01*
X2501952Y267970D02*
X2515922D01*
X2462582D02*
X2500936D01*
X2497888Y288290D02*
X2512874D01*
X2480362D02*
X2496872D01*
X2468170D02*
X2470710D01*
X2480362Y308610D02*
X2501698D01*
X2440738Y328930D02*
X2456994D01*
X2476298Y227330D02*
X2499158D01*
X2496872Y247650D02*
X2511858D01*
X2461058D02*
X2495856D01*
X2441754Y329184D02*
X2456994D01*
X2443278Y329438D02*
X2456994D01*
X2444548Y329692D02*
X2456994D01*
X2446326Y329946D02*
X2456994D01*
X2448612Y330200D02*
X2456994D01*
X2479854Y308864D02*
X2501444D01*
X2479600Y309118D02*
X2501190D01*
X2479092Y309372D02*
X2500936D01*
X2478584Y309626D02*
X2500936D01*
X2478330Y309880D02*
X2500682D01*
X2478330Y310134D02*
X2500428D01*
X2478330Y310388D02*
X2500174D01*
X2478584Y310642D02*
X2499920D01*
X2478584Y310896D02*
X2499666D01*
X2478838Y311150D02*
X2499412D01*
X2478838Y311404D02*
X2499158D01*
X2479092Y311658D02*
X2498904D01*
X2479092Y311912D02*
X2498650D01*
X2479346Y312166D02*
X2498396D01*
X2439468D02*
X2470964D01*
X2479346Y312420D02*
X2498142D01*
X2439976D02*
X2470456D01*
X2479600Y312674D02*
X2497888D01*
X2440738D02*
X2469694D01*
X2479600Y312928D02*
X2497634D01*
X2441500D02*
X2468932D01*
X2479854Y313182D02*
X2497380D01*
X2442516D02*
X2467916D01*
X2479854Y313436D02*
X2497126D01*
X2443278D02*
X2467154D01*
X2480108Y313690D02*
X2496872D01*
X2444294D02*
X2466138D01*
X2480108Y313944D02*
X2496618D01*
X2445564D02*
X2464868D01*
X2480362Y314198D02*
X2496364D01*
X2446834D02*
X2463598D01*
X2480362Y314452D02*
X2496110D01*
X2448358D02*
X2462074D01*
X2480616Y314706D02*
X2495856D01*
X2469186D02*
X2469694D01*
X2480616Y314960D02*
X2495602D01*
X2468424D02*
X2469948D01*
X2480870Y315214D02*
X2495348D01*
X2467408D02*
X2469948D01*
X2480870Y315468D02*
X2495094D01*
X2466900D02*
X2469948D01*
X2481124Y315722D02*
X2494586D01*
X2466900D02*
X2470202D01*
X2444040D02*
X2450390D01*
X2481124Y315976D02*
X2494332D01*
X2467154D02*
X2470202D01*
X2481378Y316230D02*
X2494078D01*
X2467154D02*
X2470202D01*
X2481378Y316484D02*
X2493824D01*
X2467154D02*
X2470456D01*
X2481632Y316738D02*
X2493570D01*
X2467408D02*
X2470456D01*
X2448866D02*
X2449120D01*
X2481632Y316992D02*
X2493062D01*
X2467408D02*
X2470456D01*
X2448866D02*
X2451660D01*
X2481886Y317246D02*
X2492808D01*
X2467408D02*
X2470456D01*
X2448866D02*
X2451660D01*
X2481886Y317500D02*
X2492554D01*
X2467662D02*
X2470710D01*
X2448866D02*
X2451660D01*
X2481886Y317754D02*
X2492300D01*
X2467662D02*
X2470710D01*
X2448866D02*
X2451660D01*
X2481632Y318008D02*
X2491792D01*
X2467662D02*
X2470710D01*
X2448866D02*
X2451660D01*
X2481378Y318262D02*
X2491538D01*
X2467662D02*
X2470964D01*
X2448612D02*
X2451660D01*
X2480870Y318516D02*
X2491284D01*
X2467916D02*
X2470964D01*
X2448612D02*
X2451660D01*
X2480108Y318770D02*
X2490776D01*
X2467916D02*
X2470964D01*
X2448612D02*
X2452422D01*
X2479346Y319024D02*
X2490522D01*
X2467916D02*
X2470964D01*
X2448612D02*
X2456486D01*
X2478584Y319278D02*
X2490268D01*
X2468170D02*
X2471218D01*
X2448612D02*
X2456486D01*
X2478584Y319532D02*
X2489760D01*
X2468170D02*
X2471218D01*
X2448612D02*
X2456486D01*
X2468170Y319786D02*
X2471218D01*
X2448612D02*
X2456486D01*
X2468424Y320040D02*
X2471472D01*
X2448612D02*
X2456486D01*
X2468424Y320294D02*
X2471472D01*
X2468424Y320548D02*
X2471472D01*
X2468424Y320802D02*
X2471726D01*
X2468678Y321056D02*
X2471726D01*
X2448358D02*
X2449628D01*
X2468678Y321310D02*
X2471726D01*
X2448358D02*
X2451406D01*
X2468678Y321564D02*
X2471472D01*
X2448358D02*
X2451406D01*
X2468932Y321818D02*
X2470456D01*
X2448358D02*
X2451406D01*
X2468932Y322072D02*
X2469694D01*
X2448358D02*
X2451152D01*
X2448358Y322326D02*
X2451152D01*
X2448358Y322580D02*
X2451152D01*
X2448358Y322834D02*
X2451152D01*
X2469186Y323088D02*
X2484172D01*
X2448358D02*
X2451152D01*
X2463090Y323342D02*
X2483664D01*
X2448358D02*
X2451152D01*
X2463090Y323596D02*
X2483156D01*
X2448104D02*
X2451152D01*
X2463090Y323850D02*
X2482648D01*
X2448104D02*
X2451152D01*
X2463344Y324104D02*
X2482140D01*
X2463344Y324358D02*
X2481632D01*
X2457756Y324612D02*
X2481124D01*
X2457756Y324866D02*
X2480616D01*
X2457756Y325120D02*
X2480108D01*
X2457756Y325374D02*
X2479346D01*
X2457756Y325628D02*
X2478838D01*
X2457756Y325882D02*
X2478330D01*
X2457756Y326136D02*
X2477568D01*
X2457756Y326390D02*
X2477060D01*
X2463598Y326644D02*
X2476298D01*
X2463598Y326898D02*
X2475536D01*
X2463598Y327152D02*
X2474774D01*
X2463852Y327406D02*
X2474012D01*
X2463852Y327660D02*
X2473250D01*
X2463852Y327914D02*
X2472488D01*
X2458010Y328168D02*
X2471726D01*
X2458010Y328422D02*
X2470710D01*
X2458010Y328676D02*
X2469694D01*
X2439722D02*
X2456994D01*
X2497888Y288544D02*
X2512874D01*
X2480616D02*
X2496872D01*
X2467916D02*
X2470710D01*
X2497634Y288798D02*
X2512620D01*
X2480616D02*
X2496618D01*
X2467916D02*
X2470710D01*
X2497634Y289052D02*
X2512620D01*
X2480870D02*
X2496618D01*
X2467916D02*
X2470456D01*
X2497380Y289306D02*
X2512620D01*
X2480870D02*
X2496364D01*
X2467916D02*
X2470710D01*
X2497380Y289560D02*
X2512366D01*
X2481124D02*
X2496364D01*
X2467916D02*
X2470710D01*
X2497126Y289814D02*
X2512366D01*
X2481124D02*
X2496110D01*
X2467916D02*
X2470710D01*
X2497126Y290068D02*
X2512366D01*
X2481378D02*
X2496110D01*
X2467916D02*
X2470710D01*
X2496872Y290322D02*
X2512112D01*
X2481632D02*
X2495856D01*
X2467916D02*
X2470710D01*
X2496872Y290576D02*
X2512112D01*
X2481632D02*
X2495856D01*
X2467916D02*
X2470964D01*
X2496618Y290830D02*
X2512112D01*
X2481886D02*
X2495602D01*
X2468170D02*
X2470964D01*
X2496618Y291084D02*
X2511858D01*
X2481886D02*
X2495602D01*
X2468170D02*
X2470964D01*
X2496364Y291338D02*
X2511858D01*
X2482140D02*
X2495348D01*
X2468170D02*
X2471218D01*
X2496364Y291592D02*
X2511858D01*
X2482140D02*
X2495094D01*
X2468424D02*
X2471472D01*
X2496110Y291846D02*
X2511604D01*
X2482394D02*
X2495094D01*
X2468424D02*
X2471726D01*
X2496110Y292100D02*
X2511604D01*
X2482394D02*
X2494840D01*
X2468678D02*
X2471980D01*
X2495856Y292354D02*
X2511350D01*
X2482648D02*
X2494840D01*
X2468932D02*
X2472488D01*
X2495602Y292608D02*
X2511350D01*
X2482902D02*
X2494586D01*
X2468932D02*
X2476044D01*
X2495602Y292862D02*
X2511350D01*
X2482902D02*
X2494586D01*
X2469440D02*
X2475790D01*
X2495348Y293116D02*
X2511096D01*
X2483156D02*
X2494332D01*
X2469440D02*
X2475536D01*
X2495348Y293370D02*
X2511096D01*
X2483156D02*
X2494078D01*
X2495094Y293624D02*
X2510842D01*
X2483410D02*
X2494078D01*
X2494840Y293878D02*
X2510842D01*
X2483664D02*
X2493824D01*
X2469186D02*
X2469694D01*
X2494840Y294132D02*
X2510588D01*
X2483664D02*
X2493570D01*
X2469186D02*
X2469694D01*
X2494586Y294386D02*
X2510588D01*
X2483918D02*
X2493570D01*
X2469440D02*
X2469948D01*
X2494586Y294640D02*
X2510588D01*
X2484172D02*
X2493316D01*
X2494332Y294894D02*
X2510334D01*
X2484172D02*
X2493062D01*
X2494078Y295148D02*
X2510334D01*
X2484426D02*
X2493062D01*
X2494078Y295402D02*
X2510080D01*
X2484426D02*
X2492808D01*
X2493824Y295656D02*
X2510080D01*
X2484680D02*
X2492554D01*
X2484934Y295910D02*
X2492554D01*
X2484934Y296164D02*
X2492554D01*
X2485188Y296418D02*
X2492808D01*
X2485188Y296672D02*
X2509572D01*
X2485442Y296926D02*
X2509318D01*
X2485442Y297180D02*
X2509318D01*
X2485696Y297434D02*
X2509064D01*
X2485696Y297688D02*
X2509064D01*
X2485950Y297942D02*
X2508810D01*
X2485950Y298196D02*
X2508810D01*
X2485950Y298450D02*
X2508556D01*
X2486204Y298704D02*
X2508556D01*
X2486204Y298958D02*
X2508302D01*
X2486458Y299212D02*
X2508048D01*
X2486458Y299466D02*
X2508048D01*
X2486712Y299720D02*
X2507794D01*
X2486712Y299974D02*
X2507794D01*
X2486966Y300228D02*
X2507540D01*
X2486966Y300482D02*
X2507540D01*
X2487220Y300736D02*
X2507286D01*
X2487220Y300990D02*
X2507032D01*
X2487474Y301244D02*
X2507032D01*
X2487474Y301498D02*
X2506778D01*
X2487728Y301752D02*
X2506778D01*
X2487728Y302006D02*
X2506524D01*
X2487728Y302260D02*
X2506270D01*
X2487982Y302514D02*
X2506270D01*
X2487982Y302768D02*
X2506016D01*
X2487982Y303022D02*
X2505762D01*
X2488236Y303276D02*
X2505762D01*
X2488236Y303530D02*
X2505508D01*
X2488236Y303784D02*
X2505254D01*
X2488236Y304038D02*
X2505254D01*
X2481124Y307086D02*
X2502968D01*
X2482140Y307340D02*
X2502714D01*
X2481886Y307594D02*
X2502460D01*
X2481632Y307848D02*
X2502206D01*
X2481124Y308102D02*
X2502206D01*
X2480870Y308356D02*
X2501952D01*
Y268224D02*
X2515922D01*
X2462582D02*
X2500936D01*
X2501952Y268478D02*
X2515922D01*
X2462582D02*
X2500936D01*
X2502206Y268732D02*
X2515922D01*
X2463090D02*
X2500936D01*
X2502206Y268986D02*
X2515922D01*
X2463344D02*
X2500936D01*
X2502206Y269240D02*
X2515922D01*
X2463598D02*
X2500936D01*
X2502206Y269494D02*
X2515922D01*
X2463852D02*
X2500936D01*
X2501952Y269748D02*
X2515922D01*
X2463852D02*
X2500936D01*
X2501952Y270002D02*
X2515922D01*
X2464106D02*
X2500936D01*
X2501952Y270256D02*
X2515922D01*
X2464360D02*
X2500936D01*
X2501952Y270510D02*
X2515922D01*
X2464614D02*
X2500936D01*
X2501952Y270764D02*
X2515922D01*
X2464868D02*
X2500936D01*
X2501952Y271018D02*
X2515922D01*
X2465122D02*
X2500936D01*
X2501952Y271272D02*
X2515922D01*
X2465376D02*
X2500936D01*
X2501952Y271526D02*
X2515922D01*
X2465630D02*
X2500936D01*
X2501952Y271780D02*
X2515668D01*
X2465884D02*
X2500936D01*
X2449120D02*
X2451152D01*
X2501952Y272034D02*
X2515668D01*
X2466138D02*
X2500936D01*
X2501952Y272288D02*
X2515668D01*
X2466392D02*
X2500936D01*
X2445818D02*
X2454708D01*
X2501952Y272542D02*
X2515668D01*
X2466646D02*
X2500936D01*
X2501952Y272796D02*
X2515668D01*
X2466900D02*
X2500936D01*
X2501952Y273050D02*
X2515668D01*
X2467154D02*
X2500936D01*
X2501952Y273304D02*
X2515668D01*
X2467408D02*
X2500936D01*
X2501952Y273558D02*
X2515668D01*
X2467662D02*
X2500936D01*
X2501952Y273812D02*
X2515668D01*
X2467916D02*
X2500936D01*
X2501698Y274066D02*
X2515668D01*
X2468170D02*
X2500682D01*
X2501698Y274320D02*
X2515668D01*
X2468424D02*
X2500682D01*
X2501698Y274574D02*
X2515668D01*
X2468678D02*
X2500682D01*
X2501698Y274828D02*
X2515668D01*
X2468932D02*
X2500682D01*
X2501698Y275082D02*
X2515668D01*
X2469186D02*
X2500682D01*
X2501698Y275336D02*
X2515668D01*
X2469440D02*
X2500682D01*
X2501698Y275590D02*
X2515414D01*
X2469694D02*
X2500682D01*
X2501698Y275844D02*
X2515414D01*
X2469948D02*
X2500682D01*
X2469186D02*
X2469440D01*
X2501444Y276098D02*
X2515414D01*
X2470202D02*
X2500428D01*
X2469440D02*
X2469694D01*
X2501444Y276352D02*
X2515414D01*
X2470202D02*
X2500428D01*
X2501444Y276606D02*
X2515414D01*
X2470456D02*
X2500428D01*
X2501444Y276860D02*
X2515414D01*
X2480870D02*
X2500428D01*
X2501444Y277114D02*
X2515414D01*
X2480870D02*
X2500428D01*
X2501444Y277368D02*
X2515414D01*
X2480616D02*
X2500428D01*
X2501190Y277622D02*
X2515414D01*
X2480362D02*
X2500174D01*
X2501190Y277876D02*
X2515160D01*
X2480362D02*
X2500174D01*
X2501190Y278130D02*
X2515160D01*
X2480108D02*
X2500174D01*
X2501190Y278384D02*
X2515160D01*
X2479854D02*
X2500174D01*
X2501190Y278638D02*
X2515160D01*
X2479854D02*
X2500174D01*
X2500936Y278892D02*
X2515160D01*
X2479600D02*
X2499920D01*
X2500936Y279146D02*
X2515160D01*
X2479600D02*
X2499920D01*
X2500936Y279400D02*
X2515160D01*
X2479600D02*
X2499920D01*
X2500936Y279654D02*
X2514906D01*
X2479600D02*
X2499920D01*
X2500682Y279908D02*
X2514906D01*
X2479600D02*
X2499920D01*
X2500682Y280162D02*
X2514906D01*
X2479346D02*
X2499666D01*
X2500682Y280416D02*
X2514906D01*
X2479346D02*
X2499666D01*
X2500682Y280670D02*
X2514906D01*
X2479346D02*
X2499666D01*
X2500682Y280924D02*
X2514652D01*
X2479346D02*
X2499666D01*
X2500428Y281178D02*
X2514652D01*
X2479346D02*
X2499412D01*
X2500428Y281432D02*
X2514652D01*
X2479346D02*
X2499412D01*
X2500428Y281686D02*
X2514652D01*
X2479346D02*
X2499412D01*
X2500174Y281940D02*
X2514652D01*
X2479346D02*
X2499158D01*
X2500174Y282194D02*
X2514652D01*
X2479346D02*
X2499158D01*
X2500174Y282448D02*
X2514398D01*
X2479346D02*
X2499158D01*
X2500174Y282702D02*
X2514398D01*
X2479346D02*
X2499158D01*
X2499920Y282956D02*
X2514398D01*
X2479346D02*
X2498904D01*
X2499920Y283210D02*
X2514398D01*
X2479346D02*
X2498904D01*
X2499920Y283464D02*
X2514144D01*
X2479346D02*
X2498904D01*
X2499666Y283718D02*
X2514144D01*
X2479346D02*
X2498650D01*
X2499666Y283972D02*
X2514144D01*
X2479346D02*
X2498650D01*
X2499666Y284226D02*
X2514144D01*
X2479346D02*
X2498650D01*
X2499412Y284480D02*
X2513890D01*
X2479346D02*
X2498396D01*
X2499412Y284734D02*
X2513890D01*
X2479346D02*
X2498396D01*
X2499412Y284988D02*
X2513890D01*
X2479346D02*
X2498142D01*
X2499158Y285242D02*
X2513890D01*
X2479346D02*
X2498142D01*
X2499158Y285496D02*
X2513636D01*
X2478838D02*
X2498142D01*
X2498904Y285750D02*
X2513636D01*
X2479600D02*
X2497888D01*
X2498904Y286004D02*
X2513636D01*
X2479600D02*
X2497888D01*
X2469440D02*
X2475790D01*
X2498904Y286258D02*
X2513636D01*
X2479600D02*
X2497888D01*
X2469186D02*
X2475790D01*
X2498650Y286512D02*
X2513382D01*
X2479854D02*
X2497634D01*
X2468932D02*
X2472488D01*
X2498650Y286766D02*
X2513382D01*
X2479854D02*
X2497634D01*
X2468678D02*
X2471980D01*
X2498396Y287020D02*
X2513382D01*
X2479854D02*
X2497380D01*
X2468678D02*
X2471472D01*
X2498396Y287274D02*
X2513128D01*
X2479854D02*
X2497380D01*
X2468424D02*
X2471472D01*
X2498396Y287528D02*
X2513128D01*
X2480108D02*
X2497126D01*
X2468424D02*
X2471218D01*
X2498142Y287782D02*
X2513128D01*
X2480108D02*
X2497126D01*
X2468170D02*
X2470964D01*
X2498142Y288036D02*
X2512874D01*
X2480362D02*
X2497126D01*
X2468170D02*
X2470964D01*
X2496872Y247904D02*
X2512112D01*
X2461312D02*
X2495856D01*
X2497126Y248158D02*
X2512112D01*
X2461566D02*
X2496110D01*
X2497126Y248412D02*
X2512112D01*
X2461566D02*
X2496110D01*
X2497380Y248666D02*
X2512366D01*
X2461820D02*
X2496364D01*
X2497380Y248920D02*
X2512366D01*
X2462074D02*
X2496364D01*
X2497634Y249174D02*
X2512366D01*
X2462074D02*
X2496618D01*
X2497634Y249428D02*
X2512620D01*
X2462074D02*
X2496618D01*
X2497888Y249682D02*
X2512620D01*
X2461820D02*
X2496872D01*
X2497888Y249936D02*
X2512620D01*
X2461820D02*
X2496872D01*
X2498142Y250190D02*
X2512874D01*
X2461820D02*
X2497126D01*
X2498142Y250444D02*
X2512874D01*
X2461820D02*
X2497126D01*
X2498396Y250698D02*
X2512874D01*
X2461566D02*
X2497126D01*
X2498396Y250952D02*
X2513128D01*
X2461566D02*
X2497380D01*
X2498396Y251206D02*
X2513128D01*
X2461566D02*
X2497380D01*
X2498650Y251460D02*
X2513128D01*
X2461566D02*
X2497634D01*
X2498650Y251714D02*
X2513382D01*
X2461312D02*
X2497634D01*
X2498904Y251968D02*
X2513382D01*
X2461312D02*
X2497888D01*
X2498904Y252222D02*
X2513382D01*
X2465122D02*
X2497888D01*
X2498904Y252476D02*
X2513636D01*
X2465376D02*
X2497888D01*
X2499158Y252730D02*
X2513636D01*
X2465122D02*
X2498142D01*
X2499158Y252984D02*
X2513636D01*
X2465122D02*
X2498142D01*
X2499412Y253238D02*
X2513636D01*
X2465884D02*
X2498142D01*
X2499412Y253492D02*
X2513890D01*
X2466138D02*
X2498396D01*
X2499412Y253746D02*
X2513890D01*
X2465884D02*
X2498396D01*
X2499666Y254000D02*
X2513890D01*
X2465884D02*
X2498650D01*
X2499666Y254254D02*
X2513890D01*
X2465884D02*
X2498650D01*
X2499666Y254508D02*
X2514144D01*
X2465884D02*
X2498650D01*
X2499920Y254762D02*
X2514144D01*
X2465630D02*
X2498904D01*
X2499920Y255016D02*
X2514144D01*
X2465630D02*
X2498904D01*
X2499920Y255270D02*
X2514144D01*
X2465630D02*
X2498904D01*
X2500174Y255524D02*
X2514398D01*
X2465630D02*
X2499158D01*
X2500174Y255778D02*
X2514398D01*
X2465376D02*
X2499158D01*
X2500174Y256032D02*
X2514398D01*
X2465376D02*
X2499158D01*
X2500174Y256286D02*
X2514398D01*
X2465376D02*
X2499158D01*
X2500428Y256540D02*
X2514652D01*
X2465376D02*
X2499412D01*
X2500428Y256794D02*
X2514652D01*
X2465376D02*
X2499412D01*
X2500428Y257048D02*
X2514652D01*
X2465376D02*
X2499412D01*
X2500682Y257302D02*
X2514652D01*
X2465122D02*
X2499666D01*
X2500682Y257556D02*
X2514652D01*
X2465122D02*
X2499666D01*
X2500682Y257810D02*
X2514652D01*
X2465122D02*
X2499666D01*
X2500682Y258064D02*
X2514906D01*
X2465122D02*
X2499666D01*
X2500682Y258318D02*
X2514906D01*
X2464868D02*
X2499920D01*
X2500936Y258572D02*
X2514906D01*
X2464868D02*
X2499920D01*
X2500936Y258826D02*
X2514906D01*
X2464614D02*
X2499920D01*
X2500936Y259080D02*
X2514906D01*
X2464614D02*
X2499920D01*
X2500936Y259334D02*
X2515160D01*
X2464614D02*
X2499920D01*
X2501190Y259588D02*
X2515160D01*
X2464360D02*
X2500174D01*
X2501190Y259842D02*
X2515160D01*
X2464360D02*
X2500174D01*
X2501190Y260096D02*
X2515160D01*
X2464360D02*
X2500174D01*
X2501190Y260350D02*
X2515160D01*
X2464360D02*
X2500174D01*
X2501190Y260604D02*
X2515160D01*
X2464360D02*
X2500174D01*
X2501444Y260858D02*
X2515160D01*
X2464360D02*
X2500428D01*
X2501444Y261112D02*
X2515414D01*
X2464360D02*
X2500428D01*
X2501444Y261366D02*
X2515414D01*
X2464106D02*
X2500428D01*
X2501444Y261620D02*
X2515414D01*
X2464106D02*
X2500428D01*
X2501444Y261874D02*
X2515414D01*
X2464106D02*
X2500428D01*
X2501444Y262128D02*
X2515414D01*
X2463852D02*
X2500428D01*
X2501698Y262382D02*
X2515414D01*
X2463852D02*
X2500682D01*
X2501698Y262636D02*
X2515414D01*
X2463852D02*
X2500682D01*
X2448358D02*
X2449120D01*
X2501698Y262890D02*
X2515414D01*
X2463852D02*
X2500682D01*
X2501698Y263144D02*
X2515414D01*
X2463852D02*
X2500682D01*
X2501698Y263398D02*
X2515668D01*
X2463598D02*
X2500682D01*
X2501698Y263652D02*
X2515668D01*
X2463598D02*
X2500682D01*
X2501698Y263906D02*
X2515668D01*
X2463598D02*
X2500682D01*
X2501698Y264160D02*
X2515668D01*
X2463344D02*
X2500682D01*
X2501952Y264414D02*
X2515668D01*
X2463344D02*
X2500936D01*
X2501952Y264668D02*
X2515668D01*
X2463344D02*
X2500936D01*
X2501952Y264922D02*
X2515668D01*
X2463344D02*
X2500936D01*
X2501952Y265176D02*
X2515668D01*
X2462836D02*
X2500936D01*
X2501952Y265430D02*
X2515668D01*
X2462582D02*
X2500936D01*
X2501952Y265684D02*
X2515668D01*
X2463090D02*
X2500936D01*
X2501952Y265938D02*
X2515668D01*
X2462836D02*
X2500936D01*
X2501952Y266192D02*
X2515668D01*
X2462836D02*
X2500936D01*
X2501952Y266446D02*
X2515668D01*
X2462836D02*
X2500936D01*
X2501952Y266700D02*
X2515668D01*
X2462836D02*
X2500936D01*
X2501952Y266954D02*
X2515668D01*
X2462836D02*
X2500936D01*
X2501952Y267208D02*
X2515922D01*
X2462582D02*
X2500936D01*
X2501952Y267462D02*
X2515922D01*
X2462582D02*
X2500936D01*
X2501952Y267716D02*
X2515922D01*
X2462582D02*
X2500936D01*
X2476806Y227584D02*
X2499412D01*
X2477314Y227838D02*
X2499666D01*
X2477822Y228092D02*
X2499920D01*
X2478330Y228346D02*
X2500174D01*
X2478584Y228600D02*
X2500428D01*
X2479092Y228854D02*
X2500682D01*
X2479600Y229108D02*
X2500936D01*
X2479854Y229362D02*
X2500936D01*
X2480362Y229616D02*
X2501190D01*
X2480870Y229870D02*
X2501444D01*
X2481124Y230124D02*
X2501698D01*
X2481632Y230378D02*
X2501952D01*
X2481886Y230632D02*
X2502206D01*
X2482140Y230886D02*
X2502206D01*
X2482648Y231140D02*
X2502460D01*
X2482902Y231394D02*
X2502714D01*
X2483410Y231648D02*
X2502968D01*
X2483664Y231902D02*
X2503222D01*
X2483918Y232156D02*
X2503222D01*
X2484172Y232410D02*
X2503476D01*
X2484680Y232664D02*
X2503730D01*
X2484934Y232918D02*
X2503984D01*
X2485188Y233172D02*
X2503984D01*
X2485442Y233426D02*
X2504238D01*
X2485950Y233680D02*
X2504492D01*
X2486204Y233934D02*
X2504746D01*
X2486458Y234188D02*
X2504746D01*
X2486712Y234442D02*
X2505000D01*
X2486966Y234696D02*
X2505254D01*
X2487220Y234950D02*
X2505254D01*
X2487474Y235204D02*
X2505508D01*
X2487728Y235458D02*
X2505762D01*
X2487982Y235712D02*
X2505762D01*
X2488236Y235966D02*
X2506016D01*
X2488490Y236220D02*
X2506270D01*
X2488744Y236474D02*
X2506270D01*
X2488998Y236728D02*
X2506524D01*
X2489252Y236982D02*
X2506778D01*
X2489506Y237236D02*
X2506778D01*
X2489760Y237490D02*
X2507032D01*
X2494078Y243078D02*
X2510080D01*
X2494332Y243332D02*
X2510080D01*
X2494586Y243586D02*
X2510334D01*
X2494586Y243840D02*
X2510334D01*
X2494840Y244094D02*
X2510588D01*
X2494840Y244348D02*
X2510588D01*
X2495094Y244602D02*
X2510588D01*
X2495348Y244856D02*
X2510842D01*
X2495348Y245110D02*
X2510842D01*
X2495602Y245364D02*
X2511096D01*
X2495856Y245618D02*
X2511096D01*
X2495856Y245872D02*
X2511350D01*
X2496110Y246126D02*
X2511350D01*
X2459788D02*
X2494840D01*
X2496110Y246380D02*
X2511350D01*
X2460042D02*
X2495094D01*
X2496364Y246634D02*
X2511604D01*
X2460296D02*
X2495094D01*
X2496364Y246888D02*
X2511604D01*
X2460296D02*
X2495348D01*
X2496618Y247142D02*
X2511858D01*
X2460550D02*
X2495602D01*
X2496618Y247396D02*
X2511858D01*
X2460804D02*
X2495602D01*
X2448612Y208534D02*
X2460804D01*
X2446326Y208788D02*
X2463090D01*
X2444548Y209042D02*
X2464868D01*
X2443278Y209296D02*
X2466138D01*
X2441754Y209550D02*
X2467662D01*
X2440738Y209804D02*
X2468678D01*
X2439722Y210058D02*
X2469694D01*
X2455724Y222250D02*
X2493824D01*
X2460042Y222504D02*
X2494078D01*
X2462074Y222758D02*
X2494332D01*
X2463598Y223012D02*
X2494586D01*
X2464868Y223266D02*
X2495094D01*
X2466138Y223520D02*
X2495348D01*
X2467154Y223774D02*
X2495602D01*
X2448358D02*
X2462074D01*
X2467916Y224028D02*
X2495856D01*
X2446834D02*
X2463598D01*
X2468932Y224282D02*
X2496110D01*
X2445564D02*
X2464868D01*
X2469694Y224536D02*
X2496364D01*
X2444294D02*
X2466138D01*
X2470456Y224790D02*
X2496618D01*
X2443278D02*
X2467154D01*
X2471218Y225044D02*
X2496872D01*
X2442516D02*
X2467916D01*
X2471726Y225298D02*
X2497126D01*
X2441500D02*
X2468932D01*
X2472488Y225552D02*
X2497380D01*
X2440738D02*
X2469694D01*
X2472996Y225806D02*
X2497634D01*
X2439976D02*
X2470456D01*
X2473758Y226060D02*
X2497888D01*
X2439468D02*
X2470964D01*
X2474266Y226314D02*
X2498142D01*
X2474774Y226568D02*
X2498396D01*
X2475282Y226822D02*
X2498650D01*
X2475790Y227076D02*
X2498904D01*
X2476552Y288290D02*
X2478838D01*
X2458010Y328930D02*
X2468678D01*
X2493570Y295910D02*
X2509826D01*
X2493316Y296164D02*
X2509826D01*
X2493316Y296418D02*
X2509572D01*
X2490014Y237744D02*
X2507032D01*
X2490268Y237998D02*
X2507286D01*
X2490522Y238252D02*
X2507540D01*
X2490776Y238506D02*
X2507540D01*
X2490776Y238760D02*
X2507794D01*
X2491030Y239014D02*
X2507794D01*
X2491284Y239268D02*
X2508048D01*
X2491538Y239522D02*
X2508048D01*
X2491792Y239776D02*
X2508302D01*
X2491792Y240030D02*
X2508556D01*
X2492046Y240284D02*
X2508556D01*
X2492300Y240538D02*
X2508810D01*
X2492554Y240792D02*
X2508810D01*
X2492808Y241046D02*
X2509064D01*
X2492808Y241300D02*
X2509064D01*
X2493062Y241554D02*
X2509318D01*
X2493316Y241808D02*
X2509318D01*
X2493316Y242062D02*
X2509572D01*
X2493570Y242316D02*
X2509572D01*
X2493824Y242570D02*
X2509826D01*
X2494078Y242824D02*
X2509826D01*
X2476806Y310642D02*
X2477314D01*
X2476298Y310896D02*
X2477568D01*
X2475790Y311150D02*
X2477568D01*
X2475282Y311404D02*
X2477822D01*
X2474774Y311658D02*
X2478076D01*
X2474774Y311912D02*
X2478076D01*
X2474774Y312166D02*
X2478330D01*
X2475028Y312420D02*
X2478330D01*
X2472996D02*
X2474012D01*
X2475028Y312674D02*
X2478584D01*
X2472488D02*
X2474012D01*
X2475282Y312928D02*
X2478584D01*
X2471726D02*
X2474266D01*
X2475282Y313182D02*
X2478838D01*
X2471218D02*
X2474266D01*
X2475536Y313436D02*
X2478838D01*
X2470456D02*
X2474520D01*
X2475536Y313690D02*
X2479092D01*
X2470202D02*
X2474520D01*
X2475790Y313944D02*
X2479092D01*
X2470456D02*
X2474774D01*
X2475790Y314198D02*
X2479346D01*
X2470710D02*
X2474774D01*
X2476044Y314452D02*
X2479346D01*
X2470710D02*
X2475028D01*
X2476298Y314706D02*
X2479600D01*
X2470964D02*
X2475028D01*
X2476298Y314960D02*
X2479600D01*
X2470964D02*
X2475282D01*
X2476552Y315214D02*
X2479854D01*
X2470964D02*
X2475282D01*
X2476552Y315468D02*
X2479854D01*
X2471218D02*
X2475536D01*
X2476806Y315722D02*
X2480108D01*
X2471218D02*
X2475536D01*
X2476806Y315976D02*
X2480108D01*
X2471218D02*
X2475790D01*
X2477060Y316230D02*
X2480362D01*
X2471218D02*
X2475790D01*
X2477060Y316484D02*
X2480362D01*
X2471472D02*
X2476044D01*
X2477314Y316738D02*
X2480616D01*
X2471472D02*
X2476044D01*
X2477314Y316992D02*
X2480616D01*
X2471472D02*
X2476298D01*
X2477568Y317246D02*
X2480870D01*
X2471726D02*
X2476298D01*
X2477568Y317500D02*
X2480870D01*
X2471726D02*
X2476552D01*
X2477822Y317754D02*
X2480362D01*
X2471726D02*
X2476552D01*
X2477822Y318008D02*
X2479854D01*
X2471726D02*
X2476806D01*
X2478076Y318262D02*
X2479346D01*
X2471980D02*
X2476806D01*
X2478076Y318516D02*
X2478584D01*
X2471980D02*
X2477060D01*
X2471980Y318770D02*
X2477060D01*
X2472234Y319024D02*
X2477314D01*
X2472234Y319278D02*
X2477314D01*
X2472234Y319532D02*
X2477568D01*
X2478076Y319786D02*
X2489506D01*
X2472488D02*
X2477568D01*
X2472488Y320040D02*
X2488998D01*
X2472488Y320294D02*
X2488744D01*
X2472488Y320548D02*
X2488236D01*
X2472742Y320802D02*
X2487982D01*
X2472742Y321056D02*
X2487474D01*
X2472742Y321310D02*
X2487220D01*
X2472742Y321564D02*
X2486712D01*
X2472742Y321818D02*
X2486204D01*
X2472488Y322072D02*
X2485950D01*
X2471726Y322326D02*
X2485442D01*
X2470964Y322580D02*
X2484934D01*
X2469948Y322834D02*
X2484426D01*
X2479854Y288544D02*
X2480108D01*
X2475536D02*
X2478838D01*
X2480108Y288798D02*
X2480362D01*
X2475536D02*
X2479092D01*
X2480108Y289052D02*
X2480362D01*
X2475282D02*
X2479600D01*
X2479854Y289306D02*
X2480108D01*
X2475282D02*
X2479600D01*
X2479854Y289560D02*
X2480362D01*
X2476552D02*
X2479600D01*
X2480362Y289814D02*
X2480616D01*
X2479854D02*
X2480108D01*
X2478584D02*
X2479600D01*
X2477060D02*
X2478076D01*
X2480616Y290068D02*
X2480870D01*
X2480108D02*
X2480362D01*
X2477060D02*
X2478076D01*
X2480870Y290322D02*
X2481124D01*
X2480108D02*
X2480362D01*
X2476806D02*
X2478076D01*
X2476806Y290576D02*
X2477822D01*
X2481124Y290830D02*
X2481378D01*
X2476806D02*
X2478076D01*
X2481124Y291084D02*
X2481632D01*
X2476044D02*
X2477060D01*
X2481378Y291338D02*
X2481886D01*
X2475790D02*
X2477060D01*
X2481632Y291592D02*
X2481886D01*
X2475536D02*
X2476806D01*
X2481886Y291846D02*
X2482140D01*
X2475282D02*
X2476806D01*
X2475028Y292100D02*
X2476552D01*
X2482140Y292354D02*
X2482394D01*
X2474266D02*
X2476298D01*
X2482394Y292608D02*
X2482648D01*
X2482394Y292862D02*
X2482648D01*
Y293116D02*
X2482902D01*
X2469694Y293370D02*
X2475282D01*
X2469948Y293624D02*
X2474774D01*
X2483156Y293878D02*
X2483410D01*
X2470456D02*
X2474520D01*
X2483156Y294132D02*
X2483410D01*
X2470964D02*
X2473504D01*
X2483410Y294386D02*
X2483664D01*
X2469694Y294640D02*
X2470202D01*
X2483664Y294894D02*
X2483918D01*
X2469948D02*
X2470456D01*
X2483918Y295148D02*
X2484172D01*
X2483918Y295402D02*
X2484172D01*
X2470964D02*
X2471218D01*
X2484172Y295656D02*
X2484426D01*
X2470964D02*
X2471472D01*
X2484680Y296418D02*
X2484934D01*
X2471980D02*
X2472488D01*
Y296672D02*
X2472996D01*
X2472742Y296926D02*
X2473250D01*
X2484934Y297180D02*
X2485188D01*
X2472996D02*
X2473250D01*
X2485188Y297434D02*
X2485442D01*
X2473250D02*
X2473504D01*
X2485188Y297688D02*
X2485442D01*
X2474012Y297942D02*
X2474520D01*
Y298196D02*
X2474774D01*
Y298450D02*
X2475028D01*
X2485696Y298704D02*
X2485950D01*
X2485696Y298958D02*
X2485950D01*
Y299212D02*
X2486204D01*
X2476044D02*
X2476298D01*
X2485950Y299466D02*
X2486204D01*
X2476806Y299720D02*
X2477060D01*
X2477568Y300228D02*
X2478584D01*
X2486204Y300482D02*
X2486458D01*
X2478076D02*
X2478584D01*
X2486458Y300736D02*
X2486712D01*
X2478838D02*
X2479346D01*
X2486458Y300990D02*
X2486966D01*
X2479092D02*
X2479854D01*
X2480108Y301498D02*
X2480870D01*
Y301752D02*
X2481378D01*
X2481124Y302006D02*
X2481632D01*
X2487220Y302260D02*
X2487474D01*
X2481632D02*
X2482140D01*
X2487220Y302514D02*
X2487474D01*
X2487220Y302768D02*
X2487728D01*
X2483664D02*
X2484426D01*
X2487220Y303022D02*
X2487728D01*
X2484172D02*
X2484934D01*
X2487474Y303276D02*
X2487728D01*
X2484934D02*
X2485950D01*
X2487474Y303530D02*
X2487728D01*
X2485442D02*
X2486458D01*
X2487728Y303784D02*
X2487982D01*
X2486458D02*
X2487220D01*
X2487728Y304038D02*
X2487982D01*
X2469694Y276606D02*
X2470202D01*
X2470710Y276860D02*
X2480616D01*
X2470202D02*
X2470456D01*
X2470964Y277114D02*
X2479854D01*
X2470202D02*
X2470710D01*
X2471218Y277368D02*
X2479346D01*
X2470456D02*
X2470964D01*
X2479854Y277622D02*
X2480108D01*
X2471218D02*
X2478838D01*
X2470710D02*
X2470964D01*
X2479600Y277876D02*
X2479854D01*
X2471472D02*
X2478330D01*
X2470964D02*
X2471218D01*
X2479600Y278130D02*
X2479854D01*
X2478584D02*
X2479092D01*
X2471726D02*
X2478076D01*
X2470964D02*
X2471218D01*
X2478076Y278384D02*
X2478330D01*
X2471980D02*
X2477822D01*
X2471472D02*
X2471726D01*
X2477822Y278638D02*
X2478330D01*
X2472234D02*
X2477568D01*
Y278892D02*
X2477822D01*
X2472488D02*
X2477314D01*
X2479092Y279146D02*
X2479346D01*
X2477314D02*
X2477568D01*
X2472742D02*
X2477060D01*
X2479092Y279400D02*
X2479346D01*
X2477060D02*
X2477314D01*
X2472996D02*
X2476806D01*
Y279654D02*
X2477060D01*
X2473250D02*
X2476552D01*
X2476806Y279908D02*
X2477060D01*
X2473504D02*
X2476552D01*
X2476806Y280162D02*
X2477060D01*
X2473504D02*
X2476298D01*
X2478838Y280416D02*
X2479092D01*
X2473758D02*
X2476298D01*
X2473250D02*
X2473504D01*
X2478838Y280670D02*
X2479092D01*
X2474012D02*
X2476298D01*
X2473250D02*
X2473758D01*
X2478584Y280924D02*
X2479092D01*
X2474266D02*
X2476298D01*
X2473504D02*
X2474012D01*
X2476552Y281178D02*
X2476806D01*
X2474520D02*
X2476298D01*
X2473758D02*
X2474012D01*
X2476552Y281432D02*
X2476806D01*
X2474774D02*
X2476298D01*
X2478584Y281686D02*
X2478838D01*
X2476552D02*
X2476806D01*
X2475028D02*
X2476298D01*
X2474012D02*
X2474520D01*
X2478584Y281940D02*
X2478838D01*
X2476552D02*
X2476806D01*
X2475282D02*
X2476298D01*
X2475282Y282194D02*
X2476298D01*
X2474520D02*
X2474774D01*
X2475536Y282448D02*
X2476552D01*
X2475790Y282702D02*
X2476552D01*
X2475536Y283210D02*
X2476044D01*
X2478838Y283464D02*
X2479092D01*
X2478838Y284480D02*
X2479092D01*
X2478838Y284734D02*
X2479092D01*
X2478838Y284988D02*
X2479092D01*
X2471472D02*
X2473758D01*
X2478838Y285242D02*
X2479092D01*
X2470710D02*
X2474266D01*
X2470202Y285496D02*
X2475028D01*
X2479092Y285750D02*
X2479346D01*
X2469694D02*
X2475536D01*
X2479092Y286004D02*
X2479346D01*
Y286512D02*
X2479600D01*
X2474520D02*
X2476044D01*
X2479346Y286766D02*
X2479600D01*
X2476298D02*
X2477060D01*
X2475282D02*
X2476044D01*
X2478584Y287020D02*
X2479346D01*
X2476298D02*
X2477314D01*
X2475790D02*
X2476044D01*
X2478330Y287274D02*
X2479346D01*
X2476298D02*
X2477568D01*
X2476552Y287528D02*
X2479346D01*
X2479600Y287782D02*
X2479854D01*
X2476552D02*
X2479092D01*
X2479600Y288036D02*
X2479854D01*
X2476552D02*
X2478838D01*
X2458010Y329184D02*
X2467662D01*
X2458010Y329438D02*
X2466138D01*
X2458010Y329692D02*
X2464868D01*
X2458010Y329946D02*
X2463090D01*
X2458010Y330200D02*
X2460804D01*
X2452676Y330454D02*
X2456740D01*
X2466138Y314706D02*
X2466392D01*
X2450390D02*
X2460042D01*
X2464868Y314960D02*
X2466138D01*
X2463598Y315214D02*
X2465884D01*
X2462074Y315468D02*
X2465884D01*
X2462074Y315722D02*
X2465884D01*
X2460042D02*
X2461312D01*
X2462074Y315976D02*
X2466138D01*
X2455724D02*
X2461058D01*
X2449882D02*
X2454708D01*
X2462074Y316230D02*
X2466138D01*
X2457502D02*
X2461058D01*
X2452168D02*
X2456486D01*
X2462074Y316484D02*
X2466138D01*
X2457502D02*
X2461058D01*
X2452422D02*
X2456486D01*
X2462074Y316738D02*
X2466138D01*
X2457502D02*
X2461058D01*
X2452676D02*
X2456486D01*
X2462074Y316992D02*
X2466392D01*
X2457502D02*
X2461058D01*
X2452676D02*
X2456486D01*
X2462328Y317246D02*
X2466392D01*
X2457502D02*
X2461312D01*
X2452676D02*
X2456486D01*
X2462328Y317500D02*
X2466392D01*
X2457502D02*
X2461312D01*
X2452676D02*
X2456486D01*
X2462328Y317754D02*
X2466646D01*
X2457502D02*
X2461312D01*
X2452676D02*
X2456486D01*
X2462328Y318008D02*
X2466646D01*
X2457502D02*
X2461312D01*
X2452676D02*
X2456486D01*
X2462328Y318262D02*
X2466646D01*
X2457502D02*
X2461312D01*
X2452676D02*
X2456486D01*
X2462328Y318516D02*
X2466900D01*
X2457502D02*
X2461312D01*
X2452676D02*
X2456486D01*
X2462328Y318770D02*
X2466900D01*
X2457502D02*
X2461312D01*
X2452676D02*
X2456486D01*
X2462582Y319024D02*
X2466900D01*
X2457502D02*
X2461566D01*
X2462582Y319278D02*
X2466900D01*
X2457502D02*
X2461566D01*
X2462582Y319532D02*
X2467154D01*
X2457502D02*
X2461566D01*
X2462582Y319786D02*
X2467154D01*
X2457502D02*
X2461566D01*
X2462582Y320040D02*
X2467154D01*
X2457502D02*
X2461566D01*
X2462582Y320294D02*
X2467408D01*
X2457502D02*
X2461566D01*
X2449374D02*
X2456486D01*
X2462582Y320548D02*
X2467408D01*
X2457502D02*
X2461566D01*
X2451914D02*
X2456486D01*
X2462836Y320802D02*
X2467408D01*
X2457502D02*
X2461820D01*
X2452168D02*
X2456486D01*
X2462836Y321056D02*
X2467662D01*
X2457756D02*
X2461820D01*
X2452422D02*
X2456740D01*
X2462836Y321310D02*
X2467662D01*
X2457756D02*
X2461820D01*
X2452422D02*
X2456740D01*
X2462836Y321564D02*
X2467662D01*
X2457756D02*
X2461820D01*
X2452422D02*
X2456740D01*
X2462836Y321818D02*
X2467662D01*
X2457756D02*
X2461820D01*
X2452422D02*
X2456740D01*
X2462836Y322072D02*
X2467916D01*
X2457756D02*
X2461820D01*
X2452168D02*
X2456740D01*
X2463090Y322326D02*
X2467916D01*
X2457756D02*
X2462074D01*
X2452168D02*
X2456740D01*
X2463090Y322580D02*
X2467916D01*
X2457756D02*
X2462074D01*
X2452168D02*
X2456740D01*
X2463090Y322834D02*
X2468170D01*
X2457756D02*
X2462074D01*
X2452168D02*
X2456740D01*
X2463090Y323088D02*
X2468424D01*
X2457756D02*
X2462074D01*
X2452168D02*
X2456740D01*
X2457756Y323342D02*
X2462074D01*
X2452168D02*
X2456740D01*
X2457756Y323596D02*
X2462074D01*
X2452168D02*
X2456740D01*
X2457756Y323850D02*
X2462074D01*
X2452168D02*
X2456740D01*
X2457756Y324104D02*
X2462328D01*
X2452168D02*
X2456740D01*
X2450390D02*
X2451152D01*
X2457756Y324358D02*
X2462328D01*
X2451914D02*
X2456740D01*
X2451914Y324612D02*
X2456740D01*
X2451660Y324866D02*
X2456740D01*
X2458010Y326644D02*
X2463090D01*
X2458010Y326898D02*
X2462582D01*
X2458010Y327152D02*
X2462582D01*
X2458010Y327406D02*
X2462582D01*
X2458010Y327660D02*
X2462836D01*
X2458010Y327914D02*
X2462836D01*
X2464360Y288798D02*
X2464868D01*
X2464614Y289052D02*
X2464868D01*
X2465122Y289306D02*
X2465376D01*
X2465122Y289560D02*
X2465376D01*
X2465122Y289814D02*
X2465630D01*
X2465376Y290068D02*
X2465884D01*
X2465376Y290322D02*
X2465884D01*
Y290576D02*
X2466138D01*
Y290830D02*
X2466392D01*
X2466138Y291084D02*
X2466646D01*
X2466392Y291338D02*
X2466646D01*
X2467662Y292608D02*
X2467916D01*
Y292862D02*
X2468424D01*
Y293370D02*
X2468932D01*
X2468678Y293624D02*
X2469186D01*
X2452422Y268224D02*
X2453184D01*
X2451914D02*
X2452168D01*
X2452422Y268478D02*
X2453438D01*
X2451914D02*
X2452168D01*
X2462328Y268732D02*
X2462582D01*
X2453692D02*
X2453946D01*
X2452422D02*
X2453438D01*
X2451914D02*
X2452168D01*
X2452676Y268986D02*
X2453946D01*
X2451914D02*
X2452168D01*
X2462836Y269240D02*
X2463090D01*
X2452422D02*
X2453692D01*
X2451914D02*
X2452168D01*
X2463090Y269494D02*
X2463344D01*
X2452422D02*
X2453692D01*
X2451660D02*
X2452168D01*
X2463344Y269748D02*
X2463598D01*
X2452422D02*
X2453946D01*
X2451660D02*
X2452168D01*
X2463598Y270002D02*
X2463852D01*
X2454200D02*
X2454454D01*
X2452422D02*
X2453946D01*
X2451660D02*
X2451914D01*
X2463852Y270256D02*
X2464106D01*
X2452168D02*
X2454454D01*
X2464106Y270510D02*
X2464360D01*
X2454454D02*
X2454708D01*
X2452168D02*
X2454200D01*
X2454454Y270764D02*
X2454708D01*
X2452168D02*
X2454200D01*
X2451406D02*
X2451660D01*
X2464614Y271018D02*
X2464868D01*
X2454708D02*
X2454962D01*
X2451406D02*
X2454454D01*
X2464868Y271272D02*
X2465122D01*
X2451914D02*
X2454200D01*
X2465122Y271526D02*
X2465376D01*
X2454708D02*
X2454962D01*
X2451914D02*
X2454454D01*
X2451152D02*
X2451406D01*
X2465376Y271780D02*
X2465630D01*
X2454708D02*
X2454962D01*
X2451406D02*
X2454454D01*
X2454962Y272034D02*
X2455216D01*
X2451914D02*
X2454708D01*
X2449882D02*
X2450136D01*
X2454962Y272288D02*
X2455470D01*
X2466138Y272542D02*
X2466392D01*
X2455216D02*
X2455470D01*
X2455216Y272796D02*
X2455470D01*
Y273050D02*
X2455724D01*
X2466646Y273304D02*
X2466900D01*
Y273558D02*
X2467154D01*
X2455724Y274320D02*
X2456232D01*
X2467916Y274574D02*
X2468424D01*
X2455978D02*
X2456232D01*
X2468170Y274828D02*
X2468424D01*
X2455978D02*
X2456486D01*
X2468424Y275082D02*
X2468678D01*
Y275336D02*
X2468932D01*
Y275590D02*
X2469186D01*
X2456740Y276860D02*
X2456994D01*
Y277114D02*
X2457248D01*
X2457502Y278130D02*
X2457756D01*
X2457502Y278384D02*
X2457756D01*
Y278638D02*
X2458010D01*
Y279400D02*
X2458264D01*
Y279654D02*
X2458518D01*
Y280162D02*
X2458772D01*
X2459026Y280924D02*
X2459534D01*
X2459280Y281178D02*
X2459534D01*
Y281686D02*
X2459788D01*
Y281940D02*
X2460042D01*
X2459788Y282194D02*
X2460042D01*
Y282702D02*
X2460296D01*
X2460042Y282956D02*
X2460296D01*
Y283210D02*
X2460550D01*
Y283464D02*
X2460804D01*
X2460550Y283718D02*
X2460804D01*
Y283972D02*
X2461058D01*
X2462582Y286512D02*
X2462836D01*
Y287020D02*
X2463090D01*
Y287274D02*
X2463344D01*
Y287528D02*
X2463598D01*
Y287782D02*
X2463852D01*
X2459280Y247904D02*
X2459534D01*
X2460804Y248158D02*
X2461058D01*
X2459026D02*
X2459534D01*
X2459026Y248412D02*
X2459534D01*
X2459026Y248666D02*
X2459534D01*
X2459026Y248920D02*
X2459280D01*
X2461312Y249174D02*
X2461820D01*
X2459026D02*
X2459280D01*
X2461312Y249428D02*
X2461820D01*
X2461058Y249936D02*
X2461312D01*
X2461058Y250190D02*
X2461566D01*
X2460804Y250444D02*
X2461312D01*
X2460804Y250698D02*
X2461312D01*
X2458518D02*
X2458772D01*
X2461058Y250952D02*
X2461312D01*
X2458518D02*
X2458772D01*
X2458518Y251206D02*
X2458772D01*
X2460804Y251460D02*
X2461058D01*
X2458518D02*
X2458772D01*
X2460804Y251714D02*
X2461058D01*
X2458264Y251968D02*
X2458518D01*
X2461058Y252222D02*
X2464868D01*
X2458264D02*
X2458518D01*
X2461058Y252476D02*
X2464868D01*
X2458264D02*
X2458518D01*
X2461058Y252730D02*
X2464868D01*
X2461058Y252984D02*
X2464868D01*
X2458010D02*
X2458264D01*
X2465376Y253238D02*
X2465630D01*
X2461058D02*
X2464868D01*
X2457756D02*
X2458264D01*
X2460804Y253492D02*
X2464614D01*
X2457756D02*
X2458010D01*
X2465376Y253746D02*
X2465630D01*
X2460804D02*
X2464614D01*
X2457756D02*
X2458010D01*
X2465376Y254000D02*
X2465630D01*
X2460804D02*
X2464614D01*
X2460296D02*
X2460550D01*
X2457756D02*
X2458010D01*
X2460804Y254254D02*
X2464614D01*
X2460042D02*
X2460296D01*
X2460550Y254508D02*
X2464360D01*
X2464868Y254762D02*
X2465122D01*
X2460550D02*
X2464360D01*
X2464614Y255016D02*
X2465122D01*
X2460550D02*
X2464360D01*
X2459534D02*
X2460042D01*
X2464868Y255270D02*
X2465122D01*
X2460550D02*
X2464360D01*
X2459788D02*
X2460042D01*
X2464868Y255524D02*
X2465122D01*
X2460550D02*
X2464106D01*
X2459788D02*
X2460042D01*
X2464360Y255778D02*
X2464614D01*
X2460296D02*
X2464106D01*
X2464360Y256032D02*
X2464614D01*
X2460296D02*
X2464106D01*
X2459534D02*
X2459788D01*
X2457248D02*
X2457502D01*
X2460296Y256286D02*
X2464106D01*
X2459534D02*
X2459788D01*
X2457248D02*
X2457756D01*
X2464106Y256540D02*
X2464868D01*
X2460296D02*
X2463852D01*
X2457248D02*
X2457502D01*
X2464614Y256794D02*
X2465122D01*
X2464106D02*
X2464360D01*
X2460296D02*
X2463852D01*
X2464614Y257048D02*
X2465122D01*
X2460296D02*
X2464106D01*
X2459534D02*
X2459788D01*
X2456994D02*
X2457248D01*
X2464614Y257302D02*
X2464868D01*
X2460042D02*
X2464106D01*
X2459534D02*
X2459788D01*
X2464360Y257556D02*
X2464868D01*
X2460042D02*
X2463852D01*
X2459280D02*
X2459788D01*
X2464360Y257810D02*
X2464614D01*
X2460042D02*
X2463852D01*
X2459280D02*
X2459534D01*
X2460042Y258064D02*
X2464106D01*
X2459280D02*
X2459534D01*
X2464106Y258318D02*
X2464360D01*
X2459788D02*
X2463598D01*
X2459280D02*
X2459534D01*
X2456740D02*
X2456994D01*
X2463852Y258572D02*
X2464360D01*
X2459788D02*
X2463598D01*
X2459026D02*
X2459280D01*
X2456740D02*
X2456994D01*
X2463852Y258826D02*
X2464106D01*
X2459534D02*
X2463344D01*
X2463598Y259080D02*
X2463852D01*
X2459534D02*
X2463344D01*
X2456486D02*
X2456994D01*
X2463598Y259334D02*
X2464106D01*
X2459534D02*
X2463090D01*
X2458772D02*
X2459280D01*
X2456486D02*
X2456740D01*
X2453184D02*
X2456232D01*
X2463598Y259588D02*
X2463852D01*
X2459280D02*
X2463090D01*
X2458772D02*
X2459026D01*
X2456486D02*
X2456740D01*
X2453438D02*
X2456232D01*
X2452930D02*
X2453184D01*
X2463344Y259842D02*
X2463598D01*
X2459280D02*
X2463090D01*
X2456232D02*
X2456740D01*
X2453692D02*
X2455978D01*
X2452930D02*
X2453438D01*
X2463344Y260096D02*
X2463598D01*
X2459280D02*
X2463090D01*
X2456232D02*
X2456740D01*
X2453946D02*
X2455978D01*
X2453184D02*
X2453438D01*
X2463344Y260350D02*
X2463598D01*
X2459280D02*
X2463090D01*
X2456232D02*
X2456486D01*
X2454200D02*
X2455978D01*
X2463344Y260604D02*
X2463598D01*
X2459026D02*
X2462836D01*
X2456232D02*
X2456486D01*
X2454454D02*
X2455724D01*
X2451660D02*
X2451914D01*
X2463852Y260858D02*
X2464106D01*
X2463090D02*
X2463344D01*
X2459026D02*
X2462836D01*
X2455978D02*
X2456232D01*
X2454708D02*
X2455724D01*
X2453946D02*
X2454454D01*
X2451152D02*
X2451660D01*
X2463090Y261112D02*
X2463344D01*
X2459280D02*
X2462836D01*
X2455978D02*
X2456232D01*
X2454962D02*
X2455724D01*
X2454200D02*
X2454708D01*
X2459026Y261366D02*
X2462582D01*
X2454708D02*
X2454962D01*
X2450390D02*
X2450898D01*
X2463344Y261620D02*
X2463852D01*
X2459026D02*
X2462836D01*
X2454708D02*
X2455216D01*
X2450136D02*
X2450644D01*
X2463344Y261874D02*
X2463598D01*
X2459026D02*
X2462836D01*
X2458264D02*
X2458518D01*
X2449882D02*
X2450390D01*
X2463344Y262128D02*
X2463598D01*
X2458772D02*
X2462582D01*
X2458264D02*
X2458518D01*
X2463344Y262382D02*
X2463598D01*
X2458772D02*
X2462582D01*
X2458264D02*
X2458518D01*
X2463090Y262636D02*
X2463344D01*
X2458772D02*
X2462582D01*
X2458772Y262890D02*
X2462328D01*
X2458010D02*
X2458264D01*
X2462836Y263144D02*
X2463344D01*
X2458772D02*
X2462328D01*
X2458010D02*
X2458264D01*
X2462836Y263398D02*
X2463344D01*
X2458518D02*
X2462328D01*
X2457756D02*
X2458010D01*
X2463090Y263652D02*
X2463344D01*
X2462582D02*
X2462836D01*
X2458518D02*
X2462328D01*
X2457756D02*
X2458010D01*
X2458518Y263906D02*
X2462328D01*
X2457756D02*
X2458010D01*
X2462328Y264160D02*
X2462582D01*
X2458518D02*
X2462074D01*
X2462836Y264414D02*
X2463090D01*
X2462328D02*
X2462582D01*
X2458518D02*
X2462074D01*
X2462836Y264668D02*
X2463090D01*
X2462328D02*
X2462582D01*
X2458772D02*
X2462074D01*
X2462582Y264922D02*
X2463090D01*
X2462074D02*
X2462328D01*
X2459026D02*
X2461820D01*
X2458518D02*
X2458772D01*
X2462074Y265176D02*
X2462328D01*
X2459280D02*
X2461820D01*
X2458772D02*
X2459026D01*
X2462074Y265430D02*
X2462328D01*
X2459534D02*
X2461820D01*
X2459026D02*
X2459280D01*
X2462582Y265684D02*
X2462836D01*
X2462074D02*
X2462328D01*
X2459788D02*
X2461820D01*
X2459280D02*
X2459534D01*
X2462074Y265938D02*
X2462582D01*
X2460042D02*
X2461566D01*
X2459280D02*
X2459788D01*
X2462328Y266192D02*
X2462582D01*
X2461820D02*
X2462074D01*
X2460296D02*
X2461566D01*
X2459788D02*
X2460042D01*
X2462328Y266446D02*
X2462582D01*
X2461820D02*
X2462074D01*
X2460550D02*
X2461566D01*
X2461820Y266700D02*
X2462074D01*
X2461058D02*
X2461566D01*
X2462328Y266954D02*
X2462582D01*
X2460550D02*
X2460804D01*
Y267208D02*
X2461312D01*
X2459534Y246380D02*
X2459788D01*
X2452676Y208280D02*
X2456740D01*
X2450390Y223520D02*
X2460042D01*
X2440230Y313944D02*
X2441500D01*
X2440484Y314198D02*
X2442516D01*
X2440230Y314452D02*
X2443278D01*
X2440230Y314706D02*
X2444294D01*
X2443786Y314960D02*
X2445564D01*
X2440230D02*
X2443278D01*
X2444294Y315214D02*
X2446834D01*
X2440230D02*
X2443278D01*
X2444040Y315468D02*
X2448358D01*
X2439976D02*
X2443024D01*
X2439976Y315722D02*
X2443024D01*
X2444040Y315976D02*
X2448358D01*
X2439976D02*
X2443024D01*
X2444040Y316230D02*
X2448104D01*
X2439722D02*
X2442770D01*
X2443786Y316484D02*
X2447850D01*
X2439722D02*
X2442770D01*
X2443786Y316738D02*
X2447850D01*
X2439722D02*
X2442770D01*
X2443786Y316992D02*
X2447850D01*
X2439722D02*
X2442770D01*
X2443786Y317246D02*
X2447850D01*
X2439468D02*
X2442516D01*
X2443532Y317500D02*
X2447850D01*
X2439468D02*
X2442516D01*
X2443532Y317754D02*
X2447850D01*
X2439468D02*
X2442516D01*
X2443532Y318008D02*
X2447850D01*
X2439214D02*
X2442516D01*
X2443278Y318262D02*
X2447596D01*
X2439214D02*
X2442262D01*
X2443278Y318516D02*
X2447596D01*
X2439214D02*
X2442262D01*
X2443278Y318770D02*
X2447596D01*
X2439214D02*
X2442262D01*
X2443278Y319024D02*
X2447596D01*
X2438960D02*
X2442008D01*
X2443024Y319278D02*
X2447596D01*
X2438960D02*
X2442008D01*
X2443024Y319532D02*
X2447596D01*
X2438960D02*
X2442008D01*
X2443024Y319786D02*
X2447596D01*
X2438960D02*
X2442008D01*
X2442770Y320040D02*
X2447596D01*
X2438706D02*
X2441754D01*
X2442770Y320294D02*
X2447596D01*
X2438706D02*
X2441754D01*
X2442770Y320548D02*
X2447596D01*
X2438706D02*
X2441754D01*
X2442770Y320802D02*
X2447596D01*
X2438452D02*
X2441500D01*
X2442516Y321056D02*
X2447342D01*
X2438452D02*
X2441500D01*
X2442516Y321310D02*
X2447342D01*
X2438452D02*
X2441500D01*
X2442516Y321564D02*
X2447342D01*
X2438452D02*
X2441500D01*
X2442262Y321818D02*
X2447342D01*
X2442262Y322072D02*
X2447342D01*
X2442262Y322326D02*
X2447342D01*
X2442262Y322580D02*
X2447342D01*
X2442008Y322834D02*
X2447342D01*
X2442008Y323088D02*
X2447342D01*
X2441754Y323342D02*
X2447342D01*
X2437690Y323596D02*
X2447342D01*
X2437690Y323850D02*
X2447088D01*
X2437690Y324104D02*
X2447342D01*
X2437436Y324358D02*
X2447342D01*
X2437436Y324612D02*
X2447850D01*
X2442008Y271018D02*
X2442262D01*
Y271272D02*
X2442516D01*
X2444548Y271526D02*
X2444802D01*
X2445056Y271780D02*
X2446072D01*
X2444548D02*
X2444802D01*
X2443786D02*
X2444040D01*
X2442516D02*
X2443532D01*
X2442770Y272034D02*
X2443024D01*
X2447088Y262636D02*
X2447596D01*
X2445818D02*
X2446834D01*
X2444548D02*
X2444802D01*
X2441246D02*
X2442770D01*
X2448358Y262890D02*
X2448866D01*
X2447088D02*
X2447342D01*
X2446326D02*
X2446580D01*
X2441754D02*
X2443786D01*
X2456994Y408178D02*
X2460042D01*
X2475282Y428498D02*
X2477822D01*
X2442262D02*
X2472488D01*
X2435658D02*
X2438452D01*
X2475536Y428752D02*
X2478076D01*
X2442262D02*
X2472488D01*
X2435404D02*
X2438198D01*
X2475790Y429006D02*
X2478330D01*
X2456232D02*
X2472742D01*
X2435150D02*
X2437944D01*
X2476044Y429260D02*
X2478584D01*
X2434896D02*
X2437690D01*
X2476298Y429514D02*
X2478838D01*
X2434642D02*
X2437436D01*
X2476298Y429768D02*
X2479092D01*
X2434388D02*
X2437182D01*
X2476552Y430022D02*
X2479346D01*
X2476806Y430276D02*
X2479346D01*
X2477060Y430530D02*
X2479600D01*
X2477314Y430784D02*
X2479854D01*
X2477568Y431038D02*
X2480108D01*
X2444548D02*
X2472234D01*
X2477822Y431292D02*
X2480362D01*
X2445056D02*
X2472234D01*
X2445564Y431546D02*
X2471980D01*
X2446072Y431800D02*
X2471726D01*
X2446326Y432054D02*
X2467662D01*
X2446326Y432308D02*
X2467154D01*
X2446326Y432562D02*
X2466646D01*
X2446326Y432816D02*
X2465884D01*
X2446326Y433070D02*
X2465122D01*
X2451406Y433324D02*
X2464360D01*
X2452676Y433578D02*
X2463090D01*
X2453184Y433832D02*
X2462328D01*
X2453184Y434086D02*
X2461820D01*
X2456740Y408432D02*
X2460296D01*
X2456486Y408686D02*
X2460550D01*
X2456232Y408940D02*
X2460804D01*
X2455978Y409194D02*
X2461058D01*
X2455724Y409448D02*
X2461058D01*
X2455470Y409702D02*
X2458264D01*
X2455216Y409956D02*
X2458010D01*
X2454708Y410210D02*
X2457756D01*
X2454454Y410464D02*
X2457502D01*
X2451660Y413258D02*
X2464614D01*
X2451406Y413512D02*
X2464614D01*
X2451152Y413766D02*
X2464868D01*
X2453946Y414020D02*
X2465122D01*
X2453946Y414274D02*
X2465376D01*
X2453946Y414528D02*
X2465630D01*
X2453946Y414782D02*
X2465884D01*
X2453946Y415036D02*
X2466138D01*
X2453946Y415290D02*
X2466392D01*
X2453946Y415544D02*
X2466392D01*
X2453946Y415798D02*
X2466646D01*
X2453946Y416052D02*
X2464106D01*
X2453946Y416306D02*
X2464106D01*
X2438198Y426212D02*
X2458010D01*
X2437690Y426466D02*
X2465630D01*
X2437436Y426720D02*
X2471472D01*
X2440230Y426974D02*
X2471472D01*
X2437182D02*
X2439976D01*
X2440230Y427228D02*
X2471472D01*
X2436928D02*
X2439722D01*
X2440230Y427482D02*
X2471726D01*
X2436674D02*
X2439468D01*
X2439976Y427736D02*
X2471980D01*
X2436420D02*
X2439214D01*
X2439976Y427990D02*
X2472234D01*
X2436166D02*
X2438960D01*
X2439976Y428244D02*
X2472234D01*
X2435912D02*
X2438706D01*
X2477822Y388112D02*
X2480870D01*
X2477568Y388366D02*
X2480616D01*
X2477314Y388620D02*
X2480362D01*
X2477060Y388874D02*
X2479854D01*
X2476806Y389128D02*
X2479600D01*
X2476552Y389382D02*
X2479346D01*
X2476298Y389636D02*
X2479092D01*
X2447342D02*
X2461058D01*
X2476044Y389890D02*
X2478838D01*
X2447088D02*
X2472996D01*
X2475790Y390144D02*
X2478584D01*
X2447088D02*
X2473250D01*
X2475536Y390398D02*
X2478330D01*
X2447088D02*
X2473250D01*
X2475282Y390652D02*
X2478076D01*
X2447088D02*
X2473250D01*
X2475028Y390906D02*
X2477822D01*
X2447088D02*
X2473250D01*
X2447088Y391160D02*
X2473250D01*
X2447088Y391414D02*
X2473250D01*
X2447088Y391668D02*
X2473250D01*
X2446834Y391922D02*
X2473250D01*
X2446834Y392176D02*
X2473250D01*
X2456994Y392430D02*
X2473250D01*
X2454962Y405384D02*
X2457502D01*
X2455216Y405638D02*
X2457756D01*
X2455470Y405892D02*
X2458010D01*
X2455724Y406146D02*
X2458264D01*
X2455978Y406400D02*
X2458518D01*
X2456232Y406654D02*
X2461312D01*
X2456232Y406908D02*
X2461058D01*
X2456486Y407162D02*
X2460804D01*
X2456740Y407416D02*
X2460550D01*
X2456994Y407670D02*
X2460296D01*
X2457248Y407924D02*
X2460042D01*
X2437182Y383540D02*
X2438452D01*
X2436928Y383794D02*
X2438706D01*
X2436674Y384048D02*
X2438960D01*
X2436420Y384302D02*
X2438960D01*
X2436674Y384556D02*
X2439214D01*
X2436928Y384810D02*
X2439468D01*
X2437182Y385064D02*
X2439722D01*
X2478330Y387858D02*
X2481124D01*
X2464106D02*
X2471980D01*
X2467662Y408178D02*
X2470456D01*
X2449120Y387858D02*
X2452676D01*
X2439468D02*
X2442262D01*
X2444802Y408178D02*
X2447850D01*
X2478076Y431546D02*
X2480616D01*
X2478330Y431800D02*
X2480870D01*
X2478330Y432054D02*
X2481124D01*
X2478584Y432308D02*
X2481124D01*
X2478838Y432562D02*
X2481378D01*
X2479092Y432816D02*
X2481632D01*
X2479346Y433070D02*
X2481886D01*
X2479600Y433324D02*
X2482140D01*
X2479854Y433578D02*
X2482394D01*
X2480108Y433832D02*
X2482648D01*
X2480108Y434086D02*
X2482902D01*
X2480362Y434340D02*
X2483156D01*
X2480616Y434594D02*
X2483156D01*
X2480870Y434848D02*
X2483410D01*
X2481124Y435102D02*
X2483410D01*
X2481378Y435356D02*
X2483156D01*
X2481632Y435610D02*
X2482902D01*
X2481886Y435864D02*
X2482648D01*
X2480616Y385572D02*
X2481124D01*
X2480362Y385826D02*
X2481378D01*
X2480108Y386080D02*
X2481632D01*
X2479854Y386334D02*
X2481886D01*
X2479600Y386588D02*
X2482140D01*
X2479346Y386842D02*
X2482140D01*
X2479092Y387096D02*
X2481886D01*
X2478838Y387350D02*
X2481632D01*
X2478584Y387604D02*
X2481378D01*
X2462328Y429260D02*
X2472742D01*
X2466138Y429514D02*
X2472742D01*
X2465630Y429768D02*
X2472742D01*
X2464868Y430022D02*
X2472742D01*
X2464360Y430276D02*
X2472742D01*
X2463344Y430530D02*
X2472488D01*
X2462074Y430784D02*
X2472488D01*
X2468424Y432054D02*
X2471218D01*
X2468932Y432308D02*
X2470456D01*
X2467662Y408432D02*
X2470456D01*
X2467662Y408686D02*
X2470456D01*
X2467662Y408940D02*
X2470456D01*
X2467662Y409194D02*
X2470456D01*
X2467662Y409448D02*
X2470710D01*
X2467662Y409702D02*
X2470710D01*
X2458772D02*
X2461312D01*
X2467662Y409956D02*
X2470710D01*
X2459026D02*
X2461566D01*
X2467662Y410210D02*
X2470710D01*
X2459280D02*
X2461820D01*
X2467662Y410464D02*
X2470710D01*
X2459534D02*
X2462074D01*
X2467662Y410718D02*
X2470710D01*
X2459788D02*
X2462328D01*
X2467662Y410972D02*
X2470710D01*
X2459788D02*
X2462582D01*
X2467662Y411226D02*
X2470710D01*
X2460042D02*
X2462836D01*
X2467662Y411480D02*
X2470710D01*
X2460296D02*
X2462836D01*
X2467662Y411734D02*
X2470710D01*
X2460550D02*
X2463090D01*
X2467916Y411988D02*
X2470710D01*
X2460804D02*
X2463344D01*
X2467916Y412242D02*
X2470710D01*
X2461058D02*
X2463598D01*
X2467916Y412496D02*
X2470710D01*
X2461312D02*
X2463852D01*
X2467916Y412750D02*
X2470710D01*
X2461566D02*
X2464106D01*
X2467916Y413004D02*
X2470710D01*
X2461566D02*
X2464360D01*
X2467916Y413258D02*
X2470710D01*
X2467916Y413512D02*
X2470710D01*
X2467916Y413766D02*
X2470710D01*
X2467916Y414020D02*
X2470710D01*
X2467916Y414274D02*
X2470964D01*
X2467916Y414528D02*
X2470964D01*
X2467916Y414782D02*
X2470964D01*
X2467916Y415036D02*
X2470964D01*
X2467916Y415290D02*
X2470964D01*
X2467916Y415544D02*
X2470964D01*
X2467916Y415798D02*
X2470964D01*
X2467916Y416052D02*
X2470964D01*
X2464360D02*
X2466900D01*
X2468170Y416306D02*
X2470964D01*
X2464614D02*
X2467154D01*
X2468170Y416560D02*
X2470964D01*
X2464868D02*
X2467408D01*
X2468170Y416814D02*
X2470964D01*
X2465122D02*
X2467662D01*
X2468170Y417068D02*
X2470964D01*
X2465376D02*
X2467916D01*
X2465376Y417322D02*
X2470964D01*
X2465630Y417576D02*
X2470964D01*
X2465884Y417830D02*
X2470964D01*
X2466138Y418084D02*
X2470964D01*
X2466392Y418338D02*
X2471218D01*
X2466646Y418592D02*
X2471218D01*
X2466900Y418846D02*
X2471218D01*
X2467154Y419100D02*
X2475028D01*
X2467154Y419354D02*
X2475028D01*
X2467408Y419608D02*
X2475028D01*
X2467662Y419862D02*
X2475028D01*
X2467662Y420116D02*
X2475028D01*
X2467662Y420370D02*
X2475028D01*
X2467662Y420624D02*
X2475028D01*
X2467662Y420878D02*
X2475028D01*
X2467662Y421132D02*
X2475028D01*
X2467662Y421386D02*
X2475028D01*
X2467662Y421640D02*
X2475028D01*
X2472234Y421894D02*
X2475028D01*
X2467662D02*
X2471980D01*
X2467662Y422148D02*
X2475028D01*
X2467662Y422402D02*
X2475028D01*
X2467662Y422656D02*
X2475028D01*
X2467662Y422910D02*
X2475028D01*
X2467662Y423164D02*
X2475028D01*
X2467662Y423418D02*
X2475028D01*
X2467662Y423672D02*
X2475028D01*
X2467662Y423926D02*
X2475028D01*
X2467662Y424180D02*
X2475028D01*
X2467662Y424434D02*
X2475028D01*
X2467662Y424688D02*
X2475028D01*
X2467662Y424942D02*
X2475028D01*
X2467662Y425196D02*
X2475028D01*
X2472742Y425450D02*
X2475282D01*
X2468424D02*
X2471472D01*
X2472742Y425704D02*
X2475536D01*
X2468424D02*
X2471472D01*
X2472996Y425958D02*
X2475790D01*
X2468424D02*
X2471472D01*
X2473250Y426212D02*
X2475790D01*
X2468424D02*
X2471472D01*
X2473504Y426466D02*
X2476044D01*
X2468424D02*
X2471472D01*
X2473758Y426720D02*
X2476298D01*
X2474012Y426974D02*
X2476552D01*
X2474266Y427228D02*
X2476806D01*
X2474520Y427482D02*
X2477060D01*
X2474520Y427736D02*
X2477314D01*
X2474774Y427990D02*
X2477568D01*
X2475028Y428244D02*
X2477568D01*
X2464106Y388112D02*
X2472234D01*
X2463852Y388366D02*
X2472488D01*
X2463598Y388620D02*
X2472488D01*
X2463598Y388874D02*
X2472742D01*
X2463344Y389128D02*
X2472742D01*
X2463344Y389382D02*
X2472996D01*
X2463090Y389636D02*
X2472996D01*
X2474774Y391160D02*
X2477568D01*
X2474520Y391414D02*
X2477314D01*
X2474266Y391668D02*
X2477060D01*
X2474012Y391922D02*
X2476806D01*
X2473758Y392176D02*
X2476552D01*
X2473504Y392430D02*
X2476298D01*
X2463090Y392684D02*
X2476044D01*
X2463090Y392938D02*
X2475790D01*
X2463344Y393192D02*
X2475536D01*
X2463344Y393446D02*
X2475282D01*
X2463344Y393700D02*
X2475028D01*
X2463598Y393954D02*
X2474774D01*
X2463852Y394208D02*
X2474266D01*
X2463852Y394462D02*
X2474012D01*
X2464106Y394716D02*
X2473758D01*
X2464360Y394970D02*
X2473504D01*
X2464614Y395224D02*
X2473250D01*
X2464868Y395478D02*
X2472996D01*
X2465376Y395732D02*
X2472742D01*
X2465884Y395986D02*
X2472488D01*
X2466392Y396240D02*
X2472234D01*
X2467154Y396494D02*
X2471980D01*
X2467154Y396748D02*
X2471726D01*
X2467154Y397002D02*
X2471472D01*
X2467154Y397256D02*
X2471218D01*
X2467154Y397510D02*
X2470964D01*
X2467154Y397764D02*
X2470710D01*
X2467154Y398018D02*
X2470456D01*
X2467154Y398272D02*
X2470202D01*
X2467154Y398526D02*
X2470202D01*
X2466900Y398780D02*
X2470202D01*
X2466392Y399034D02*
X2470202D01*
X2466138Y399288D02*
X2470202D01*
X2465884Y399542D02*
X2470202D01*
X2465630Y399796D02*
X2470202D01*
X2465376Y400050D02*
X2470202D01*
X2465122Y400304D02*
X2470202D01*
X2464868Y400558D02*
X2470202D01*
X2464614Y400812D02*
X2470202D01*
X2467408Y401066D02*
X2470202D01*
X2464360D02*
X2467154D01*
X2467408Y401320D02*
X2470202D01*
X2464106D02*
X2466900D01*
X2467408Y401574D02*
X2470202D01*
X2463852D02*
X2466646D01*
X2467408Y401828D02*
X2470202D01*
X2463598D02*
X2466392D01*
X2467408Y402082D02*
X2470202D01*
X2463344D02*
X2466138D01*
X2467408Y402336D02*
X2470202D01*
X2463090D02*
X2465884D01*
X2467408Y402590D02*
X2470202D01*
X2462836D02*
X2465630D01*
X2467408Y402844D02*
X2470202D01*
X2462582D02*
X2465376D01*
X2467408Y403098D02*
X2470202D01*
X2462328D02*
X2465122D01*
X2467408Y403352D02*
X2470202D01*
X2462074D02*
X2464868D01*
X2467408Y403606D02*
X2470202D01*
X2461820D02*
X2464614D01*
X2467408Y403860D02*
X2470202D01*
X2461566D02*
X2464360D01*
X2467408Y404114D02*
X2470456D01*
X2461312D02*
X2464106D01*
X2467408Y404368D02*
X2470456D01*
X2461058D02*
X2463852D01*
X2467408Y404622D02*
X2470456D01*
X2460550D02*
X2463598D01*
X2467408Y404876D02*
X2470456D01*
X2460296D02*
X2463344D01*
X2467408Y405130D02*
X2470456D01*
X2460042D02*
X2462836D01*
X2467408Y405384D02*
X2470456D01*
X2459788D02*
X2462582D01*
X2467408Y405638D02*
X2470456D01*
X2459534D02*
X2462328D01*
X2467408Y405892D02*
X2470456D01*
X2459280D02*
X2462074D01*
X2467408Y406146D02*
X2470456D01*
X2459026D02*
X2461820D01*
X2467408Y406400D02*
X2470456D01*
X2458772D02*
X2461566D01*
X2467408Y406654D02*
X2470456D01*
X2467662Y406908D02*
X2470456D01*
X2467662Y407162D02*
X2470456D01*
X2467662Y407416D02*
X2470456D01*
X2467662Y407670D02*
X2470456D01*
X2467662Y407924D02*
X2470456D01*
X2466646Y386334D02*
X2469440D01*
X2465884Y386588D02*
X2470202D01*
X2465376Y386842D02*
X2470710D01*
X2465122Y387096D02*
X2471218D01*
X2464614Y387350D02*
X2471472D01*
X2464360Y387604D02*
X2471726D01*
X2442516Y429006D02*
X2450390D01*
X2442516Y429260D02*
X2450390D01*
X2442770Y429514D02*
X2450390D01*
X2443024Y429768D02*
X2450390D01*
X2443278Y430022D02*
X2450390D01*
X2443532Y430276D02*
X2451152D01*
X2443786Y430530D02*
X2452422D01*
X2444294Y430784D02*
X2453946D01*
X2446326Y433324D02*
X2450390D01*
X2446326Y433578D02*
X2450390D01*
X2444802Y408432D02*
X2447850D01*
X2444802Y408686D02*
X2447850D01*
X2444802Y408940D02*
X2447596D01*
X2444802Y409194D02*
X2447596D01*
X2444802Y409448D02*
X2447596D01*
X2444548Y409702D02*
X2447596D01*
X2444548Y409956D02*
X2447596D01*
X2444548Y410210D02*
X2447596D01*
X2444548Y410464D02*
X2447596D01*
X2454200Y410718D02*
X2456994D01*
X2444548D02*
X2447342D01*
X2453946Y410972D02*
X2456740D01*
X2444548D02*
X2447342D01*
X2453692Y411226D02*
X2456486D01*
X2444548D02*
X2447342D01*
X2453438Y411480D02*
X2456232D01*
X2444294D02*
X2447342D01*
X2453184Y411734D02*
X2455978D01*
X2444294D02*
X2447342D01*
X2452930Y411988D02*
X2455724D01*
X2444294D02*
X2447342D01*
X2452676Y412242D02*
X2455470D01*
X2444294D02*
X2447342D01*
X2452422Y412496D02*
X2455216D01*
X2444294D02*
X2447342D01*
X2452168Y412750D02*
X2454962D01*
X2444294D02*
X2447088D01*
X2451914Y413004D02*
X2454708D01*
X2444294D02*
X2447088D01*
X2444294Y413258D02*
X2447088D01*
X2444040Y413512D02*
X2447088D01*
X2444040Y413766D02*
X2447088D01*
X2450898Y414020D02*
X2453692D01*
X2444040D02*
X2447088D01*
X2450644Y414274D02*
X2453438D01*
X2444040D02*
X2447088D01*
X2450390Y414528D02*
X2453184D01*
X2444040D02*
X2447088D01*
X2450136Y414782D02*
X2452930D01*
X2444040D02*
X2446834D01*
X2449882Y415036D02*
X2452676D01*
X2444040D02*
X2446834D01*
X2449628Y415290D02*
X2452422D01*
X2444040D02*
X2446834D01*
X2449120Y415544D02*
X2452168D01*
X2443786D02*
X2446834D01*
X2448866Y415798D02*
X2451914D01*
X2443786D02*
X2446834D01*
X2448612Y416052D02*
X2451406D01*
X2443786D02*
X2446834D01*
X2448358Y416306D02*
X2451152D01*
X2443786D02*
X2446834D01*
X2448104Y416560D02*
X2450898D01*
X2443786D02*
X2446834D01*
X2447850Y416814D02*
X2450644D01*
X2443786D02*
X2446580D01*
X2447596Y417068D02*
X2450390D01*
X2443786D02*
X2446580D01*
X2447342Y417322D02*
X2450136D01*
X2443532D02*
X2446580D01*
X2447088Y417576D02*
X2449882D01*
X2443532D02*
X2446580D01*
X2446834Y417830D02*
X2449628D01*
X2443532D02*
X2446580D01*
X2443532Y418084D02*
X2449374D01*
X2443532Y418338D02*
X2449120D01*
X2443532Y418592D02*
X2448866D01*
X2443532Y418846D02*
X2448612D01*
X2443532Y419100D02*
X2448358D01*
X2443278Y419354D02*
X2448104D01*
X2443278Y419608D02*
X2447850D01*
X2443278Y419862D02*
X2447596D01*
X2443278Y420116D02*
X2447342D01*
X2443278Y420370D02*
X2447088D01*
X2443278Y420624D02*
X2446834D01*
X2443278Y420878D02*
X2446580D01*
X2443278Y421132D02*
X2446326D01*
X2443024Y421386D02*
X2446072D01*
X2442770Y421640D02*
X2446072D01*
X2442516Y421894D02*
X2446072D01*
X2442262Y422148D02*
X2446072D01*
X2442008Y422402D02*
X2446072D01*
X2441754Y422656D02*
X2445818D01*
X2441500Y422910D02*
X2445818D01*
X2441246Y423164D02*
X2445818D01*
X2440992Y423418D02*
X2445818D01*
X2440738Y423672D02*
X2445818D01*
X2440484Y423926D02*
X2445818D01*
X2440230Y424180D02*
X2445818D01*
X2439976Y424434D02*
X2445818D01*
X2442770Y424688D02*
X2445564D01*
X2439722D02*
X2442516D01*
X2442770Y424942D02*
X2445564D01*
X2439468D02*
X2442262D01*
X2442516Y425196D02*
X2445564D01*
X2439214D02*
X2442008D01*
X2442516Y425450D02*
X2445564D01*
X2438960D02*
X2441754D01*
X2442516Y425704D02*
X2445564D01*
X2438706D02*
X2442262D01*
X2438452Y425958D02*
X2450136D01*
X2449120Y388112D02*
X2452676D01*
X2439722D02*
X2442516D01*
X2449120Y388366D02*
X2452676D01*
X2439976D02*
X2442516D01*
X2449120Y388620D02*
X2452676D01*
X2440230D02*
X2442770D01*
X2449120Y388874D02*
X2452676D01*
X2440484D02*
X2443024D01*
X2448866Y389128D02*
X2452676D01*
X2440738D02*
X2443278D01*
X2447342Y389382D02*
X2452676D01*
X2440992D02*
X2443532D01*
X2441246Y389636D02*
X2443786D01*
X2441500Y389890D02*
X2444040D01*
X2441500Y390144D02*
X2444294D01*
X2441754Y390398D02*
X2444294D01*
X2442008Y390652D02*
X2444548D01*
X2442262Y390906D02*
X2444802D01*
X2442516Y391160D02*
X2445056D01*
X2442770Y391414D02*
X2445310D01*
X2443024Y391668D02*
X2445564D01*
X2443278Y391922D02*
X2445818D01*
X2443278Y392176D02*
X2446072D01*
X2446834Y392430D02*
X2449882D01*
X2443532D02*
X2446326D01*
X2446834Y392684D02*
X2449882D01*
X2443786D02*
X2446326D01*
X2446834Y392938D02*
X2449882D01*
X2444040D02*
X2446580D01*
X2444294Y393192D02*
X2449628D01*
X2444548Y393446D02*
X2449628D01*
X2444802Y393700D02*
X2449628D01*
X2445056Y393954D02*
X2449628D01*
X2445056Y394208D02*
X2449628D01*
X2445310Y394462D02*
X2449628D01*
X2445564Y394716D02*
X2449628D01*
X2445818Y394970D02*
X2449628D01*
X2446072Y395224D02*
X2449374D01*
X2446326Y395478D02*
X2449374D01*
X2446326Y395732D02*
X2449374D01*
X2446326Y395986D02*
X2449374D01*
X2446326Y396240D02*
X2449628D01*
X2446326Y396494D02*
X2449882D01*
X2446326Y396748D02*
X2449882D01*
X2446326Y397002D02*
X2450136D01*
X2446326Y397256D02*
X2450390D01*
X2446326Y397510D02*
X2450644D01*
X2446072Y397764D02*
X2450898D01*
X2446072Y398018D02*
X2451152D01*
X2446072Y398272D02*
X2451406D01*
X2446072Y398526D02*
X2451660D01*
X2446072Y398780D02*
X2451660D01*
X2449374Y399034D02*
X2451914D01*
X2446072D02*
X2448866D01*
X2449628Y399288D02*
X2452168D01*
X2446072D02*
X2448866D01*
X2449882Y399542D02*
X2452422D01*
X2446072D02*
X2448866D01*
X2450136Y399796D02*
X2452676D01*
X2445818D02*
X2448866D01*
X2450390Y400050D02*
X2452930D01*
X2445818D02*
X2448866D01*
X2450644Y400304D02*
X2453184D01*
X2445818D02*
X2448866D01*
X2450644Y400558D02*
X2453438D01*
X2445818D02*
X2448866D01*
X2450898Y400812D02*
X2453692D01*
X2445818D02*
X2448866D01*
X2451152Y401066D02*
X2453692D01*
X2445818D02*
X2448612D01*
X2451406Y401320D02*
X2453946D01*
X2445818D02*
X2448612D01*
X2451660Y401574D02*
X2454200D01*
X2445818D02*
X2448612D01*
X2451914Y401828D02*
X2454454D01*
X2445564D02*
X2448612D01*
X2452168Y402082D02*
X2454708D01*
X2445564D02*
X2448612D01*
X2452422Y402336D02*
X2454962D01*
X2445564D02*
X2448612D01*
X2452422Y402590D02*
X2455216D01*
X2445564D02*
X2448612D01*
X2452676Y402844D02*
X2455470D01*
X2445564D02*
X2448612D01*
X2452930Y403098D02*
X2455470D01*
X2445564D02*
X2448358D01*
X2453184Y403352D02*
X2455724D01*
X2445564D02*
X2448358D01*
X2453438Y403606D02*
X2455978D01*
X2445310D02*
X2448358D01*
X2453692Y403860D02*
X2456232D01*
X2445310D02*
X2448358D01*
X2453946Y404114D02*
X2456486D01*
X2445310D02*
X2448358D01*
X2454200Y404368D02*
X2456740D01*
X2445310D02*
X2448358D01*
X2454200Y404622D02*
X2456994D01*
X2445310D02*
X2448358D01*
X2454454Y404876D02*
X2457248D01*
X2445310D02*
X2448104D01*
X2454708Y405130D02*
X2457248D01*
X2445310D02*
X2448104D01*
X2445310Y405384D02*
X2448104D01*
X2445056Y405638D02*
X2448104D01*
X2445056Y405892D02*
X2448104D01*
X2445056Y406146D02*
X2448104D01*
X2445056Y406400D02*
X2448104D01*
X2445056Y406654D02*
X2448104D01*
X2445056Y406908D02*
X2447850D01*
X2445056Y407162D02*
X2447850D01*
X2445056Y407416D02*
X2447850D01*
X2444802Y407670D02*
X2447850D01*
X2444802Y407924D02*
X2447850D01*
X2437436Y383286D02*
X2438198D01*
X2437436Y385318D02*
X2439976D01*
X2437690Y385572D02*
X2440230D01*
X2437690Y385826D02*
X2440484D01*
X2437944Y386080D02*
X2440738D01*
X2438198Y386334D02*
X2440738D01*
X2438452Y386588D02*
X2440992D01*
X2449120Y386842D02*
X2452676D01*
X2438706D02*
X2441246D01*
X2449120Y387096D02*
X2452676D01*
X2438960D02*
X2441500D01*
X2449120Y387350D02*
X2452676D01*
X2439214D02*
X2441754D01*
X2449120Y387604D02*
X2452676D01*
X2439468D02*
X2442008D01*
X2434134Y430022D02*
X2436928D01*
X2433880Y430276D02*
X2436674D01*
X2433626Y430530D02*
X2436420D01*
X2433372Y430784D02*
X2436166D01*
X2433118Y431038D02*
X2435912D01*
X2432864Y431292D02*
X2435658D01*
X2432610Y431546D02*
X2435404D01*
X2432356Y431800D02*
X2435150D01*
X2432102Y432054D02*
X2434896D01*
X2432102Y432308D02*
X2434642D01*
X2432102Y432562D02*
X2434134D01*
X2432356Y432816D02*
X2433880D01*
X2432610Y433070D02*
X2433626D01*
X2432864Y433324D02*
X2433372D01*
X2409496Y267970D02*
X2439214D01*
X2409496Y268224D02*
X2439468D01*
X2409496Y268478D02*
X2439722D01*
X2409496Y268732D02*
X2439976D01*
X2409496Y268986D02*
X2439976D01*
X2409496Y269240D02*
X2440230D01*
X2409496Y269494D02*
X2440484D01*
X2409496Y269748D02*
X2440738D01*
X2409496Y270002D02*
X2440992D01*
X2409496Y270256D02*
X2440992D01*
X2409496Y270510D02*
X2441246D01*
X2409496Y267462D02*
X2438960D01*
X2409496Y267716D02*
X2438960D01*
X2413052Y224536D02*
X2440738D01*
X2412798Y224790D02*
X2439976D01*
X2412544Y225044D02*
X2439214D01*
X2393494Y267970D02*
X2408480D01*
X2396542Y288290D02*
X2412544D01*
X2428800Y308610D02*
X2430070D01*
X2407718D02*
X2422196D01*
X2410258Y227330D02*
X2434134D01*
X2397558Y247650D02*
X2413560D01*
X2428546Y308864D02*
X2430578D01*
X2407972D02*
X2421942D01*
X2428292Y309118D02*
X2430832D01*
X2408226D02*
X2421942D01*
X2428038Y309372D02*
X2431340D01*
X2408480D02*
X2421688D01*
X2427784Y309626D02*
X2431848D01*
X2408480D02*
X2421688D01*
X2427530Y309880D02*
X2432102D01*
X2427276Y310134D02*
X2431848D01*
X2427022Y310388D02*
X2431848D01*
X2426768Y310642D02*
X2431594D01*
X2426514Y310896D02*
X2431594D01*
X2426260Y311150D02*
X2431340D01*
X2426006Y311404D02*
X2431340D01*
X2425498Y311658D02*
X2431086D01*
X2425244Y311912D02*
X2431086D01*
X2424990Y312166D02*
X2430832D01*
X2424736Y312420D02*
X2430832D01*
X2424482Y312674D02*
X2430578D01*
X2424228Y312928D02*
X2430578D01*
X2423974Y313182D02*
X2430324D01*
X2423720Y313436D02*
X2430324D01*
X2423466Y313690D02*
X2430070D01*
X2423212Y313944D02*
X2430070D01*
X2422958Y314198D02*
X2429816D01*
X2422704Y314452D02*
X2429816D01*
X2422450Y314706D02*
X2429562D01*
X2422196Y314960D02*
X2429562D01*
X2421942Y315214D02*
X2429308D01*
X2421688Y315468D02*
X2429308D01*
X2421180Y315722D02*
X2429054D01*
X2420926Y315976D02*
X2429054D01*
X2420672Y316230D02*
X2428800D01*
X2420418Y316484D02*
X2428800D01*
X2418640Y318770D02*
X2429308D01*
X2418894Y319024D02*
X2429816D01*
X2419148Y319278D02*
X2430070D01*
X2419656Y319532D02*
X2430578D01*
X2419910Y319786D02*
X2430832D01*
X2420418Y320040D02*
X2431340D01*
X2420672Y320294D02*
X2437690D01*
X2421180Y320548D02*
X2437690D01*
X2421434Y320802D02*
X2437436D01*
X2421942Y321056D02*
X2437436D01*
X2422196Y321310D02*
X2437436D01*
X2422704Y321564D02*
X2437182D01*
X2423212Y321818D02*
X2437182D01*
X2423466Y322072D02*
X2437182D01*
X2423974Y322326D02*
X2437182D01*
X2424482Y322580D02*
X2436928D01*
X2424990Y322834D02*
X2436928D01*
X2425244Y323088D02*
X2436928D01*
X2425752Y323342D02*
X2436674D01*
X2426260Y323596D02*
X2436674D01*
X2426768Y323850D02*
X2436674D01*
X2427276Y324104D02*
X2436674D01*
X2427784Y324358D02*
X2436420D01*
X2428292Y324612D02*
X2436420D01*
X2428800Y324866D02*
X2436420D01*
X2396542Y288544D02*
X2412544D01*
X2396796Y288798D02*
X2412798D01*
X2396796Y289052D02*
X2412798D01*
X2396796Y289306D02*
X2413052D01*
X2397050Y289560D02*
X2413052D01*
X2397050Y289814D02*
X2413306D01*
X2397050Y290068D02*
X2413306D01*
X2397304Y290322D02*
X2413560D01*
X2397304Y290576D02*
X2413560D01*
X2397304Y290830D02*
X2413814D01*
X2397558Y291084D02*
X2413814D01*
X2397558Y291338D02*
X2414068D01*
X2397558Y291592D02*
X2414068D01*
X2397812Y291846D02*
X2414322D01*
X2397812Y292100D02*
X2414322D01*
X2398066Y292354D02*
X2414576D01*
X2398066Y292608D02*
X2414830D01*
X2398066Y292862D02*
X2414830D01*
X2398320Y293116D02*
X2415084D01*
X2398320Y293370D02*
X2415084D01*
X2398574Y293624D02*
X2415338D01*
X2398574Y293878D02*
X2415592D01*
X2398828Y294132D02*
X2415592D01*
X2398828Y294386D02*
X2415846D01*
X2398828Y294640D02*
X2415846D01*
X2399082Y294894D02*
X2416100D01*
X2399082Y295148D02*
X2416354D01*
X2399336Y295402D02*
X2416354D01*
X2399336Y295656D02*
X2416608D01*
X2399590Y295910D02*
X2416862D01*
X2399590Y296164D02*
X2417116D01*
X2399844Y296418D02*
X2417116D01*
X2399844Y296672D02*
X2417370D01*
X2400098Y296926D02*
X2417624D01*
X2400098Y297180D02*
X2417624D01*
X2400352Y297434D02*
X2417878D01*
X2400352Y297688D02*
X2418132D01*
X2400606Y297942D02*
X2418386D01*
X2400606Y298196D02*
X2418640D01*
X2400860Y298450D02*
X2418640D01*
X2400860Y298704D02*
X2418894D01*
X2401114Y298958D02*
X2419148D01*
X2401368Y299212D02*
X2419402D01*
X2401368Y299466D02*
X2419656D01*
X2401622Y299720D02*
X2419910D01*
X2401622Y299974D02*
X2419910D01*
X2401876Y300228D02*
X2420164D01*
X2401876Y300482D02*
X2420418D01*
X2402130Y300736D02*
X2420672D01*
X2402384Y300990D02*
X2420926D01*
X2402384Y301244D02*
X2421180D01*
X2402638Y301498D02*
X2421434D01*
X2402638Y301752D02*
X2421688D01*
X2402892Y302006D02*
X2421942D01*
X2403146Y302260D02*
X2422196D01*
X2403146Y302514D02*
X2422450D01*
X2403400Y302768D02*
X2422704D01*
X2403654Y303022D02*
X2422958D01*
X2403654Y303276D02*
X2423212D01*
X2403908Y303530D02*
X2423466D01*
X2404162Y303784D02*
X2423720D01*
X2404162Y304038D02*
X2423974D01*
X2404416Y304292D02*
X2424228D01*
X2404670Y304546D02*
X2424482D01*
X2404670Y304800D02*
X2424990D01*
X2404924Y305054D02*
X2425244D01*
X2405178Y305308D02*
X2423720D01*
X2405432Y305562D02*
X2423720D01*
X2405432Y305816D02*
X2423466D01*
X2405686Y306070D02*
X2423466D01*
X2405940Y306324D02*
X2423212D01*
X2406194Y306578D02*
X2423212D01*
X2406194Y306832D02*
X2422958D01*
X2406448Y307086D02*
X2422958D01*
X2406702Y307340D02*
X2422704D01*
X2406956Y307594D02*
X2422704D01*
X2423466Y307848D02*
X2428800D01*
X2407210D02*
X2422450D01*
X2423466Y308102D02*
X2429308D01*
X2407210D02*
X2422450D01*
X2428546Y308356D02*
X2429562D01*
X2407464D02*
X2422196D01*
X2393494Y268224D02*
X2408480D01*
X2393494Y268478D02*
X2408480D01*
X2393494Y269748D02*
X2408480D01*
X2393494Y270002D02*
X2408480D01*
X2393494Y270256D02*
X2408480D01*
X2393494Y270510D02*
X2408480D01*
X2393494Y270764D02*
X2408480D01*
X2393494Y271018D02*
X2408480D01*
X2393494Y271272D02*
X2408480D01*
X2393494Y271526D02*
X2408480D01*
X2393748Y271780D02*
X2408480D01*
X2393748Y272034D02*
X2408480D01*
X2393748Y272288D02*
X2408480D01*
X2393748Y272542D02*
X2408480D01*
X2393748Y272796D02*
X2408480D01*
X2393748Y273050D02*
X2408480D01*
X2393748Y273304D02*
X2408480D01*
X2393748Y273558D02*
X2408480D01*
X2393748Y273812D02*
X2408480D01*
X2393748Y274066D02*
X2408734D01*
X2393748Y274320D02*
X2408734D01*
X2393748Y274574D02*
X2408734D01*
X2393748Y274828D02*
X2408734D01*
X2393748Y275082D02*
X2408734D01*
X2393748Y275336D02*
X2408734D01*
X2394002Y275590D02*
X2408734D01*
X2394002Y275844D02*
X2408734D01*
X2394002Y276098D02*
X2408988D01*
X2394002Y276352D02*
X2408988D01*
X2394002Y276606D02*
X2408988D01*
X2394002Y276860D02*
X2408988D01*
X2394002Y277114D02*
X2408988D01*
X2394002Y277368D02*
X2408988D01*
X2394002Y277622D02*
X2409242D01*
X2394256Y277876D02*
X2409242D01*
X2394256Y278130D02*
X2409242D01*
X2394256Y278384D02*
X2409242D01*
X2394256Y278638D02*
X2409242D01*
X2394256Y278892D02*
X2409496D01*
X2394256Y279146D02*
X2409496D01*
X2394256Y279400D02*
X2409496D01*
X2394510Y279654D02*
X2409496D01*
X2394510Y279908D02*
X2409496D01*
X2394510Y280162D02*
X2409750D01*
X2394510Y280416D02*
X2409750D01*
X2394510Y280670D02*
X2409750D01*
X2394764Y280924D02*
X2409750D01*
X2394764Y281178D02*
X2410004D01*
X2394764Y281432D02*
X2410004D01*
X2394764Y281686D02*
X2410004D01*
X2394764Y281940D02*
X2410258D01*
X2394764Y282194D02*
X2410258D01*
X2395018Y282448D02*
X2410258D01*
X2395018Y282702D02*
X2410258D01*
X2395018Y282956D02*
X2410512D01*
X2395018Y283210D02*
X2410512D01*
X2395272Y283464D02*
X2410512D01*
X2395272Y283718D02*
X2410766D01*
X2395272Y283972D02*
X2410766D01*
X2395272Y284226D02*
X2410766D01*
X2395526Y284480D02*
X2411020D01*
X2395526Y284734D02*
X2411020D01*
X2395526Y284988D02*
X2411020D01*
X2395526Y285242D02*
X2411274D01*
X2395780Y285496D02*
X2411274D01*
X2395780Y285750D02*
X2411528D01*
X2395780Y286004D02*
X2411528D01*
X2395780Y286258D02*
X2411528D01*
X2396034Y286512D02*
X2411782D01*
X2396034Y286766D02*
X2411782D01*
X2396034Y287020D02*
X2412036D01*
X2396288Y287274D02*
X2412036D01*
X2396288Y287528D02*
X2412036D01*
X2396288Y287782D02*
X2412290D01*
X2396542Y288036D02*
X2412290D01*
X2397304Y247904D02*
X2413560D01*
X2397304Y248158D02*
X2413306D01*
X2397304Y248412D02*
X2413306D01*
X2397050Y248666D02*
X2413052D01*
X2397050Y248920D02*
X2413052D01*
X2397050Y249174D02*
X2412798D01*
X2396796Y249428D02*
X2412798D01*
X2396796Y249682D02*
X2412544D01*
X2396796Y249936D02*
X2412544D01*
X2396542Y250190D02*
X2412290D01*
X2396542Y250444D02*
X2412290D01*
X2396542Y250698D02*
X2412036D01*
X2396288Y250952D02*
X2412036D01*
X2396288Y251206D02*
X2412036D01*
X2396288Y251460D02*
X2411782D01*
X2396034Y251714D02*
X2411782D01*
X2396034Y251968D02*
X2411528D01*
X2396034Y252222D02*
X2411528D01*
X2395780Y252476D02*
X2411528D01*
X2395780Y252730D02*
X2411274D01*
X2395780Y252984D02*
X2411274D01*
X2395780Y253238D02*
X2411020D01*
X2395526Y253492D02*
X2411020D01*
X2395526Y253746D02*
X2411020D01*
X2395526Y254000D02*
X2410766D01*
X2395526Y254254D02*
X2410766D01*
X2395272Y254508D02*
X2410766D01*
X2395272Y254762D02*
X2410512D01*
X2395272Y255016D02*
X2410512D01*
X2395272Y255270D02*
X2410512D01*
X2395018Y255524D02*
X2410258D01*
X2395018Y255778D02*
X2410258D01*
X2395018Y256032D02*
X2410258D01*
X2395018Y256286D02*
X2410258D01*
X2394764Y256540D02*
X2410004D01*
X2394764Y256794D02*
X2410004D01*
X2394764Y257048D02*
X2410004D01*
X2394764Y257302D02*
X2409750D01*
X2394764Y257556D02*
X2409750D01*
X2394764Y257810D02*
X2409750D01*
X2394510Y258064D02*
X2409750D01*
X2394510Y258318D02*
X2409496D01*
X2394510Y258572D02*
X2409496D01*
X2394510Y258826D02*
X2409496D01*
X2394510Y259080D02*
X2409496D01*
X2394256Y259334D02*
X2409496D01*
X2394256Y259588D02*
X2409242D01*
X2394256Y259842D02*
X2409242D01*
X2394256Y260096D02*
X2409242D01*
X2394256Y260350D02*
X2409242D01*
X2394256Y260604D02*
X2409242D01*
X2394256Y260858D02*
X2408988D01*
X2394002Y261112D02*
X2408988D01*
X2394002Y261366D02*
X2408988D01*
X2394002Y261620D02*
X2408988D01*
X2394002Y261874D02*
X2408988D01*
X2394002Y262128D02*
X2408988D01*
X2409750Y262382D02*
X2436674D01*
X2394002D02*
X2408734D01*
X2409750Y262636D02*
X2434896D01*
X2394002D02*
X2408734D01*
X2409750Y262890D02*
X2435150D01*
X2394002D02*
X2408734D01*
X2409750Y263144D02*
X2435404D01*
X2394002D02*
X2408734D01*
X2409750Y263398D02*
X2435658D01*
X2393748D02*
X2408734D01*
X2409750Y263652D02*
X2435912D01*
X2393748D02*
X2408734D01*
X2409750Y263906D02*
X2436674D01*
X2393748D02*
X2408734D01*
X2409750Y264160D02*
X2436166D01*
X2393748D02*
X2408734D01*
X2409496Y264414D02*
X2436420D01*
X2393748D02*
X2408480D01*
X2409496Y264668D02*
X2436674D01*
X2393748D02*
X2408480D01*
X2409496Y264922D02*
X2436928D01*
X2393748D02*
X2408480D01*
X2409496Y265176D02*
X2436928D01*
X2393748D02*
X2408480D01*
X2409496Y265430D02*
X2437182D01*
X2393748D02*
X2408480D01*
X2409496Y265684D02*
X2437436D01*
X2393748D02*
X2408480D01*
X2409496Y265938D02*
X2437690D01*
X2393748D02*
X2408480D01*
X2409496Y266192D02*
X2437944D01*
X2393748D02*
X2408480D01*
X2409496Y266446D02*
X2438198D01*
X2393748D02*
X2408480D01*
X2409496Y266700D02*
X2438198D01*
X2393748D02*
X2408480D01*
X2409496Y266954D02*
X2438452D01*
X2393748D02*
X2408480D01*
X2409496Y267208D02*
X2438706D01*
X2393494D02*
X2408480D01*
X2393494Y267462D02*
X2408480D01*
X2393494Y267716D02*
X2408480D01*
X2410004Y227584D02*
X2433626D01*
X2409750Y227838D02*
X2433118D01*
X2409496Y228092D02*
X2432610D01*
X2409242Y228346D02*
X2432102D01*
X2408988Y228600D02*
X2431848D01*
X2408734Y228854D02*
X2431594D01*
X2408480Y229108D02*
X2431848D01*
X2406448Y231648D02*
X2427022D01*
X2406194Y231902D02*
X2426768D01*
X2406194Y232156D02*
X2426514D01*
X2405940Y232410D02*
X2426260D01*
X2405686Y232664D02*
X2425752D01*
X2405432Y232918D02*
X2425498D01*
X2405432Y233172D02*
X2425244D01*
X2405178Y233426D02*
X2424990D01*
X2404924Y233680D02*
X2424482D01*
X2404670Y233934D02*
X2424228D01*
X2404670Y234188D02*
X2423974D01*
X2404416Y234442D02*
X2423720D01*
X2404162Y234696D02*
X2423466D01*
X2404162Y234950D02*
X2423212D01*
X2403908Y235204D02*
X2422958D01*
X2403654Y235458D02*
X2422704D01*
X2403654Y235712D02*
X2422450D01*
X2403400Y235966D02*
X2422196D01*
X2403146Y236220D02*
X2421942D01*
X2403146Y236474D02*
X2421688D01*
X2402892Y236728D02*
X2421434D01*
X2402638Y236982D02*
X2421180D01*
X2402638Y237236D02*
X2421180D01*
X2402384Y237490D02*
X2420672D01*
X2402384Y237744D02*
X2420418D01*
X2402130Y237998D02*
X2420164D01*
X2401876Y238252D02*
X2419910D01*
X2401876Y238506D02*
X2419656D01*
X2401622Y238760D02*
X2419656D01*
X2401622Y239014D02*
X2419402D01*
X2401368Y239268D02*
X2419148D01*
X2401368Y239522D02*
X2418894D01*
X2401114Y239776D02*
X2418640D01*
X2400860Y240030D02*
X2418640D01*
X2400860Y240284D02*
X2418386D01*
X2400606Y240538D02*
X2418132D01*
X2400606Y240792D02*
X2417878D01*
X2400352Y241046D02*
X2417624D01*
X2400352Y241300D02*
X2417624D01*
X2400098Y241554D02*
X2417370D01*
X2400098Y241808D02*
X2417116D01*
X2399844Y242062D02*
X2417116D01*
X2399844Y242316D02*
X2416862D01*
X2399590Y242570D02*
X2416608D01*
X2399590Y242824D02*
X2416354D01*
X2399336Y243078D02*
X2416354D01*
X2399336Y243332D02*
X2416100D01*
X2399082Y243586D02*
X2415846D01*
X2399082Y243840D02*
X2415846D01*
X2398828Y244094D02*
X2415592D01*
X2398828Y244348D02*
X2415592D01*
X2398828Y244602D02*
X2415338D01*
X2398574Y244856D02*
X2415084D01*
X2398574Y245110D02*
X2415084D01*
X2398320Y245364D02*
X2414830D01*
X2398320Y245618D02*
X2414830D01*
X2398066Y245872D02*
X2414576D01*
X2398066Y246126D02*
X2414322D01*
X2398066Y246380D02*
X2414322D01*
X2397812Y246634D02*
X2414068D01*
X2397812Y246888D02*
X2414068D01*
X2397558Y247142D02*
X2413814D01*
X2397558Y247396D02*
X2413814D01*
X2412290Y225298D02*
X2438706D01*
X2412036Y225552D02*
X2437944D01*
X2411782Y225806D02*
X2437436D01*
X2411528Y226060D02*
X2436674D01*
X2411274Y226314D02*
X2436166D01*
X2411020Y226568D02*
X2435658D01*
X2410766Y226822D02*
X2435150D01*
X2410512Y227076D02*
X2434642D01*
X2439722Y267970D02*
X2440230D01*
X2431848Y308610D02*
X2432610D01*
X2423466D02*
X2427530D01*
X2432356Y308864D02*
X2432610D01*
X2432864Y310388D02*
X2433118D01*
X2432610Y310642D02*
X2433626D01*
X2432864Y310896D02*
X2434134D01*
X2433372Y311150D02*
X2434642D01*
X2433880Y311404D02*
X2435150D01*
X2434388Y311658D02*
X2435658D01*
X2432102D02*
X2432610D01*
X2434896Y311912D02*
X2436166D01*
X2432102D02*
X2433118D01*
X2435150Y312166D02*
X2436674D01*
X2431848D02*
X2433626D01*
X2435150Y312420D02*
X2437436D01*
X2431848D02*
X2434134D01*
X2435404Y312674D02*
X2437944D01*
X2431594D02*
X2434388D01*
X2435404Y312928D02*
X2438706D01*
X2431594D02*
X2434388D01*
X2435404Y313182D02*
X2439214D01*
X2431340D02*
X2434642D01*
X2435404Y313436D02*
X2439976D01*
X2431340D02*
X2434642D01*
X2435404Y313690D02*
X2440738D01*
X2431086D02*
X2434388D01*
X2435404Y313944D02*
X2439468D01*
X2431086D02*
X2434388D01*
X2435404Y314198D02*
X2439468D01*
X2430832D02*
X2434134D01*
X2435150Y314452D02*
X2439214D01*
X2430832D02*
X2434134D01*
X2435150Y314706D02*
X2439214D01*
X2430578D02*
X2433880D01*
X2434896Y314960D02*
X2439214D01*
X2430578D02*
X2433880D01*
X2434896Y315214D02*
X2438960D01*
X2430324D02*
X2433626D01*
X2434642Y315468D02*
X2438960D01*
X2430324D02*
X2433626D01*
X2434642Y315722D02*
X2438960D01*
X2430324D02*
X2433372D01*
X2434388Y315976D02*
X2438960D01*
X2430070D02*
X2433372D01*
X2434388Y316230D02*
X2438706D01*
X2430070D02*
X2433118D01*
X2434134Y316484D02*
X2438706D01*
X2429816D02*
X2433118D01*
X2434134Y316738D02*
X2438706D01*
X2429816D02*
X2432864D01*
X2433880Y316992D02*
X2438452D01*
X2429562D02*
X2432864D01*
X2433880Y317246D02*
X2438452D01*
X2429562D02*
X2432610D01*
X2433626Y317500D02*
X2438452D01*
X2429308D02*
X2432610D01*
X2433626Y317754D02*
X2438452D01*
X2429308D02*
X2432356D01*
X2433372Y318008D02*
X2438198D01*
X2429308D02*
X2432356D01*
X2433372Y318262D02*
X2438198D01*
X2429816D02*
X2432356D01*
X2433118Y318516D02*
X2438198D01*
X2430324D02*
X2432102D01*
X2433118Y318770D02*
X2437944D01*
X2430832D02*
X2432102D01*
X2432864Y319024D02*
X2437944D01*
X2431340D02*
X2431848D01*
X2432864Y319278D02*
X2437944D01*
X2432610Y319532D02*
X2437944D01*
X2432610Y319786D02*
X2437690D01*
X2432356Y320040D02*
X2437690D01*
X2439214Y321818D02*
X2441246D01*
X2439976Y322072D02*
X2441246D01*
X2440738Y322326D02*
X2441246D01*
X2438198D02*
X2438452D01*
X2437944Y322580D02*
X2439214D01*
X2437944Y322834D02*
X2439722D01*
X2437944Y323088D02*
X2440230D01*
X2437944Y323342D02*
X2440992D01*
X2429308Y325120D02*
X2436166D01*
X2430070Y325374D02*
X2436166D01*
X2430578Y325628D02*
X2436166D01*
X2431086Y325882D02*
X2436166D01*
X2431848Y326136D02*
X2435912D01*
X2432356Y326390D02*
X2435912D01*
X2433118Y326644D02*
X2435912D01*
X2433880Y326898D02*
X2435658D01*
X2434642Y327152D02*
X2435658D01*
X2435404Y327406D02*
X2435658D01*
X2430324Y307594D02*
X2433118D01*
X2430578Y307848D02*
X2433118D01*
X2431086Y308102D02*
X2432864D01*
X2431340Y308356D02*
X2432864D01*
X2439976Y268478D02*
X2440484D01*
X2440230Y268732D02*
X2440484D01*
X2440230Y268986D02*
X2440738D01*
X2438452Y262382D02*
X2440738D01*
X2438198Y262636D02*
X2438706D01*
X2440738Y262890D02*
X2441246D01*
X2439468D02*
X2439722D01*
X2438198D02*
X2438706D01*
X2435912D02*
X2436166D01*
X2435658Y263144D02*
X2436166D01*
Y263652D02*
X2436674D01*
X2436420Y264160D02*
X2436928D01*
X2436674Y264414D02*
X2436928D01*
Y264668D02*
X2437182D01*
Y264922D02*
X2437436D01*
X2437182Y265176D02*
X2437436D01*
Y265430D02*
X2437690D01*
Y265684D02*
X2437944D01*
X2438198Y266192D02*
X2438452D01*
X2439214Y267208D02*
X2439468D01*
X2439214Y267462D02*
X2439722D01*
X2439468Y267716D02*
X2439722D01*
X2423720Y308864D02*
X2427276D01*
X2423974Y309118D02*
X2427022D01*
X2424482Y309372D02*
X2426768D01*
X2422704D02*
X2422958D01*
X2424736Y309626D02*
X2426514D01*
X2422704D02*
X2423466D01*
X2424990Y309880D02*
X2426260D01*
X2422450D02*
X2423720D01*
X2408734D02*
X2421434D01*
X2425498Y310134D02*
X2426006D01*
X2422450D02*
X2423974D01*
X2408988D02*
X2421434D01*
X2422196Y310388D02*
X2424482D01*
X2409242D02*
X2421180D01*
X2421942Y310642D02*
X2424736D01*
X2409496D02*
X2421180D01*
X2421942Y310896D02*
X2424990D01*
X2409750D02*
X2420926D01*
X2421688Y311150D02*
X2424736D01*
X2410004D02*
X2420926D01*
X2421688Y311404D02*
X2424482D01*
X2410258D02*
X2420672D01*
X2421434Y311658D02*
X2424228D01*
X2410512D02*
X2420672D01*
X2421434Y311912D02*
X2423974D01*
X2410766D02*
X2420418D01*
X2421180Y312166D02*
X2423720D01*
X2411020D02*
X2420418D01*
X2421180Y312420D02*
X2423466D01*
X2411274D02*
X2420164D01*
X2420926Y312674D02*
X2423212D01*
X2411528D02*
X2420164D01*
X2420926Y312928D02*
X2422958D01*
X2411782D02*
X2419910D01*
X2420672Y313182D02*
X2422704D01*
X2412036D02*
X2419910D01*
X2420672Y313436D02*
X2422450D01*
X2412290D02*
X2419656D01*
X2420418Y313690D02*
X2422196D01*
X2412544D02*
X2419656D01*
X2420418Y313944D02*
X2421942D01*
X2412798D02*
X2419402D01*
X2420164Y314198D02*
X2421688D01*
X2413052D02*
X2419402D01*
X2420164Y314452D02*
X2421434D01*
X2413306D02*
X2419148D01*
X2419910Y314706D02*
X2421180D01*
X2413560D02*
X2419148D01*
X2419910Y314960D02*
X2420926D01*
X2413814D02*
X2418894D01*
X2419656Y315214D02*
X2420672D01*
X2414068D02*
X2418894D01*
X2419656Y315468D02*
X2420418D01*
X2414322D02*
X2418640D01*
X2419402Y315722D02*
X2420164D01*
X2414830D02*
X2418640D01*
X2419402Y315976D02*
X2419910D01*
X2415084D02*
X2418386D01*
X2419148Y316230D02*
X2419656D01*
X2415338D02*
X2418386D01*
X2419148Y316484D02*
X2419402D01*
X2415592D02*
X2418132D01*
X2420164Y316738D02*
X2428546D01*
X2415846D02*
X2418132D01*
X2419910Y316992D02*
X2428546D01*
X2416354D02*
X2417878D01*
X2419656Y317246D02*
X2428292D01*
X2416608D02*
X2417878D01*
X2419402Y317500D02*
X2428292D01*
X2416862D02*
X2417624D01*
X2419148Y317754D02*
X2428038D01*
X2417116D02*
X2417624D01*
X2418894Y318008D02*
X2428038D01*
X2418640Y318262D02*
X2427784D01*
X2418386Y318516D02*
X2428546D01*
X2424482Y305308D02*
X2425498D01*
X2424736Y305562D02*
X2425752D01*
X2424736Y305816D02*
X2426260D01*
X2424482Y306070D02*
X2426514D01*
X2424228Y306324D02*
X2426768D01*
X2424228Y306578D02*
X2427022D01*
X2423974Y306832D02*
X2427530D01*
X2423974Y307086D02*
X2427784D01*
X2423720Y307340D02*
X2428292D01*
X2423720Y307594D02*
X2428546D01*
X2423212Y308356D02*
X2427784D01*
X2393494Y268732D02*
X2408226D01*
X2393494Y268986D02*
X2408226D01*
X2393494Y269240D02*
X2408226D01*
X2393494Y269494D02*
X2408226D01*
D17*
X2625010Y386321D02*
X2643004D01*
X2634007D01*
Y359330D01*
X2652001D02*
Y386321D01*
X2665497D01*
X2669995Y381823D01*
Y372826D01*
X2665497Y368327D01*
X2652001D01*
X2660998D02*
X2669995Y359330D01*
X2683491Y390820D02*
Y381823D01*
X2678993Y377324D01*
X2714981Y359330D02*
X2696987D01*
X2714981Y377324D01*
Y381823D01*
X2710482Y386321D01*
X2701485D01*
X2696987Y381823D01*
X2723978D02*
X2728477Y386321D01*
X2737473D01*
X2741972Y381823D01*
Y363829D01*
X2737473Y359330D01*
X2728477D01*
X2723978Y363829D01*
Y381823D01*
X2768963Y359330D02*
X2750969D01*
X2768963Y377324D01*
Y381823D01*
X2764465Y386321D01*
X2755468D01*
X2750969Y381823D01*
X2777961D02*
X2782459Y386321D01*
X2791456D01*
X2795955Y381823D01*
Y363829D01*
X2791456Y359330D01*
X2782459D01*
X2777961Y363829D01*
Y381823D01*
X2603420Y440850D02*
X2614083D01*
X2608752D01*
Y408860D01*
X2603420D01*
X2614083D01*
X2651404Y435518D02*
X2646073Y440850D01*
X2635410D01*
X2630078Y435518D01*
Y430186D01*
X2635410Y424855D01*
X2646073D01*
X2651404Y419523D01*
Y414192D01*
X2646073Y408860D01*
X2635410D01*
X2630078Y414192D01*
X2662068Y440850D02*
X2683394D01*
X2672731D01*
Y408860D01*
X2694057Y424855D02*
X2715384D01*
X2747373Y435518D02*
X2742042Y440850D01*
X2731379D01*
X2726047Y435518D01*
Y414192D01*
X2731379Y408860D01*
X2742042D01*
X2747373Y414192D01*
X2774032Y440850D02*
X2763369D01*
X2758037Y435518D01*
Y414192D01*
X2763369Y408860D01*
X2774032D01*
X2779363Y414192D01*
Y435518D01*
X2774032Y440850D01*
X2790027Y408860D02*
Y440850D01*
X2800690Y430186D01*
X2811353Y440850D01*
Y408860D01*
D18*
X2564957Y264098D02*
X2571621D01*
X2568289Y267430D02*
Y260766D01*
X2334260Y164937D02*
X2340925D01*
X2337592D01*
Y154940D01*
X2349255Y164937D02*
X2345923D01*
X2344257Y163271D01*
Y156606D01*
X2345923Y154940D01*
X2349255D01*
X2350921Y156606D01*
Y163271D01*
X2349255Y164937D01*
X2365916Y166603D02*
Y163271D01*
X2364250Y161604D01*
X2372581Y166603D02*
Y163271D01*
X2370915Y161604D01*
X2382578Y164937D02*
X2379245D01*
X2377579Y163271D01*
Y156606D01*
X2379245Y154940D01*
X2382578D01*
X2384244Y156606D01*
Y163271D01*
X2382578Y164937D01*
X2394241D02*
X2387576D01*
Y159938D01*
X2390908D01*
X2387576D01*
Y154940D01*
X2404237Y164937D02*
X2397573D01*
Y159938D01*
X2400905D01*
X2397573D01*
Y154940D01*
X2409236Y166603D02*
Y163271D01*
X2407570Y161604D01*
X2415900Y166603D02*
Y163271D01*
X2414234Y161604D01*
X2430896Y164937D02*
Y154940D01*
X2435894D01*
X2437560Y156606D01*
Y158272D01*
X2435894Y159938D01*
X2430896D01*
X2435894D01*
X2437560Y161604D01*
Y163271D01*
X2435894Y164937D01*
X2430896D01*
X2447557D02*
X2440892D01*
Y154940D01*
X2447557D01*
X2440892Y159938D02*
X2444225D01*
X2457554Y164937D02*
X2450889D01*
Y159938D01*
X2454221D01*
X2450889D01*
Y154940D01*
X2465884Y164937D02*
X2462552D01*
X2460886Y163271D01*
Y156606D01*
X2462552Y154940D01*
X2465884D01*
X2467550Y156606D01*
Y163271D01*
X2465884Y164937D01*
X2470883Y154940D02*
Y164937D01*
X2475881D01*
X2477547Y163271D01*
Y159938D01*
X2475881Y158272D01*
X2470883D01*
X2474215D02*
X2477547Y154940D01*
X2487544Y164937D02*
X2480879D01*
Y154940D01*
X2487544D01*
X2480879Y159938D02*
X2484212D01*
X2507537Y163271D02*
X2505871Y164937D01*
X2502539D01*
X2500873Y163271D01*
Y156606D01*
X2502539Y154940D01*
X2505871D01*
X2507537Y156606D01*
X2515868Y164937D02*
X2512536D01*
X2510870Y163271D01*
Y156606D01*
X2512536Y154940D01*
X2515868D01*
X2517534Y156606D01*
Y163271D01*
X2515868Y164937D01*
X2520867Y154940D02*
Y164937D01*
X2527531Y154940D01*
Y164937D01*
X2530863Y154940D02*
Y164937D01*
X2537528Y154940D01*
Y164937D01*
X2547525D02*
X2540860D01*
Y154940D01*
X2547525D01*
X2540860Y159938D02*
X2544192D01*
X2557521Y163271D02*
X2555855Y164937D01*
X2552523D01*
X2550857Y163271D01*
Y156606D01*
X2552523Y154940D01*
X2555855D01*
X2557521Y156606D01*
X2560854Y164937D02*
X2567518D01*
X2564186D01*
Y154940D01*
X2570851D02*
Y156606D01*
X2572516D01*
Y154940D01*
X2570851D01*
X2348544Y182321D02*
X2346878Y183987D01*
X2343546D01*
X2341880Y182321D01*
Y180655D01*
X2343546Y178988D01*
X2346878D01*
X2348544Y177322D01*
Y175656D01*
X2346878Y173990D01*
X2343546D01*
X2341880Y175656D01*
X2358541Y183987D02*
X2351877D01*
Y173990D01*
X2358541D01*
X2351877Y178988D02*
X2355209D01*
X2361874Y183987D02*
X2368538D01*
X2365206D01*
Y173990D01*
X2381867Y183987D02*
X2388532D01*
X2385199D01*
Y173990D01*
X2391864Y183987D02*
Y173990D01*
Y178988D01*
X2398528D01*
Y183987D01*
Y173990D01*
X2408525Y183987D02*
X2401861D01*
Y173990D01*
X2408525D01*
X2401861Y178988D02*
X2405193D01*
X2428519Y182321D02*
X2426853Y183987D01*
X2423520D01*
X2421854Y182321D01*
Y180655D01*
X2423520Y178988D01*
X2426853D01*
X2428519Y177322D01*
Y175656D01*
X2426853Y173990D01*
X2423520D01*
X2421854Y175656D01*
X2431851Y183987D02*
Y173990D01*
X2435183Y177322D01*
X2438515Y173990D01*
Y183987D01*
X2441848D02*
X2445180D01*
X2443514D01*
Y173990D01*
X2441848D01*
X2445180D01*
X2450178Y183987D02*
X2456843D01*
X2453511D01*
Y173990D01*
X2466840Y182321D02*
X2465174Y183987D01*
X2461841D01*
X2460175Y182321D01*
Y175656D01*
X2461841Y173990D01*
X2465174D01*
X2466840Y175656D01*
X2470172Y183987D02*
Y173990D01*
Y178988D01*
X2476837D01*
Y183987D01*
Y173990D01*
X2490166D02*
Y183987D01*
X2495164D01*
X2496830Y182321D01*
Y178988D01*
X2495164Y177322D01*
X2490166D01*
X2505161Y183987D02*
X2501828D01*
X2500162Y182321D01*
Y175656D01*
X2501828Y173990D01*
X2505161D01*
X2506827Y175656D01*
Y182321D01*
X2505161Y183987D01*
X2516824Y182321D02*
X2515157Y183987D01*
X2511825D01*
X2510159Y182321D01*
Y180655D01*
X2511825Y178988D01*
X2515157D01*
X2516824Y177322D01*
Y175656D01*
X2515157Y173990D01*
X2511825D01*
X2510159Y175656D01*
X2520156Y183987D02*
X2523488D01*
X2521822D01*
Y173990D01*
X2520156D01*
X2523488D01*
X2528486Y183987D02*
X2535151D01*
X2531819D01*
Y173990D01*
X2538483Y183987D02*
X2541816D01*
X2540150D01*
Y173990D01*
X2538483D01*
X2541816D01*
X2551812Y183987D02*
X2548480D01*
X2546814Y182321D01*
Y175656D01*
X2548480Y173990D01*
X2551812D01*
X2553479Y175656D01*
Y182321D01*
X2551812Y183987D01*
X2556811Y173990D02*
Y183987D01*
X2563475Y173990D01*
Y183987D01*
X2631443Y862327D02*
Y849632D01*
X2633983Y847093D01*
X2639061D01*
X2641600Y849632D01*
Y862327D01*
X2646678Y847093D02*
X2651757D01*
X2649218D01*
Y862327D01*
X2646678Y859788D01*
X2693203Y600877D02*
Y588182D01*
X2695742Y585643D01*
X2700821D01*
X2703360Y588182D01*
Y600877D01*
X2708438Y585643D02*
X2713517D01*
X2710977D01*
Y600877D01*
X2708438Y598338D01*
X2893068Y497843D02*
X2877832D01*
Y505461D01*
X2880372Y508000D01*
X2885450D01*
X2887989Y505461D01*
Y497843D01*
Y502922D02*
X2893068Y508000D01*
Y513078D02*
Y518157D01*
Y515618D01*
X2877832D01*
X2880372Y513078D01*
X2673353Y673098D02*
Y657862D01*
X2683510D01*
X2688588D02*
X2693667D01*
X2691128D01*
Y673098D01*
X2688588Y670558D01*
X2806086Y314958D02*
X2811165D01*
X2808625D01*
Y299722D01*
X2806086D01*
X2811165D01*
X2828939Y312418D02*
X2826400Y314958D01*
X2821321D01*
X2818782Y312418D01*
Y302262D01*
X2821321Y299722D01*
X2826400D01*
X2828939Y302262D01*
X2844174Y299722D02*
X2834017D01*
X2844174Y309879D01*
Y312418D01*
X2841635Y314958D01*
X2836556D01*
X2834017Y312418D01*
X3095879Y522663D02*
X3100957D01*
X3098418D01*
Y507428D01*
X3095879D01*
X3100957D01*
X3118731Y520124D02*
X3116192Y522663D01*
X3111114D01*
X3108575Y520124D01*
Y509967D01*
X3111114Y507428D01*
X3116192D01*
X3118731Y509967D01*
X3123810Y507428D02*
X3128888D01*
X3126349D01*
Y522663D01*
X3123810Y520124D01*
X2570484Y632458D02*
Y617223D01*
X2578102D01*
X2580641Y619762D01*
Y629918D01*
X2578102Y632458D01*
X2570484D01*
X2595876Y617223D02*
X2585719D01*
X2595876Y627379D01*
Y629918D01*
X2593337Y632458D01*
X2588258D01*
X2585719Y629918D01*
X2837781Y822958D02*
X2835242Y825498D01*
X2830163D01*
X2827624Y822958D01*
Y812802D01*
X2830163Y810263D01*
X2835242D01*
X2837781Y812802D01*
X2850477Y810263D02*
Y825498D01*
X2842859Y817880D01*
X2853016D01*
X2522221Y668018D02*
X2519682Y670557D01*
X2514603D01*
X2512064Y668018D01*
Y657862D01*
X2514603Y655322D01*
X2519682D01*
X2522221Y657862D01*
X2527299Y668018D02*
X2529838Y670557D01*
X2534917D01*
X2537456Y668018D01*
Y665479D01*
X2534917Y662940D01*
X2532377D01*
X2534917D01*
X2537456Y660401D01*
Y657862D01*
X2534917Y655322D01*
X2529838D01*
X2527299Y657862D01*
X2985768Y414019D02*
X2988307Y416558D01*
Y421637D01*
X2985768Y424176D01*
X2975612D01*
X2973073Y421637D01*
Y416558D01*
X2975612Y414019D01*
X2973073Y398784D02*
Y408941D01*
X2983229Y398784D01*
X2985768D01*
X2988307Y401323D01*
Y406402D01*
X2985768Y408941D01*
X2985608Y458470D02*
X2988148Y461009D01*
Y466087D01*
X2985608Y468627D01*
X2975452D01*
X2972912Y466087D01*
Y461009D01*
X2975452Y458470D01*
X2972912Y453392D02*
Y448313D01*
Y450852D01*
X2988148D01*
X2985608Y453392D01*
X2877952Y533019D02*
X2893187D01*
Y540636D01*
X2890648Y543176D01*
X2880491D01*
X2877952Y540636D01*
Y533019D01*
X2893187Y548254D02*
Y553332D01*
Y550793D01*
X2877952D01*
X2880491Y548254D01*
D19*
X2906050Y459868D02*
X2916047D01*
X2911048Y464866D02*
Y454869D01*
D20*
X2413009Y475781D02*
X2409677Y479114D01*
X2403012D01*
X2399680Y475781D01*
Y472449D01*
X2403012Y469117D01*
X2409677D01*
X2413009Y465784D01*
Y462452D01*
X2409677Y459120D01*
X2403012D01*
X2399680Y462452D01*
X2419673Y479114D02*
Y462452D01*
X2423006Y459120D01*
X2429670D01*
X2433003Y462452D01*
Y479114D01*
X2439667Y459120D02*
Y479114D01*
X2449664D01*
X2452996Y475781D01*
Y469117D01*
X2449664Y465784D01*
X2439667D01*
X2459661Y459120D02*
Y479114D01*
X2469657D01*
X2472990Y475781D01*
Y469117D01*
X2469657Y465784D01*
X2459661D01*
X2479654Y479114D02*
Y459120D01*
X2492983D01*
X2499648Y479114D02*
Y475781D01*
X2506312Y469117D01*
X2512977Y475781D01*
Y479114D01*
X2506312Y469117D02*
Y459120D01*
X2399680Y495950D02*
Y520942D01*
X2412176D01*
X2416341Y516777D01*
Y508446D01*
X2412176Y504281D01*
X2399680D01*
X2437168Y520942D02*
X2428837D01*
X2424672Y516777D01*
Y500115D01*
X2428837Y495950D01*
X2437168D01*
X2441333Y500115D01*
Y516777D01*
X2437168Y520942D01*
X2449664D02*
Y495950D01*
X2457995Y504281D01*
X2466325Y495950D01*
Y520942D01*
X2491317D02*
X2474656D01*
Y495950D01*
X2491317D01*
X2474656Y508446D02*
X2482986D01*
X2499648Y495950D02*
Y520942D01*
X2512144D01*
X2516309Y516777D01*
Y508446D01*
X2512144Y504281D01*
X2499648D01*
X2507978D02*
X2516309Y495950D01*
X2384591Y564122D02*
X2367930D01*
Y539130D01*
X2384591D01*
X2367930Y551626D02*
X2376261D01*
X2392922Y564122D02*
X2409583Y539130D01*
Y564122D02*
X2392922Y539130D01*
X2417914Y564122D02*
X2434575D01*
X2426245D01*
Y539130D01*
X2459567Y564122D02*
X2442906D01*
Y539130D01*
X2459567D01*
X2442906Y551626D02*
X2451236D01*
X2467898Y539130D02*
Y564122D01*
X2480394D01*
X2484559Y559957D01*
Y551626D01*
X2480394Y547461D01*
X2467898D01*
X2476228D02*
X2484559Y539130D01*
X2492890D02*
Y564122D01*
X2509551Y539130D01*
Y564122D01*
X2517881Y539130D02*
Y555791D01*
X2526212Y564122D01*
X2534543Y555791D01*
Y539130D01*
Y551626D01*
X2517881D01*
X2542874Y564122D02*
Y539130D01*
X2559535D01*
D21*
X2593310Y797085D02*
D03*
M02*
