M48
;Layer_Color=9474304
;FILE_FORMAT=4:4
METRIC,LZ
;TYPE=PLATED
T1F00S00C0.5000
T2F00S00C0.8000
T3F00S00C0.9000
T4F00S00C0.9200
T5F00S00C1.0500
T6F00S00C1.1000
T7F00S00C1.2000
T8F00S00C1.5500
T9F00S00C3.0000
%
T01
X0304292Y0020955
X026289Y0031369
X029972Y0042164
X02885105Y00577647
T02
X0293513Y0045974
X0295513
T03
X0275844Y0
X0273304
X0270764
X0268224
X0256794Y0021844
Y0024384
X0252857Y0070033
Y0073533
T04
X0274925Y0005305
X0276925
X0278925
X0280925
X0282925
X0284925
X0286925
X0288925
X0290925
X0272925
Y0027305
X0274925
X0276925
X0278925
X0280925
X0282925
X0284925
X0286925
X0288925
X0290925
T05
X0280857Y0071247
X0288357
T06
X026076Y008128
X026246
X026416
X026586
X026756
T07
X0266352Y005207
X0271352Y005577
X0276352Y005207
T08
X0261366Y0062583
Y0076073
T09
X0300618Y0006223
X0245618
X0300618Y0076223
X0245618
M30
